<svg width="106" height="22" viewBox="0 0 106 22" fill="none" xmlns="http://www.w3.org/2000/svg">
<g clip-path="url(#clip0_792_1008)">
<path d="M7.7749 10.8321C9.31901 8.12983 8.43774 4.98857 8.41891 4.92052C8.16092 3.96416 8.26261 2.91366 8.7927 1.9862C9.86981 0.103304 12.2849 -0.55664 14.1849 0.50971C16.0679 1.60589 16.6988 4.00611 15.5896 5.87129C15.0436 6.79036 14.1745 7.40184 13.2104 7.6591C13.1417 7.67775 9.95267 8.49242 8.36147 11.1667C6.81735 13.8689 7.69863 17.0102 7.71746 17.0782C7.97544 18.0346 7.87376 19.0851 7.34367 20.0125C6.26655 21.8954 3.85152 22.5554 1.9515 21.489C0.0684236 20.3929 -0.562406 17.9926 0.546724 16.1275C1.09281 15.2084 1.96185 14.5969 2.92599 14.3396C2.99472 14.321 6.1837 13.5063 7.7749 10.8321Z" fill="white"/>
<path d="M12.2343 17.7784C15.3696 17.7514 17.6773 15.4248 17.7272 15.3754C18.4343 14.6763 19.4041 14.2382 20.4812 14.2289C22.6675 14.2112 24.4517 15.9515 24.4686 18.114C24.4517 20.2765 22.6665 22.0177 20.4812 21.9991C19.4041 21.9898 18.4343 21.5517 17.7272 20.8526C17.6764 20.8032 15.3696 18.4766 12.2343 18.4496C9.099 18.4766 6.7913 20.8032 6.7414 20.8526C6.0343 21.5517 5.06452 21.9898 3.9874 21.9991C1.8021 22.0177 0.0169476 20.2765 0 18.114C0.0169476 15.9515 1.8021 14.2103 3.9874 14.2289C5.06452 14.2382 6.0343 14.6763 6.7414 15.3754C6.79224 15.4248 9.099 17.7514 12.2343 17.7784Z" fill="white"/>
<path d="M34.7382 10.6662L33.5311 13.3797H32.2148L37.0769 2.64905H38.3621L43.2082 13.3797H41.8618L40.6538 10.6662H34.7391H34.7382ZM37.6795 4.04444L35.2635 9.48618H40.1256L37.6795 4.04444Z" fill="white"/>
<path d="M52.4519 12.2146V13.3797H46.46V2.65002H47.699V12.2155H52.4528L52.4519 12.2146Z" fill="white"/>
<path d="M59.8545 13.3797H58.6315V9.74624L54.4351 2.64905H55.7203L59.235 8.24366L62.7036 2.64905H63.9728L59.8545 9.70057V13.3797Z" fill="white"/>
<path d="M73.8992 3.59987L73.3728 4.74918C72.3974 4.10508 71.2516 3.84502 70.3844 3.84502C68.9909 3.84502 68.0776 4.36607 68.0776 5.27023C68.0776 8.02932 74.1778 6.58826 74.1628 10.4817C74.1628 12.2751 72.5678 13.4245 70.2451 13.4245C68.6661 13.4245 67.1173 12.7496 66.0957 11.7839L66.6531 10.6803C67.6596 11.646 69.038 12.1978 70.2611 12.1978C71.8249 12.1978 72.8004 11.5695 72.8004 10.5423C72.8154 7.72172 66.7152 9.22431 66.7152 5.3765C66.7152 3.69028 68.217 2.60156 70.4625 2.60156C71.7167 2.60156 73.0019 3.00051 73.9001 3.598L73.8992 3.59987Z" fill="white"/>
<path d="M78.251 13.3797V2.65002H79.49V13.3806H78.251V13.3797Z" fill="white"/>
<path d="M85.2665 10.6662L84.0594 13.3797H82.7432L87.6053 2.64905H88.8905L93.7365 13.3797H92.3901L91.1822 10.6662H85.2674H85.2665ZM88.2078 4.04444L85.7919 9.48618H90.654L88.2078 4.04444Z" fill="white"/>
<path d="M104.73 13.3797L98.2269 4.76501V13.3797H96.9878V2.65002H98.273L104.776 11.2806V2.65002H105.999V13.3806H104.73V13.3797Z" fill="white"/>
<path d="M32.2139 17.2816C32.2139 17.2518 32.2374 17.2257 32.2675 17.2257H32.9539C33.5301 17.2257 34.0018 17.6899 34.0018 18.2576C34.0018 18.8252 33.5301 19.295 32.9539 19.295H32.2675C32.2374 19.295 32.2139 19.268 32.2139 19.2391V17.2826V17.2816ZM32.9125 19.0135C33.3512 19.0135 33.6704 18.6947 33.6704 18.2566C33.6704 17.8185 33.3512 17.5063 32.9125 17.5063H32.518V19.0135H32.9125Z" fill="white"/>
<path d="M35.1431 17.2816C35.1431 17.2518 35.1704 17.2257 35.1996 17.2257H35.3963C35.4265 17.2257 35.4528 17.2527 35.4528 17.2816V19.2382C35.4528 19.268 35.4255 19.2941 35.3963 19.2941H35.1996C35.1694 19.2941 35.1431 19.2671 35.1431 19.2382V17.2816Z" fill="white"/>
<path d="M37.6656 17.1959C37.9518 17.1959 38.1882 17.2993 38.3915 17.4709C38.4151 17.4942 38.4188 17.5296 38.3943 17.5538C38.3492 17.6014 38.3049 17.6452 38.2597 17.6927C38.2362 17.7197 38.2117 17.716 38.1825 17.6899C38.0422 17.5687 37.8567 17.4886 37.675 17.4886C37.2513 17.4886 36.9256 17.8437 36.9256 18.2566C36.9256 18.6696 37.2513 19.0219 37.675 19.0219C37.9226 19.0219 38.0931 18.9334 38.1232 18.9212V18.5903H37.8304C37.7974 18.5903 37.7739 18.567 37.7739 18.5372V18.3657C37.7739 18.3331 37.7974 18.3098 37.8304 18.3098H38.3736C38.4038 18.3098 38.4273 18.3368 38.4273 18.3657C38.4273 18.6025 38.4301 18.8448 38.4301 19.0806C38.4301 19.0955 38.4179 19.1189 38.4066 19.1282C38.4066 19.1282 38.0987 19.323 37.6665 19.323C37.0724 19.323 36.5913 18.8532 36.5913 18.2622C36.5913 17.6713 37.0724 17.1949 37.6665 17.1949L37.6656 17.1959Z" fill="white"/>
<path d="M39.6099 17.2816C39.6099 17.2518 39.6372 17.2257 39.6664 17.2257H39.8631C39.8933 17.2257 39.9196 17.2527 39.9196 17.2816V19.2382C39.9196 19.268 39.8923 19.2941 39.8631 19.2941H39.6664C39.6362 19.2941 39.6099 19.2671 39.6099 19.2382V17.2816Z" fill="white"/>
<path d="M41.4964 17.5035H41.0096C40.9767 17.5035 40.9531 17.4764 40.9531 17.4476V17.2816C40.9531 17.2518 40.9767 17.2257 41.0096 17.2257H42.2939C42.3268 17.2257 42.3504 17.2527 42.3504 17.2816V17.4476C42.3504 17.4774 42.3268 17.5035 42.2939 17.5035H41.8071V19.2382C41.8071 19.268 41.7798 19.2941 41.7506 19.2941H41.5538C41.5237 19.2941 41.4973 19.2671 41.4973 19.2382V17.5035H41.4964Z" fill="white"/>
<path d="M42.9889 19.2177L43.906 17.2285C43.9145 17.2108 43.9418 17.1959 43.9568 17.1959H43.9869C44.002 17.1959 44.0284 17.2108 44.0378 17.2285L44.9483 19.2177C44.9661 19.2559 44.9426 19.2941 44.8974 19.2941H44.7091C44.6733 19.2941 44.6526 19.2764 44.6404 19.2494L44.4549 18.8449H43.4785C43.4192 18.9809 43.3561 19.1142 43.2968 19.2494C43.2883 19.2699 43.2638 19.2941 43.2281 19.2941H43.0398C42.9946 19.2941 42.971 19.2559 42.9889 19.2177ZM44.3419 18.5913L43.9747 17.7813H43.9596L43.5953 18.5913H44.3419Z" fill="white"/>
<path d="M45.9565 17.2816C45.9565 17.2518 45.98 17.2257 46.013 17.2257H46.2098C46.2399 17.2257 46.2663 17.2527 46.2663 17.2816V19.02H47.0751C47.108 19.02 47.1315 19.0471 47.1315 19.076V19.2382C47.1315 19.268 47.108 19.2941 47.0751 19.2941H46.0121C45.9791 19.2941 45.9556 19.2671 45.9556 19.2382V17.2816H45.9565Z" fill="white"/>
<path d="M49.5239 17.2816C49.5239 17.2518 49.5475 17.2257 49.5804 17.2257H50.2489C50.6105 17.2257 50.8703 17.4625 50.8703 17.7729C50.8703 18.0003 50.6999 18.1625 50.5596 18.2427C50.7178 18.3079 50.9325 18.4524 50.9325 18.7246C50.9325 19.0555 50.6575 19.295 50.2819 19.295H49.5804C49.5475 19.295 49.5239 19.268 49.5239 19.2391V17.2826V17.2816ZM50.28 19.0228C50.4617 19.0228 50.602 18.884 50.602 18.7003C50.602 18.5167 50.4287 18.3899 50.2348 18.3899H49.8262V19.0228H50.28ZM50.232 18.1243C50.4231 18.1243 50.5398 17.9854 50.5398 17.8083C50.5398 17.6312 50.4231 17.5035 50.232 17.5035H49.829V18.1243H50.232Z" fill="white"/>
<path d="M52.0654 17.2816C52.0654 17.2518 52.0927 17.2257 52.1219 17.2257H52.3215C52.3544 17.2257 52.3779 17.2527 52.3779 17.2816V18.5027C52.3779 18.7982 52.5691 19.0294 52.8732 19.0294C53.1773 19.0294 53.375 18.8019 53.375 18.5092V17.2826C53.375 17.2527 53.3986 17.2266 53.4315 17.2266H53.6311C53.6613 17.2266 53.6876 17.2537 53.6876 17.2826V18.5242C53.6876 18.9734 53.344 19.3249 52.8723 19.3249C52.4005 19.3249 52.0635 18.9734 52.0635 18.5242V17.2826L52.0654 17.2816Z" fill="white"/>
<path d="M54.8181 18.9959C54.8454 18.9576 54.8689 18.9129 54.8953 18.8747C54.9226 18.8365 54.964 18.8243 54.997 18.8514C55.0149 18.8663 55.2446 19.0555 55.4743 19.0555C55.6805 19.0555 55.8114 18.9315 55.8114 18.7805C55.8114 18.6034 55.656 18.4906 55.3604 18.3695C55.0563 18.2427 54.8171 18.0861 54.8171 17.7431C54.8171 17.5128 54.996 17.1959 55.4706 17.1959C55.769 17.1959 55.9931 17.3497 56.0232 17.3702C56.0468 17.3851 56.0713 17.4262 56.0411 17.4709C56.0176 17.5063 55.9903 17.5473 55.9667 17.5837C55.9432 17.6219 55.9037 17.6396 55.8622 17.6135C55.8415 17.6014 55.6325 17.4653 55.4593 17.4653C55.2088 17.4653 55.1222 17.6219 55.1222 17.731C55.1222 17.8997 55.254 18.0031 55.5016 18.1038C55.8481 18.2427 56.1438 18.4049 56.1438 18.7656C56.1438 19.0732 55.866 19.324 55.4781 19.324C55.1137 19.324 54.884 19.1347 54.836 19.09C54.8087 19.0667 54.7879 19.0453 54.8181 18.9959Z" fill="white"/>
<path d="M57.2661 17.2816C57.2661 17.2518 57.2934 17.2257 57.3226 17.2257H57.5194C57.5495 17.2257 57.5759 17.2527 57.5759 17.2816V19.2382C57.5759 19.268 57.5486 19.2941 57.5194 19.2941H57.3226C57.2925 19.2941 57.2661 19.2671 57.2661 19.2382V17.2816Z" fill="white"/>
<path d="M58.8657 17.2491C58.8657 17.2192 58.893 17.1959 58.9222 17.1959H58.9966L60.2921 18.6799H60.295V17.2817C60.295 17.2519 60.3185 17.2258 60.3515 17.2258H60.5426C60.5727 17.2258 60.5991 17.2528 60.5991 17.2817V19.2708C60.5991 19.3007 60.5718 19.324 60.5426 19.324H60.4654L59.1698 17.799H59.167V19.2382C59.167 19.268 59.1435 19.2941 59.1105 19.2941H58.9222C58.8921 19.2941 58.8657 19.2671 58.8657 19.2382V17.2491Z" fill="white"/>
<path d="M61.8911 17.2816C61.8911 17.2518 61.9146 17.2257 61.9476 17.2257H63.1415C63.1744 17.2257 63.198 17.2527 63.198 17.2816V17.4476C63.198 17.4774 63.1744 17.5035 63.1415 17.5035H62.198V18.1066H62.9955C63.0257 18.1066 63.052 18.1336 63.052 18.1625V18.3284C63.052 18.361 63.0247 18.3843 62.9955 18.3843H62.198V19.02H63.1415C63.1744 19.02 63.198 19.0471 63.198 19.076V19.2382C63.198 19.268 63.1744 19.2941 63.1415 19.2941H61.9476C61.9146 19.2941 61.8911 19.2671 61.8911 19.2382V17.2816Z" fill="white"/>
<path d="M64.2253 18.9959C64.2526 18.9576 64.2761 18.9129 64.3025 18.8747C64.3298 18.8365 64.3712 18.8243 64.4042 18.8514C64.4221 18.8663 64.6518 19.0555 64.8815 19.0555C65.0877 19.0555 65.2186 18.9315 65.2186 18.7805C65.2186 18.6034 65.0633 18.4906 64.7676 18.3695C64.4635 18.2427 64.2244 18.0861 64.2244 17.7431C64.2244 17.5128 64.4032 17.1959 64.8778 17.1959C65.1762 17.1959 65.4003 17.3497 65.4305 17.3702C65.454 17.3851 65.4785 17.4262 65.4484 17.4709C65.4248 17.5063 65.3975 17.5473 65.374 17.5837C65.3504 17.6219 65.3109 17.6396 65.2695 17.6135C65.2487 17.6014 65.0397 17.4653 64.8665 17.4653C64.616 17.4653 64.5294 17.6219 64.5294 17.731C64.5294 17.8997 64.6612 18.0031 64.9089 18.1038C65.2553 18.2427 65.551 18.4049 65.551 18.7656C65.551 19.0732 65.2732 19.324 64.8853 19.324C64.5209 19.324 64.2912 19.1347 64.2432 19.09C64.2159 19.0667 64.1952 19.0453 64.2253 18.9959Z" fill="white"/>
<path d="M66.5393 18.9959C66.5666 18.9576 66.5901 18.9129 66.6165 18.8747C66.6438 18.8365 66.6852 18.8243 66.7182 18.8514C66.736 18.8663 66.9658 19.0555 67.1955 19.0555C67.4017 19.0555 67.5326 18.9315 67.5326 18.7805C67.5326 18.6034 67.3772 18.4906 67.0816 18.3695C66.7775 18.2427 66.5383 18.0861 66.5383 17.7431C66.5383 17.5128 66.7172 17.1959 67.1917 17.1959C67.4902 17.1959 67.7143 17.3497 67.7444 17.3702C67.768 17.3851 67.7924 17.4262 67.7623 17.4709C67.7388 17.5063 67.7115 17.5473 67.6879 17.5837C67.6644 17.6219 67.6248 17.6396 67.5834 17.6135C67.5627 17.6014 67.3537 17.4653 67.1804 17.4653C66.93 17.4653 66.8434 17.6219 66.8434 17.731C66.8434 17.8997 66.9752 18.0031 67.2228 18.1038C67.5693 18.2427 67.8649 18.4049 67.8649 18.7656C67.8649 19.0732 67.5872 19.324 67.1993 19.324C66.8349 19.324 66.6052 19.1347 66.5572 19.09C66.5298 19.0667 66.5091 19.0453 66.5393 18.9959Z" fill="white"/>
<path d="M70.6419 17.5035H70.1551C70.1222 17.5035 70.0986 17.4764 70.0986 17.4476V17.2816C70.0986 17.2518 70.1222 17.2257 70.1551 17.2257H71.4394C71.4723 17.2257 71.4959 17.2527 71.4959 17.2816V17.4476C71.4959 17.4774 71.4723 17.5035 71.4394 17.5035H70.9526V19.2382C70.9526 19.268 70.9253 19.2941 70.8961 19.2941H70.6993C70.6692 19.2941 70.6428 19.2671 70.6428 19.2382V17.5035H70.6419Z" fill="white"/>
<path d="M72.5283 17.2816C72.5283 17.2518 72.5519 17.2257 72.5848 17.2257H73.3974C73.7561 17.2257 74.048 17.5063 74.048 17.8586C74.048 18.1308 73.8662 18.3554 73.6064 18.4589L74.015 19.2093C74.0357 19.2475 74.015 19.295 73.9642 19.295H73.7316C73.7081 19.295 73.6902 19.2801 73.6836 19.268L73.2863 18.485H72.8353V19.2391C72.8353 19.2689 72.808 19.295 72.7788 19.295H72.5848C72.5519 19.295 72.5283 19.268 72.5283 19.2391V17.2826V17.2816ZM73.3729 18.2305C73.5668 18.2305 73.7372 18.0683 73.7372 17.8642C73.7372 17.6722 73.5668 17.5128 73.3729 17.5128H72.8419V18.2315H73.3729V18.2305Z" fill="white"/>
<path d="M74.9435 19.2177L75.8606 17.2285C75.869 17.2108 75.8963 17.1959 75.9114 17.1959H75.9415C75.9566 17.1959 75.983 17.2108 75.9924 17.2285L76.9029 19.2177C76.9207 19.2559 76.8972 19.2941 76.852 19.2941H76.6637C76.6279 19.2941 76.6072 19.2764 76.595 19.2494L76.4095 18.8449H75.4331C75.3738 18.9809 75.3107 19.1142 75.2514 19.2494C75.2429 19.2699 75.2184 19.2941 75.1827 19.2941H74.9944C74.9492 19.2941 74.9256 19.2559 74.9435 19.2177ZM76.2965 18.5913L75.9293 17.7813H75.9142L75.5499 18.5913H76.2965Z" fill="white"/>
<path d="M77.9111 17.2491C77.9111 17.2192 77.9384 17.1959 77.9676 17.1959H78.042L79.3376 18.6799H79.3404V17.2817C79.3404 17.2519 79.3639 17.2258 79.3969 17.2258H79.588C79.6181 17.2258 79.6445 17.2528 79.6445 17.2817V19.2708C79.6445 19.3007 79.6172 19.324 79.588 19.324H79.5108L78.2152 17.799H78.2124V19.2382C78.2124 19.268 78.1889 19.2941 78.1559 19.2941H77.9676C77.9375 19.2941 77.9111 19.2671 77.9111 19.2382V17.2491Z" fill="white"/>
<path d="M80.801 18.9959C80.8283 18.9576 80.8518 18.9129 80.8782 18.8747C80.9055 18.8365 80.9469 18.8243 80.9799 18.8514C80.9978 18.8663 81.2275 19.0555 81.4572 19.0555C81.6634 19.0555 81.7943 18.9315 81.7943 18.7805C81.7943 18.6034 81.6389 18.4906 81.3433 18.3695C81.0392 18.2427 80.8 18.0861 80.8 17.7431C80.8 17.5128 80.9789 17.1959 81.4535 17.1959C81.7519 17.1959 81.976 17.3497 82.0061 17.3702C82.0297 17.3851 82.0542 17.4262 82.024 17.4709C82.0005 17.5063 81.9732 17.5473 81.9497 17.5837C81.9261 17.6219 81.8866 17.6396 81.8451 17.6135C81.8244 17.6014 81.6154 17.4653 81.4422 17.4653C81.1917 17.4653 81.1051 17.6219 81.1051 17.731C81.1051 17.8997 81.2369 18.0031 81.4845 18.1038C81.831 18.2427 82.1267 18.4049 82.1267 18.7656C82.1267 19.0732 81.8489 19.324 81.461 19.324C81.0966 19.324 80.8669 19.1347 80.8189 19.09C80.7916 19.0667 80.7709 19.0453 80.801 18.9959Z" fill="white"/>
<path d="M83.25 17.2816C83.25 17.2518 83.2735 17.2257 83.3065 17.2257H84.5004C84.5333 17.2257 84.5569 17.2527 84.5569 17.2816V17.4476C84.5569 17.4774 84.5333 17.5035 84.5004 17.5035H83.5569V18.1858H84.3544C84.3845 18.1858 84.4109 18.2128 84.4109 18.2417V18.4039C84.4109 18.4337 84.3836 18.4598 84.3544 18.4598H83.5569V19.2372C83.5569 19.2671 83.5296 19.2932 83.5004 19.2932H83.3065C83.2735 19.2932 83.25 19.2661 83.25 19.2372V17.2807V17.2816Z" fill="white"/>
<path d="M86.5695 17.1959C87.1664 17.1959 87.6447 17.6722 87.6447 18.2632C87.6447 18.8542 87.1674 19.324 86.5695 19.324C85.9716 19.324 85.498 18.8542 85.498 18.2632C85.498 17.6722 85.9726 17.1959 86.5695 17.1959ZM86.5695 19.0285C86.996 19.0285 87.3453 18.6855 87.3453 18.2632C87.3453 17.841 86.996 17.4914 86.5695 17.4914C86.143 17.4914 85.7965 17.8428 85.7965 18.2632C85.7965 18.6836 86.1458 19.0285 86.5695 19.0285Z" fill="white"/>
<path d="M88.7822 17.2816C88.7822 17.2518 88.8058 17.2257 88.8387 17.2257H89.6513C90.01 17.2257 90.3019 17.5063 90.3019 17.8586C90.3019 18.1308 90.1202 18.3554 89.8603 18.4589L90.2689 19.2093C90.2896 19.2475 90.2689 19.295 90.2181 19.295H89.9855C89.962 19.295 89.9441 19.2801 89.9375 19.268L89.5402 18.485H89.0892V19.2391C89.0892 19.2689 89.0619 19.295 89.0327 19.295H88.8387C88.8058 19.295 88.7822 19.268 88.7822 19.2391V17.2826V17.2816ZM89.6268 18.2305C89.8207 18.2305 89.9912 18.0683 89.9912 17.8642C89.9912 17.6722 89.8207 17.5128 89.6268 17.5128H89.0958V18.2315H89.6268V18.2305Z" fill="white"/>
<path d="M91.7047 17.2407C91.7104 17.2174 91.7349 17.1959 91.7584 17.1959H91.8064C91.8243 17.1959 91.8516 17.2108 91.8572 17.2285L92.4815 18.7386H92.4937L93.1151 17.2285C93.1208 17.2108 93.1453 17.1959 93.166 17.1959H93.214C93.2375 17.1959 93.262 17.2164 93.2677 17.2407L93.6349 19.227C93.6443 19.268 93.6226 19.2951 93.5812 19.2951H93.3872C93.3599 19.2951 93.3364 19.2746 93.3308 19.2541L93.1095 17.9332H93.1001L92.5625 19.2932C92.5568 19.3109 92.5389 19.3258 92.5116 19.3258H92.4579C92.4344 19.3258 92.4128 19.3109 92.4071 19.2932L91.8667 17.9332H91.8544L91.6398 19.2541C91.6369 19.2746 91.6096 19.2951 91.5861 19.2951H91.3921C91.3507 19.2951 91.329 19.268 91.3356 19.227L91.7057 17.2407H91.7047Z" fill="white"/>
<path d="M94.5021 19.2177L95.4192 17.2285C95.4276 17.2108 95.4549 17.1959 95.47 17.1959H95.5001C95.5152 17.1959 95.5416 17.2108 95.551 17.2285L96.4614 19.2177C96.4793 19.2559 96.4558 19.2941 96.4106 19.2941H96.2223C96.1865 19.2941 96.1658 19.2764 96.1536 19.2494L95.9681 18.8449H94.9917C94.9324 18.9809 94.8693 19.1142 94.81 19.2494C94.8015 19.2699 94.777 19.2941 94.7413 19.2941H94.5529C94.5078 19.2941 94.4842 19.2559 94.5021 19.2177ZM95.8551 18.5913L95.4879 17.7813H95.4728L95.1085 18.5913H95.8551Z" fill="white"/>
<path d="M97.6458 17.5035H97.159C97.1261 17.5035 97.1025 17.4764 97.1025 17.4476V17.2816C97.1025 17.2518 97.1261 17.2257 97.159 17.2257H98.4433C98.4763 17.2257 98.4998 17.2527 98.4998 17.2816V17.4476C98.4998 17.4774 98.4763 17.5035 98.4433 17.5035H97.9565V19.2382C97.9565 19.268 97.9292 19.2941 97.9 19.2941H97.7032C97.6731 19.2941 97.6467 19.2671 97.6467 19.2382V17.5035H97.6458Z" fill="white"/>
<path d="M99.5327 17.2816C99.5327 17.2518 99.56 17.2257 99.5892 17.2257H99.786C99.8161 17.2257 99.8425 17.2527 99.8425 17.2816V19.2382C99.8425 19.268 99.8152 19.2941 99.786 19.2941H99.5892C99.5591 19.2941 99.5327 19.2671 99.5327 19.2382V17.2816Z" fill="white"/>
<path d="M102.053 17.1959C102.65 17.1959 103.129 17.6722 103.129 18.2632C103.129 18.8542 102.651 19.324 102.053 19.324C101.456 19.324 100.982 18.8542 100.982 18.2632C100.982 17.6722 101.456 17.1959 102.053 17.1959ZM102.053 19.0285C102.48 19.0285 102.829 18.6855 102.829 18.2632C102.829 17.841 102.48 17.4914 102.053 17.4914C101.627 17.4914 101.28 17.8428 101.28 18.2632C101.28 18.6836 101.63 19.0285 102.053 19.0285Z" fill="white"/>
<path d="M104.265 17.2491C104.265 17.2192 104.292 17.1959 104.322 17.1959H104.396L105.692 18.6799H105.694V17.2817C105.694 17.2519 105.718 17.2258 105.751 17.2258H105.942C105.972 17.2258 105.999 17.2528 105.999 17.2817V19.2708C105.999 19.3007 105.971 19.324 105.942 19.324H105.865L104.569 17.799H104.566V19.2382C104.566 19.268 104.543 19.2941 104.51 19.2941H104.322C104.291 19.2941 104.265 19.2671 104.265 19.2382V17.2491Z" fill="white"/>
</g>
<defs>
<clipPath id="clip0_792_1008">
<rect width="106" height="22" fill="white"/>
</clipPath>
</defs>
</svg>
