<svg width="116" height="34" viewBox="0 0 116 34" fill="none" xmlns="http://www.w3.org/2000/svg">
<g clip-path="url(#clip0_1906_744)">
<mask id="mask0_1906_744" style="mask-type:luminance" maskUnits="userSpaceOnUse" x="-13" y="0" width="22" height="29">
<path d="M-0.765993 25.2499C-2.49946 28.2274 -6.34895 29.2436 -9.36159 27.5303C-12.3742 25.817 -13.4024 22.0124 -11.6689 19.0348L-2.88202 4.00529C-1.14855 1.02774 2.70094 0.0115945 5.71358 1.72487C8.72622 3.43814 9.75434 7.24278 8.02088 10.2203L-0.765993 25.2499Z" fill="white"/>
</mask>
<g mask="url(#mask0_1906_744)">
<path d="M9.75436 0H-13.4023V29.2438H9.75436V0Z" fill="url(#paint0_linear_1906_744)"/>
</g>
<path d="M108.825 12.6436C110.068 12.6436 111.096 13.069 111.909 13.9079C112.698 14.735 113.105 15.8102 113.105 17.0981C113.105 18.386 112.698 19.4494 111.909 20.2883C111.096 21.1154 110.068 21.5526 108.825 21.5526C107.581 21.5526 106.577 21.1272 105.788 20.2883C104.975 19.4612 104.569 18.4096 104.569 17.0981C104.569 15.7866 104.975 14.7468 105.788 13.9079C106.577 13.0808 107.605 12.6436 108.825 12.6436ZM103.756 12.1828C102.405 13.4707 101.723 15.1012 101.723 17.0863C101.723 19.0713 102.405 20.7019 103.756 21.9898C105.083 23.2777 106.792 23.9157 108.849 23.9157C110.905 23.9157 112.614 23.2777 113.941 21.9898C115.268 20.7019 115.95 19.0713 115.95 17.0863C115.95 15.1012 115.268 13.4707 113.941 12.1828C112.614 10.8949 110.905 10.2568 108.849 10.2568C106.792 10.2568 105.083 10.8949 103.756 12.1828ZM96.3557 23.6676H99.1173V10.4931H96.3557V23.6676ZM99.4999 6.9248C99.4999 5.95592 98.7945 5.31787 97.7425 5.31787C96.6905 5.31787 95.9851 5.95592 95.9851 6.9248C95.9851 7.89369 96.6905 8.53173 97.7425 8.53173C98.7467 8.53173 99.4999 7.85824 99.4999 6.9248ZM85.8952 21.5172C84.6758 21.5172 83.6476 21.0918 82.8586 20.2529C82.0457 19.4258 81.6392 18.3742 81.6392 17.0626C81.6392 15.7511 82.0457 14.7113 82.8586 13.8724C83.6476 13.0453 84.6758 12.6081 85.8952 12.6081C87.1146 12.6081 88.1666 13.0335 88.9795 13.8724C89.7686 14.6995 90.175 15.7747 90.175 17.0626C90.175 18.3506 89.7686 19.414 88.9795 20.2529C88.1666 21.08 87.1385 21.5172 85.8952 21.5172ZM90.175 12.3836C88.9317 10.9658 87.3059 10.245 85.3213 10.245C83.4564 10.245 81.8783 10.8831 80.6589 12.171C79.4156 13.4589 78.7939 15.0894 78.7939 17.0745C78.7939 19.0595 79.4156 20.6901 80.6589 21.978C81.8783 23.2659 83.4444 23.9039 85.3213 23.9039C87.2939 23.9039 88.9198 23.1832 90.175 21.7653V23.6676H92.9366V5.32969H90.175V12.3955V12.3836ZM71.0471 10.245C69.1463 10.245 67.7356 10.9894 66.851 12.4664V10.4813H64.0894V23.6558H66.851V15.9402C66.851 13.8252 68.178 12.4309 70.2342 12.4309C72.2905 12.4309 73.5457 13.8252 73.5457 15.9402V23.6558H76.3312V15.5621C76.3312 13.9788 75.8411 12.6908 74.8369 11.7101C73.8326 10.7176 72.5893 10.2332 71.0471 10.2332V10.245ZM57.2512 13.3998C58.0641 14.0142 58.5782 14.8177 58.8173 15.8102H50.0662C50.3053 14.8177 50.8194 14.0142 51.6084 13.3998C52.3975 12.7854 53.318 12.49 54.3939 12.49C55.4699 12.49 56.4263 12.7854 57.2392 13.3998H57.2512ZM61.4832 17.0981C61.4593 15.0894 60.8018 13.4589 59.4748 12.171C58.1478 10.8831 56.4382 10.245 54.382 10.245C52.3257 10.245 50.6162 10.8831 49.2892 12.171C47.9383 13.4589 47.2568 15.0894 47.2568 17.0745C47.2568 19.0595 47.9383 20.6901 49.2892 21.978C50.6162 23.2659 52.3257 23.9039 54.382 23.9039C56.0318 23.9039 57.5022 23.4195 58.7694 22.486C60.0486 21.5526 60.8855 20.371 61.2561 18.8941H58.4347C57.9206 20.501 56.2709 21.6471 54.3939 21.6471C52.1225 21.6471 50.3293 20.1465 49.9826 17.9252H61.3876C61.4473 17.6534 61.4712 17.3935 61.4712 17.0981H61.4832ZM39.7252 10.245C36.605 10.245 34.5009 11.8283 34.5009 14.2033C34.5009 15.3848 35.0748 16.3419 35.7203 16.85C36.0431 17.1217 36.4735 17.358 37.0234 17.5471C38.0755 17.9488 38.6254 18.0552 39.6774 18.1851C40.6816 18.3742 40.9805 18.3978 41.6261 18.6696C42.2716 18.9413 42.5227 19.3903 42.5227 20.0402C42.5227 21.1154 41.4109 21.8598 39.8687 21.8598C38.2189 21.8598 36.9995 21.0327 36.9756 19.7684H34.2618C34.2857 20.9736 34.7998 21.9662 35.8279 22.746C36.8561 23.5258 38.183 23.8921 39.785 23.8921C41.387 23.8921 42.714 23.514 43.7421 22.7696C44.7463 22.0489 45.2604 21.08 45.2604 19.8748C45.2604 18.6696 44.6387 17.7007 44.0171 17.169C43.6943 16.9327 43.228 16.6845 42.6661 16.4719C41.387 16.0111 41.2794 16.0465 40.0122 15.7984C39.1753 15.6684 39.0079 15.6093 38.4102 15.3966C37.5973 15.1249 37.3582 14.7586 37.2506 13.9197C37.2506 12.9272 38.2787 12.23 39.6894 12.23C41.2316 12.23 42.2597 13.0335 42.3434 14.2151H44.9495C44.9495 13.0335 44.4594 12.0764 43.491 11.3202C42.5107 10.5995 41.2674 10.2214 39.7491 10.2214L39.7252 10.245ZM24.3034 21.5172C23.084 21.5172 22.0559 21.0918 21.2668 20.2529C20.4539 19.4258 20.0474 18.3742 20.0474 17.0626C20.0474 15.7511 20.4539 14.7113 21.2668 13.8724C22.0559 13.0453 23.084 12.6081 24.3034 12.6081C25.5228 12.6081 26.5748 13.0335 27.3877 13.8724C28.1768 14.6995 28.5832 15.7747 28.5832 17.0626C28.5832 18.3506 28.1768 19.414 27.3877 20.2529C26.5748 21.08 25.5467 21.5172 24.3034 21.5172ZM28.5832 12.3836C27.3399 10.9658 25.7141 10.245 23.7295 10.245C21.8646 10.245 20.2865 10.8831 19.0671 12.171C17.8238 13.4589 17.2021 15.0894 17.2021 17.0745C17.2021 19.0595 17.8238 20.6901 19.0671 21.978C20.2865 23.2659 21.8526 23.9039 23.7295 23.9039C25.7021 23.9039 27.328 23.1832 28.5832 21.7653V23.6676H31.3448V10.4931H28.5832V12.3955V12.3836Z" fill="white"/>
<path fill-rule="evenodd" clip-rule="evenodd" d="M-20.4438 10.2083C-22.1773 7.23076 -21.1491 3.42612 -18.1365 1.71284C-15.1358 -0.000429392 -11.2863 1.01572 -9.5409 3.99327C-8.40518 5.95467 -8.47691 8.28235 -9.5409 10.1256L-9.61263 10.2556C-10.2462 11.449 -10.1626 12.7841 -9.58872 13.8594C-8.93119 14.8873 -7.80743 15.6317 -6.44457 15.679H-6.28916C-4.14922 15.7026 -2.08102 16.8015 -0.921391 18.7629L-0.765976 19.0228C0.967489 22.0003 -0.0606346 25.805 -3.07328 27.5183C-6.08592 29.2315 -9.93541 28.2154 -11.6689 25.2378L-11.8243 24.9779C-12.96 23.0165 -12.8883 20.6888 -11.8243 18.8456L-11.7526 18.7156C-11.1189 17.5222 -11.2026 16.187 -11.7765 15.1118C-12.434 14.0839 -13.5578 13.3395 -14.9206 13.2922H-15.076C-17.216 13.2686 -19.2842 12.1697 -20.4438 10.2083Z" fill="url(#paint1_linear_1906_744)"/>
</g>
<g opacity="0.8">
<path d="M55.8114 27.4735C56.13 27.4735 56.4116 27.5359 56.6564 27.6605C56.9011 27.7806 57.0881 27.9537 57.2174 28.18C57.3513 28.4016 57.4182 28.6625 57.4182 28.9627C57.4182 29.2628 57.3513 29.526 57.2174 29.7522C57.0835 29.9785 56.8942 30.154 56.6494 30.2786C56.4093 30.3987 56.13 30.4587 55.8114 30.4587H54.5508V32.3218H53.9482V27.4735H55.8114ZM54.5508 29.9046H55.756C56.0746 29.9046 56.3285 29.8192 56.5178 29.6483C56.7072 29.4775 56.8018 29.2489 56.8018 28.9627C56.8018 28.6764 56.7072 28.4501 56.5178 28.2839C56.3331 28.113 56.0815 28.0276 55.7629 28.0276H54.5508V29.9046Z" fill="white"/>
<path d="M59.4226 32.3634C59.0809 32.3634 58.7761 32.2872 58.5083 32.1348C58.2451 31.9825 58.0396 31.7701 57.8919 31.4976C57.7441 31.2252 57.6702 30.9112 57.6702 30.5557C57.6702 30.2001 57.7441 29.8861 57.8919 29.6137C58.0396 29.3413 58.2451 29.1289 58.5083 28.9765C58.7761 28.8241 59.0809 28.7479 59.4226 28.7479C59.7642 28.7479 60.0667 28.8241 60.3299 28.9765C60.5977 29.1289 60.8055 29.3413 60.9532 29.6137C61.101 29.8861 61.1749 30.2001 61.1749 30.5557C61.1749 30.9112 61.101 31.2252 60.9532 31.4976C60.8055 31.7701 60.5977 31.9825 60.3299 32.1348C60.0667 32.2872 59.7642 32.3634 59.4226 32.3634ZM59.4226 31.8578C59.6534 31.8578 59.8566 31.8024 60.0321 31.6916C60.2121 31.5807 60.3507 31.4261 60.4476 31.2275C60.5446 31.029 60.5931 30.805 60.5931 30.5557C60.5931 30.3063 60.5446 30.0824 60.4476 29.8838C60.3507 29.6853 60.2121 29.5306 60.0321 29.4198C59.8566 29.309 59.6534 29.2536 59.4226 29.2536C59.1917 29.2536 58.9862 29.309 58.8061 29.4198C58.6307 29.5306 58.4945 29.6853 58.3975 29.8838C58.3005 30.0824 58.252 30.3063 58.252 30.5557C58.252 30.805 58.3005 31.029 58.3975 31.2275C58.4945 31.4261 58.6307 31.5807 58.8061 31.6916C58.9862 31.8024 59.1917 31.8578 59.4226 31.8578Z" fill="white"/>
<path d="M61.3922 28.7895H61.9879L62.8675 31.6639L63.7956 28.7895H64.322L65.2016 31.6639L66.1228 28.7895H66.6977L65.5202 32.3218H64.8969L64.045 29.6968L63.1584 32.3218L62.5351 32.3288L61.3922 28.7895Z" fill="white"/>
<path d="M66.9164 30.5557C66.9164 30.1955 66.9857 29.8792 67.1242 29.6068C67.2673 29.3344 67.4659 29.1243 67.7198 28.9765C67.9738 28.8241 68.2647 28.7479 68.5925 28.7479C68.9157 28.7479 69.202 28.8149 69.4514 28.9488C69.7007 29.0827 69.8969 29.2766 70.0401 29.5306C70.1832 29.7846 70.2594 30.0824 70.2687 30.4241C70.2687 30.4749 70.264 30.5557 70.2548 30.6665H67.512V30.715C67.5213 31.0613 67.6275 31.3383 67.8306 31.5461C68.0338 31.7539 68.2993 31.8578 68.6272 31.8578C68.8811 31.8578 69.0958 31.7955 69.2713 31.6708C69.4514 31.5415 69.5714 31.3637 69.6314 31.1375H70.2063C70.1371 31.4976 69.9639 31.7931 69.6869 32.024C69.4098 32.2503 69.0704 32.3634 68.6687 32.3634C68.3178 32.3634 68.0107 32.2895 67.7475 32.1418C67.4843 31.9894 67.2789 31.777 67.1311 31.5046C66.988 31.2275 66.9164 30.9112 66.9164 30.5557ZM69.6799 30.1955C69.6522 29.8954 69.5391 29.6622 69.3405 29.496C69.1466 29.3297 68.8996 29.2466 68.5994 29.2466C68.3316 29.2466 68.0961 29.3344 67.893 29.5098C67.6898 29.6853 67.5744 29.9138 67.5467 30.1955H69.6799Z" fill="white"/>
<path d="M72.7106 28.7895V29.3436H72.4266C72.0896 29.3436 71.8471 29.4567 71.6994 29.683C71.5562 29.9092 71.4847 30.1886 71.4847 30.521V32.3218H70.9167V28.7895H71.4085L71.4847 29.3228C71.5863 29.1612 71.7179 29.0319 71.8795 28.935C72.0411 28.838 72.265 28.7895 72.5513 28.7895H72.7106Z" fill="white"/>
<path d="M72.9024 30.5557C72.9024 30.1955 72.9716 29.8792 73.1102 29.6068C73.2533 29.3344 73.4519 29.1243 73.7058 28.9765C73.9598 28.8241 74.2507 28.7479 74.5785 28.7479C74.9017 28.7479 75.188 28.8149 75.4374 28.9488C75.6867 29.0827 75.8829 29.2766 76.0261 29.5306C76.1692 29.7846 76.2454 30.0824 76.2546 30.4241C76.2546 30.4749 76.25 30.5557 76.2408 30.6665H73.498V30.715C73.5073 31.0613 73.6135 31.3383 73.8166 31.5461C74.0198 31.7539 74.2853 31.8578 74.6131 31.8578C74.8671 31.8578 75.0818 31.7955 75.2573 31.6708C75.4374 31.5415 75.5574 31.3637 75.6174 31.1375H76.1923C76.123 31.4976 75.9499 31.7931 75.6728 32.024C75.3958 32.2503 75.0564 32.3634 74.6547 32.3634C74.3038 32.3634 73.9967 32.2895 73.7335 32.1418C73.4703 31.9894 73.2648 31.777 73.1171 31.5046C72.9739 31.2275 72.9024 30.9112 72.9024 30.5557ZM75.6659 30.1955C75.6382 29.8954 75.5251 29.6622 75.3265 29.496C75.1326 29.3297 74.8856 29.2466 74.5854 29.2466C74.3176 29.2466 74.0821 29.3344 73.879 29.5098C73.6758 29.6853 73.5604 29.9138 73.5327 30.1955H75.6659Z" fill="white"/>
<path d="M80.255 27.4735V32.3218H79.7632L79.687 31.7539C79.3915 32.1602 78.9875 32.3634 78.475 32.3634C78.1471 32.3634 77.8539 32.2918 77.5953 32.1487C77.3414 32.0055 77.1405 31.7978 76.9928 31.5253C76.8496 31.2529 76.778 30.9297 76.778 30.5557C76.778 30.2001 76.8496 29.8861 76.9928 29.6137C77.1405 29.3413 77.3437 29.1289 77.6023 28.9765C77.8608 28.8241 78.1517 28.7479 78.475 28.7479C78.7612 28.7479 79.006 28.801 79.2091 28.9072C79.4123 29.0088 79.5716 29.1497 79.687 29.3297V27.4735H80.255ZM78.5304 31.8578C78.7566 31.8578 78.9575 31.8047 79.1329 31.6985C79.313 31.5877 79.4515 31.4353 79.5485 31.2414C79.6455 31.0428 79.694 30.8189 79.694 30.5695C79.694 30.3156 79.6455 30.0893 79.5485 29.8908C79.4515 29.6876 79.313 29.5306 79.1329 29.4198C78.9575 29.309 78.7566 29.2536 78.5304 29.2536C78.1794 29.2536 77.8955 29.3759 77.6785 29.6206C77.466 29.8607 77.3598 30.1724 77.3598 30.5557C77.3598 30.9389 77.466 31.2529 77.6785 31.4976C77.8955 31.7377 78.1794 31.8578 78.5304 31.8578Z" fill="white"/>
<path d="M84.6214 28.7479C84.9492 28.7479 85.2401 28.8195 85.4941 28.9627C85.7527 29.1058 85.9535 29.3136 86.0967 29.586C86.2444 29.8584 86.3183 30.1817 86.3183 30.5557C86.3183 30.9112 86.2444 31.2252 86.0967 31.4976C85.9535 31.7701 85.7527 31.9825 85.4941 32.1348C85.2355 32.2872 84.9446 32.3634 84.6214 32.3634C84.3351 32.3634 84.0904 32.3126 83.8872 32.211C83.684 32.1048 83.5247 31.9617 83.4093 31.7816L83.3331 32.3218H82.8414V27.4735H83.4093V29.3574C83.7048 28.9511 84.1088 28.7479 84.6214 28.7479ZM84.566 31.8578C84.9169 31.8578 85.1986 31.7377 85.411 31.4976C85.628 31.2529 85.7365 30.9389 85.7365 30.5557C85.7365 30.1724 85.628 29.8607 85.411 29.6206C85.1986 29.3759 84.9169 29.2536 84.566 29.2536C84.3397 29.2536 84.1366 29.309 83.9565 29.4198C83.781 29.526 83.6448 29.6784 83.5478 29.8769C83.4509 30.0708 83.4024 30.2925 83.4024 30.5418C83.4024 30.7958 83.4509 31.0243 83.5478 31.2275C83.6448 31.4261 83.781 31.5807 83.9565 31.6916C84.1366 31.8024 84.3397 31.8578 84.566 31.8578Z" fill="white"/>
<path d="M87.0814 28.7895L88.1688 31.6708L89.2215 28.7895H89.8241L88.1965 32.9175C88.1134 33.1299 88.0395 33.2892 87.9748 33.3954C87.9102 33.5016 87.8294 33.5801 87.7324 33.6309C87.6355 33.6817 87.5062 33.7071 87.3446 33.7071H86.6658V33.1876H87.1714C87.2822 33.1876 87.3653 33.1761 87.4207 33.153C87.4762 33.1299 87.52 33.0906 87.5523 33.0352C87.5893 32.9844 87.6331 32.8967 87.6839 32.772L87.864 32.3495L86.4788 28.7895H87.0814Z" fill="white"/>
<path d="M92.5591 30.7358C92.5822 31.0636 92.7138 31.3268 92.9539 31.5253C93.194 31.7193 93.4988 31.8162 93.8682 31.8162C94.2006 31.8162 94.4685 31.7447 94.6716 31.6015C94.8794 31.4538 94.9833 31.2506 94.9833 30.992C94.9833 30.8027 94.9256 30.6526 94.8101 30.5418C94.6993 30.431 94.5539 30.3502 94.3738 30.2994C94.1983 30.244 93.9582 30.1909 93.6535 30.1401C93.1686 30.057 92.7831 29.9208 92.4968 29.7315C92.2105 29.5421 92.0674 29.2351 92.0674 28.8103C92.0674 28.5379 92.1366 28.2977 92.2752 28.09C92.4137 27.8776 92.6076 27.7136 92.857 27.5982C93.1109 27.4828 93.3995 27.425 93.7227 27.425C94.0644 27.425 94.3669 27.4874 94.6301 27.6121C94.8933 27.7367 95.101 27.9122 95.2534 28.1384C95.4058 28.3601 95.4912 28.6163 95.5097 28.9072H94.914C94.8771 28.6256 94.7501 28.3993 94.5331 28.2285C94.3161 28.0576 94.046 27.9722 93.7227 27.9722C93.3995 27.9722 93.1432 28.0438 92.9539 28.1869C92.7646 28.3254 92.67 28.5217 92.67 28.7756C92.67 28.9603 92.7254 29.1058 92.8362 29.212C92.947 29.3136 93.0901 29.3921 93.2656 29.4475C93.4411 29.4983 93.6812 29.5491 93.9859 29.5999C94.4708 29.683 94.8586 29.8215 95.1495 30.0154C95.4404 30.2047 95.5859 30.5118 95.5859 30.9366C95.5859 31.2137 95.512 31.4607 95.3642 31.6777C95.2211 31.8947 95.0179 32.0633 94.7547 32.1833C94.4962 32.3034 94.1983 32.3634 93.8613 32.3634C93.4826 32.3634 93.1525 32.2964 92.8708 32.1625C92.5892 32.024 92.3698 31.8324 92.2128 31.5877C92.0605 31.3383 91.9773 31.0544 91.9635 30.7358H92.5591Z" fill="white"/>
<path d="M98.2138 27.4735C98.5324 27.4735 98.8141 27.5359 99.0588 27.6605C99.3035 27.7806 99.4905 27.9537 99.6198 28.18C99.7537 28.4016 99.8207 28.6625 99.8207 28.9627C99.8207 29.2628 99.7537 29.526 99.6198 29.7522C99.4859 29.9785 99.2966 30.154 99.0519 30.2786C98.8118 30.3987 98.5324 30.4587 98.2138 30.4587H96.9532V32.3218H96.3507V27.4735H98.2138ZM96.9532 29.9046H98.1584C98.477 29.9046 98.731 29.8192 98.9203 29.6483C99.1096 29.4775 99.2042 29.2489 99.2042 28.9627C99.2042 28.6764 99.1096 28.4501 98.9203 28.2839C98.7356 28.113 98.4839 28.0276 98.1653 28.0276H96.9532V29.9046Z" fill="white"/>
<path d="M100.463 27.4735H103.552V28.0276H101.066V29.5791H103.137V30.1332H101.066V31.7678H103.642V32.3218H100.463V27.4735Z" fill="white"/>
<path d="M104.318 27.4735H107.408V28.0276H104.921V29.5791H106.992V30.1332H104.921V31.7678H107.498V32.3218H104.318V27.4735Z" fill="white"/>
<path d="M108.174 27.4735H111.263V28.0276H108.776V29.5791H110.847V30.1332H108.776V31.7678H111.353V32.3218H108.174V27.4735Z" fill="white"/>
<path d="M113.408 29.8423L111.863 27.4735H112.569L113.795 29.3574L115.035 27.4735H115.686L114.142 29.8423L115.79 32.3218H115.077L113.747 30.3271L112.41 32.3218H111.759L113.408 29.8423Z" fill="white"/>
</g>
<defs>
<linearGradient id="paint0_linear_1906_744" x1="-6.05006" y1="21.9299" x2="5.4483" y2="1.57356" gradientUnits="userSpaceOnUse">
<stop stop-color="#72E58F" stop-opacity="0"/>
<stop offset="1" stop-color="#72E58F"/>
</linearGradient>
<linearGradient id="paint1_linear_1906_744" x1="-20.9956" y1="0.769571" x2="-2.14101" y2="28.4742" gradientUnits="userSpaceOnUse">
<stop stop-color="#EA5461"/>
<stop offset="1" stop-color="#842F37"/>
</linearGradient>
<clipPath id="clip0_1906_744">
<rect width="146.95" height="29.2438" fill="white" transform="translate(-31)"/>
</clipPath>
</defs>
</svg>
