<svg width="152" height="60" viewBox="0 0 152 60" fill="none" xmlns="http://www.w3.org/2000/svg">
<path d="M0.00146484 49.2506H56.2678V49.9993H0.00146484V49.2506ZM14.1514 29.1576C17.8354 29.6312 22.9399 29.2513 28.089 27.5723C34.463 25.4966 39.9919 25.9739 43.3428 26.8873L45.5711 31.02C42.9426 29.7566 36.2017 28.2629 28.089 30.9059C19.9762 33.5487 11.977 32.9741 9.46388 30.9059L28.0332 0L42.3189 25.0305C38.9234 24.2986 33.8525 24.089 28.089 25.9663C24.1425 27.2523 20.2238 27.7763 16.9493 27.737L19.0064 24.3586C21.808 24.2013 24.941 23.6604 28.0908 22.6347C31.1308 21.6446 33.9771 21.2366 36.4884 21.1767L27.9754 6.20475L14.1514 29.1576Z" fill="white"/>
<path d="M50.2476 33.7399C49.1548 33.7399 48.2669 34.6308 48.2669 35.7315C48.2669 36.8301 49.153 37.723 50.2476 37.723C51.3421 37.723 52.2282 36.8321 52.2282 35.7315C52.2282 34.6308 51.3421 33.7399 50.2476 33.7399ZM50.2476 33.2627C51.6028 33.2627 52.703 34.3669 52.703 35.7315C52.703 37.094 51.6047 38.2002 50.2476 38.2002C48.8923 38.2002 47.7921 37.0959 47.7921 35.7315C47.794 34.3669 48.8923 33.2627 50.2476 33.2627ZM49.1902 34.5186H50.2569C50.471 34.5186 50.6347 34.5411 50.7465 34.5841C50.8582 34.6271 50.9475 34.7038 51.0145 34.8143C51.0815 34.9247 51.1151 35.0464 51.1151 35.1792C51.1151 35.3515 51.0593 35.4956 50.9493 35.6135C50.8395 35.7315 50.6682 35.8063 50.4375 35.8381C50.5212 35.8793 50.5864 35.9187 50.6292 35.958C50.7223 36.044 50.8097 36.1507 50.8936 36.2799L51.3106 36.9387H50.9121L50.5938 36.4352C50.5008 36.2892 50.4245 36.1788 50.3649 36.1021C50.3053 36.0254 50.2513 35.971 50.2029 35.9411C50.1545 35.9111 50.1061 35.8887 50.0577 35.8774C50.0223 35.87 49.9628 35.8662 49.8808 35.8662H49.5123V36.9425H49.1902V34.5186ZM50.1917 35.5892C50.3369 35.5892 50.4504 35.5742 50.5324 35.5442C50.6143 35.5144 50.6758 35.4657 50.7186 35.3983C50.7613 35.3309 50.7819 35.2598 50.7819 35.1812C50.7819 35.067 50.7408 34.9715 50.659 34.8985C50.5771 34.8255 50.4467 34.7881 50.268 34.7881H49.5067V35.5892H50.1917ZM10.6778 42.5127C10.6778 44.0157 9.77678 44.6577 8.34522 44.6577C7.82398 44.6577 7.0477 44.5304 6.54135 43.967C6.23232 43.617 6.11505 43.1566 6.0983 42.5838V38.7992H7.30832V42.5033C7.30832 43.297 7.76628 43.6488 8.32102 43.6488C9.13639 43.6488 9.46776 43.2521 9.46776 42.5595V38.7992H10.6778V42.5127ZM15.6072 38.7992H16.8415L14.9129 44.508H13.7829L11.8692 38.8011H13.1425L14.36 43.1248L15.6072 38.7992ZM19.6897 38.7992H22.5603C24.0701 38.7992 24.3474 39.9185 24.3474 40.4127C24.3474 41.0415 24.0309 41.5806 23.4705 41.7715C23.9379 41.9793 24.1892 42.1552 24.1892 43.2184C24.1892 44.0531 24.1892 44.259 24.4423 44.3544V44.5061H23.1299C23.0499 44.2366 23.0033 43.9408 23.0033 43.353C23.0033 42.5744 22.9568 42.2732 22.0781 42.2732H20.8531V44.5061H19.6897V38.7992ZM22.2438 41.311C22.8599 41.311 23.1616 41.0977 23.1616 40.5324C23.1616 40.2292 23.0257 39.7856 22.3313 39.7856H20.8531V41.311H22.2438ZM28.8897 44.508H27.782V41.94C27.782 41.6292 27.7653 41.1052 27.0616 41.1052C26.572 41.1052 26.1922 41.4402 26.1922 42.0841V44.5098H25.0846V38.803H26.1922V40.83C26.3505 40.4801 26.8251 40.1711 27.4264 40.1711C28.2492 40.1711 28.8897 40.6541 28.8897 41.5843V44.508ZM33.5138 43.267C33.2216 44.2833 32.3838 44.6184 31.6634 44.6184C30.4775 44.6184 29.5673 44.0456 29.5673 42.3049C29.5673 41.7976 29.7403 40.1674 31.5834 40.1674C32.4136 40.1674 33.5603 40.5642 33.5603 42.4958V42.6942H30.6749C30.7066 43.0105 30.7699 43.7275 31.6634 43.7275C31.9725 43.7275 32.2871 43.5684 32.3745 43.267H33.5138ZM32.4229 41.9718C32.3597 41.2885 31.9259 41.0827 31.5684 41.0827C31.0473 41.0827 30.7699 41.4177 30.7066 41.9718H32.4229ZM35.3512 40.2759V44.5061H34.2436V40.2759H35.3512ZM35.3512 39.7781H34.2436V38.7449H35.3512V39.7781ZM39.9865 44.508H38.8788V41.94C38.8788 41.6292 38.864 41.1052 38.1603 41.1052C37.6688 41.1052 37.291 41.4402 37.291 42.0841V44.5098H36.1834V40.2798H37.2425V40.9012C37.4082 40.6465 37.7247 40.1711 38.5234 40.1711C39.3462 40.1711 39.9865 40.6541 39.9865 41.5843V44.508ZM41.9952 44.508H40.8894V38.8011H41.9952V44.508ZM46.5188 43.6806C46.5188 44.1823 46.6306 44.2927 46.7645 44.3414V44.508H45.5713C45.508 44.3096 45.4912 44.2459 45.4689 44.0063C45.2158 44.2703 44.8601 44.6202 44.1099 44.6202C43.4769 44.6202 42.8291 44.2627 42.8291 43.3887C42.8291 42.5613 43.3504 42.1403 44.0541 42.0372L45.05 41.8838C45.2232 41.8613 45.4373 41.7883 45.4373 41.5506C45.4373 41.0827 44.996 41.0584 44.7093 41.0584C44.1565 41.0584 44.0615 41.4009 44.0299 41.6461H42.9632C43.0897 40.3509 43.9834 40.1693 44.8452 40.1693C45.4391 40.1693 46.5206 40.3509 46.5206 41.3933V43.6806H46.5188ZM45.4354 42.4491C45.3236 42.5351 45.1432 42.6081 44.6852 42.6792C44.2738 42.7504 43.933 42.8534 43.933 43.3138C43.933 43.7031 44.2347 43.8229 44.4469 43.8229C44.9365 43.8229 45.4354 43.5047 45.4354 42.9881V42.4491ZM51.2249 44.508H50.1173V41.94C50.1173 41.6292 50.1006 41.1052 49.3969 41.1052C48.9073 41.1052 48.5275 41.4402 48.5275 42.0841V44.5098H47.4217V40.2798H48.481V40.9012C48.6466 40.6465 48.963 40.1711 49.7617 40.1711C50.5845 40.1711 51.2249 40.6541 51.2249 41.5843V44.508ZM54.7843 44.508V43.9764C54.4995 44.4537 54.0098 44.6202 53.55 44.6202C52.3008 44.6202 51.7797 43.5084 51.7797 42.3461C51.7797 40.8844 52.6025 40.1693 53.5276 40.1693C54.2388 40.1693 54.5721 40.5568 54.7452 40.8282L54.7619 38.8011H55.8695V44.508H54.7843ZM53.8274 43.705C54.5311 43.705 54.8084 43.1172 54.8084 42.4884C54.8084 41.8127 54.6186 41.1295 53.8591 41.1295C53.1572 41.1295 52.9189 41.7565 52.9189 42.4247C52.9189 42.9264 53.1163 43.705 53.8274 43.705ZM6.67911 37.3449C6.26584 37.3449 5.93075 37.008 5.93075 36.5924C5.93075 36.1769 6.26584 35.84 6.67911 35.84C7.09238 35.84 7.42746 36.1769 7.42746 36.5924C7.42932 37.008 7.09238 37.3449 6.67911 37.3449ZM9.78609 37.3449C9.37281 37.3449 9.03774 37.008 9.03774 36.5924C9.03774 36.1769 9.37281 35.84 9.78609 35.84C10.1994 35.84 10.5344 36.1769 10.5344 36.5924C10.5344 37.008 10.1994 37.3449 9.78609 37.3449ZM3.30405 44.508H2.11824V39.81H0.401855V38.8011H5.01858V39.81H3.3022V44.508H3.30405Z" fill="white" fill-opacity="0.6"/>
<path d="M2.33629 60C2.0012 60 1.69031 59.9382 1.4055 59.8165C1.12067 59.6949 0.873081 59.5246 0.660861 59.3037C0.448641 59.0829 0.284822 58.8283 0.171266 58.5382C0.0558475 58.2481 0 57.9355 0 57.6023C0 57.2691 0.0577091 56.9585 0.171266 56.6664C0.286683 56.3764 0.448641 56.1218 0.660861 55.9047C0.873081 55.6875 1.12067 55.5172 1.4055 55.3919C1.69031 55.2683 1.99933 55.2046 2.33629 55.2046C2.71233 55.2046 3.03624 55.2664 3.3099 55.3919C3.58355 55.5153 3.82555 55.6838 4.03777 55.8971L3.52212 56.4157C3.38622 56.264 3.21868 56.148 3.02321 56.062C2.82775 55.9777 2.59877 55.9347 2.33814 55.9347C2.10918 55.9347 1.89881 55.974 1.70894 56.0544C1.51905 56.1348 1.35523 56.2491 1.21561 56.3969C1.07599 56.5448 0.969884 56.7226 0.89542 56.9266C0.820957 57.1307 0.783726 57.3553 0.783726 57.5986C0.783726 57.8419 0.820957 58.0665 0.89542 58.2706C0.969884 58.4746 1.07786 58.6505 1.21561 58.8002C1.35337 58.95 1.51905 59.0622 1.70894 59.1428C1.89881 59.2232 2.10731 59.2625 2.33814 59.2625C2.62111 59.2625 2.8594 59.2195 3.05672 59.1334C3.25218 59.0473 3.41973 58.9275 3.55562 58.7778L4.07128 59.2962C3.85906 59.5134 3.6096 59.6837 3.32292 59.8091C3.03624 59.9382 2.70674 60 2.33629 60Z" fill="white" fill-opacity="0.6"/>
<path d="M7.79785 59.9343V55.2756H8.55924V59.9343H7.79785ZM8.32096 55.9738V55.2756H10.8825V55.9738H8.32096ZM8.32096 57.8905V57.2185H10.6908V57.8905H8.32096ZM8.32096 59.9343V59.2361H10.916V59.9343H8.32096Z" fill="white" fill-opacity="0.6"/>
<path d="M14.7476 59.9345V55.2758H15.5089V59.9345H14.7476ZM15.2706 57.958V57.3253H16.4417C16.6762 57.3253 16.8567 57.2635 16.9871 57.1418C17.1174 57.0202 17.1825 56.8499 17.1825 56.6327C17.1825 56.4382 17.1193 56.2734 16.9908 56.1405C16.8623 56.0076 16.6817 55.9403 16.4472 55.9403H15.2688V55.2739H16.4806C16.7711 55.2739 17.028 55.3338 17.2477 55.4498C17.4693 55.5678 17.6386 55.7269 17.7615 55.9291C17.8825 56.1312 17.9439 56.3613 17.9439 56.6178C17.9439 56.8892 17.8825 57.1232 17.7615 57.3235C17.6404 57.5237 17.4693 57.679 17.2477 57.7895C17.0261 57.9 16.7711 57.9561 16.4806 57.9561H15.2706V57.958ZM17.2904 59.9345L15.6691 57.9111L16.3765 57.6509L18.2493 59.9345H17.2904Z" fill="white" fill-opacity="0.6"/>
<path d="M21.2891 55.9738V55.2756H25.068V55.9738H21.2891ZM22.7969 59.9343V55.4085H23.5583V59.9343H22.7969Z" fill="white" fill-opacity="0.6"/>
<path d="M28.7749 59.9343V55.2756H29.5362V59.9343H28.7749Z" fill="white" fill-opacity="0.6"/>
<path d="M33.5869 59.9343V55.2756H34.3483V59.9343H33.5869ZM34.11 55.9738V55.2756H36.5785V55.9738H34.11ZM34.11 57.9372V57.239H36.4667V57.9372H34.11Z" fill="white" fill-opacity="0.6"/>
<path d="M40.3804 59.9343V55.2756H41.1417V59.9343H40.3804Z" fill="white" fill-opacity="0.6"/>
<path d="M45.1914 59.9343V55.2756H45.9529V59.9343H45.1914ZM45.7146 55.9738V55.2756H48.2761V55.9738H45.7146ZM45.7146 57.8905V57.2185H48.0844V57.8905H45.7146ZM45.7146 59.9343V59.2361H48.3096V59.9343H45.7146Z" fill="white" fill-opacity="0.6"/>
<path d="M52.1411 59.9343V55.2756H52.9025V59.9343H52.1411ZM52.6642 59.9343V59.2361H53.8817C54.2 59.2361 54.4792 59.167 54.7194 59.0304C54.9596 58.8936 55.1476 58.7009 55.2816 58.4538C55.4157 58.2067 55.4826 57.9223 55.4826 57.5984C55.4826 57.2784 55.4137 56.9976 55.2779 56.7524C55.1401 56.5091 54.952 56.3182 54.712 56.1797C54.4718 56.043 54.1944 55.9738 53.8817 55.9738H52.6642V55.2756H53.9022C54.2372 55.2756 54.5481 55.3355 54.8348 55.4515C55.1215 55.5695 55.3728 55.7342 55.587 55.9438C55.8009 56.1553 55.9667 56.4006 56.0877 56.6832C56.2068 56.9658 56.2664 57.2727 56.2664 57.6059C56.2664 57.9335 56.2068 58.2404 56.0877 58.525C55.9685 58.8095 55.8029 59.0565 55.5907 59.2661C55.3783 59.4777 55.129 59.6404 54.8422 59.7584C54.5556 59.8764 54.2466 59.9343 53.9152 59.9343H52.6642Z" fill="white" fill-opacity="0.6"/>
<path d="M80.1807 14.488H81.2401V20.9347H80.1807V14.488Z" fill="white"/>
<path d="M85.0465 21.0543C84.4261 21.0543 83.8979 20.9131 83.4619 20.6308C83.032 20.3482 82.7311 19.9614 82.5591 19.4703L83.4711 18.9361C83.7291 19.6607 84.2634 20.0228 85.0741 20.0228C85.4733 20.0228 85.7711 19.9461 85.9677 19.7927C86.1703 19.633 86.2717 19.4273 86.2717 19.1756C86.2717 18.9116 86.1642 18.712 85.9492 18.577C85.7343 18.4358 85.3535 18.2822 84.8069 18.1165C84.4999 18.0243 84.2511 17.9384 84.0607 17.8586C83.8703 17.7788 83.6677 17.6683 83.4527 17.5271C83.2439 17.3797 83.0873 17.1986 82.9828 16.9837C82.8785 16.7688 82.8262 16.5171 82.8262 16.2285C82.8262 15.6575 83.029 15.2062 83.4343 14.8747C83.8397 14.5371 84.3278 14.3682 84.8991 14.3682C85.4149 14.3682 85.8664 14.494 86.2533 14.7458C86.6402 14.9975 86.9381 15.3444 87.1468 15.7865L86.2533 16.3022C85.9831 15.7005 85.5316 15.3997 84.8991 15.3997C84.5919 15.3997 84.3462 15.4733 84.162 15.6206C83.9778 15.7618 83.8857 15.9552 83.8857 16.2008C83.8857 16.4403 83.9778 16.6307 84.162 16.7719C84.3525 16.9069 84.6933 17.0512 85.1847 17.2048C85.4303 17.2845 85.6084 17.346 85.719 17.389C85.8357 17.4257 85.9953 17.4871 86.1979 17.5731C86.4068 17.6591 86.5634 17.745 86.6678 17.8309C86.7723 17.917 86.8827 18.0243 86.9994 18.1533C87.1223 18.2822 87.2083 18.4297 87.2574 18.5954C87.3066 18.7612 87.3311 18.9485 87.3311 19.1572C87.3311 19.7405 87.1192 20.204 86.6954 20.5478C86.2778 20.8856 85.7282 21.0543 85.0465 21.0543Z" fill="white"/>
<path d="M94.0486 20.0873C93.4037 20.732 92.6145 21.0543 91.681 21.0543C90.7475 21.0543 89.9552 20.732 89.3042 20.0873C88.6594 19.4365 88.3369 18.6445 88.3369 17.7113C88.3369 16.778 88.6594 15.9891 89.3042 15.3444C89.9552 14.6936 90.7475 14.3682 91.681 14.3682C92.6145 14.3682 93.4037 14.6936 94.0486 15.3444C94.6997 15.9891 95.0251 16.778 95.0251 17.7113C95.0251 18.6445 94.6997 19.4365 94.0486 20.0873ZM90.0504 19.369C90.4926 19.8049 91.0361 20.0228 91.681 20.0228C92.3259 20.0228 92.8664 19.8049 93.3024 19.369C93.7445 18.9269 93.9657 18.3744 93.9657 17.7113C93.9657 17.0481 93.7445 16.4987 93.3024 16.0627C92.8664 15.6206 92.3259 15.3997 91.681 15.3997C91.0361 15.3997 90.4926 15.6206 90.0504 16.0627C89.6144 16.4987 89.3964 17.0481 89.3964 17.7113C89.3964 18.3744 89.6144 18.9269 90.0504 19.369Z" fill="white"/>
<path d="M98.8563 20.9346V20.1057L101.104 17.8125C101.651 17.2662 101.924 16.7933 101.924 16.3942C101.924 16.0811 101.829 15.8387 101.638 15.6667C101.454 15.4886 101.218 15.3997 100.929 15.3997C100.389 15.3997 99.9894 15.6667 99.7315 16.2008L98.8379 15.6759C99.0405 15.2462 99.3262 14.9208 99.6946 14.6997C100.063 14.4787 100.472 14.3682 100.92 14.3682C101.485 14.3682 101.97 14.5462 102.375 14.9023C102.781 15.2585 102.983 15.7434 102.983 16.3575C102.983 17.0144 102.618 17.7144 101.887 18.4572L100.432 19.9123H103.103V20.9346H98.8563Z" fill="white"/>
<path d="M103.866 14.488H107.965V15.409L105.699 20.9347H104.584L106.814 15.501H103.866V14.488Z" fill="white"/>
<path d="M108.842 14.488H112.942V15.409L110.676 20.9347H109.561L111.79 15.501H108.842V14.488Z" fill="white"/>
<path d="M118.084 20.1426C117.642 20.7504 117.022 21.0543 116.223 21.0543C115.425 21.0543 114.802 20.7504 114.353 20.1426C113.911 19.5348 113.69 18.7243 113.69 17.7113C113.69 16.6982 113.911 15.8877 114.353 15.2799C114.802 14.6721 115.425 14.3682 116.223 14.3682C117.022 14.3682 117.642 14.6721 118.084 15.2799C118.533 15.8877 118.757 16.6982 118.757 17.7113C118.757 18.7243 118.533 19.5348 118.084 20.1426ZM116.223 20.0228C116.702 20.0228 117.068 19.8233 117.32 19.4242C117.571 19.0252 117.697 18.4542 117.697 17.7113C117.697 16.9683 117.571 16.3973 117.32 15.9982C117.068 15.5992 116.702 15.3997 116.223 15.3997C115.75 15.3997 115.385 15.5992 115.127 15.9982C114.875 16.3973 114.749 16.9683 114.749 17.7113C114.749 18.4542 114.875 19.0252 115.127 19.4242C115.385 19.8233 115.75 20.0228 116.223 20.0228Z" fill="white"/>
<path d="M121.22 14.488H122.141V20.9347H121.081V15.6208L119.782 15.9892L119.524 15.0866L121.22 14.488Z" fill="white"/>
<path d="M124.96 17.3894C124.826 17.5244 124.662 17.592 124.472 17.592C124.281 17.592 124.119 17.5244 123.983 17.3894C123.849 17.2542 123.781 17.0916 123.781 16.9012C123.781 16.7047 123.845 16.5421 123.974 16.4132C124.11 16.278 124.276 16.2104 124.472 16.2104C124.662 16.2104 124.826 16.278 124.96 16.4132C125.095 16.5482 125.163 16.7109 125.163 16.9012C125.163 17.0916 125.095 17.2542 124.96 17.3894ZM124.96 20.843C124.826 20.978 124.662 21.0456 124.472 21.0456C124.281 21.0456 124.119 20.978 123.983 20.843C123.849 20.7079 123.781 20.5451 123.781 20.3548C123.781 20.1644 123.845 20.0018 123.974 19.8667C124.11 19.7317 124.276 19.6642 124.472 19.6642C124.662 19.6642 124.826 19.7317 124.96 19.8667C125.095 20.0018 125.163 20.1644 125.163 20.3548C125.163 20.5451 125.095 20.7079 124.96 20.843Z" fill="white"/>
<path d="M126.387 20.9346V20.1057L128.635 17.8125C129.182 17.2662 129.454 16.7933 129.454 16.3942C129.454 16.0811 129.36 15.8387 129.169 15.6667C128.985 15.4886 128.749 15.3997 128.46 15.3997C127.919 15.3997 127.52 15.6667 127.262 16.2008L126.369 15.6759C126.572 15.2462 126.857 14.9208 127.225 14.6997C127.595 14.4787 128.002 14.3682 128.451 14.3682C129.016 14.3682 129.5 14.5462 129.907 14.9023C130.312 15.2585 130.514 15.7434 130.514 16.3575C130.514 17.0144 130.149 17.7144 129.419 18.4572L127.963 19.9123H130.634V20.9346H126.387Z" fill="white"/>
<path d="M136.112 20.1426C135.669 20.7504 135.048 21.0543 134.25 21.0543C133.451 21.0543 132.828 20.7504 132.38 20.1426C131.938 19.5348 131.717 18.7243 131.717 17.7113C131.717 16.6982 131.938 15.8877 132.38 15.2799C132.828 14.6721 133.451 14.3682 134.25 14.3682C135.048 14.3682 135.669 14.6721 136.112 15.2799C136.559 15.8877 136.784 16.6982 136.784 17.7113C136.784 18.7243 136.559 19.5348 136.112 20.1426ZM134.25 20.0228C134.73 20.0228 135.094 19.8233 135.346 19.4242C135.598 19.0252 135.724 18.4542 135.724 17.7113C135.724 16.9683 135.598 16.3973 135.346 15.9982C135.094 15.5992 134.73 15.3997 134.25 15.3997C133.777 15.3997 133.412 15.5992 133.154 15.9982C132.902 16.3973 132.776 16.9683 132.776 17.7113C132.776 18.4542 132.902 19.0252 133.154 19.4242C133.412 19.8233 133.777 20.0228 134.25 20.0228Z" fill="white"/>
<path d="M139.246 14.488H140.168V20.9347H139.108V15.6208L137.809 15.9892L137.551 15.0866L139.246 14.488Z" fill="white"/>
<path d="M146.11 16.5693C146.11 17.0605 145.981 17.4933 145.723 17.8678L143.688 20.9346H142.471L143.945 18.7704H143.835C143.165 18.7704 142.616 18.5678 142.186 18.1625C141.762 17.7511 141.551 17.2201 141.551 16.5693C141.551 15.9185 141.762 15.3905 142.186 14.9853C142.616 14.5738 143.165 14.3682 143.835 14.3682C144.505 14.3682 145.051 14.5738 145.475 14.9853C145.898 15.3905 146.11 15.9185 146.11 16.5693ZM142.609 16.5693C142.609 16.9253 142.723 17.214 142.951 17.4349C143.184 17.656 143.478 17.7665 143.835 17.7665C144.192 17.7665 144.483 17.6591 144.711 17.4441C144.937 17.2231 145.051 16.9316 145.051 16.5693C145.051 16.207 144.937 15.9185 144.711 15.7036C144.483 15.4825 144.192 15.372 143.835 15.372C143.478 15.372 143.184 15.4825 142.951 15.7036C142.723 15.9185 142.609 16.207 142.609 16.5693Z" fill="white"/>
<path d="M84.4882 28.3027H84.9894L83.8545 31.9866H83.3239L82.3731 29.0174L81.4224 31.9866H80.8918L79.7568 28.3027H80.2579L81.1645 31.3603L82.13 28.3027H82.6163L83.5818 31.3603L84.4882 28.3027Z" fill="white"/>
<path d="M90.5283 28.3027H91.0295L89.8945 31.9866H89.3639L88.4131 29.0174L87.4625 31.9866H86.9319L85.7969 28.3027H86.298L87.2045 31.3603L88.17 28.3027H88.6564L89.6219 31.3603L90.5283 28.3027Z" fill="white"/>
<path d="M96.5683 28.3027H97.0695L95.9346 31.9866H95.4039L94.4532 29.0174L93.5025 31.9866H92.9719L91.8369 28.3027H92.338L93.2446 31.3603L94.21 28.3027H94.6964L95.6619 31.3603L96.5683 28.3027Z" fill="white"/>
<path d="M98.1284 31.9421C98.0498 32.0207 97.9539 32.06 97.8409 32.06C97.7279 32.06 97.6321 32.0207 97.5535 31.9421C97.4749 31.8636 97.4355 31.7678 97.4355 31.6548C97.4355 31.5419 97.4749 31.446 97.5535 31.3675C97.6321 31.2888 97.7279 31.2495 97.8409 31.2495C97.9539 31.2495 98.0498 31.2888 98.1284 31.3675C98.207 31.446 98.2462 31.5419 98.2462 31.6548C98.2462 31.7678 98.207 31.8636 98.1284 31.9421Z" fill="white"/>
<path d="M101.091 28.7741H100.029V31.0064C100.029 31.2078 100.069 31.3527 100.147 31.4411C100.226 31.5246 100.344 31.5688 100.501 31.5738C100.658 31.5738 100.855 31.5688 101.091 31.559V31.9864C100.575 32.0649 100.187 32.0281 99.9261 31.8758C99.6706 31.7235 99.5429 31.4337 99.5429 31.0064V28.7741H98.769V28.3025H99.5429V27.4183L100.029 27.271V28.3025H101.091V28.7741Z" fill="white"/>
<path d="M104.864 28.3027H105.35V31.9866H104.864V31.4119C104.589 31.854 104.176 32.0749 103.626 32.0749C103.179 32.0749 102.825 31.9399 102.564 31.6698C102.309 31.3946 102.181 31.0264 102.181 30.5646V28.3027H102.668V30.5646C102.668 30.8937 102.754 31.1492 102.925 31.3308C103.102 31.5126 103.351 31.6035 103.67 31.6035C104.024 31.6035 104.311 31.4929 104.532 31.2718C104.753 31.046 104.864 30.6997 104.864 30.2331V28.3027Z" fill="white"/>
<path d="M109.401 28.3027H109.917L108.406 31.9866H107.816L106.306 28.3027H106.822L108.111 31.4781L109.401 28.3027Z" fill="white"/>
<path d="M110.83 31.9421C110.751 32.0207 110.656 32.06 110.543 32.06C110.43 32.06 110.334 32.0207 110.255 31.9421C110.176 31.8636 110.137 31.7678 110.137 31.6548C110.137 31.5419 110.176 31.446 110.255 31.3675C110.334 31.2888 110.43 31.2495 110.543 31.2495C110.656 31.2495 110.751 31.2888 110.83 31.3675C110.909 31.446 110.948 31.5419 110.948 31.6548C110.948 31.7678 110.909 31.8636 110.83 31.9421Z" fill="white"/>
<path d="M113.7 32.0745C113.145 32.0745 112.683 31.8903 112.315 31.522C111.946 31.1488 111.762 30.6894 111.762 30.1442C111.762 29.599 111.946 29.1422 112.315 28.7739C112.683 28.4005 113.145 28.2139 113.7 28.2139C114.064 28.2139 114.39 28.3023 114.68 28.4791C114.97 28.6511 115.181 28.8843 115.314 29.1791L114.916 29.4075C114.818 29.1865 114.658 29.0121 114.437 28.8843C114.221 28.7517 113.975 28.6854 113.7 28.6854C113.292 28.6854 112.948 28.8279 112.668 29.1127C112.388 29.3927 112.248 29.7366 112.248 30.1442C112.248 30.552 112.388 30.8982 112.668 31.1831C112.948 31.4631 113.292 31.6031 113.7 31.6031C113.975 31.6031 114.221 31.5391 114.437 31.4115C114.653 31.2788 114.823 31.102 114.946 30.8811L115.351 31.1167C115.199 31.4115 114.975 31.6448 114.68 31.8167C114.385 31.9886 114.059 32.0745 113.7 32.0745Z" fill="white"/>
<path d="M119.47 31.522C119.096 31.8903 118.639 32.0745 118.099 32.0745C117.558 32.0745 117.099 31.8903 116.721 31.522C116.347 31.1488 116.161 30.6894 116.161 30.1442C116.161 29.599 116.347 29.1422 116.721 28.7739C117.099 28.4005 117.558 28.2139 118.099 28.2139C118.639 28.2139 119.096 28.4005 119.47 28.7739C119.848 29.1422 120.037 29.599 120.037 30.1442C120.037 30.6894 119.848 31.1488 119.47 31.522ZM117.067 31.1831C117.347 31.4631 117.691 31.6031 118.099 31.6031C118.507 31.6031 118.851 31.4631 119.131 31.1831C119.411 30.8982 119.551 30.552 119.551 30.1442C119.551 29.7366 119.411 29.3927 119.131 29.1127C118.851 28.8279 118.507 28.6854 118.099 28.6854C117.691 28.6854 117.347 28.8279 117.067 29.1127C116.787 29.3927 116.647 29.7366 116.647 30.1442C116.647 30.552 116.787 30.8982 117.067 31.1831Z" fill="white"/>
<path d="M125.148 28.2139C125.56 28.2139 125.891 28.3465 126.142 28.6118C126.398 28.8771 126.525 29.2355 126.525 29.6874V31.9862H126.04V29.6874C126.04 29.3682 125.955 29.1225 125.788 28.9507C125.627 28.7739 125.411 28.6854 125.14 28.6854C124.836 28.6854 124.588 28.7886 124.396 28.9949C124.209 29.1962 124.116 29.5131 124.116 29.9453V31.9862H123.629V29.6874C123.629 29.3633 123.551 29.1153 123.394 28.9433C123.242 28.7714 123.032 28.6854 122.767 28.6854C122.472 28.6854 122.222 28.7886 122.015 28.9949C121.809 29.2012 121.706 29.518 121.706 29.9453V31.9862H121.219V28.3023H121.706V28.8402C121.971 28.4227 122.347 28.2139 122.834 28.2139C123.364 28.2139 123.738 28.4374 123.954 28.8843C124.218 28.4374 124.617 28.2139 125.148 28.2139Z" fill="white"/>
<path d="M80.126 37.8806H80.6419V43.0379H80.126V37.8806Z" fill="white"/>
<path d="M84.1828 37.8806C84.8853 37.8806 85.4651 38.1311 85.922 38.632C86.3838 39.1281 86.6148 39.7372 86.6148 40.4592C86.6148 41.1813 86.3838 41.7929 85.922 42.2938C85.4651 42.7899 84.8853 43.0379 84.1828 43.0379H82.1929V37.8806H84.1828ZM84.1828 42.5517C84.7478 42.5517 85.2096 42.3504 85.5683 41.9476C85.9318 41.5448 86.1136 41.0486 86.1136 40.4592C86.1136 39.8698 85.9318 39.3737 85.5683 38.971C85.2096 38.5682 84.7478 38.3669 84.1828 38.3669H82.7088V42.5517H84.1828Z" fill="white"/>
<path d="M92.3759 40.3784C92.6363 40.501 92.8427 40.673 92.9949 40.894C93.1522 41.1101 93.2308 41.3582 93.2308 41.6382C93.2308 42.1048 93.0661 42.4707 92.737 42.736C92.4078 42.9963 91.9976 43.1265 91.5063 43.1265C91.0149 43.1265 90.6047 42.9963 90.2755 42.736C89.9463 42.4707 89.7817 42.1048 89.7817 41.6382C89.7817 41.3582 89.8578 41.1101 90.0102 40.894C90.1674 40.673 90.3763 40.501 90.6366 40.3784C90.1797 40.1179 89.9512 39.7324 89.9512 39.2215C89.9512 38.7599 90.1035 38.4062 90.4081 38.1607C90.7177 37.915 91.0837 37.7922 91.5063 37.7922C91.9287 37.7922 92.2924 37.915 92.597 38.1607C92.9065 38.4062 93.0613 38.7599 93.0613 39.2215C93.0613 39.7324 92.8328 40.1179 92.3759 40.3784ZM92.2432 38.5217C92.0467 38.3694 91.801 38.2933 91.5063 38.2933C91.2115 38.2933 90.9634 38.3694 90.7619 38.5217C90.5653 38.6739 90.4671 38.9072 90.4671 39.2215C90.4671 39.5163 90.5679 39.7447 90.7692 39.9068C90.9757 40.0689 91.2213 40.1499 91.5063 40.1499C91.7912 40.1499 92.0344 40.0689 92.2359 39.9068C92.4422 39.7447 92.5454 39.5163 92.5454 39.2215C92.5454 38.9072 92.4446 38.6739 92.2432 38.5217ZM90.6292 42.375C90.8504 42.5419 91.1427 42.6254 91.5063 42.6254C91.8698 42.6254 92.1621 42.5419 92.3833 42.375C92.6043 42.203 92.7149 41.9574 92.7149 41.6382C92.7149 41.319 92.6043 41.0758 92.3833 40.9088C92.1621 40.7368 91.8698 40.6509 91.5063 40.6509C91.1427 40.6509 90.8504 40.7368 90.6292 40.9088C90.4081 41.0758 90.2977 41.319 90.2977 41.6382C90.2977 41.9574 90.4081 42.203 90.6292 42.375Z" fill="white"/>
<path d="M95.0792 37.8806H95.5215V43.0379H95.0056V38.4479L93.8485 38.7941L93.7158 38.3521L95.0792 37.8806Z" fill="white"/>
<path d="M100.237 42.4044C99.8979 42.8857 99.4188 43.1265 98.7998 43.1265C98.1807 43.1265 97.6992 42.8857 97.3553 42.4044C97.0163 41.9182 96.8467 41.2698 96.8467 40.4593C96.8467 39.6489 97.0163 39.003 97.3553 38.5217C97.6992 38.0354 98.1807 37.7922 98.7998 37.7922C99.4188 37.7922 99.8979 38.0354 100.237 38.5217C100.581 39.003 100.753 39.6489 100.753 40.4593C100.753 41.2698 100.581 41.9182 100.237 42.4044ZM97.7385 42.0581C97.9939 42.4364 98.3478 42.6254 98.7998 42.6254C99.2518 42.6254 99.603 42.4364 99.8537 42.0581C100.109 41.68 100.237 41.147 100.237 40.4593C100.237 39.7717 100.109 39.2387 99.8537 38.8606C99.603 38.4824 99.2518 38.2933 98.7998 38.2933C98.3478 38.2933 97.9939 38.4824 97.7385 38.8606C97.4879 39.2387 97.3626 39.7717 97.3626 40.4593C97.3626 41.147 97.4879 41.68 97.7385 42.0581Z" fill="white"/>
<path d="M104.377 40.3784C104.638 40.501 104.844 40.673 104.997 40.894C105.154 41.1101 105.232 41.3582 105.232 41.6382C105.232 42.1048 105.068 42.4707 104.739 42.736C104.409 42.9963 103.999 43.1265 103.508 43.1265C103.016 43.1265 102.606 42.9963 102.277 42.736C101.948 42.4707 101.783 42.1048 101.783 41.6382C101.783 41.3582 101.859 41.1101 102.012 40.894C102.169 40.673 102.378 40.501 102.638 40.3784C102.181 40.1179 101.953 39.7324 101.953 39.2215C101.953 38.7599 102.105 38.4062 102.41 38.1607C102.719 37.915 103.085 37.7922 103.508 37.7922C103.93 37.7922 104.294 37.915 104.598 38.1607C104.908 38.4062 105.063 38.7599 105.063 39.2215C105.063 39.7324 104.834 40.1179 104.377 40.3784ZM104.245 38.5217C104.048 38.3694 103.803 38.2933 103.508 38.2933C103.213 38.2933 102.965 38.3694 102.763 38.5217C102.567 38.6739 102.469 38.9072 102.469 39.2215C102.469 39.5163 102.569 39.7447 102.771 39.9068C102.977 40.0689 103.223 40.1499 103.508 40.1499C103.793 40.1499 104.036 40.0689 104.237 39.9068C104.444 39.7447 104.547 39.5163 104.547 39.2215C104.547 38.9072 104.446 38.6739 104.245 38.5217ZM102.631 42.375C102.852 42.5419 103.144 42.6254 103.508 42.6254C103.871 42.6254 104.164 42.5419 104.385 42.375C104.606 42.203 104.716 41.9574 104.716 41.6382C104.716 41.319 104.606 41.0758 104.385 40.9088C104.164 40.7368 103.871 40.6509 103.508 40.6509C103.144 40.6509 102.852 40.7368 102.631 40.9088C102.41 41.0758 102.299 41.319 102.299 41.6382C102.299 41.9574 102.41 42.203 102.631 42.375Z" fill="white"/>
<path d="M107.992 39.7225C108.498 39.7225 108.913 39.8821 109.237 40.2013C109.561 40.5158 109.724 40.9234 109.724 41.4244C109.724 41.9254 109.561 42.3356 109.237 42.6548C108.913 42.9691 108.498 43.1264 107.992 43.1264C107.486 43.1264 107.07 42.9691 106.746 42.6548C106.422 42.3356 106.26 41.9254 106.26 41.4244C106.26 41.0364 106.365 40.6926 106.577 40.393L108.264 37.8806H108.847L107.579 39.7667C107.712 39.7372 107.849 39.7225 107.992 39.7225ZM107.107 42.2938C107.333 42.5148 107.628 42.6253 107.992 42.6253C108.355 42.6253 108.648 42.5148 108.869 42.2938C109.095 42.0728 109.208 41.783 109.208 41.4244C109.208 41.0659 109.095 40.7761 108.869 40.5551C108.648 40.334 108.355 40.2236 107.992 40.2236C107.628 40.2236 107.333 40.334 107.107 40.5551C106.886 40.7761 106.776 41.0659 106.776 41.4244C106.776 41.783 106.886 42.0728 107.107 42.2938Z" fill="white"/>
<path d="M112.432 40.0245C112.845 40.0785 113.184 40.2382 113.449 40.5035C113.719 40.7638 113.855 41.11 113.855 41.5423C113.855 42.0335 113.685 42.4215 113.346 42.7064C113.012 42.9864 112.604 43.1264 112.123 43.1264C111.739 43.1264 111.398 43.0379 111.098 42.8611C110.798 42.6843 110.587 42.4313 110.464 42.1022L110.892 41.8517C110.975 42.1072 111.125 42.3012 111.341 42.4339C111.558 42.5615 111.818 42.6253 112.123 42.6253C112.476 42.6253 112.766 42.532 112.992 42.3454C113.223 42.1538 113.339 41.8862 113.339 41.5423C113.339 41.1985 113.223 40.9332 112.992 40.7466C112.766 40.5551 112.476 40.4592 112.123 40.4592V40.4519L112.115 40.4592H111.975L111.754 40.1204L113.036 38.3669H110.612V37.8806H113.633V38.3669L112.432 40.0245Z" fill="white"/>
<path d="M116.473 39.7225C116.979 39.7225 117.394 39.8821 117.718 40.2013C118.042 40.5158 118.205 40.9234 118.205 41.4244C118.205 41.9254 118.042 42.3356 117.718 42.6548C117.394 42.9691 116.979 43.1264 116.473 43.1264C115.967 43.1264 115.551 42.9691 115.227 42.6548C114.903 42.3356 114.741 41.9254 114.741 41.4244C114.741 41.0364 114.846 40.6926 115.058 40.393L116.745 37.8806H117.328L116.06 39.7667C116.193 39.7372 116.33 39.7225 116.473 39.7225ZM115.588 42.2938C115.814 42.5148 116.109 42.6253 116.473 42.6253C116.836 42.6253 117.129 42.5148 117.35 42.2938C117.576 42.0728 117.689 41.783 117.689 41.4244C117.689 41.0659 117.576 40.7761 117.35 40.5551C117.129 40.334 116.836 40.2236 116.473 40.2236C116.109 40.2236 115.814 40.334 115.588 40.5551C115.367 40.7761 115.257 41.0659 115.257 41.4244C115.257 41.783 115.367 42.0728 115.588 42.2938Z" fill="white"/>
<path d="M120.913 40.0245C121.326 40.0785 121.665 40.2382 121.93 40.5035C122.2 40.7638 122.336 41.11 122.336 41.5423C122.336 42.0335 122.166 42.4215 121.827 42.7064C121.493 42.9864 121.085 43.1264 120.604 43.1264C120.22 43.1264 119.879 43.0379 119.579 42.8611C119.279 42.6843 119.068 42.4313 118.945 42.1022L119.373 41.8517C119.456 42.1072 119.606 42.3012 119.822 42.4339C120.038 42.5615 120.299 42.6253 120.604 42.6253C120.957 42.6253 121.247 42.532 121.473 42.3454C121.704 42.1538 121.82 41.8862 121.82 41.5423C121.82 41.1985 121.704 40.9332 121.473 40.7466C121.247 40.5551 120.957 40.4592 120.604 40.4592V40.4519L120.596 40.4592H120.456L120.235 40.1204L121.517 38.3669H119.093V37.8806H122.114V38.3669L120.913 40.0245Z" fill="white"/>
<path d="M124.953 39.7225C125.459 39.7225 125.875 39.8821 126.2 40.2013C126.523 40.5158 126.685 40.9234 126.685 41.4244C126.685 41.9254 126.523 42.3356 126.2 42.6548C125.875 42.9691 125.459 43.1264 124.953 43.1264C124.447 43.1264 124.033 42.9691 123.708 42.6548C123.384 42.3356 123.221 41.9254 123.221 41.4244C123.221 41.0364 123.327 40.6926 123.538 40.393L125.227 37.8806H125.808L124.542 39.7667C124.673 39.7372 124.811 39.7225 124.953 39.7225ZM124.07 42.2938C124.295 42.5148 124.59 42.6253 124.953 42.6253C125.318 42.6253 125.609 42.5148 125.83 42.2938C126.056 42.0728 126.17 41.783 126.17 41.4244C126.17 41.0659 126.056 40.7761 125.83 40.5551C125.609 40.334 125.318 40.2236 124.953 40.2236C124.59 40.2236 124.295 40.334 124.07 40.5551C123.849 40.7761 123.738 41.0659 123.738 41.4244C123.738 41.783 123.849 42.0728 124.07 42.2938Z" fill="white"/>
<path d="M129.394 40.0245C129.807 40.0785 130.146 40.2382 130.412 40.5035C130.681 40.7638 130.817 41.11 130.817 41.5423C130.817 42.0335 130.647 42.4215 130.308 42.7064C129.974 42.9864 129.567 43.1264 129.085 43.1264C128.701 43.1264 128.36 43.0379 128.061 42.8611C127.76 42.6843 127.549 42.4313 127.427 42.1022L127.854 41.8517C127.937 42.1072 128.088 42.3012 128.304 42.4339C128.52 42.5615 128.78 42.6253 129.085 42.6253C129.439 42.6253 129.728 42.532 129.954 42.3454C130.185 42.1538 130.3 41.8862 130.3 41.5423C130.3 41.1985 130.185 40.9332 129.954 40.7466C129.728 40.5551 129.439 40.4592 129.085 40.4592V40.4519L129.077 40.4592H128.938L128.717 40.1204L129.999 38.3669H127.574V37.8806H130.596V38.3669L129.394 40.0245Z" fill="white"/>
<path d="M80.126 48.9321H80.6419V54.0896H80.126V48.9321Z" fill="white"/>
<path d="M83.7423 54.178C83.2706 54.178 82.8653 54.0675 82.5263 53.8465C82.1921 53.6205 81.9589 53.3111 81.8262 52.9181L82.2683 52.6603C82.3616 52.9795 82.5337 53.23 82.7842 53.4118C83.0348 53.5886 83.3566 53.6771 83.7497 53.6771C84.1329 53.6771 84.4301 53.5935 84.6414 53.4265C84.8576 53.2546 84.9657 53.0287 84.9657 52.7487C84.9657 52.4785 84.8674 52.2747 84.671 52.1371C84.4744 51.9996 84.1501 51.8572 83.6981 51.7098C83.1626 51.533 82.8088 51.3906 82.6369 51.2826C82.2438 51.0468 82.0472 50.7054 82.0472 50.2583C82.0472 49.8212 82.1996 49.4775 82.5042 49.227C82.8088 48.9715 83.1847 48.8438 83.6317 48.8438C84.0346 48.8438 84.3835 48.9495 84.6783 49.1606C84.973 49.3669 85.1917 49.6322 85.3341 49.9563L84.8994 50.1995C84.6636 49.6297 84.241 49.3448 83.6317 49.3448C83.3124 49.3448 83.0545 49.4235 82.858 49.5806C82.6614 49.7378 82.5631 49.9563 82.5631 50.2363C82.5631 50.4917 82.6516 50.6833 82.8285 50.811C83.0054 50.9386 83.2977 51.0689 83.7055 51.2015C83.8921 51.2653 84.0248 51.312 84.1034 51.3414C84.187 51.366 84.3049 51.4102 84.4572 51.474C84.6145 51.533 84.7299 51.587 84.8035 51.6362C84.8773 51.6803 84.9657 51.7442 85.0689 51.8277C85.177 51.9063 85.2531 51.9874 85.2973 52.0709C85.3465 52.1495 85.3882 52.2477 85.4226 52.3656C85.462 52.4785 85.4816 52.6013 85.4816 52.7339C85.4816 53.1712 85.3219 53.5223 85.0026 53.7875C84.6832 54.0479 84.2631 54.178 83.7423 54.178Z" fill="white"/>
<path d="M90.9667 53.4044C90.4509 53.9201 89.8194 54.178 89.0727 54.178C88.3259 54.178 87.6946 53.9201 87.1786 53.4044C86.6627 52.8838 86.4048 52.2526 86.4048 51.5109C86.4048 50.7692 86.6627 50.1405 87.1786 49.6248C87.6946 49.1042 88.3259 48.8438 89.0727 48.8438C89.8194 48.8438 90.4509 49.1042 90.9667 49.6248C91.4826 50.1405 91.7406 50.7692 91.7406 51.5109C91.7406 52.2526 91.4826 52.8838 90.9667 53.4044ZM87.5398 53.0508C87.9525 53.4682 88.4634 53.6771 89.0727 53.6771C89.6819 53.6771 90.1929 53.4682 90.6056 53.0508C91.0183 52.6283 91.2246 52.115 91.2246 51.5109C91.2246 50.9067 91.0183 50.396 90.6056 49.9784C90.1929 49.556 89.6819 49.3448 89.0727 49.3448C88.4634 49.3448 87.9525 49.556 87.5398 49.9784C87.127 50.396 86.9207 50.9067 86.9207 51.5109C86.9207 52.115 87.127 52.6283 87.5398 53.0508Z" fill="white"/>
<path d="M94.9077 54.0897V53.6255L96.7649 51.754C97.2955 51.2236 97.5609 50.7692 97.5609 50.391C97.5609 50.0619 97.4577 49.8066 97.2513 49.6248C97.0498 49.4381 96.8067 49.3448 96.5217 49.3448C95.9911 49.3448 95.6054 49.588 95.3647 50.0743L94.9298 49.8164C95.0919 49.4971 95.3131 49.2563 95.5931 49.0943C95.8732 48.9274 96.1827 48.8438 96.5217 48.8438C96.9344 48.8438 97.2955 48.9838 97.6051 49.2638C97.9196 49.5389 98.0768 49.9146 98.0768 50.391C98.0768 50.6906 97.9932 50.978 97.8261 51.2531C97.6591 51.528 97.4232 51.818 97.1186 52.1224L95.6446 53.5886H98.1873V54.0897H94.9077Z" fill="white"/>
<path d="M98.8564 48.9321H102.025V49.4184L100.08 54.0896H99.5419L101.488 49.4184H98.8564V48.9321Z" fill="white"/>
<path d="M102.838 48.9321H106.007V49.4184L104.061 54.0896H103.523L105.469 49.4184H102.838V48.9321Z" fill="white"/>
<path d="M110.143 53.456C109.804 53.9374 109.325 54.178 108.706 54.178C108.087 54.178 107.605 53.9374 107.262 53.456C106.923 52.9697 106.753 52.3213 106.753 51.5109C106.753 50.7004 106.923 50.0546 107.262 49.5732C107.605 49.0869 108.087 48.8438 108.706 48.8438C109.325 48.8438 109.804 49.0869 110.143 49.5732C110.487 50.0546 110.659 50.7004 110.659 51.5109C110.659 52.3213 110.487 52.9697 110.143 53.456ZM107.645 53.1097C107.9 53.4879 108.254 53.6771 108.706 53.6771C109.158 53.6771 109.509 53.4879 109.76 53.1097C110.015 52.7315 110.143 52.1985 110.143 51.5109C110.143 50.8232 110.015 50.2904 109.76 49.9121C109.509 49.5339 109.158 49.3448 108.706 49.3448C108.254 49.3448 107.9 49.5339 107.645 49.9121C107.394 50.2904 107.269 50.8232 107.269 51.5109C107.269 52.1985 107.394 52.7315 107.645 53.1097Z" fill="white"/>
<path d="M112.725 48.9321H113.167V54.0896H112.651V49.4994L111.494 49.8458L111.361 49.4037L112.725 48.9321Z" fill="white"/>
<path d="M115.259 51.0246C115.18 51.1031 115.085 51.1424 114.972 51.1424C114.859 51.1424 114.763 51.1031 114.684 51.0246C114.606 50.9459 114.566 50.8502 114.566 50.7372C114.566 50.6242 114.606 50.5285 114.684 50.4499C114.763 50.3712 114.859 50.332 114.972 50.332C115.085 50.332 115.18 50.3712 115.259 50.4499C115.338 50.5285 115.377 50.6242 115.377 50.7372C115.377 50.8502 115.338 50.9459 115.259 51.0246ZM115.259 54.0453C115.18 54.1239 115.085 54.1632 114.972 54.1632C114.859 54.1632 114.763 54.1239 114.684 54.0453C114.606 53.9668 114.566 53.8709 114.566 53.7579C114.566 53.6449 114.606 53.5492 114.684 53.4707C114.763 53.392 114.859 53.3527 114.972 53.3527C115.085 53.3527 115.18 53.392 115.259 53.4707C115.338 53.5492 115.377 53.6449 115.377 53.7579C115.377 53.8709 115.338 53.9668 115.259 54.0453Z" fill="white"/>
<path d="M116.486 54.0897V53.6255L118.344 51.754C118.874 51.2236 119.14 50.7692 119.14 50.391C119.14 50.0619 119.036 49.8066 118.83 49.6248C118.628 49.4381 118.385 49.3448 118.1 49.3448C117.57 49.3448 117.184 49.588 116.943 50.0743L116.508 49.8164C116.671 49.4971 116.892 49.2563 117.172 49.0943C117.452 48.9274 117.761 48.8438 118.1 48.8438C118.513 48.8438 118.874 48.9838 119.184 49.2638C119.498 49.5389 119.655 49.9146 119.655 50.391C119.655 50.6906 119.572 50.978 119.405 51.2531C119.238 51.528 119.002 51.818 118.697 52.1224L117.223 53.5886H119.766V54.0897H116.486Z" fill="white"/>
<path d="M124.119 53.456C123.779 53.9374 123.301 54.178 122.681 54.178C122.062 54.178 121.581 53.9374 121.237 53.456C120.898 52.9697 120.729 52.3213 120.729 51.5109C120.729 50.7004 120.898 50.0546 121.237 49.5732C121.581 49.0869 122.062 48.8438 122.681 48.8438C123.301 48.8438 123.779 49.0869 124.119 49.5732C124.463 50.0546 124.634 50.7004 124.634 51.5109C124.634 52.3213 124.463 52.9697 124.119 53.456ZM121.62 53.1097C121.876 53.4879 122.229 53.6771 122.681 53.6771C123.134 53.6771 123.485 53.4879 123.736 53.1097C123.991 52.7315 124.119 52.1985 124.119 51.5109C124.119 50.8232 123.991 50.2904 123.736 49.9121C123.485 49.5339 123.134 49.3448 122.681 49.3448C122.229 49.3448 121.876 49.5339 121.62 49.9121C121.37 50.2904 121.244 50.8232 121.244 51.5109C121.244 52.1985 121.37 52.7315 121.62 53.1097Z" fill="white"/>
<path d="M126.701 48.9321H127.142V54.0896H126.627V49.4994L125.47 49.8458L125.337 49.4037L126.701 48.9321Z" fill="white"/>
<path d="M131.784 50.5457C131.784 50.9338 131.678 51.2776 131.467 51.5772L129.78 54.0897H129.197L130.465 52.2035C130.332 52.233 130.194 52.2477 130.052 52.2477C129.546 52.2477 129.131 52.0905 128.807 51.7761C128.483 51.4569 128.32 51.0468 128.32 50.5457C128.32 50.0448 128.483 49.637 128.807 49.3227C129.131 49.0035 129.546 48.8438 130.052 48.8438C130.559 48.8438 130.974 49.0035 131.297 49.3227C131.622 49.637 131.784 50.0448 131.784 50.5457ZM129.168 49.6763C128.947 49.8975 128.837 50.1872 128.837 50.5457C128.837 50.9043 128.947 51.1941 129.168 51.4152C129.394 51.6362 129.688 51.7467 130.052 51.7467C130.415 51.7467 130.708 51.6362 130.929 51.4152C131.156 51.1941 131.268 50.9043 131.268 50.5457C131.268 50.1872 131.156 49.8975 130.929 49.6763C130.708 49.4554 130.415 49.3448 130.052 49.3448C129.688 49.3448 129.394 49.4554 129.168 49.6763Z" fill="white"/>
</svg>
