<svg width="93" height="22" viewBox="0 0 93 22" fill="none" xmlns="http://www.w3.org/2000/svg">
<g clip-path="url(#clip0_792_942)">
<path d="M5.7552 14.2884H5.751C4.2258 14.2884 2.6454 14.2543 1.6074 13.8258C1.0686 13.6058 0.6954 13.31 0.432 12.8966C0.1416 12.4416 0 11.8499 0 11.0949C0 10.5183 0.0864 9.84326 0.2514 9.08079C0.291 8.90595 1.191 4.84753 1.2498 4.63158C1.4898 3.78574 1.7886 3.08753 2.1696 2.50337C2.826 1.49832 3.7026 0.849316 4.9254 0.462579C5.9436 0.144158 7.2408 0 9.1242 0H9.1398C10.1304 0 10.944 0.0683158 11.628 0.204947C12.4338 0.368211 13.0512 0.637421 13.4598 0.997526C13.7664 1.27079 13.9632 1.60079 14.0454 1.98347C14.0886 2.17684 14.1084 2.39337 14.1084 2.62437C14.1084 3.16279 13.9944 3.72842 13.9038 4.17942C13.8918 4.24774 13.8762 4.30853 13.8642 4.37279L13.86 4.39189H10.212L10.2162 4.36526C10.2162 4.36526 10.2282 4.25932 10.2318 4.20953C10.2318 4.20547 10.2474 4.06537 10.2474 3.86042C10.2474 3.553 10.098 3.31447 9.7956 3.12863C9.5556 2.99605 9.2454 2.95032 8.9502 2.91616C8.6358 2.87795 8.2818 2.87447 7.9476 2.87447C7.3344 2.87447 6.8706 2.92021 6.489 3.02268C6.1866 3.10258 5.931 3.22011 5.7186 3.37526C5.4162 3.59526 5.1798 3.91368 4.9992 4.34616C4.83 4.74795 4.7082 5.23021 4.5744 5.82537L4.083 8.10121C3.9216 8.833 3.8076 9.38705 3.8076 9.86526C3.8076 10.142 3.8472 10.3585 3.9294 10.5519C4.059 10.8593 4.3344 11.0978 4.7076 11.2269C5.0652 11.352 5.5212 11.4087 6.1818 11.4087C6.6222 11.4087 6.984 11.4012 7.314 11.363C7.884 11.2987 8.2926 11.1314 8.5992 10.8431C8.9334 10.5322 9.1572 10.0691 9.3066 9.39053L9.3576 9.15895H12.966V9.18153C12.966 9.20816 12.7614 10.1223 12.6552 10.4899C12.5454 10.8732 12.4272 11.1957 12.2898 11.484C11.94 12.2198 11.4522 12.7889 10.7526 13.2706C10.0764 13.7257 9.357 14.0065 8.4882 14.1547C7.7412 14.2797 6.975 14.2913 6.1254 14.2913C6.1284 14.2925 5.7984 14.2884 5.7552 14.2884Z" fill="white"/>
<path d="M46.1776 14.2884C44.6482 14.2884 43.0684 14.2543 42.0304 13.8258C41.4916 13.6058 41.1184 13.31 40.855 12.8966C40.564 12.4416 40.4224 11.8499 40.4224 11.0949C40.4224 10.5183 40.5088 9.84326 40.6738 9.08079C40.7134 8.90653 41.6134 4.84753 41.6722 4.63158C41.908 3.78574 42.211 3.08753 42.592 2.50337C43.2484 1.49832 44.125 0.849316 45.3478 0.462579C46.3666 0.144158 47.6638 0 49.5466 0H49.5622C50.5528 0 51.3664 0.0683158 52.0504 0.204947C52.8562 0.368211 53.4736 0.637421 53.8822 0.997526C54.1888 1.27079 54.3856 1.60079 54.4678 1.98347C54.511 2.17684 54.5308 2.39337 54.5308 2.62437C54.5308 3.16279 54.4168 3.72842 54.3262 4.18347C54.3142 4.24774 54.2986 4.31258 54.2866 4.37684L54.2824 4.39595H50.6344L50.6386 4.36932C50.6386 4.36932 50.6506 4.26337 50.6542 4.21358C50.6542 4.20953 50.6698 4.06942 50.6698 3.86447C50.6698 3.55705 50.5204 3.31853 50.218 3.13268C49.978 3.00011 49.6678 2.95437 49.3726 2.92021C49.0582 2.882 48.7042 2.87853 48.37 2.87853C47.7568 2.87853 47.293 2.92426 46.9114 3.02674C46.609 3.10663 46.357 3.22416 46.141 3.37932C45.8386 3.59932 45.6022 3.91774 45.4216 4.35021C45.2524 4.752 45.1306 5.23426 44.9968 5.82942L44.4976 8.09774C44.3362 8.82953 44.2222 9.38358 44.2222 9.86179C44.2222 10.1385 44.2618 10.3551 44.344 10.5484C44.4736 10.8558 44.749 11.0944 45.1222 11.2235C45.4798 11.3485 45.9358 11.4053 46.5964 11.4053C47.0368 11.4053 47.3986 11.3977 47.7286 11.3595C48.2986 11.2953 48.7072 11.1279 49.0138 10.8396C49.348 10.5287 49.5718 10.0656 49.7212 9.38705L49.7722 9.15547H53.3806V9.17805C53.3806 9.20468 53.176 10.1188 53.0698 10.4865C52.96 10.8697 52.8418 11.1922 52.7044 11.4805C52.3546 12.2204 51.8668 12.7855 51.1672 13.2672C50.491 13.7222 49.7716 14.003 48.9028 14.1512C48.1588 14.2774 46.2208 14.2884 46.1776 14.2884Z" fill="white"/>
<path d="M38.3474 14.175H27.8516L27.8594 14.1483L30.7958 0.819238C30.8468 0.572606 30.941 0.405869 31.0946 0.291817C31.2518 0.174291 31.4678 0.117554 31.7552 0.117554H40.6118C40.832 0.117554 40.9892 0.166764 41.0834 0.257659C41.1542 0.329448 41.1932 0.431922 41.1932 0.557554V0.569133C41.1932 0.622396 41.1854 0.671606 41.1734 0.724869L40.7174 2.80329H33.8624L33.269 5.56082H39.704L39.1184 8.15913H32.6828L31.9514 11.4858H38.9486L38.3474 14.175Z" fill="white"/>
<path d="M57.169 14.175H53.6704L53.6782 14.1483L56.6026 0.868424C56.6734 0.580108 56.7832 0.382687 56.9488 0.261687C57.0784 0.16674 57.2434 0.121582 57.4558 0.121582H59.5276C59.7514 0.121582 59.917 0.170793 60.0232 0.269793C60.106 0.345635 60.1492 0.459687 60.1492 0.592266C60.1492 0.63395 60.145 0.675635 60.1372 0.717319L57.169 14.175Z" fill="white"/>
<path d="M66.8039 14.175H62.3933L62.3855 14.1599L59.1191 6.86982L59.1311 6.85824L64.7801 0.940817C65.1299 0.572606 65.3345 0.386764 65.5193 0.276764C65.7161 0.159238 65.8889 0.117554 66.1721 0.117554H69.0179C69.1517 0.117554 69.2339 0.159238 69.2813 0.197448C69.3089 0.220027 69.3287 0.243185 69.3401 0.265764C69.3479 0.280817 69.3557 0.299922 69.3557 0.322501H69.3599L69.3557 0.368238C69.3515 0.424975 69.3203 0.519922 69.2021 0.644975L63.1049 6.96824L66.8039 14.175Z" fill="white"/>
<path d="M22.5566 14.175H22.529L22.5368 14.1483L23.7788 8.47003H18.0122L16.754 14.175H13.2554L13.2632 14.1483C13.3814 13.6099 16.1606 0.948343 16.1798 0.876554C16.2818 0.459133 16.4552 0.314975 16.5926 0.239133C16.742 0.155764 16.9502 0.117554 17.2454 0.117554H19.136C19.2344 0.117554 19.3952 0.159238 19.5176 0.242606C19.5842 0.288343 19.6358 0.341027 19.667 0.398343C19.7066 0.466659 19.7258 0.542501 19.7258 0.629922C19.7258 0.668133 19.7216 0.709817 19.7138 0.751501C19.6982 0.831396 18.7388 5.15903 18.6446 5.58745H24.4154C24.8834 3.45171 25.4456 0.906659 25.4534 0.876554C25.5554 0.459133 25.7288 0.314975 25.8662 0.239133C26.0156 0.155764 26.2238 0.117554 26.519 0.117554H28.4096C28.508 0.117554 28.6688 0.159238 28.7912 0.242606C28.8578 0.288343 28.9094 0.341027 28.9406 0.398343C28.9802 0.466659 28.9994 0.542501 28.9994 0.629922C28.9994 0.668133 28.9952 0.709817 28.9874 0.751501C28.9718 0.83487 26.153 13.6099 26.0312 14.1564L26.027 14.1756L22.5566 14.175Z" fill="white"/>
<path d="M77.1226 2.86399C77.3938 2.93231 77.6062 3.06141 77.7202 3.27736C77.7946 3.42152 77.83 3.58826 77.83 3.78915C77.83 3.9941 77.7946 4.2332 77.7358 4.51341C77.653 4.88163 77.5744 5.18499 77.4526 5.44668C77.3308 5.70836 77.1658 5.92489 76.9258 6.10668C76.4464 6.47084 75.6994 6.69084 74.3746 6.97915C72.6214 7.35489 71.4148 7.66578 70.5616 8.0751C69.7084 8.48499 69.2134 8.9742 68.8396 9.74768C68.5918 10.2635 68.4034 10.9085 68.2222 11.7236L67.7266 14.1512H79.0756L79.606 11.6929H71.7088C71.7088 11.6929 71.8306 11.1013 71.9326 10.8847C72.0622 10.6039 72.2314 10.3955 72.4516 10.2398C72.6718 10.084 72.9388 9.98157 73.2616 9.89473C73.9102 9.72047 74.8066 9.60294 76.1236 9.28047C77.7472 8.87463 78.844 8.43057 79.618 7.71384C80.3926 6.9971 80.8642 5.98799 81.2098 4.40631C81.3394 3.82215 81.4102 3.24552 81.4102 2.80957C81.4102 2.18373 81.2842 1.70205 81.0604 1.33384C80.8366 0.965625 80.5138 0.700468 80.0896 0.503047C79.2484 0.112257 78.01 0.0213623 76.5436 0.0213623C74.6764 0.0213623 73.2064 0.207204 72.1132 0.855625C71.0206 1.50057 70.2616 2.67641 69.8374 4.59157L69.7192 5.13405H73.1704L73.3042 4.53484C73.438 3.96226 73.5634 3.57147 73.7878 3.29473C74.0116 3.01394 74.338 2.88136 74.7784 2.8281C75.0772 2.78989 75.4348 2.78236 75.8788 2.78236C75.9496 2.78236 76.0162 2.78236 76.0834 2.78236C76.5136 2.77657 76.8514 2.79568 77.1226 2.86399Z" fill="white"/>
<path d="M86.6442 1.50992C86.2434 1.91171 82.8744 5.31071 81.4944 6.70655C81.219 6.99081 80.9244 7.30576 80.7948 7.56745C80.6886 7.75734 80.5512 8.28418 80.4804 8.65992C80.3352 9.44497 80.2248 10.1617 80.1582 10.4541C80.1426 10.5299 80.1348 10.5982 80.1348 10.6625C80.1348 10.9051 80.241 11.0643 80.3826 11.1824C80.52 11.2964 80.709 11.3491 80.8938 11.3491C81.063 11.3491 87.5802 11.3491 87.5802 11.3491L86.9628 14.1524L90.4812 13.8299L91.0278 11.3457H92.286L92.8326 8.86139H91.5744C91.5744 8.86139 92.8326 3.19466 92.8716 2.98218C93.3042 0.687235 92.3172 0.0162354 90.0924 0.0162354C89.5254 0.0266564 88.2402 -0.0873963 86.6442 1.50992ZM88.122 8.86834H83.0706L89.0814 2.86002H89.4468L88.122 8.86834Z" fill="white"/>
<path d="M78.7662 22.0001C76.494 22.0001 74.3124 21.4159 72.4566 20.3084C70.6326 19.2234 69.5712 17.9416 69.0678 17.2168L68.4036 18.8668C68.3448 19.0185 68.1798 19.1134 68.0028 19.0868C67.83 19.0567 67.7004 18.9125 67.7004 18.7452L67.665 15.5095V15.5054C67.665 15.4145 67.7046 15.3271 67.7712 15.2663C67.842 15.2021 67.9326 15.1638 68.0304 15.1638H71.4426H71.4468C71.616 15.1679 71.7612 15.2889 71.793 15.4481C71.7972 15.4707 71.8008 15.4898 71.8008 15.5124C71.8008 15.6565 71.7066 15.7856 71.5686 15.8383L69.906 16.4601C71.3646 17.7158 74.3718 19.7335 78.5934 19.7335C78.9552 19.7335 79.3206 19.7184 79.6824 19.6877C81.4632 19.5436 83.2596 19.1186 84.879 18.4662C86.298 17.8936 87.5484 17.1653 88.5036 16.3536L86.7858 15.8644C86.6322 15.8227 86.5224 15.6861 86.5224 15.5303C86.5224 15.5187 86.5224 15.5077 86.5224 15.4962C86.538 15.3294 86.6796 15.1963 86.8524 15.1812L90.1818 14.8894C90.1974 14.8894 90.2094 14.8854 90.2172 14.8854C90.3036 14.8854 90.3864 14.9155 90.4494 14.9653C90.5238 15.0261 90.5712 15.1135 90.579 15.2044C90.8544 18.3643 90.8544 18.3643 90.8544 18.3753C90.8544 18.531 90.7446 18.6711 90.5868 18.7128C90.5556 18.7203 90.5238 18.7244 90.4926 18.7244C90.351 18.7244 90.225 18.6485 90.1626 18.531L89.3568 17.0443C88.7124 17.8861 87.588 19.0735 85.827 20.1052C84.0426 21.1519 82.0494 21.7743 79.9032 21.9485L79.6872 21.9676C79.3836 21.9885 79.0728 22.0001 78.7662 22.0001Z" fill="white"/>
</g>
<defs>
<clipPath id="clip0_792_942">
<rect width="93" height="22" fill="white"/>
</clipPath>
</defs>
</svg>
