<svg width="321" height="129" viewBox="0 0 321 129" fill="none" xmlns="http://www.w3.org/2000/svg">
<rect width="321" height="129" rx="6" fill="url(#paint0_linear_795_1066)" fill-opacity="0.15"/>
<rect x="0.5" y="0.5" width="320" height="128" rx="5.5" stroke="url(#paint1_linear_795_1066)" stroke-opacity="0.35"/>
<path opacity="0.7" d="M33.476 36.454L27.736 33.724V32.772L33.476 30.042V31.176L28.492 33.458V33.038L33.476 35.32V36.454ZM35.5682 37V26.402H36.6182V30.952L36.3802 30.896C36.5669 30.4107 36.8702 30.028 37.2902 29.748C37.7196 29.468 38.2142 29.328 38.7742 29.328C39.3062 29.328 39.7822 29.4493 40.2022 29.692C40.6316 29.9347 40.9676 30.2707 41.2102 30.7C41.4622 31.12 41.5882 31.596 41.5882 32.128V37H40.5382V32.534C40.5382 32.0767 40.4542 31.6893 40.2862 31.372C40.1182 31.0547 39.8849 30.812 39.5862 30.644C39.2969 30.4667 38.9656 30.378 38.5922 30.378C38.2189 30.378 37.8829 30.4667 37.5842 30.644C37.2856 30.812 37.0476 31.0593 36.8702 31.386C36.7022 31.7033 36.6182 32.086 36.6182 32.534V37H35.5682ZM46.4636 37.084C45.7916 37.084 45.2736 36.888 44.9096 36.496C44.5456 36.104 44.3636 35.544 44.3636 34.816V30.546H42.9776V29.496H43.3276C43.645 29.496 43.897 29.3933 44.0836 29.188C44.2703 28.9733 44.3636 28.7073 44.3636 28.39V27.76H45.4136V29.496H47.0656V30.546H45.4136V34.816C45.4136 35.068 45.451 35.292 45.5256 35.488C45.6003 35.6747 45.7263 35.824 45.9036 35.936C46.0903 36.048 46.3376 36.104 46.6456 36.104C46.7203 36.104 46.809 36.0993 46.9116 36.09C47.0143 36.0807 47.103 36.0713 47.1776 36.062V37C47.0656 37.028 46.9396 37.0467 46.7996 37.056C46.6596 37.0747 46.5476 37.084 46.4636 37.084ZM49.0214 37V29.496H50.0714V30.924L49.9034 30.714C50.1087 30.2753 50.412 29.9347 50.8134 29.692C51.224 29.4493 51.672 29.328 52.1574 29.328C52.736 29.328 53.2587 29.4913 53.7254 29.818C54.192 30.1447 54.5234 30.5693 54.7194 31.092L54.4254 31.106C54.612 30.5273 54.934 30.0887 55.3914 29.79C55.858 29.482 56.3714 29.328 56.9314 29.328C57.4354 29.328 57.8974 29.4493 58.3174 29.692C58.7467 29.9347 59.0874 30.2707 59.3394 30.7C59.6007 31.12 59.7314 31.596 59.7314 32.128V37H58.6814V32.534C58.6814 32.0767 58.5974 31.6893 58.4294 31.372C58.2707 31.0547 58.0514 30.812 57.7714 30.644C57.4914 30.4667 57.1694 30.378 56.8054 30.378C56.4507 30.378 56.1287 30.4667 55.8394 30.644C55.55 30.812 55.3214 31.0593 55.1534 31.386C54.9854 31.7033 54.9014 32.086 54.9014 32.534V37H53.8514V32.534C53.8514 32.0767 53.7674 31.6893 53.5994 31.372C53.4407 31.0547 53.2214 30.812 52.9414 30.644C52.6614 30.4667 52.3394 30.378 51.9754 30.378C51.6114 30.378 51.2847 30.4667 50.9954 30.644C50.7154 30.812 50.4914 31.0593 50.3234 31.386C50.1554 31.7033 50.0714 32.086 50.0714 32.534V37H49.0214ZM61.7362 37V26.402H62.7862V37H61.7362ZM67.3143 37V26.402H68.3643V37H67.3143ZM72.6835 37.168C72.2075 37.168 71.7829 37.0793 71.4095 36.902C71.0362 36.7153 70.7422 36.4633 70.5275 36.146C70.3129 35.8287 70.2055 35.4647 70.2055 35.054C70.2055 34.662 70.2895 34.3073 70.4575 33.99C70.6255 33.6633 70.8869 33.388 71.2415 33.164C71.5962 32.94 72.0489 32.7813 72.5995 32.688L75.5395 32.198V33.15L72.8515 33.598C72.3102 33.6913 71.9182 33.864 71.6755 34.116C71.4422 34.368 71.3255 34.6667 71.3255 35.012C71.3255 35.348 71.4562 35.6327 71.7175 35.866C71.9882 36.0993 72.3335 36.216 72.7535 36.216C73.2669 36.216 73.7149 36.1087 74.0975 35.894C74.4802 35.67 74.7789 35.3713 74.9935 34.998C75.2082 34.6247 75.3155 34.2093 75.3155 33.752V31.848C75.3155 31.4 75.1522 31.036 74.8255 30.756C74.4989 30.476 74.0742 30.336 73.5515 30.336C73.0942 30.336 72.6929 30.4527 72.3475 30.686C72.0022 30.91 71.7455 31.204 71.5775 31.568L70.6255 31.05C70.7655 30.7327 70.9849 30.4433 71.2835 30.182C71.5915 29.9207 71.9415 29.7153 72.3335 29.566C72.7255 29.4073 73.1315 29.328 73.5515 29.328C74.1022 29.328 74.5875 29.4353 75.0075 29.65C75.4369 29.8647 75.7682 30.1633 76.0015 30.546C76.2442 30.9193 76.3655 31.3533 76.3655 31.848V37H75.3155V35.502L75.4695 35.656C75.3389 35.936 75.1335 36.1927 74.8535 36.426C74.5829 36.65 74.2609 36.832 73.8875 36.972C73.5235 37.1027 73.1222 37.168 72.6835 37.168ZM78.5253 37V29.496H79.5753V30.952L79.3373 30.896C79.5239 30.4107 79.8273 30.028 80.2473 29.748C80.6766 29.468 81.1713 29.328 81.7313 29.328C82.2633 29.328 82.7393 29.4493 83.1593 29.692C83.5886 29.9347 83.9246 30.2707 84.1673 30.7C84.4193 31.12 84.5453 31.596 84.5453 32.128V37H83.4953V32.534C83.4953 32.0767 83.4113 31.6893 83.2433 31.372C83.0846 31.0547 82.8559 30.812 82.5573 30.644C82.2679 30.4667 81.9319 30.378 81.5493 30.378C81.1666 30.378 80.8259 30.4667 80.5273 30.644C80.2286 30.812 79.9953 31.0593 79.8273 31.386C79.6593 31.7033 79.5753 32.086 79.5753 32.534V37H78.5253ZM90.1067 40.08C89.5933 40.08 89.1173 40.0007 88.6787 39.842C88.2493 39.6833 87.876 39.464 87.5587 39.184C87.2507 38.9133 87.0127 38.596 86.8447 38.232L87.8107 37.714C87.96 38.0687 88.226 38.3767 88.6087 38.638C88.9913 38.8993 89.4813 39.03 90.0787 39.03C90.536 39.03 90.956 38.9413 91.3387 38.764C91.7213 38.5867 92.0293 38.3253 92.2627 37.98C92.496 37.6347 92.6127 37.21 92.6127 36.706V35.04L92.7807 35.194C92.5193 35.7353 92.132 36.1553 91.6187 36.454C91.1053 36.7433 90.5453 36.888 89.9387 36.888C89.2387 36.888 88.6087 36.72 88.0487 36.384C87.4887 36.048 87.0453 35.5953 86.7187 35.026C86.4013 34.4473 86.2427 33.808 86.2427 33.108C86.2427 32.3987 86.4013 31.7593 86.7187 31.19C87.0453 30.6207 87.484 30.168 88.0347 29.832C88.5947 29.496 89.2293 29.328 89.9387 29.328C90.5453 29.328 91.096 29.468 91.5907 29.748C92.0947 30.028 92.4913 30.406 92.7807 30.882L92.6127 31.176V29.496H93.6627V36.706C93.6627 37.35 93.5087 37.924 93.2007 38.428C92.902 38.9413 92.482 39.3427 91.9407 39.632C91.4087 39.9307 90.7973 40.08 90.1067 40.08ZM89.9947 35.838C90.48 35.838 90.9187 35.7167 91.3107 35.474C91.7027 35.222 92.0153 34.8907 92.2487 34.48C92.4913 34.06 92.6127 33.6027 92.6127 33.108C92.6127 32.6133 92.4913 32.1607 92.2487 31.75C92.0153 31.33 91.7027 30.9987 91.3107 30.756C90.9187 30.504 90.48 30.378 89.9947 30.378C89.5 30.378 89.052 30.504 88.6507 30.756C88.2493 30.9987 87.932 31.3253 87.6987 31.736C87.4747 32.1467 87.3627 32.604 87.3627 33.108C87.3627 33.6027 87.4747 34.06 87.6987 34.48C87.932 34.8907 88.2447 35.222 88.6367 35.474C89.038 35.7167 89.4907 35.838 89.9947 35.838ZM95.8342 32.366V31.316H102.134V32.366H95.8342ZM95.8342 35.656V34.606H102.134V35.656H95.8342ZM104.562 29.622L104.38 26.57H105.5L105.332 29.622H104.562ZM106.662 29.622L106.48 26.57H107.6L107.432 29.622H106.662ZM113.25 37.168C112.55 37.168 111.915 37 111.346 36.664C110.786 36.3187 110.343 35.8473 110.016 35.25C109.689 34.6527 109.526 33.976 109.526 33.22C109.526 32.464 109.685 31.7967 110.002 31.218C110.319 30.63 110.749 30.168 111.29 29.832C111.841 29.496 112.457 29.328 113.138 29.328C113.679 29.328 114.16 29.4307 114.58 29.636C115.009 29.832 115.373 30.1027 115.672 30.448C115.971 30.784 116.199 31.1667 116.358 31.596C116.517 32.016 116.596 32.45 116.596 32.898C116.596 32.9913 116.591 33.0987 116.582 33.22C116.573 33.332 116.559 33.4487 116.54 33.57H110.198V32.59H115.938L115.434 33.01C115.518 32.4967 115.457 32.0393 115.252 31.638C115.056 31.2273 114.771 30.9053 114.398 30.672C114.025 30.4293 113.605 30.308 113.138 30.308C112.671 30.308 112.237 30.4293 111.836 30.672C111.444 30.9147 111.136 31.2553 110.912 31.694C110.688 32.1233 110.599 32.6367 110.646 33.234C110.599 33.8313 110.693 34.354 110.926 34.802C111.169 35.2407 111.495 35.5813 111.906 35.824C112.326 36.0667 112.774 36.188 113.25 36.188C113.801 36.188 114.263 36.0573 114.636 35.796C115.009 35.5347 115.313 35.208 115.546 34.816L116.442 35.292C116.293 35.628 116.064 35.9407 115.756 36.23C115.448 36.51 115.079 36.7387 114.65 36.916C114.23 37.084 113.763 37.168 113.25 37.168ZM118.447 37V29.496H119.497V30.952L119.259 30.896C119.446 30.4107 119.749 30.028 120.169 29.748C120.598 29.468 121.093 29.328 121.653 29.328C122.185 29.328 122.661 29.4493 123.081 29.692C123.51 29.9347 123.846 30.2707 124.089 30.7C124.341 31.12 124.467 31.596 124.467 32.128V37H123.417V32.534C123.417 32.0767 123.333 31.6893 123.165 31.372C123.006 31.0547 122.778 30.812 122.479 30.644C122.19 30.4667 121.854 30.378 121.471 30.378C121.088 30.378 120.748 30.4667 120.449 30.644C120.15 30.812 119.917 31.0593 119.749 31.386C119.581 31.7033 119.497 32.086 119.497 32.534V37H118.447ZM126.725 29.622L126.543 26.57H127.663L127.495 29.622H126.725ZM128.825 29.622L128.643 26.57H129.763L129.595 29.622H128.825ZM131.926 36.454V35.32L136.91 33.038V33.458L131.926 31.176V30.042L137.666 32.772V33.724L131.926 36.454ZM146.884 36.454L141.144 33.724V32.772L146.884 30.042V31.176L141.9 33.458V33.038L146.884 35.32V36.454ZM148.976 37V26.402H150.026V30.952L149.788 30.896C149.975 30.4107 150.278 30.028 150.698 29.748C151.128 29.468 151.622 29.328 152.182 29.328C152.714 29.328 153.19 29.4493 153.61 29.692C154.04 29.9347 154.376 30.2707 154.618 30.7C154.87 31.12 154.996 31.596 154.996 32.128V37H153.946V32.534C153.946 32.0767 153.862 31.6893 153.694 31.372C153.526 31.0547 153.293 30.812 152.994 30.644C152.705 30.4667 152.374 30.378 152 30.378C151.627 30.378 151.291 30.4667 150.992 30.644C150.694 30.812 150.456 31.0593 150.278 31.386C150.11 31.7033 150.026 32.086 150.026 32.534V37H148.976ZM160.418 37.168C159.718 37.168 159.083 37 158.514 36.664C157.954 36.3187 157.51 35.8473 157.184 35.25C156.857 34.6527 156.694 33.976 156.694 33.22C156.694 32.464 156.852 31.7967 157.17 31.218C157.487 30.63 157.916 30.168 158.458 29.832C159.008 29.496 159.624 29.328 160.306 29.328C160.847 29.328 161.328 29.4307 161.748 29.636C162.177 29.832 162.541 30.1027 162.84 30.448C163.138 30.784 163.367 31.1667 163.526 31.596C163.684 32.016 163.764 32.45 163.764 32.898C163.764 32.9913 163.759 33.0987 163.75 33.22C163.74 33.332 163.726 33.4487 163.708 33.57H157.366V32.59H163.106L162.602 33.01C162.686 32.4967 162.625 32.0393 162.42 31.638C162.224 31.2273 161.939 30.9053 161.566 30.672C161.192 30.4293 160.772 30.308 160.306 30.308C159.839 30.308 159.405 30.4293 159.004 30.672C158.612 30.9147 158.304 31.2553 158.08 31.694C157.856 32.1233 157.767 32.6367 157.814 33.234C157.767 33.8313 157.86 34.354 158.094 34.802C158.336 35.2407 158.663 35.5813 159.074 35.824C159.494 36.0667 159.942 36.188 160.418 36.188C160.968 36.188 161.43 36.0573 161.804 35.796C162.177 35.5347 162.48 35.208 162.714 34.816L163.61 35.292C163.46 35.628 163.232 35.9407 162.924 36.23C162.616 36.51 162.247 36.7387 161.818 36.916C161.398 37.084 160.931 37.168 160.418 37.168ZM167.648 37.168C167.172 37.168 166.748 37.0793 166.374 36.902C166.001 36.7153 165.707 36.4633 165.492 36.146C165.278 35.8287 165.17 35.4647 165.17 35.054C165.17 34.662 165.254 34.3073 165.422 33.99C165.59 33.6633 165.852 33.388 166.206 33.164C166.561 32.94 167.014 32.7813 167.564 32.688L170.504 32.198V33.15L167.816 33.598C167.275 33.6913 166.883 33.864 166.64 34.116C166.407 34.368 166.29 34.6667 166.29 35.012C166.29 35.348 166.421 35.6327 166.682 35.866C166.953 36.0993 167.298 36.216 167.718 36.216C168.232 36.216 168.68 36.1087 169.062 35.894C169.445 35.67 169.744 35.3713 169.958 34.998C170.173 34.6247 170.28 34.2093 170.28 33.752V31.848C170.28 31.4 170.117 31.036 169.79 30.756C169.464 30.476 169.039 30.336 168.516 30.336C168.059 30.336 167.658 30.4527 167.312 30.686C166.967 30.91 166.71 31.204 166.542 31.568L165.59 31.05C165.73 30.7327 165.95 30.4433 166.248 30.182C166.556 29.9207 166.906 29.7153 167.298 29.566C167.69 29.4073 168.096 29.328 168.516 29.328C169.067 29.328 169.552 29.4353 169.972 29.65C170.402 29.8647 170.733 30.1633 170.966 30.546C171.209 30.9193 171.33 31.3533 171.33 31.848V37H170.28V35.502L170.434 35.656C170.304 35.936 170.098 36.1927 169.818 36.426C169.548 36.65 169.226 36.832 168.852 36.972C168.488 37.1027 168.087 37.168 167.648 37.168ZM176.878 37.168C176.178 37.168 175.548 37 174.988 36.664C174.428 36.3187 173.985 35.852 173.658 35.264C173.341 34.6667 173.182 33.9947 173.182 33.248C173.182 32.492 173.341 31.82 173.658 31.232C173.985 30.644 174.423 30.182 174.974 29.846C175.534 29.5007 176.169 29.328 176.878 29.328C177.522 29.328 178.096 29.468 178.6 29.748C179.104 30.028 179.501 30.406 179.79 30.882L179.622 31.176V26.402H180.672V37H179.622V35.32L179.79 35.474C179.529 36.0153 179.137 36.4353 178.614 36.734C178.101 37.0233 177.522 37.168 176.878 37.168ZM176.934 36.118C177.438 36.118 177.891 35.992 178.292 35.74C178.703 35.488 179.025 35.1473 179.258 34.718C179.501 34.2793 179.622 33.7893 179.622 33.248C179.622 32.7067 179.501 32.2213 179.258 31.792C179.025 31.3533 178.703 31.008 178.292 30.756C177.891 30.504 177.438 30.378 176.934 30.378C176.439 30.378 175.991 30.504 175.59 30.756C175.189 31.008 174.871 31.3487 174.638 31.778C174.414 32.2073 174.302 32.6973 174.302 33.248C174.302 33.7893 174.414 34.2793 174.638 34.718C174.871 35.1473 175.184 35.488 175.576 35.74C175.977 35.992 176.43 36.118 176.934 36.118ZM182.758 36.454V35.32L187.742 33.038V33.458L182.758 31.176V30.042L188.498 32.772V33.724L182.758 36.454ZM38.2338 58.454L32.4938 55.724V54.772L38.2338 52.042V53.176L33.2498 55.458V55.038L38.2338 57.32V58.454ZM43.196 59.084C42.524 59.084 42.006 58.888 41.642 58.496C41.278 58.104 41.096 57.544 41.096 56.816V52.546H39.71V51.496H40.06C40.3774 51.496 40.6294 51.3933 40.816 51.188C41.0027 50.9733 41.096 50.7073 41.096 50.39V49.76H42.146V51.496H43.798V52.546H42.146V56.816C42.146 57.068 42.1834 57.292 42.258 57.488C42.3327 57.6747 42.4587 57.824 42.636 57.936C42.8227 58.048 43.07 58.104 43.378 58.104C43.4527 58.104 43.5414 58.0993 43.644 58.09C43.7467 58.0807 43.8354 58.0713 43.91 58.062V59C43.798 59.028 43.672 59.0467 43.532 59.056C43.392 59.0747 43.28 59.084 43.196 59.084ZM45.7538 59V51.496H46.8038V59H45.7538ZM45.7538 50.11V48.57H46.8038V50.11H45.7538ZM51.823 59.084C51.151 59.084 50.633 58.888 50.269 58.496C49.905 58.104 49.723 57.544 49.723 56.816V52.546H48.337V51.496H48.687C49.0043 51.496 49.2563 51.3933 49.443 51.188C49.6297 50.9733 49.723 50.7073 49.723 50.39V49.76H50.773V51.496H52.425V52.546H50.773V56.816C50.773 57.068 50.8103 57.292 50.885 57.488C50.9597 57.6747 51.0857 57.824 51.263 57.936C51.4497 58.048 51.697 58.104 52.005 58.104C52.0797 58.104 52.1683 58.0993 52.271 58.09C52.3737 58.0807 52.4623 58.0713 52.537 58.062V59C52.425 59.028 52.299 59.0467 52.159 59.056C52.019 59.0747 51.907 59.084 51.823 59.084ZM54.3807 59V48.402H55.4307V59H54.3807ZM60.996 59.168C60.296 59.168 59.6613 59 59.092 58.664C58.532 58.3187 58.0886 57.8473 57.762 57.25C57.4353 56.6527 57.272 55.976 57.272 55.22C57.272 54.464 57.4306 53.7967 57.748 53.218C58.0653 52.63 58.4946 52.168 59.036 51.832C59.5866 51.496 60.2026 51.328 60.884 51.328C61.4253 51.328 61.906 51.4307 62.326 51.636C62.7553 51.832 63.1193 52.1027 63.418 52.448C63.7166 52.784 63.9453 53.1667 64.104 53.596C64.2626 54.016 64.342 54.45 64.342 54.898C64.342 54.9913 64.3373 55.0987 64.328 55.22C64.3186 55.332 64.3046 55.4487 64.286 55.57H57.944V54.59H63.684L63.18 55.01C63.264 54.4967 63.2033 54.0393 62.998 53.638C62.802 53.2273 62.5173 52.9053 62.144 52.672C61.7706 52.4293 61.3506 52.308 60.884 52.308C60.4173 52.308 59.9833 52.4293 59.582 52.672C59.19 52.9147 58.882 53.2553 58.658 53.694C58.434 54.1233 58.3453 54.6367 58.392 55.234C58.3453 55.8313 58.4386 56.354 58.672 56.802C58.9146 57.2407 59.2413 57.5813 59.652 57.824C60.072 58.0667 60.52 58.188 60.996 58.188C61.5466 58.188 62.0086 58.0573 62.382 57.796C62.7553 57.5347 63.0586 57.208 63.292 56.816L64.188 57.292C64.0386 57.628 63.81 57.9407 63.502 58.23C63.194 58.51 62.8253 58.7387 62.396 58.916C61.976 59.084 61.5093 59.168 60.996 59.168ZM66.1232 58.454V57.32L71.1072 55.038V55.458L66.1232 53.176V52.042L71.8632 54.772V55.724L66.1232 58.454ZM79.5975 59.168C78.8601 59.168 78.1835 59.0373 77.5675 58.776C76.9515 58.5053 76.4148 58.132 75.9575 57.656C75.5095 57.1707 75.1595 56.6013 74.9075 55.948C74.6555 55.2947 74.5295 54.576 74.5295 53.792C74.5295 53.008 74.6555 52.2893 74.9075 51.636C75.1595 50.9827 75.5095 50.4133 75.9575 49.928C76.4148 49.4427 76.9515 49.0693 77.5675 48.808C78.1835 48.5373 78.8601 48.402 79.5975 48.402C80.3068 48.402 80.9415 48.528 81.5015 48.78C82.0708 49.032 82.5468 49.3587 82.9295 49.76C83.3215 50.152 83.6015 50.5673 83.7695 51.006L82.7615 51.496C82.5001 50.8613 82.0988 50.362 81.5575 49.998C81.0161 49.634 80.3628 49.452 79.5975 49.452C78.8321 49.452 78.1508 49.634 77.5535 49.998C76.9561 50.362 76.4895 50.8707 76.1535 51.524C75.8175 52.168 75.6495 52.924 75.6495 53.792C75.6495 54.6507 75.8175 55.4067 76.1535 56.06C76.4895 56.7133 76.9561 57.222 77.5535 57.586C78.1508 57.9407 78.8321 58.118 79.5975 58.118C80.2788 58.118 80.8901 57.9687 81.4315 57.67C81.9821 57.3713 82.4161 56.9653 82.7335 56.452C83.0508 55.9293 83.2095 55.332 83.2095 54.66V54.086L83.7135 54.59H79.5975V53.61H84.3295V54.478C84.3295 55.1593 84.2081 55.7893 83.9655 56.368C83.7228 56.9373 83.3868 57.432 82.9575 57.852C82.5281 58.272 82.0241 58.5987 81.4455 58.832C80.8761 59.056 80.2601 59.168 79.5975 59.168ZM86.1815 59V48.402H87.2315V59H86.1815ZM91.5507 59.168C91.0747 59.168 90.6501 59.0793 90.2767 58.902C89.9034 58.7153 89.6094 58.4633 89.3947 58.146C89.1801 57.8287 89.0727 57.4647 89.0727 57.054C89.0727 56.662 89.1567 56.3073 89.3247 55.99C89.4927 55.6633 89.7541 55.388 90.1087 55.164C90.4634 54.94 90.9161 54.7813 91.4667 54.688L94.4067 54.198V55.15L91.7187 55.598C91.1774 55.6913 90.7854 55.864 90.5427 56.116C90.3094 56.368 90.1927 56.6667 90.1927 57.012C90.1927 57.348 90.3234 57.6327 90.5847 57.866C90.8554 58.0993 91.2007 58.216 91.6207 58.216C92.1341 58.216 92.5821 58.1087 92.9647 57.894C93.3474 57.67 93.6461 57.3713 93.8607 56.998C94.0754 56.6247 94.1827 56.2093 94.1827 55.752V53.848C94.1827 53.4 94.0194 53.036 93.6927 52.756C93.3661 52.476 92.9414 52.336 92.4187 52.336C91.9614 52.336 91.5601 52.4527 91.2147 52.686C90.8694 52.91 90.6127 53.204 90.4447 53.568L89.4927 53.05C89.6327 52.7327 89.8521 52.4433 90.1507 52.182C90.4587 51.9207 90.8087 51.7153 91.2007 51.566C91.5927 51.4073 91.9987 51.328 92.4187 51.328C92.9694 51.328 93.4547 51.4353 93.8747 51.65C94.3041 51.8647 94.6354 52.1633 94.8687 52.546C95.1114 52.9193 95.2327 53.3533 95.2327 53.848V59H94.1827V57.502L94.3367 57.656C94.2061 57.936 94.0007 58.1927 93.7207 58.426C93.4501 58.65 93.1281 58.832 92.7547 58.972C92.3907 59.1027 91.9894 59.168 91.5507 59.168ZM99.9965 59.168C99.2778 59.168 98.6478 58.986 98.1065 58.622C97.5651 58.258 97.1731 57.7633 96.9305 57.138L97.8125 56.718C98.0271 57.1753 98.3258 57.5393 98.7085 57.81C99.1005 58.0807 99.5298 58.216 99.9965 58.216C100.444 58.216 100.822 58.1087 101.13 57.894C101.438 57.67 101.592 57.3807 101.592 57.026C101.592 56.7647 101.518 56.5593 101.368 56.41C101.219 56.2513 101.046 56.13 100.85 56.046C100.654 55.962 100.482 55.9013 100.332 55.864L99.2545 55.556C98.5638 55.36 98.0645 55.0847 97.7565 54.73C97.4485 54.3753 97.2945 53.9647 97.2945 53.498C97.2945 53.0593 97.4065 52.6767 97.6305 52.35C97.8545 52.0233 98.1578 51.7713 98.5405 51.594C98.9231 51.4167 99.3478 51.328 99.8145 51.328C100.449 51.328 101.023 51.496 101.536 51.832C102.059 52.1587 102.428 52.616 102.642 53.204L101.746 53.624C101.56 53.204 101.289 52.8773 100.934 52.644C100.589 52.4013 100.202 52.28 99.7725 52.28C99.3525 52.28 99.0165 52.3873 98.7645 52.602C98.5125 52.8167 98.3865 53.0873 98.3865 53.414C98.3865 53.666 98.4518 53.8667 98.5825 54.016C98.7131 54.1653 98.8625 54.2773 99.0305 54.352C99.2078 54.4267 99.3618 54.4827 99.4925 54.52L100.738 54.884C101.345 55.0613 101.816 55.3367 102.152 55.71C102.498 56.0833 102.67 56.522 102.67 57.026C102.67 57.4367 102.554 57.8053 102.32 58.132C102.096 58.4587 101.784 58.7153 101.382 58.902C100.981 59.0793 100.519 59.168 99.9965 59.168ZM107.12 59.168C106.401 59.168 105.771 58.986 105.23 58.622C104.688 58.258 104.296 57.7633 104.054 57.138L104.936 56.718C105.15 57.1753 105.449 57.5393 105.832 57.81C106.224 58.0807 106.653 58.216 107.12 58.216C107.568 58.216 107.946 58.1087 108.254 57.894C108.562 57.67 108.716 57.3807 108.716 57.026C108.716 56.7647 108.641 56.5593 108.492 56.41C108.342 56.2513 108.17 56.13 107.974 56.046C107.778 55.962 107.605 55.9013 107.456 55.864L106.378 55.556C105.687 55.36 105.188 55.0847 104.88 54.73C104.572 54.3753 104.418 53.9647 104.418 53.498C104.418 53.0593 104.53 52.6767 104.754 52.35C104.978 52.0233 105.281 51.7713 105.664 51.594C106.046 51.4167 106.471 51.328 106.938 51.328C107.572 51.328 108.146 51.496 108.66 51.832C109.182 52.1587 109.551 52.616 109.766 53.204L108.87 53.624C108.683 53.204 108.412 52.8773 108.058 52.644C107.712 52.4013 107.325 52.28 106.896 52.28C106.476 52.28 106.14 52.3873 105.888 52.602C105.636 52.8167 105.51 53.0873 105.51 53.414C105.51 53.666 105.575 53.8667 105.706 54.016C105.836 54.1653 105.986 54.2773 106.154 54.352C106.331 54.4267 106.485 54.4827 106.616 54.52L107.862 54.884C108.468 55.0613 108.94 55.3367 109.276 55.71C109.621 56.0833 109.794 56.522 109.794 57.026C109.794 57.4367 109.677 57.8053 109.444 58.132C109.22 58.4587 108.907 58.7153 108.506 58.902C108.104 59.0793 107.642 59.168 107.12 59.168ZM117.839 59.168C117.102 59.168 116.453 59.014 115.893 58.706C115.333 58.398 114.899 57.978 114.591 57.446C114.283 56.9047 114.129 56.2887 114.129 55.598V48.57H115.249V55.598C115.249 56.102 115.357 56.5453 115.571 56.928C115.795 57.3013 116.099 57.5953 116.481 57.81C116.873 58.0153 117.326 58.118 117.839 58.118C118.353 58.118 118.801 58.0153 119.183 57.81C119.575 57.5953 119.879 57.3013 120.093 56.928C120.317 56.5453 120.429 56.102 120.429 55.598V48.57H121.549V55.598C121.549 56.2887 121.395 56.9047 121.087 57.446C120.779 57.978 120.345 58.398 119.785 58.706C119.235 59.014 118.586 59.168 117.839 59.168ZM123.974 59V48.57H125.094V59H123.974ZM133.575 59.168C132.931 59.168 132.348 59.0233 131.825 58.734C131.312 58.4353 130.924 58.0153 130.663 57.474L130.831 57.32V59H129.781V48.402H130.831V53.176L130.663 52.882C130.962 52.406 131.358 52.028 131.853 51.748C132.357 51.468 132.931 51.328 133.575 51.328C134.284 51.328 134.914 51.5007 135.465 51.846C136.025 52.182 136.464 52.644 136.781 53.232C137.108 53.82 137.271 54.492 137.271 55.248C137.271 55.9947 137.108 56.6667 136.781 57.264C136.464 57.852 136.025 58.3187 135.465 58.664C134.914 59 134.284 59.168 133.575 59.168ZM133.519 58.118C134.023 58.118 134.471 57.992 134.863 57.74C135.264 57.488 135.577 57.1473 135.801 56.718C136.034 56.2793 136.151 55.7893 136.151 55.248C136.151 54.6973 136.034 54.2073 135.801 53.778C135.577 53.3487 135.264 53.008 134.863 52.756C134.471 52.504 134.023 52.378 133.519 52.378C133.015 52.378 132.558 52.504 132.147 52.756C131.746 53.008 131.424 53.3533 131.181 53.792C130.948 54.2213 130.831 54.7067 130.831 55.248C130.831 55.7893 130.948 56.2793 131.181 56.718C131.424 57.1473 131.746 57.488 132.147 57.74C132.558 57.992 133.015 58.118 133.519 58.118ZM139.136 62.08C138.987 62.08 138.833 62.066 138.674 62.038C138.525 62.0193 138.376 61.982 138.226 61.926V60.946C138.32 60.9553 138.436 60.9693 138.576 60.988C138.726 61.016 138.875 61.03 139.024 61.03C139.482 61.03 139.832 60.932 140.074 60.736C140.317 60.5493 140.555 60.1853 140.788 59.644L141.264 58.524L141.236 59.448L138.058 51.496H139.192L141.796 58.062H141.502L144.092 51.496H145.254L141.824 59.952C141.675 60.316 141.484 60.6613 141.25 60.988C141.026 61.3147 140.742 61.576 140.396 61.772C140.051 61.9773 139.631 62.08 139.136 62.08ZM153.781 59.168C153.044 59.168 152.367 59.0373 151.751 58.776C151.135 58.5053 150.598 58.132 150.141 57.656C149.693 57.1707 149.343 56.6013 149.091 55.948C148.839 55.2947 148.713 54.576 148.713 53.792C148.713 53.008 148.839 52.2893 149.091 51.636C149.343 50.9827 149.693 50.4133 150.141 49.928C150.598 49.4427 151.135 49.0693 151.751 48.808C152.367 48.5373 153.044 48.402 153.781 48.402C154.49 48.402 155.125 48.528 155.685 48.78C156.254 49.032 156.73 49.3587 157.113 49.76C157.505 50.152 157.785 50.5673 157.953 51.006L156.903 51.468C156.642 50.8613 156.24 50.376 155.699 50.012C155.167 49.6387 154.528 49.452 153.781 49.452C153.016 49.452 152.334 49.634 151.737 49.998C151.14 50.362 150.673 50.8707 150.337 51.524C150.001 52.168 149.833 52.924 149.833 53.792C149.833 54.6507 150.001 55.4067 150.337 56.06C150.673 56.7133 151.14 57.222 151.737 57.586C152.334 57.9407 153.016 58.118 153.781 58.118C154.528 58.118 155.167 57.936 155.699 57.572C156.24 57.208 156.642 56.7227 156.903 56.116L157.953 56.578C157.785 57.0073 157.505 57.4227 157.113 57.824C156.73 58.216 156.254 58.538 155.685 58.79C155.125 59.042 154.49 59.168 153.781 59.168ZM159.805 59V48.402H160.855V52.952L160.617 52.896C160.803 52.4107 161.107 52.028 161.527 51.748C161.956 51.468 162.451 51.328 163.011 51.328C163.543 51.328 164.019 51.4493 164.439 51.692C164.868 51.9347 165.204 52.2707 165.447 52.7C165.699 53.12 165.825 53.596 165.825 54.128V59H164.775V54.534C164.775 54.0767 164.691 53.6893 164.523 53.372C164.355 53.0547 164.121 52.812 163.823 52.644C163.533 52.4667 163.202 52.378 162.829 52.378C162.455 52.378 162.119 52.4667 161.821 52.644C161.522 52.812 161.284 53.0593 161.107 53.386C160.939 53.7033 160.855 54.086 160.855 54.534V59H159.805ZM170 59.168C169.524 59.168 169.099 59.0793 168.726 58.902C168.353 58.7153 168.059 58.4633 167.844 58.146C167.629 57.8287 167.522 57.4647 167.522 57.054C167.522 56.662 167.606 56.3073 167.774 55.99C167.942 55.6633 168.203 55.388 168.558 55.164C168.913 54.94 169.365 54.7813 169.916 54.688L172.856 54.198V55.15L170.168 55.598C169.627 55.6913 169.235 55.864 168.992 56.116C168.759 56.368 168.642 56.6667 168.642 57.012C168.642 57.348 168.773 57.6327 169.034 57.866C169.305 58.0993 169.65 58.216 170.07 58.216C170.583 58.216 171.031 58.1087 171.414 57.894C171.797 57.67 172.095 57.3713 172.31 56.998C172.525 56.6247 172.632 56.2093 172.632 55.752V53.848C172.632 53.4 172.469 53.036 172.142 52.756C171.815 52.476 171.391 52.336 170.868 52.336C170.411 52.336 170.009 52.4527 169.664 52.686C169.319 52.91 169.062 53.204 168.894 53.568L167.942 53.05C168.082 52.7327 168.301 52.4433 168.6 52.182C168.908 51.9207 169.258 51.7153 169.65 51.566C170.042 51.4073 170.448 51.328 170.868 51.328C171.419 51.328 171.904 51.4353 172.324 51.65C172.753 51.8647 173.085 52.1633 173.318 52.546C173.561 52.9193 173.682 53.3533 173.682 53.848V59H172.632V57.502L172.786 57.656C172.655 57.936 172.45 58.1927 172.17 58.426C171.899 58.65 171.577 58.832 171.204 58.972C170.84 59.1027 170.439 59.168 170 59.168ZM175.842 59V51.496H176.892V52.728L176.752 52.546C176.929 52.1913 177.195 51.9113 177.55 51.706C177.914 51.5007 178.352 51.398 178.866 51.398H179.342V52.448H178.684C178.142 52.448 177.708 52.616 177.382 52.952C177.055 53.288 176.892 53.764 176.892 54.38V59H175.842ZM180.572 59V48.402H181.622V59H180.572ZM187.187 59.168C186.487 59.168 185.853 59 185.283 58.664C184.723 58.3187 184.28 57.8473 183.953 57.25C183.627 56.6527 183.463 55.976 183.463 55.22C183.463 54.464 183.622 53.7967 183.939 53.218C184.257 52.63 184.686 52.168 185.227 51.832C185.778 51.496 186.394 51.328 187.075 51.328C187.617 51.328 188.097 51.4307 188.517 51.636C188.947 51.832 189.311 52.1027 189.609 52.448C189.908 52.784 190.137 53.1667 190.295 53.596C190.454 54.016 190.533 54.45 190.533 54.898C190.533 54.9913 190.529 55.0987 190.519 55.22C190.51 55.332 190.496 55.4487 190.477 55.57H184.135V54.59H189.875L189.371 55.01C189.455 54.4967 189.395 54.0393 189.189 53.638C188.993 53.2273 188.709 52.9053 188.335 52.672C187.962 52.4293 187.542 52.308 187.075 52.308C186.609 52.308 186.175 52.4293 185.773 52.672C185.381 52.9147 185.073 53.2553 184.849 53.694C184.625 54.1233 184.537 54.6367 184.583 55.234C184.537 55.8313 184.63 56.354 184.863 56.802C185.106 57.2407 185.433 57.5813 185.843 57.824C186.263 58.0667 186.711 58.188 187.187 58.188C187.738 58.188 188.2 58.0573 188.573 57.796C188.947 57.5347 189.25 57.208 189.483 56.816L190.379 57.292C190.23 57.628 190.001 57.9407 189.693 58.23C189.385 58.51 189.017 58.7387 188.587 58.916C188.167 59.084 187.701 59.168 187.187 59.168ZM194.989 59.168C194.27 59.168 193.64 58.986 193.099 58.622C192.557 58.258 192.165 57.7633 191.923 57.138L192.805 56.718C193.019 57.1753 193.318 57.5393 193.701 57.81C194.093 58.0807 194.522 58.216 194.989 58.216C195.437 58.216 195.815 58.1087 196.123 57.894C196.431 57.67 196.585 57.3807 196.585 57.026C196.585 56.7647 196.51 56.5593 196.361 56.41C196.211 56.2513 196.039 56.13 195.843 56.046C195.647 55.962 195.474 55.9013 195.325 55.864L194.247 55.556C193.556 55.36 193.057 55.0847 192.749 54.73C192.441 54.3753 192.287 53.9647 192.287 53.498C192.287 53.0593 192.399 52.6767 192.623 52.35C192.847 52.0233 193.15 51.7713 193.533 51.594C193.915 51.4167 194.34 51.328 194.807 51.328C195.441 51.328 196.015 51.496 196.529 51.832C197.051 52.1587 197.42 52.616 197.635 53.204L196.739 53.624C196.552 53.204 196.281 52.8773 195.927 52.644C195.581 52.4013 195.194 52.28 194.765 52.28C194.345 52.28 194.009 52.3873 193.757 52.602C193.505 52.8167 193.379 53.0873 193.379 53.414C193.379 53.666 193.444 53.8667 193.575 54.016C193.705 54.1653 193.855 54.2773 194.023 54.352C194.2 54.4267 194.354 54.4827 194.485 54.52L195.731 54.884C196.337 55.0613 196.809 55.3367 197.145 55.71C197.49 56.0833 197.663 56.522 197.663 57.026C197.663 57.4367 197.546 57.8053 197.313 58.132C197.089 58.4587 196.776 58.7153 196.375 58.902C195.973 59.0793 195.511 59.168 194.989 59.168ZM202.041 59V48.57H205.625C206.306 48.57 206.903 48.7053 207.417 48.976C207.93 49.2373 208.327 49.6107 208.607 50.096C208.896 50.572 209.041 51.1273 209.041 51.762C209.041 52.3967 208.896 52.952 208.607 53.428C208.327 53.904 207.93 54.2773 207.417 54.548C206.913 54.8093 206.315 54.94 205.625 54.94H203.161V59H202.041ZM203.161 53.89H205.681C206.129 53.89 206.521 53.806 206.857 53.638C207.193 53.4607 207.454 53.2133 207.641 52.896C207.827 52.5693 207.921 52.1867 207.921 51.748C207.921 51.3093 207.827 50.9313 207.641 50.614C207.454 50.2967 207.193 50.054 206.857 49.886C206.521 49.7087 206.129 49.62 205.681 49.62H203.161V53.89ZM212.492 59.168C212.016 59.168 211.591 59.0793 211.218 58.902C210.845 58.7153 210.551 58.4633 210.336 58.146C210.121 57.8287 210.014 57.4647 210.014 57.054C210.014 56.662 210.098 56.3073 210.266 55.99C210.434 55.6633 210.695 55.388 211.05 55.164C211.405 54.94 211.857 54.7813 212.408 54.688L215.348 54.198V55.15L212.66 55.598C212.119 55.6913 211.727 55.864 211.484 56.116C211.251 56.368 211.134 56.6667 211.134 57.012C211.134 57.348 211.265 57.6327 211.526 57.866C211.797 58.0993 212.142 58.216 212.562 58.216C213.075 58.216 213.523 58.1087 213.906 57.894C214.289 57.67 214.587 57.3713 214.802 56.998C215.017 56.6247 215.124 56.2093 215.124 55.752V53.848C215.124 53.4 214.961 53.036 214.634 52.756C214.307 52.476 213.883 52.336 213.36 52.336C212.903 52.336 212.501 52.4527 212.156 52.686C211.811 52.91 211.554 53.204 211.386 53.568L210.434 53.05C210.574 52.7327 210.793 52.4433 211.092 52.182C211.4 51.9207 211.75 51.7153 212.142 51.566C212.534 51.4073 212.94 51.328 213.36 51.328C213.911 51.328 214.396 51.4353 214.816 51.65C215.245 51.8647 215.577 52.1633 215.81 52.546C216.053 52.9193 216.174 53.3533 216.174 53.848V59H215.124V57.502L215.278 57.656C215.147 57.936 214.942 58.1927 214.662 58.426C214.391 58.65 214.069 58.832 213.696 58.972C213.332 59.1027 212.931 59.168 212.492 59.168ZM221.067 59.084C220.395 59.084 219.877 58.888 219.513 58.496C219.149 58.104 218.967 57.544 218.967 56.816V52.546H217.581V51.496H217.931C218.248 51.496 218.5 51.3933 218.687 51.188C218.874 50.9733 218.967 50.7073 218.967 50.39V49.76H220.017V51.496H221.669V52.546H220.017V56.816C220.017 57.068 220.054 57.292 220.129 57.488C220.204 57.6747 220.33 57.824 220.507 57.936C220.694 58.048 220.941 58.104 221.249 58.104C221.324 58.104 221.412 58.0993 221.515 58.09C221.618 58.0807 221.706 58.0713 221.781 58.062V59C221.669 59.028 221.543 59.0467 221.403 59.056C221.263 59.0747 221.151 59.084 221.067 59.084ZM226.495 59.084C225.823 59.084 225.305 58.888 224.941 58.496C224.577 58.104 224.395 57.544 224.395 56.816V52.546H223.009V51.496H223.359C223.676 51.496 223.928 51.3933 224.115 51.188C224.302 50.9733 224.395 50.7073 224.395 50.39V49.76H225.445V51.496H227.097V52.546H225.445V56.816C225.445 57.068 225.482 57.292 225.557 57.488C225.632 57.6747 225.758 57.824 225.935 57.936C226.122 58.048 226.369 58.104 226.677 58.104C226.752 58.104 226.84 58.0993 226.943 58.09C227.046 58.0807 227.134 58.0713 227.209 58.062V59C227.097 59.028 226.971 59.0467 226.831 59.056C226.691 59.0747 226.579 59.084 226.495 59.084ZM232.195 59.168C231.495 59.168 230.861 59 230.291 58.664C229.731 58.3187 229.288 57.8473 228.961 57.25C228.635 56.6527 228.471 55.976 228.471 55.22C228.471 54.464 228.63 53.7967 228.947 53.218C229.265 52.63 229.694 52.168 230.235 51.832C230.786 51.496 231.402 51.328 232.083 51.328C232.625 51.328 233.105 51.4307 233.525 51.636C233.955 51.832 234.319 52.1027 234.617 52.448C234.916 52.784 235.145 53.1667 235.303 53.596C235.462 54.016 235.541 54.45 235.541 54.898C235.541 54.9913 235.537 55.0987 235.527 55.22C235.518 55.332 235.504 55.4487 235.485 55.57H229.143V54.59H234.883L234.379 55.01C234.463 54.4967 234.403 54.0393 234.197 53.638C234.001 53.2273 233.717 52.9053 233.343 52.672C232.97 52.4293 232.55 52.308 232.083 52.308C231.617 52.308 231.183 52.4293 230.781 52.672C230.389 52.9147 230.081 53.2553 229.857 53.694C229.633 54.1233 229.545 54.6367 229.591 55.234C229.545 55.8313 229.638 56.354 229.871 56.802C230.114 57.2407 230.441 57.5813 230.851 57.824C231.271 58.0667 231.719 58.188 232.195 58.188C232.746 58.188 233.208 58.0573 233.581 57.796C233.955 57.5347 234.258 57.208 234.491 56.816L235.387 57.292C235.238 57.628 235.009 57.9407 234.701 58.23C234.393 58.51 234.025 58.7387 233.595 58.916C233.175 59.084 232.709 59.168 232.195 59.168ZM237.392 59V51.496H238.442V52.728L238.302 52.546C238.48 52.1913 238.746 51.9113 239.1 51.706C239.464 51.5007 239.903 51.398 240.416 51.398H240.892V52.448H240.234C239.693 52.448 239.259 52.616 238.932 52.952C238.606 53.288 238.442 53.764 238.442 54.38V59H237.392ZM244.727 59.168C244.008 59.168 243.378 58.986 242.837 58.622C242.296 58.258 241.904 57.7633 241.661 57.138L242.543 56.718C242.758 57.1753 243.056 57.5393 243.439 57.81C243.831 58.0807 244.26 58.216 244.727 58.216C245.175 58.216 245.553 58.1087 245.861 57.894C246.169 57.67 246.323 57.3807 246.323 57.026C246.323 56.7647 246.248 56.5593 246.099 56.41C245.95 56.2513 245.777 56.13 245.581 56.046C245.385 55.962 245.212 55.9013 245.063 55.864L243.985 55.556C243.294 55.36 242.795 55.0847 242.487 54.73C242.179 54.3753 242.025 53.9647 242.025 53.498C242.025 53.0593 242.137 52.6767 242.361 52.35C242.585 52.0233 242.888 51.7713 243.271 51.594C243.654 51.4167 244.078 51.328 244.545 51.328C245.18 51.328 245.754 51.496 246.267 51.832C246.79 52.1587 247.158 52.616 247.373 53.204L246.477 53.624C246.29 53.204 246.02 52.8773 245.665 52.644C245.32 52.4013 244.932 52.28 244.503 52.28C244.083 52.28 243.747 52.3873 243.495 52.602C243.243 52.8167 243.117 53.0873 243.117 53.414C243.117 53.666 243.182 53.8667 243.313 54.016C243.444 54.1653 243.593 54.2773 243.761 54.352C243.938 54.4267 244.092 54.4827 244.223 54.52L245.469 54.884C246.076 55.0613 246.547 55.3367 246.883 55.71C247.228 56.0833 247.401 56.522 247.401 57.026C247.401 57.4367 247.284 57.8053 247.051 58.132C246.827 58.4587 246.514 58.7153 246.113 58.902C245.712 59.0793 245.25 59.168 244.727 59.168ZM252.76 59.168C252.051 59.168 251.407 59 250.828 58.664C250.249 58.3187 249.787 57.852 249.442 57.264C249.106 56.6667 248.938 55.99 248.938 55.234C248.938 54.4873 249.106 53.82 249.442 53.232C249.778 52.644 250.231 52.182 250.8 51.846C251.379 51.5007 252.032 51.328 252.76 51.328C253.488 51.328 254.137 51.496 254.706 51.832C255.285 52.168 255.737 52.63 256.064 53.218C256.4 53.806 256.568 54.478 256.568 55.234C256.568 55.9993 256.395 56.6807 256.05 57.278C255.705 57.866 255.243 58.328 254.664 58.664C254.095 59 253.46 59.168 252.76 59.168ZM252.76 58.118C253.264 58.118 253.717 57.992 254.118 57.74C254.529 57.488 254.851 57.1427 255.084 56.704C255.327 56.2653 255.448 55.7753 255.448 55.234C255.448 54.6927 255.327 54.2073 255.084 53.778C254.851 53.3487 254.529 53.008 254.118 52.756C253.717 52.504 253.264 52.378 252.76 52.378C252.256 52.378 251.799 52.504 251.388 52.756C250.987 53.008 250.665 53.3487 250.422 53.778C250.179 54.2073 250.058 54.6927 250.058 55.234C250.058 55.7753 250.179 56.2653 250.422 56.704C250.665 57.1427 250.987 57.488 251.388 57.74C251.799 57.992 252.256 58.118 252.76 58.118ZM258.42 59V51.496H259.47V52.952L259.232 52.896C259.418 52.4107 259.722 52.028 260.142 51.748C260.571 51.468 261.066 51.328 261.626 51.328C262.158 51.328 262.634 51.4493 263.054 51.692C263.483 51.9347 263.819 52.2707 264.062 52.7C264.314 53.12 264.44 53.596 264.44 54.128V59H263.39V54.534C263.39 54.0767 263.306 53.6893 263.138 53.372C262.979 53.0547 262.75 52.812 262.452 52.644C262.162 52.4667 261.826 52.378 261.444 52.378C261.061 52.378 260.72 52.4667 260.422 52.644C260.123 52.812 259.89 53.0593 259.722 53.386C259.554 53.7033 259.47 54.086 259.47 54.534V59H258.42ZM272.338 59.168C271.629 59.168 270.985 59 270.406 58.664C269.827 58.3187 269.365 57.852 269.02 57.264C268.684 56.6667 268.516 55.99 268.516 55.234C268.516 54.4873 268.684 53.82 269.02 53.232C269.356 52.644 269.809 52.182 270.378 51.846C270.957 51.5007 271.61 51.328 272.338 51.328C273.066 51.328 273.715 51.496 274.284 51.832C274.863 52.168 275.315 52.63 275.642 53.218C275.978 53.806 276.146 54.478 276.146 55.234C276.146 55.9993 275.973 56.6807 275.628 57.278C275.283 57.866 274.821 58.328 274.242 58.664C273.673 59 273.038 59.168 272.338 59.168ZM272.338 58.118C272.842 58.118 273.295 57.992 273.696 57.74C274.107 57.488 274.429 57.1427 274.662 56.704C274.905 56.2653 275.026 55.7753 275.026 55.234C275.026 54.6927 274.905 54.2073 274.662 53.778C274.429 53.3487 274.107 53.008 273.696 52.756C273.295 52.504 272.842 52.378 272.338 52.378C271.834 52.378 271.377 52.504 270.966 52.756C270.565 53.008 270.243 53.3487 270 53.778C269.757 54.2073 269.636 54.6927 269.636 55.234C269.636 55.7753 269.757 56.2653 270 56.704C270.243 57.1427 270.565 57.488 270.966 57.74C271.377 57.992 271.834 58.118 272.338 58.118ZM277.998 59V51.496H279.048V52.952L278.81 52.896C278.997 52.4107 279.3 52.028 279.72 51.748C280.149 51.468 280.644 51.328 281.204 51.328C281.736 51.328 282.212 51.4493 282.632 51.692C283.061 51.9347 283.397 52.2707 283.64 52.7C283.892 53.12 284.018 53.596 284.018 54.128V59H282.968V54.534C282.968 54.0767 282.884 53.6893 282.716 53.372C282.557 53.0547 282.329 52.812 282.03 52.644C281.741 52.4667 281.405 52.378 281.022 52.378C280.639 52.378 280.299 52.4667 280 52.644C279.701 52.812 279.468 53.0593 279.3 53.386C279.132 53.7033 279.048 54.086 279.048 54.534V59H277.998ZM27.232 81V70.57H30.816C31.4973 70.57 32.0947 70.7053 32.608 70.976C33.1213 71.2373 33.518 71.6107 33.798 72.096C34.0873 72.572 34.232 73.1273 34.232 73.762C34.232 74.4993 34.036 75.1293 33.644 75.652C33.2613 76.1747 32.7387 76.5433 32.076 76.758L34.512 81H33.196L30.648 76.506L31.404 76.94H28.352V81H27.232ZM28.352 75.89H30.872C31.32 75.89 31.712 75.806 32.048 75.638C32.384 75.4607 32.6453 75.2133 32.832 74.896C33.0187 74.5693 33.112 74.1867 33.112 73.748C33.112 73.3093 33.0187 72.9313 32.832 72.614C32.6453 72.2967 32.384 72.054 32.048 71.886C31.712 71.7087 31.32 71.62 30.872 71.62H28.352V75.89ZM36.0468 81V70.402H37.0968V74.952L36.8588 74.896C37.0454 74.4107 37.3488 74.028 37.7688 73.748C38.1981 73.468 38.6928 73.328 39.2528 73.328C39.7848 73.328 40.2608 73.4493 40.6808 73.692C41.1101 73.9347 41.4461 74.2707 41.6888 74.7C41.9408 75.12 42.0668 75.596 42.0668 76.128V81H41.0168V76.534C41.0168 76.0767 40.9328 75.6893 40.7648 75.372C40.5968 75.0547 40.3634 74.812 40.0648 74.644C39.7754 74.4667 39.4441 74.378 39.0708 74.378C38.6974 74.378 38.3614 74.4667 38.0628 74.644C37.7641 74.812 37.5261 75.0593 37.3488 75.386C37.1808 75.7033 37.0968 76.086 37.0968 76.534V81H36.0468ZM47.4881 81.168C46.7881 81.168 46.1535 81 45.5841 80.664C45.0241 80.3187 44.5808 79.8473 44.2541 79.25C43.9275 78.6527 43.7641 77.976 43.7641 77.22C43.7641 76.464 43.9228 75.7967 44.2401 75.218C44.5575 74.63 44.9868 74.168 45.5281 73.832C46.0788 73.496 46.6948 73.328 47.3761 73.328C47.9175 73.328 48.3981 73.4307 48.8181 73.636C49.2475 73.832 49.6115 74.1027 49.9101 74.448C50.2088 74.784 50.4375 75.1667 50.5961 75.596C50.7548 76.016 50.8341 76.45 50.8341 76.898C50.8341 76.9913 50.8295 77.0987 50.8201 77.22C50.8108 77.332 50.7968 77.4487 50.7781 77.57H44.4361V76.59H50.1761L49.6721 77.01C49.7561 76.4967 49.6955 76.0393 49.4901 75.638C49.2941 75.2273 49.0095 74.9053 48.6361 74.672C48.2628 74.4293 47.8428 74.308 47.3761 74.308C46.9095 74.308 46.4755 74.4293 46.0741 74.672C45.6821 74.9147 45.3741 75.2553 45.1501 75.694C44.9261 76.1233 44.8375 76.6367 44.8841 77.234C44.8375 77.8313 44.9308 78.354 45.1641 78.802C45.4068 79.2407 45.7335 79.5813 46.1441 79.824C46.5641 80.0667 47.0121 80.188 47.4881 80.188C48.0388 80.188 48.5008 80.0573 48.8741 79.796C49.2475 79.5347 49.5508 79.208 49.7841 78.816L50.6801 79.292C50.5308 79.628 50.3021 79.9407 49.9941 80.23C49.6861 80.51 49.3175 80.7387 48.8881 80.916C48.4681 81.084 48.0015 81.168 47.4881 81.168ZM52.6854 81V73.496H53.7354V74.952L53.4974 74.896C53.6841 74.4107 53.9874 74.028 54.4074 73.748C54.8368 73.468 55.3314 73.328 55.8914 73.328C56.4234 73.328 56.8994 73.4493 57.3194 73.692C57.7488 73.9347 58.0848 74.2707 58.3274 74.7C58.5794 75.12 58.7054 75.596 58.7054 76.128V81H57.6554V76.534C57.6554 76.0767 57.5714 75.6893 57.4034 75.372C57.2448 75.0547 57.0161 74.812 56.7174 74.644C56.4281 74.4667 56.0921 74.378 55.7094 74.378C55.3268 74.378 54.9861 74.4667 54.6874 74.644C54.3888 74.812 54.1554 75.0593 53.9874 75.386C53.8194 75.7033 53.7354 76.086 53.7354 76.534V81H52.6854ZM63.3708 81.168C62.8481 81.168 62.3721 81.0467 61.9428 80.804C61.5135 80.552 61.1728 80.2067 60.9208 79.768C60.6781 79.32 60.5568 78.8067 60.5568 78.228V73.496H61.6068V78.102C61.6068 78.5033 61.6861 78.858 61.8448 79.166C62.0128 79.4647 62.2415 79.698 62.5308 79.866C62.8295 80.034 63.1701 80.118 63.5528 80.118C63.9355 80.118 64.2761 80.034 64.5748 79.866C64.8735 79.6887 65.1068 79.4413 65.2748 79.124C65.4428 78.7973 65.5268 78.41 65.5268 77.962V73.496H66.5768V81H65.5268V79.544L65.7648 79.6C65.5875 80.0853 65.2841 80.468 64.8548 80.748C64.4255 81.028 63.9308 81.168 63.3708 81.168ZM68.7362 81V73.496H69.7862V74.924L69.6182 74.714C69.8235 74.2753 70.1269 73.9347 70.5282 73.692C70.9389 73.4493 71.3869 73.328 71.8722 73.328C72.4509 73.328 72.9735 73.4913 73.4402 73.818C73.9069 74.1447 74.2382 74.5693 74.4342 75.092L74.1402 75.106C74.3269 74.5273 74.6489 74.0887 75.1062 73.79C75.5729 73.482 76.0862 73.328 76.6462 73.328C77.1502 73.328 77.6122 73.4493 78.0322 73.692C78.4615 73.9347 78.8022 74.2707 79.0542 74.7C79.3155 75.12 79.4462 75.596 79.4462 76.128V81H78.3962V76.534C78.3962 76.0767 78.3122 75.6893 78.1442 75.372C77.9855 75.0547 77.7662 74.812 77.4862 74.644C77.2062 74.4667 76.8842 74.378 76.5202 74.378C76.1655 74.378 75.8435 74.4667 75.5542 74.644C75.2649 74.812 75.0362 75.0593 74.8682 75.386C74.7002 75.7033 74.6162 76.086 74.6162 76.534V81H73.5662V76.534C73.5662 76.0767 73.4822 75.6893 73.3142 75.372C73.1555 75.0547 72.9362 74.812 72.6562 74.644C72.3762 74.4667 72.0542 74.378 71.6902 74.378C71.3262 74.378 70.9995 74.4667 70.7102 74.644C70.4302 74.812 70.2062 75.0593 70.0382 75.386C69.8702 75.7033 69.7862 76.086 69.7862 76.534V81H68.7362ZM87.849 80.454L82.109 77.724V76.772L87.849 74.042V75.176L82.865 77.458V77.038L87.849 79.32V80.454ZM88.8913 82.68L93.6233 71.144H94.8413L90.1093 82.68H88.8913ZM98.8132 81.084C98.1412 81.084 97.6232 80.888 97.2592 80.496C96.8952 80.104 96.7132 79.544 96.7132 78.816V74.546H95.3272V73.496H95.6772C95.9946 73.496 96.2466 73.3933 96.4332 73.188C96.6199 72.9733 96.7132 72.7073 96.7132 72.39V71.76H97.7632V73.496H99.4152V74.546H97.7632V78.816C97.7632 79.068 97.8006 79.292 97.8752 79.488C97.9499 79.6747 98.0759 79.824 98.2532 79.936C98.4399 80.048 98.6872 80.104 98.9952 80.104C99.0699 80.104 99.1586 80.0993 99.2612 80.09C99.3639 80.0807 99.4526 80.0713 99.5272 80.062V81C99.4152 81.028 99.2892 81.0467 99.1492 81.056C99.0092 81.0747 98.8972 81.084 98.8132 81.084ZM101.371 81V73.496H102.421V81H101.371ZM101.371 72.11V70.57H102.421V72.11H101.371ZM107.44 81.084C106.768 81.084 106.25 80.888 105.886 80.496C105.522 80.104 105.34 79.544 105.34 78.816V74.546H103.954V73.496H104.304C104.622 73.496 104.874 73.3933 105.06 73.188C105.247 72.9733 105.34 72.7073 105.34 72.39V71.76H106.39V73.496H108.042V74.546H106.39V78.816C106.39 79.068 106.428 79.292 106.502 79.488C106.577 79.6747 106.703 79.824 106.88 79.936C107.067 80.048 107.314 80.104 107.622 80.104C107.697 80.104 107.786 80.0993 107.888 80.09C107.991 80.0807 108.08 80.0713 108.154 80.062V81C108.042 81.028 107.916 81.0467 107.776 81.056C107.636 81.0747 107.524 81.084 107.44 81.084ZM109.998 81V70.402H111.048V81H109.998ZM116.613 81.168C115.913 81.168 115.278 81 114.709 80.664C114.149 80.3187 113.706 79.8473 113.379 79.25C113.052 78.6527 112.889 77.976 112.889 77.22C112.889 76.464 113.048 75.7967 113.365 75.218C113.682 74.63 114.112 74.168 114.653 73.832C115.204 73.496 115.82 73.328 116.501 73.328C117.042 73.328 117.523 73.4307 117.943 73.636C118.372 73.832 118.736 74.1027 119.035 74.448C119.334 74.784 119.562 75.1667 119.721 75.596C119.88 76.016 119.959 76.45 119.959 76.898C119.959 76.9913 119.954 77.0987 119.945 77.22C119.936 77.332 119.922 77.4487 119.903 77.57H113.561V76.59H119.301L118.797 77.01C118.881 76.4967 118.82 76.0393 118.615 75.638C118.419 75.2273 118.134 74.9053 117.761 74.672C117.388 74.4293 116.968 74.308 116.501 74.308C116.034 74.308 115.6 74.4293 115.199 74.672C114.807 74.9147 114.499 75.2553 114.275 75.694C114.051 76.1233 113.962 76.6367 114.009 77.234C113.962 77.8313 114.056 78.354 114.289 78.802C114.532 79.2407 114.858 79.5813 115.269 79.824C115.689 80.0667 116.137 80.188 116.613 80.188C117.164 80.188 117.626 80.0573 117.999 79.796C118.372 79.5347 118.676 79.208 118.909 78.816L119.805 79.292C119.656 79.628 119.427 79.9407 119.119 80.23C118.811 80.51 118.442 80.7387 118.013 80.916C117.593 81.084 117.126 81.168 116.613 81.168ZM121.74 80.454V79.32L126.724 77.038V77.458L121.74 75.176V74.042L127.48 76.772V77.724L121.74 80.454ZM38.2338 102.454L32.4938 99.724V98.772L38.2338 96.042V97.176L33.2498 99.458V99.038L38.2338 101.32V102.454ZM40.326 103V95.496H41.376V96.924L41.208 96.714C41.4134 96.2753 41.7167 95.9347 42.118 95.692C42.5287 95.4493 42.9767 95.328 43.462 95.328C44.0407 95.328 44.5634 95.4913 45.03 95.818C45.4967 96.1447 45.828 96.5693 46.024 97.092L45.73 97.106C45.9167 96.5273 46.2387 96.0887 46.696 95.79C47.1627 95.482 47.676 95.328 48.236 95.328C48.74 95.328 49.202 95.4493 49.622 95.692C50.0514 95.9347 50.392 96.2707 50.644 96.7C50.9054 97.12 51.036 97.596 51.036 98.128V103H49.986V98.534C49.986 98.0767 49.902 97.6893 49.734 97.372C49.5754 97.0547 49.356 96.812 49.076 96.644C48.796 96.4667 48.474 96.378 48.11 96.378C47.7554 96.378 47.4334 96.4667 47.144 96.644C46.8547 96.812 46.626 97.0593 46.458 97.386C46.29 97.7033 46.206 98.086 46.206 98.534V103H45.156V98.534C45.156 98.0767 45.072 97.6893 44.904 97.372C44.7454 97.0547 44.526 96.812 44.246 96.644C43.966 96.4667 43.644 96.378 43.28 96.378C42.916 96.378 42.5894 96.4667 42.3 96.644C42.02 96.812 41.796 97.0593 41.628 97.386C41.46 97.7033 41.376 98.086 41.376 98.534V103H40.326ZM56.4569 103.168C55.7569 103.168 55.1222 103 54.5529 102.664C53.9929 102.319 53.5496 101.847 53.2229 101.25C52.8962 100.653 52.7329 99.976 52.7329 99.22C52.7329 98.464 52.8916 97.7967 53.2089 97.218C53.5262 96.63 53.9556 96.168 54.4969 95.832C55.0476 95.496 55.6636 95.328 56.3449 95.328C56.8862 95.328 57.3669 95.4307 57.7869 95.636C58.2162 95.832 58.5802 96.1027 58.8789 96.448C59.1776 96.784 59.4062 97.1667 59.5649 97.596C59.7236 98.016 59.8029 98.45 59.8029 98.898C59.8029 98.9913 59.7982 99.0987 59.7889 99.22C59.7796 99.332 59.7656 99.4487 59.7469 99.57H53.4049V98.59H59.1449L58.6409 99.01C58.7249 98.4967 58.6642 98.0393 58.4589 97.638C58.2629 97.2273 57.9782 96.9053 57.6049 96.672C57.2316 96.4293 56.8116 96.308 56.3449 96.308C55.8782 96.308 55.4442 96.4293 55.0429 96.672C54.6509 96.9147 54.3429 97.2553 54.1189 97.694C53.8949 98.1233 53.8062 98.6367 53.8529 99.234C53.8062 99.8313 53.8996 100.354 54.1329 100.802C54.3756 101.241 54.7022 101.581 55.1129 101.824C55.5329 102.067 55.9809 102.188 56.4569 102.188C57.0076 102.188 57.4696 102.057 57.8429 101.796C58.2162 101.535 58.5196 101.208 58.7529 100.816L59.6489 101.292C59.4996 101.628 59.2709 101.941 58.9629 102.23C58.6549 102.51 58.2862 102.739 57.8569 102.916C57.4369 103.084 56.9702 103.168 56.4569 103.168ZM64.5242 103.084C63.8522 103.084 63.3342 102.888 62.9702 102.496C62.6062 102.104 62.4242 101.544 62.4242 100.816V96.546H61.0382V95.496H61.3882C61.7055 95.496 61.9575 95.3933 62.1442 95.188C62.3308 94.9733 62.4242 94.7073 62.4242 94.39V93.76H63.4742V95.496H65.1262V96.546H63.4742V100.816C63.4742 101.068 63.5115 101.292 63.5862 101.488C63.6608 101.675 63.7868 101.824 63.9642 101.936C64.1508 102.048 64.3982 102.104 64.7062 102.104C64.7808 102.104 64.8695 102.099 64.9722 102.09C65.0748 102.081 65.1635 102.071 65.2382 102.062V103C65.1262 103.028 65.0002 103.047 64.8602 103.056C64.7202 103.075 64.6082 103.084 64.5242 103.084ZM69.1152 103.168C68.6392 103.168 68.2145 103.079 67.8412 102.902C67.4679 102.715 67.1739 102.463 66.9592 102.146C66.7445 101.829 66.6372 101.465 66.6372 101.054C66.6372 100.662 66.7212 100.307 66.8892 99.99C67.0572 99.6633 67.3185 99.388 67.6732 99.164C68.0279 98.94 68.4805 98.7813 69.0312 98.688L71.9712 98.198V99.15L69.2832 99.598C68.7419 99.6913 68.3499 99.864 68.1072 100.116C67.8739 100.368 67.7572 100.667 67.7572 101.012C67.7572 101.348 67.8879 101.633 68.1492 101.866C68.4199 102.099 68.7652 102.216 69.1852 102.216C69.6985 102.216 70.1465 102.109 70.5292 101.894C70.9119 101.67 71.2105 101.371 71.4252 100.998C71.6399 100.625 71.7472 100.209 71.7472 99.752V97.848C71.7472 97.4 71.5839 97.036 71.2572 96.756C70.9305 96.476 70.5059 96.336 69.9832 96.336C69.5259 96.336 69.1245 96.4527 68.7792 96.686C68.4339 96.91 68.1772 97.204 68.0092 97.568L67.0572 97.05C67.1972 96.7327 67.4165 96.4433 67.7152 96.182C68.0232 95.9207 68.3732 95.7153 68.7652 95.566C69.1572 95.4073 69.5632 95.328 69.9832 95.328C70.5339 95.328 71.0192 95.4353 71.4392 95.65C71.8685 95.8647 72.1999 96.1633 72.4332 96.546C72.6759 96.9193 72.7972 97.3533 72.7972 97.848V103H71.7472V101.502L71.9012 101.656C71.7705 101.936 71.5652 102.193 71.2852 102.426C71.0145 102.65 70.6925 102.832 70.3192 102.972C69.9552 103.103 69.5539 103.168 69.1152 103.168ZM77.3358 103V95.496H78.3858V96.952L78.1478 96.896C78.3345 96.4107 78.6378 96.028 79.0578 95.748C79.4871 95.468 79.9818 95.328 80.5418 95.328C81.0738 95.328 81.5498 95.4493 81.9698 95.692C82.3991 95.9347 82.7351 96.2707 82.9778 96.7C83.2298 97.12 83.3558 97.596 83.3558 98.128V103H82.3058V98.534C82.3058 98.0767 82.2218 97.6893 82.0538 97.372C81.8951 97.0547 81.6665 96.812 81.3678 96.644C81.0785 96.4667 80.7425 96.378 80.3598 96.378C79.9771 96.378 79.6365 96.4667 79.3378 96.644C79.0391 96.812 78.8058 97.0593 78.6378 97.386C78.4698 97.7033 78.3858 98.086 78.3858 98.534V103H77.3358ZM87.5312 103.168C87.0552 103.168 86.6305 103.079 86.2572 102.902C85.8839 102.715 85.5899 102.463 85.3752 102.146C85.1605 101.829 85.0532 101.465 85.0532 101.054C85.0532 100.662 85.1372 100.307 85.3052 99.99C85.4732 99.6633 85.7345 99.388 86.0892 99.164C86.4439 98.94 86.8965 98.7813 87.4472 98.688L90.3872 98.198V99.15L87.6992 99.598C87.1579 99.6913 86.7659 99.864 86.5232 100.116C86.2899 100.368 86.1732 100.667 86.1732 101.012C86.1732 101.348 86.3039 101.633 86.5652 101.866C86.8359 102.099 87.1812 102.216 87.6012 102.216C88.1145 102.216 88.5625 102.109 88.9452 101.894C89.3279 101.67 89.6265 101.371 89.8412 100.998C90.0559 100.625 90.1632 100.209 90.1632 99.752V97.848C90.1632 97.4 89.9999 97.036 89.6732 96.756C89.3465 96.476 88.9219 96.336 88.3992 96.336C87.9419 96.336 87.5405 96.4527 87.1952 96.686C86.8499 96.91 86.5932 97.204 86.4252 97.568L85.4732 97.05C85.6132 96.7327 85.8325 96.4433 86.1312 96.182C86.4392 95.9207 86.7892 95.7153 87.1812 95.566C87.5732 95.4073 87.9792 95.328 88.3992 95.328C88.9499 95.328 89.4352 95.4353 89.8552 95.65C90.2845 95.8647 90.6159 96.1633 90.8492 96.546C91.0919 96.9193 91.2132 97.3533 91.2132 97.848V103H90.1632V101.502L90.3172 101.656C90.1865 101.936 89.9812 102.193 89.7012 102.426C89.4305 102.65 89.1085 102.832 88.7352 102.972C88.3712 103.103 87.9699 103.168 87.5312 103.168ZM93.3729 103V95.496H94.4229V96.924L94.2549 96.714C94.4603 96.2753 94.7636 95.9347 95.1649 95.692C95.5756 95.4493 96.0236 95.328 96.5089 95.328C97.0876 95.328 97.6103 95.4913 98.0769 95.818C98.5436 96.1447 98.8749 96.5693 99.0709 97.092L98.7769 97.106C98.9636 96.5273 99.2856 96.0887 99.7429 95.79C100.21 95.482 100.723 95.328 101.283 95.328C101.787 95.328 102.249 95.4493 102.669 95.692C103.098 95.9347 103.439 96.2707 103.691 96.7C103.952 97.12 104.083 97.596 104.083 98.128V103H103.033V98.534C103.033 98.0767 102.949 97.6893 102.781 97.372C102.622 97.0547 102.403 96.812 102.123 96.644C101.843 96.4667 101.521 96.378 101.157 96.378C100.802 96.378 100.48 96.4667 100.191 96.644C99.9016 96.812 99.6729 97.0593 99.5049 97.386C99.3369 97.7033 99.2529 98.086 99.2529 98.534V103H98.2029V98.534C98.2029 98.0767 98.1189 97.6893 97.9509 97.372C97.7923 97.0547 97.5729 96.812 97.2929 96.644C97.0129 96.4667 96.6909 96.378 96.3269 96.378C95.9629 96.378 95.6363 96.4667 95.3469 96.644C95.0669 96.812 94.8429 97.0593 94.6749 97.386C94.5069 97.7033 94.4229 98.086 94.4229 98.534V103H93.3729ZM109.504 103.168C108.804 103.168 108.169 103 107.6 102.664C107.04 102.319 106.596 101.847 106.27 101.25C105.943 100.653 105.78 99.976 105.78 99.22C105.78 98.464 105.938 97.7967 106.256 97.218C106.573 96.63 107.002 96.168 107.544 95.832C108.094 95.496 108.71 95.328 109.392 95.328C109.933 95.328 110.414 95.4307 110.834 95.636C111.263 95.832 111.627 96.1027 111.926 96.448C112.224 96.784 112.453 97.1667 112.612 97.596C112.77 98.016 112.85 98.45 112.85 98.898C112.85 98.9913 112.845 99.0987 112.836 99.22C112.826 99.332 112.812 99.4487 112.794 99.57H106.452V98.59H112.192L111.688 99.01C111.772 98.4967 111.711 98.0393 111.506 97.638C111.31 97.2273 111.025 96.9053 110.652 96.672C110.278 96.4293 109.858 96.308 109.392 96.308C108.925 96.308 108.491 96.4293 108.09 96.672C107.698 96.9147 107.39 97.2553 107.166 97.694C106.942 98.1233 106.853 98.6367 106.9 99.234C106.853 99.8313 106.946 100.354 107.18 100.802C107.422 101.241 107.749 101.581 108.16 101.824C108.58 102.067 109.028 102.188 109.504 102.188C110.054 102.188 110.516 102.057 110.89 101.796C111.263 101.535 111.566 101.208 111.8 100.816L112.696 101.292C112.546 101.628 112.318 101.941 112.01 102.23C111.702 102.51 111.333 102.739 110.904 102.916C110.484 103.084 110.017 103.168 109.504 103.168ZM114.715 98.366V97.316H121.015V98.366H114.715ZM114.715 101.656V100.606H121.015V101.656H114.715ZM123.443 95.622L123.261 92.57H124.381L124.213 95.622H123.443ZM125.543 95.622L125.361 92.57H126.481L126.313 95.622H125.543ZM132.103 103.168C131.403 103.168 130.773 103 130.213 102.664C129.653 102.319 129.209 101.852 128.883 101.264C128.565 100.667 128.407 99.9947 128.407 99.248C128.407 98.492 128.565 97.82 128.883 97.232C129.209 96.644 129.648 96.182 130.199 95.846C130.759 95.5007 131.393 95.328 132.103 95.328C132.747 95.328 133.321 95.468 133.825 95.748C134.329 96.028 134.725 96.406 135.015 96.882L134.847 97.176V92.402H135.897V103H134.847V101.32L135.015 101.474C134.753 102.015 134.361 102.435 133.839 102.734C133.325 103.023 132.747 103.168 132.103 103.168ZM132.159 102.118C132.663 102.118 133.115 101.992 133.517 101.74C133.927 101.488 134.249 101.147 134.483 100.718C134.725 100.279 134.847 99.7893 134.847 99.248C134.847 98.7067 134.725 98.2213 134.483 97.792C134.249 97.3533 133.927 97.008 133.517 96.756C133.115 96.504 132.663 96.378 132.159 96.378C131.664 96.378 131.216 96.504 130.815 96.756C130.413 97.008 130.096 97.3487 129.863 97.778C129.639 98.2073 129.527 98.6973 129.527 99.248C129.527 99.7893 129.639 100.279 129.863 100.718C130.096 101.147 130.409 101.488 130.801 101.74C131.202 101.992 131.655 102.118 132.159 102.118ZM141.469 103.168C140.769 103.168 140.134 103 139.565 102.664C139.005 102.319 138.561 101.847 138.235 101.25C137.908 100.653 137.745 99.976 137.745 99.22C137.745 98.464 137.903 97.7967 138.221 97.218C138.538 96.63 138.967 96.168 139.509 95.832C140.059 95.496 140.675 95.328 141.357 95.328C141.898 95.328 142.379 95.4307 142.799 95.636C143.228 95.832 143.592 96.1027 143.891 96.448C144.189 96.784 144.418 97.1667 144.577 97.596C144.735 98.016 144.815 98.45 144.815 98.898C144.815 98.9913 144.81 99.0987 144.801 99.22C144.791 99.332 144.777 99.4487 144.759 99.57H138.417V98.59H144.157L143.653 99.01C143.737 98.4967 143.676 98.0393 143.471 97.638C143.275 97.2273 142.99 96.9053 142.617 96.672C142.243 96.4293 141.823 96.308 141.357 96.308C140.89 96.308 140.456 96.4293 140.055 96.672C139.663 96.9147 139.355 97.2553 139.131 97.694C138.907 98.1233 138.818 98.6367 138.865 99.234C138.818 99.8313 138.911 100.354 139.145 100.802C139.387 101.241 139.714 101.581 140.125 101.824C140.545 102.067 140.993 102.188 141.469 102.188C142.019 102.188 142.481 102.057 142.855 101.796C143.228 101.535 143.531 101.208 143.765 100.816L144.661 101.292C144.511 101.628 144.283 101.941 143.975 102.23C143.667 102.51 143.298 102.739 142.869 102.916C142.449 103.084 141.982 103.168 141.469 103.168ZM149.27 103.168C148.551 103.168 147.921 102.986 147.38 102.622C146.839 102.258 146.447 101.763 146.204 101.138L147.086 100.718C147.301 101.175 147.599 101.539 147.982 101.81C148.374 102.081 148.803 102.216 149.27 102.216C149.718 102.216 150.096 102.109 150.404 101.894C150.712 101.67 150.866 101.381 150.866 101.026C150.866 100.765 150.791 100.559 150.642 100.41C150.493 100.251 150.32 100.13 150.124 100.046C149.928 99.962 149.755 99.9013 149.606 99.864L148.528 99.556C147.837 99.36 147.338 99.0847 147.03 98.73C146.722 98.3753 146.568 97.9647 146.568 97.498C146.568 97.0593 146.68 96.6767 146.904 96.35C147.128 96.0233 147.431 95.7713 147.814 95.594C148.197 95.4167 148.621 95.328 149.088 95.328C149.723 95.328 150.297 95.496 150.81 95.832C151.333 96.1587 151.701 96.616 151.916 97.204L151.02 97.624C150.833 97.204 150.563 96.8773 150.208 96.644C149.863 96.4013 149.475 96.28 149.046 96.28C148.626 96.28 148.29 96.3873 148.038 96.602C147.786 96.8167 147.66 97.0873 147.66 97.414C147.66 97.666 147.725 97.8667 147.856 98.016C147.987 98.1653 148.136 98.2773 148.304 98.352C148.481 98.4267 148.635 98.4827 148.766 98.52L150.012 98.884C150.619 99.0613 151.09 99.3367 151.426 99.71C151.771 100.083 151.944 100.522 151.944 101.026C151.944 101.437 151.827 101.805 151.594 102.132C151.37 102.459 151.057 102.715 150.656 102.902C150.255 103.079 149.793 103.168 149.27 103.168ZM157.219 103.168C156.482 103.168 155.833 102.995 155.273 102.65C154.713 102.305 154.274 101.838 153.957 101.25C153.64 100.653 153.481 99.9807 153.481 99.234C153.481 98.4873 153.64 97.82 153.957 97.232C154.274 96.644 154.713 96.182 155.273 95.846C155.833 95.5007 156.482 95.328 157.219 95.328C157.686 95.328 158.124 95.412 158.535 95.58C158.946 95.748 159.31 95.9767 159.627 96.266C159.944 96.546 160.182 96.8727 160.341 97.246L159.389 97.736C159.202 97.3347 158.918 97.008 158.535 96.756C158.152 96.504 157.714 96.378 157.219 96.378C156.724 96.378 156.276 96.504 155.875 96.756C155.483 96.9987 155.17 97.3393 154.937 97.778C154.713 98.2073 154.601 98.6973 154.601 99.248C154.601 99.7893 154.713 100.279 154.937 100.718C155.17 101.147 155.483 101.488 155.875 101.74C156.276 101.992 156.724 102.118 157.219 102.118C157.714 102.118 158.148 101.992 158.521 101.74C158.904 101.488 159.193 101.152 159.389 100.732L160.341 101.25C160.182 101.614 159.944 101.941 159.627 102.23C159.31 102.519 158.946 102.748 158.535 102.916C158.124 103.084 157.686 103.168 157.219 103.168ZM162.183 103V95.496H163.233V96.728L163.093 96.546C163.271 96.1913 163.537 95.9113 163.891 95.706C164.255 95.5007 164.694 95.398 165.207 95.398H165.683V96.448H165.025C164.484 96.448 164.05 96.616 163.723 96.952C163.397 97.288 163.233 97.764 163.233 98.38V103H162.183ZM166.914 103V95.496H167.964V103H166.914ZM166.914 94.11V92.57H167.964V94.11H166.914ZM170.113 105.8V95.496H171.163V97.176L170.995 96.882C171.294 96.406 171.69 96.028 172.185 95.748C172.689 95.468 173.263 95.328 173.907 95.328C174.616 95.328 175.246 95.5007 175.797 95.846C176.357 96.182 176.796 96.644 177.113 97.232C177.44 97.82 177.603 98.492 177.603 99.248C177.603 99.9947 177.44 100.667 177.113 101.264C176.796 101.852 176.357 102.319 175.797 102.664C175.246 103 174.616 103.168 173.907 103.168C173.263 103.168 172.68 103.023 172.157 102.734C171.644 102.435 171.256 102.015 170.995 101.474L171.163 101.32V105.8H170.113ZM173.851 102.118C174.355 102.118 174.803 101.992 175.195 101.74C175.596 101.488 175.909 101.147 176.133 100.718C176.366 100.279 176.483 99.7893 176.483 99.248C176.483 98.6973 176.366 98.2073 176.133 97.778C175.909 97.3487 175.596 97.008 175.195 96.756C174.803 96.504 174.355 96.378 173.851 96.378C173.347 96.378 172.89 96.504 172.479 96.756C172.078 97.008 171.756 97.3533 171.513 97.792C171.28 98.2213 171.163 98.7067 171.163 99.248C171.163 99.7893 171.28 100.279 171.513 100.718C171.756 101.147 172.078 101.488 172.479 101.74C172.89 101.992 173.347 102.118 173.851 102.118ZM182.184 103.084C181.512 103.084 180.994 102.888 180.63 102.496C180.266 102.104 180.084 101.544 180.084 100.816V96.546H178.698V95.496H179.048C179.366 95.496 179.618 95.3933 179.804 95.188C179.991 94.9733 180.084 94.7073 180.084 94.39V93.76H181.134V95.496H182.786V96.546H181.134V100.816C181.134 101.068 181.172 101.292 181.246 101.488C181.321 101.675 181.447 101.824 181.624 101.936C181.811 102.048 182.058 102.104 182.366 102.104C182.441 102.104 182.53 102.099 182.632 102.09C182.735 102.081 182.824 102.071 182.898 102.062V103C182.786 103.028 182.66 103.047 182.52 103.056C182.38 103.075 182.268 103.084 182.184 103.084ZM184.742 103V95.496H185.792V103H184.742ZM184.742 94.11V92.57H185.792V94.11H184.742ZM191.455 103.168C190.746 103.168 190.102 103 189.523 102.664C188.945 102.319 188.483 101.852 188.137 101.264C187.801 100.667 187.633 99.99 187.633 99.234C187.633 98.4873 187.801 97.82 188.137 97.232C188.473 96.644 188.926 96.182 189.495 95.846C190.074 95.5007 190.727 95.328 191.455 95.328C192.183 95.328 192.832 95.496 193.401 95.832C193.98 96.168 194.433 96.63 194.759 97.218C195.095 97.806 195.263 98.478 195.263 99.234C195.263 99.9993 195.091 100.681 194.745 101.278C194.4 101.866 193.938 102.328 193.359 102.664C192.79 103 192.155 103.168 191.455 103.168ZM191.455 102.118C191.959 102.118 192.412 101.992 192.813 101.74C193.224 101.488 193.546 101.143 193.779 100.704C194.022 100.265 194.143 99.7753 194.143 99.234C194.143 98.6927 194.022 98.2073 193.779 97.778C193.546 97.3487 193.224 97.008 192.813 96.756C192.412 96.504 191.959 96.378 191.455 96.378C190.951 96.378 190.494 96.504 190.083 96.756C189.682 97.008 189.36 97.3487 189.117 97.778C188.875 98.2073 188.753 98.6927 188.753 99.234C188.753 99.7753 188.875 100.265 189.117 100.704C189.36 101.143 189.682 101.488 190.083 101.74C190.494 101.992 190.951 102.118 191.455 102.118ZM197.115 103V95.496H198.165V96.952L197.927 96.896C198.114 96.4107 198.417 96.028 198.837 95.748C199.266 95.468 199.761 95.328 200.321 95.328C200.853 95.328 201.329 95.4493 201.749 95.692C202.178 95.9347 202.514 96.2707 202.757 96.7C203.009 97.12 203.135 97.596 203.135 98.128V103H202.085V98.534C202.085 98.0767 202.001 97.6893 201.833 97.372C201.674 97.0547 201.446 96.812 201.147 96.644C200.858 96.4667 200.522 96.378 200.139 96.378C199.756 96.378 199.416 96.4667 199.117 96.644C198.818 96.812 198.585 97.0593 198.417 97.386C198.249 97.7033 198.165 98.086 198.165 98.534V103H197.115ZM205.393 95.622L205.211 92.57H206.331L206.163 95.622H205.393ZM207.493 95.622L207.311 92.57H208.431L208.263 95.622H207.493Z" fill="white"/>
<defs>
<linearGradient id="paint0_linear_795_1066" x1="1.37835e-06" y1="129" x2="126.619" y2="161.984" gradientUnits="userSpaceOnUse">
<stop stop-color="white" stop-opacity="0.38"/>
<stop offset="1" stop-color="white" stop-opacity="0"/>
</linearGradient>
<linearGradient id="paint1_linear_795_1066" x1="169.5" y1="33" x2="95.0803" y2="-58.1384" gradientUnits="userSpaceOnUse">
<stop stop-color="white" stop-opacity="0"/>
<stop offset="1" stop-color="white" stop-opacity="0.71"/>
</linearGradient>
</defs>
</svg>
