<svg width="120" height="24" viewBox="0 0 120 24" fill="none" xmlns="http://www.w3.org/2000/svg">
<path d="M8.35691 11.6436C13.2313 11.6436 13.7607 13.7886 19.1089 13.7886C24.1232 13.7886 26.6025 10.8355 27.0198 10.2787C26.2681 12.2842 24.7915 14.1503 23.3988 15.2929C21.5322 16.7969 19.1367 17.4652 16.574 17.4652C12.9251 17.4652 10.5018 15.2091 6.60156 15.2091C3.37089 15.2091 1.05877 16.4069 0 17.4096C0.501177 15.8497 2.47932 11.6436 8.35691 11.6436Z" fill="white"/>
<path d="M11.337 6.46261C16.2118 6.46261 16.7416 8.60713 22.0894 8.60713C27.104 8.60713 29.5825 5.65484 30.0007 5.09766C29.2481 7.10318 27.7716 8.96931 26.3788 10.1119C24.5131 11.6158 22.1172 12.2846 19.5549 12.2846C15.9052 12.2846 13.4819 10.0281 9.58244 10.0281C6.35054 10.0281 4.03842 11.2262 2.98047 12.2286C3.48165 10.6687 5.45938 6.46261 11.337 6.46261Z" fill="white"/>
<path d="M14.1787 1.36413C19.0535 1.36413 19.5829 3.50947 24.9311 3.50947C29.9449 3.50947 32.4247 0.556364 32.842 0C32.0903 2.00512 30.6133 3.87166 29.221 5.01382C27.3548 6.51817 24.9585 7.18654 22.3966 7.18654C18.7473 7.18654 16.324 4.92961 12.4242 4.92961C9.19267 4.92961 6.88095 6.12818 5.82178 7.13095C6.32377 5.571 8.30109 1.36413 14.1787 1.36413Z" fill="white"/>
<path d="M39.2212 21.2816C39.4722 22.1168 38.608 22.3956 38.2184 22.5624C37.2152 22.9801 36.0179 23.1751 34.8479 23.1751C30.3631 23.1751 28.4688 20.1946 28.4688 16.7408C28.4688 12.0336 31.923 7.3811 36.9647 7.3811C38.33 7.3811 39.5556 7.71549 40.5027 8.24447C40.9765 8.49547 41.2823 8.82986 41.2823 9.21984C41.2823 9.38663 41.2271 9.52562 41.1159 9.69322L40.0571 11.3079C39.8348 11.671 39.556 11.8104 39.2772 11.8104C38.9154 11.8104 38.7478 11.6432 38.3022 11.5042C37.9408 11.3926 37.6338 11.2528 36.9377 11.2528C35.1823 11.2528 33.205 13.1193 33.205 16.4906C33.205 18.5239 34.2912 19.2761 35.8233 19.2761C36.2693 19.2761 36.7709 19.1927 37.2999 19.0255C37.6898 18.9139 38.4424 18.6081 38.6926 19.4715L39.2212 21.2816Z" fill="white"/>
<path d="M49.1941 7.3811C43.8732 7.3811 40.6422 11.8104 40.5301 16.8524C40.4468 20.3896 42.6195 23.1751 46.8815 23.1751C52.4525 23.1751 55.4608 18.6907 55.572 13.6487C55.628 10.1388 53.4283 7.3811 49.1941 7.3811ZM47.2715 19.3317C45.8232 19.3317 45.2104 18.2169 45.2378 16.574C45.2934 13.6209 46.8255 11.2258 48.8033 11.2258C50.2516 11.2258 50.864 12.3397 50.837 14.0109C50.7814 17.0752 49.2492 19.3317 47.2715 19.3317Z" fill="white"/>
<path d="M60.6984 21.6152C60.5594 22.3677 60.1969 22.8129 59.4729 22.8129H56.855C56.2696 22.8129 55.9078 22.4511 56.0468 21.7546L58.1635 10.6403C58.4141 9.387 59.0269 8.9966 59.7517 8.63482C61.2842 7.85526 63.6229 7.38147 65.6293 7.38147C70.3373 7.38147 71.8409 10.4458 71.1451 14.3182L69.8353 21.616C69.6963 22.3686 69.3346 22.8137 68.6098 22.8137H65.9915C65.4061 22.8137 65.0725 22.4519 65.1837 21.7554L66.5482 13.9556C66.6042 13.6773 66.632 13.3429 66.632 13.1479C66.632 12.0895 66.1591 11.3651 64.9609 11.3651C64.4875 11.3651 63.9581 11.4211 63.6233 11.4767C62.7318 11.6157 62.482 11.8941 62.3148 12.6741L60.6984 21.6152Z" fill="white"/>
<path d="M88.526 0.918023C87.6909 0.974027 86.7433 1.11302 85.9081 1.28103C85.4617 1.36361 84.8494 1.47602 84.6822 2.36678L83.7354 7.82618C83.0666 7.63119 82.2311 7.43701 81.3403 7.43701C76.0751 7.43701 72.6494 11.8376 72.6494 17.0747C72.6494 21.1969 75.7129 23.1746 78.9444 23.1746C83.2612 23.1746 85.9633 21.1695 86.6599 17.1581L89.3624 1.81C89.4732 1.14122 89.0554 0.890634 88.526 0.918023ZM82.0921 16.9079C81.7573 18.8022 80.5599 19.3868 79.4174 19.3594C78.2756 19.3594 77.245 18.4678 77.245 16.6291C77.245 14.4842 78.22 11.1971 81.2005 11.1971C81.9805 11.1971 82.5655 11.3078 83.0666 11.5315L82.0921 16.9079Z" fill="white"/>
<path d="M95.8239 7.3811C93.93 7.3811 92.5924 7.74288 91.0051 8.35648C90.5587 8.52286 89.9745 8.88545 90.3649 9.77743L91.0051 11.2528C91.3673 12.0613 91.9801 11.8104 92.3136 11.671C93.1218 11.3644 94.1802 11.0026 95.1278 11.0026C96.9105 11.0026 97.8013 11.7265 97.5785 13.1471L97.5233 13.4815C96.7711 13.3695 95.9911 13.3139 95.239 13.3139C91.5063 13.3139 87.8848 14.707 88.0798 18.9413C88.1918 21.6712 90.6981 23.1747 93.428 23.1747C97.7461 23.1747 100.337 21.3364 100.949 17.8269L101.646 13.9545C101.73 13.4533 101.785 12.9521 101.785 12.4783C101.785 9.27585 99.5844 7.3811 95.8239 7.3811ZM96.7985 17.6315C96.6039 18.9691 95.4339 19.6097 93.93 19.6097C92.843 19.6097 92.2025 19.0803 92.2025 18.1891C92.2025 16.7126 93.7068 16.3226 95.1552 16.3226C95.8239 16.3226 96.4923 16.406 96.9935 16.4898L96.7985 17.6315Z" fill="white"/>
<path d="M104.46 8.96895C104.626 8.07738 105.24 7.96619 105.686 7.8828C106.521 7.71601 107.552 7.5762 108.387 7.5202C108.917 7.49281 109.334 7.74299 109.223 8.41218L106.911 21.6153C106.772 22.3679 106.409 22.8131 105.686 22.8131H103.012C102.426 22.8131 102.093 22.4513 102.204 21.7547L104.46 8.96895Z" fill="white"/>
<path d="M107.831 0.862549C109.362 0.862549 110.421 2.00512 110.226 3.53727C110.003 4.87401 108.944 5.93278 107.301 5.93278C105.769 5.93278 104.599 4.8736 104.822 3.25847C105.017 2.00512 106.214 0.862549 107.831 0.862549Z" fill="white"/>
<path d="M110.726 12.2001C111.367 8.63461 113.902 7.46465 116.743 7.46465C117.44 7.46465 118.193 7.43767 119.027 7.57584C119.724 7.68704 119.947 8.04963 119.836 8.63461L119.474 10.6127C119.362 11.2811 118.833 11.3081 118.247 11.3081H117.691C116.187 11.3081 115.462 11.8939 115.183 13.4538L113.762 21.6154C113.624 22.3679 113.261 22.8131 112.537 22.8131H109.863C109.278 22.8131 108.944 22.4513 109.056 21.7548L110.726 12.2001Z" fill="white"/>
</svg>
