<svg width="149" height="97" viewBox="0 0 149 97" fill="none" xmlns="http://www.w3.org/2000/svg">
<path d="M-65.7546 24.0005V1.15249H-45.9146V4.73649H-60.9546V10.4965H-46.5226V14.0805H-60.9546V20.4165H-45.6586V24.0005H-65.7546ZM-30.3559 24.0005V13.8885C-30.3559 13.3338 -30.3985 12.8432 -30.4839 12.4165C-30.5479 11.9898 -30.7185 11.5952 -30.9959 11.2325C-31.2732 10.8485 -31.6999 10.5498 -32.2759 10.3365C-32.8305 10.1018 -33.5772 9.98449 -34.5159 9.98449C-34.9639 9.98449 -35.4439 10.0592 -35.9559 10.2085C-36.4679 10.3365 -36.9692 10.5712 -37.4599 10.9125C-37.9292 11.2538 -38.3239 11.7338 -38.6439 12.3525C-38.9639 12.9498 -39.1239 13.6858 -39.1239 14.5605V24.0005H-43.5399V7.04049H-39.1239V9.60049H-39.0599C-38.3132 8.66182 -37.3745 7.92582 -36.2439 7.39249C-35.1132 6.85915 -33.8225 6.59249 -32.3719 6.59249C-31.7745 6.59249 -31.2092 6.63515 -30.6759 6.72049C-30.1212 6.78449 -29.5665 6.92315 -29.0119 7.13649C-28.4572 7.34982 -27.9559 7.66982 -27.5079 8.09649C-27.0385 8.52315 -26.6652 9.06715 -26.3879 9.72849C-25.7692 8.83249 -24.8839 8.08582 -23.7319 7.48849C-22.5585 6.89115 -21.1505 6.59249 -19.5079 6.59249C-18.7185 6.59249 -17.9505 6.67782 -17.2039 6.84849C-16.4359 7.01915 -15.7105 7.32849 -15.0279 7.77649C-14.3452 8.22449 -13.8012 8.86449 -13.3959 9.69649C-12.9692 10.5072 -12.7559 11.5205 -12.7559 12.7365V24.0005H-17.1719V13.8885C-17.1719 13.3338 -17.2145 12.8432 -17.2999 12.4165C-17.3639 11.9898 -17.5345 11.5952 -17.8119 11.2325C-18.0892 10.8485 -18.5159 10.5498 -19.0919 10.3365C-19.6465 10.1018 -20.3932 9.98449 -21.3319 9.98449C-21.7799 9.98449 -22.2599 10.0592 -22.7719 10.2085C-23.2839 10.3365 -23.7852 10.5712 -24.2759 10.9125C-24.7452 11.2538 -25.1399 11.7338 -25.4599 12.3525C-25.7799 12.9498 -25.9399 13.6858 -25.9399 14.5605V24.0005H-30.3559ZM-0.204869 9.98449C-1.1862 9.98449 -2.0502 10.1445 -2.79687 10.4645C-3.5222 10.7632 -4.11954 11.1792 -4.58887 11.7125C-5.03687 12.2245 -5.36754 12.8112 -5.58087 13.4725C-5.7942 14.1338 -5.90087 14.8378 -5.90087 15.5845C-5.90087 16.3312 -5.7942 17.0458 -5.58087 17.7285C-5.36754 18.3898 -5.03687 18.9872 -4.58887 19.5205C-4.11954 20.0538 -3.5222 20.4805 -2.79687 20.8005C-2.07154 21.0992 -1.20754 21.2485 -0.204869 21.2485C0.797797 21.2485 1.6618 21.0992 2.38713 20.8005C3.1338 20.4805 3.73113 20.0538 4.17913 19.5205C4.64846 18.9872 4.9898 18.3898 5.20313 17.7285C5.41646 17.0458 5.52313 16.3312 5.52313 15.5845C5.52313 14.8592 5.41646 14.1658 5.20313 13.5045C4.9898 12.8218 4.64846 12.2245 4.17913 11.7125C3.73113 11.1792 3.1338 10.7632 2.38713 10.4645C1.6618 10.1445 0.797797 9.98449 -0.204869 9.98449ZM-10.1249 30.4645V7.04049H-5.70887V9.47249H-5.64487C-5.0262 8.49115 -4.14087 7.76582 -2.98887 7.29649C-1.83687 6.82715 -0.55687 6.59249 0.85113 6.59249C2.40846 6.59249 3.7738 6.84849 4.94713 7.36049C6.12046 7.87249 7.09113 8.56582 7.85913 9.44049C8.62713 10.2938 9.19246 11.2538 9.55513 12.3205C9.93913 13.3872 10.1311 14.4752 10.1311 15.5845C10.1311 16.7152 9.93913 17.8245 9.55513 18.9125C9.19246 19.9792 8.62713 20.9498 7.85913 21.8245C7.11246 22.6778 6.1418 23.3605 4.94713 23.8725C3.7738 24.3845 2.40846 24.6405 0.85113 24.6405C0.0191304 24.6405 -0.770203 24.5338 -1.51687 24.3205C-2.26354 24.1285 -2.93554 23.8725 -3.53287 23.5525C-4.1302 23.2325 -4.6102 22.9125 -4.97287 22.5925C-5.33554 22.2512 -5.55954 21.9418 -5.64487 21.6645H-5.70887V30.4645H-10.1249ZM15.8809 15.5205C15.8809 16.2885 15.9876 17.0138 16.2009 17.6965C16.4356 18.3792 16.7876 18.9872 17.2569 19.5205C17.7262 20.0538 18.3342 20.4805 19.0809 20.8005C19.8276 21.0992 20.7236 21.2485 21.7689 21.2485C22.8142 21.2485 23.7102 21.0992 24.4569 20.8005C25.2036 20.4805 25.8116 20.0538 26.2809 19.5205C26.7502 18.9872 27.0916 18.3792 27.3049 17.6965C27.5396 17.0138 27.6569 16.2885 27.6569 15.5205C27.6569 14.7525 27.5396 14.0272 27.3049 13.3445C27.0916 12.6618 26.7502 12.0538 26.2809 11.5205C25.8116 10.9872 25.2036 10.5712 24.4569 10.2725C23.7102 9.95249 22.8142 9.79249 21.7689 9.79249C20.7236 9.79249 19.8276 9.95249 19.0809 10.2725C18.3342 10.5712 17.7262 10.9872 17.2569 11.5205C16.7876 12.0538 16.4356 12.6618 16.2009 13.3445C15.9876 14.0272 15.8809 14.7525 15.8809 15.5205ZM11.2729 15.5205C11.2729 14.3045 11.4649 13.1525 11.8489 12.0645C12.2542 10.9765 12.8729 10.0058 13.7049 9.15249C14.5582 8.29915 15.6569 7.62715 17.0009 7.13649C18.3662 6.64582 19.9556 6.40049 21.7689 6.40049C23.6036 6.40049 25.1929 6.64582 26.5369 7.13649C27.8809 7.62715 28.9689 8.29915 29.8009 9.15249C30.6542 10.0058 31.2729 10.9765 31.6569 12.0645C32.0622 13.1525 32.2649 14.3045 32.2649 15.5205C32.2649 16.7365 32.0622 17.8885 31.6569 18.9765C31.2729 20.0645 30.6542 21.0352 29.8009 21.8885C28.9689 22.7418 27.8809 23.4138 26.5369 23.9045C25.1929 24.3952 23.6036 24.6405 21.7689 24.6405C19.9556 24.6405 18.3662 24.3952 17.0009 23.9045C15.6569 23.4138 14.5582 22.7418 13.7049 21.8885C12.8729 21.0352 12.2542 20.0645 11.8489 18.9765C11.4649 17.8885 11.2729 16.7365 11.2729 15.5205ZM38.9106 24.0005L32.4786 7.04049H37.2786L41.6306 19.4565H41.6946L45.7586 7.04049H50.3666L54.4306 19.4565H54.4946L58.8466 7.04049H63.6466L57.2146 24.0005H52.2226L48.0946 12.2245H48.0306L43.9026 24.0005H38.9106ZM84.6841 16.6405H68.6841C68.7055 17.1738 68.8228 17.7178 69.0361 18.2725C69.2495 18.8058 69.5695 19.3178 69.9961 19.8085C70.4441 20.2778 71.0415 20.6725 71.7881 20.9925C72.5348 21.2912 73.4201 21.4405 74.4441 21.4405C75.8095 21.4405 76.8655 21.2378 77.6121 20.8325C78.3801 20.4058 79.0095 19.7978 79.5001 19.0085H84.3001C83.9801 19.6272 83.5961 20.2458 83.1481 20.8645C82.7215 21.4618 82.1348 22.0485 81.3881 22.6245C80.6415 23.2005 79.6921 23.6805 78.5401 24.0645C77.4095 24.4485 76.0868 24.6405 74.5721 24.6405C72.7375 24.6405 71.1375 24.3952 69.7721 23.9045C68.4281 23.4138 67.3401 22.7525 66.5081 21.9205C65.6761 21.0672 65.0575 20.1072 64.6521 19.0405C64.2681 17.9738 64.0761 16.8538 64.0761 15.6805C64.0761 14.2938 64.3215 13.0245 64.8121 11.8725C65.3028 10.7205 65.9961 9.73915 66.8921 8.92849C67.8095 8.11782 68.8975 7.49915 70.1561 7.07249C71.4148 6.62449 72.7908 6.40049 74.2841 6.40049C76.0975 6.40049 77.6655 6.65649 78.9881 7.16849C80.3321 7.68049 81.4201 8.38449 82.2521 9.28049C83.0841 10.1765 83.6921 11.2005 84.0761 12.3525C84.4815 13.4832 84.6841 14.6992 84.6841 16.0005V16.6405ZM68.6841 13.8245H80.0761C79.9481 13.0138 79.6815 12.3205 79.2761 11.7445C78.8921 11.1685 78.4228 10.7098 77.8681 10.3685C77.3135 10.0272 76.7375 9.78182 76.1401 9.63249C75.5428 9.48315 74.9455 9.40849 74.3481 9.40849C73.7935 9.40849 73.2281 9.48315 72.6521 9.63249C72.0761 9.78182 71.5108 10.0272 70.9561 10.3685C70.4228 10.6885 69.9535 11.1365 69.5481 11.7125C69.1428 12.2885 68.8548 12.9925 68.6841 13.8245ZM86.7539 24.0005V7.04049H91.1699V10.3365H91.2339C91.9379 9.20582 92.7912 8.29915 93.7939 7.61649C94.7966 6.93382 96.0766 6.59249 97.6339 6.59249C98.1672 6.59249 98.7539 6.64582 99.3939 6.75249V11.1045C98.8606 10.9338 98.3806 10.8272 97.9539 10.7845C97.5272 10.7205 97.0686 10.6885 96.5779 10.6885C95.9592 10.6885 95.3406 10.7738 94.7219 10.9445C94.1032 11.1152 93.5166 11.4032 92.9619 11.8085C92.4286 12.2138 91.9912 12.7472 91.6499 13.4085C91.3299 14.0698 91.1699 14.8698 91.1699 15.8085V24.0005H86.7539ZM100.734 24.0005V7.04049H105.15V24.0005H100.734ZM100.734 4.35249V0.768488H105.15V4.35249H100.734ZM107.896 24.0005V7.04049H112.312V9.60049H112.376C113.123 8.66182 114.062 7.92582 115.192 7.39249C116.323 6.85915 117.614 6.59249 119.064 6.59249C120.046 6.59249 120.952 6.68849 121.784 6.88049C122.638 7.07249 123.395 7.40315 124.056 7.87249C124.739 8.32049 125.272 8.92849 125.656 9.69649C126.062 10.4432 126.264 11.3712 126.264 12.4805V24.0005H121.848V13.8885C121.848 13.3765 121.784 12.8965 121.656 12.4485C121.55 12.0005 121.347 11.5952 121.048 11.2325C120.75 10.8485 120.312 10.5498 119.736 10.3365C119.182 10.1018 118.467 9.98449 117.592 9.98449C116.974 9.98449 116.355 10.0805 115.736 10.2725C115.139 10.4432 114.574 10.7205 114.04 11.1045C113.528 11.4885 113.112 12.0005 112.792 12.6405C112.472 13.2805 112.312 14.0272 112.312 14.8805V24.0005H107.896ZM132.618 15.1685C132.618 15.8298 132.725 16.4698 132.938 17.0885C133.151 17.7072 133.503 18.2725 133.994 18.7845C134.485 19.2752 135.125 19.6698 135.914 19.9685C136.703 20.2672 137.653 20.4165 138.762 20.4165C140.447 20.4165 141.813 19.9258 142.858 18.9445C143.925 17.9632 144.458 16.6832 144.458 15.1045C144.458 14.1445 144.255 13.3338 143.85 12.6725C143.466 11.9898 142.965 11.4565 142.346 11.0725C141.727 10.6885 141.066 10.4112 140.362 10.2405C139.679 10.0698 139.018 9.98449 138.378 9.98449C136.714 9.98449 135.338 10.4752 134.25 11.4565C133.162 12.4165 132.618 13.6538 132.618 15.1685ZM144.458 6.97649H148.874V23.4245C148.874 24.4912 148.693 25.4725 148.33 26.3685C147.967 27.2858 147.381 28.0858 146.57 28.7685C145.781 29.4725 144.735 30.0272 143.434 30.4325C142.154 30.8378 140.607 31.0405 138.794 31.0405C137.407 31.0405 136.138 30.9552 134.986 30.7845C133.834 30.6138 132.81 30.3152 131.914 29.8885C131.039 29.4832 130.325 28.9178 129.77 28.1925C129.237 27.4672 128.927 26.5712 128.842 25.5045H133.45C133.663 26.5072 134.197 27.1792 135.05 27.5205C135.925 27.8618 137.13 28.0325 138.666 28.0325C139.882 28.0325 140.874 27.8832 141.642 27.5845C142.431 27.3072 143.018 26.9338 143.402 26.4645C143.807 25.9952 144.085 25.4832 144.234 24.9285C144.383 24.3738 144.458 23.7765 144.458 23.1365V21.0885H144.362C143.338 22.0485 142.261 22.7418 141.13 23.1685C140.021 23.5952 138.794 23.8085 137.45 23.8085C136.277 23.8085 135.125 23.6485 133.994 23.3285C132.885 23.0085 131.871 22.5072 130.954 21.8245C130.058 21.1418 129.343 20.2565 128.81 19.1685C128.277 18.0592 128.01 16.7472 128.01 15.2325C128.01 14.1018 128.191 13.0245 128.554 12.0005C128.938 10.9765 129.514 10.0592 130.282 9.24849C131.071 8.41649 132.063 7.76582 133.258 7.29649C134.453 6.82715 135.839 6.59249 137.418 6.59249C139.125 6.59249 140.586 6.84849 141.802 7.36049C143.018 7.87249 143.882 8.57649 144.394 9.47249H144.458V6.97649ZM-28.9915 96.0005V73.1525H-24.1915V92.2245H-10.3035V96.0005H-28.9915ZM10.9123 88.6405H-5.08775C-5.06641 89.1738 -4.94908 89.7178 -4.73575 90.2725C-4.52241 90.8058 -4.20241 91.3178 -3.77575 91.8085C-3.32775 92.2778 -2.73042 92.6725 -1.98375 92.9925C-1.23708 93.2912 -0.351748 93.4405 0.672252 93.4405C2.03759 93.4405 3.09359 93.2378 3.84025 92.8325C4.60825 92.4058 5.23759 91.7978 5.72825 91.0085H10.5283C10.2083 91.6272 9.82425 92.2458 9.37625 92.8645C8.94959 93.4618 8.36292 94.0485 7.61625 94.6245C6.86959 95.2005 5.92025 95.6805 4.76825 96.0645C3.63759 96.4485 2.31492 96.6405 0.800252 96.6405C-1.03441 96.6405 -2.63441 96.3952 -3.99975 95.9045C-5.34375 95.4138 -6.43175 94.7525 -7.26375 93.9205C-8.09575 93.0672 -8.71441 92.1072 -9.11975 91.0405C-9.50375 89.9738 -9.69575 88.8538 -9.69575 87.6805C-9.69575 86.2938 -9.45042 85.0245 -8.95975 83.8725C-8.46908 82.7205 -7.77575 81.7392 -6.87975 80.9285C-5.96242 80.1178 -4.87441 79.4992 -3.61575 79.0725C-2.35708 78.6245 -0.981081 78.4005 0.512252 78.4005C2.32559 78.4005 3.89359 78.6565 5.21625 79.1685C6.56025 79.6805 7.64825 80.3845 8.48025 81.2805C9.31225 82.1765 9.92025 83.2005 10.3043 84.3525C10.7096 85.4832 10.9123 86.6992 10.9123 88.0005V88.6405ZM-5.08775 85.8245H6.30425C6.17625 85.0138 5.90959 84.3205 5.50425 83.7445C5.12025 83.1685 4.65092 82.7098 4.09625 82.3685C3.54159 82.0272 2.96559 81.7818 2.36825 81.6325C1.77092 81.4832 1.17359 81.4085 0.576252 81.4085C0.0215855 81.4085 -0.543748 81.4832 -1.11975 81.6325C-1.69575 81.7818 -2.26108 82.0272 -2.81575 82.3685C-3.34908 82.6885 -3.81841 83.1365 -4.22375 83.7125C-4.62908 84.2885 -4.91708 84.9925 -5.08775 85.8245ZM31.19 84.0965V92.1285C31.19 92.5338 31.286 92.8005 31.478 92.9285C31.67 93.0352 31.894 93.0885 32.15 93.0885C32.3633 93.0885 32.6193 93.0778 32.918 93.0565C33.2167 93.0352 33.4407 93.0138 33.59 92.9925V96.0965C33.4833 96.1178 33.3233 96.1498 33.11 96.1925C32.6193 96.2992 32.182 96.3738 31.798 96.4165C31.4353 96.4592 30.9873 96.4805 30.454 96.4805C29.7927 96.4805 29.238 96.4058 28.79 96.2565C28.3633 96.1072 28.0327 95.9152 27.798 95.6805C27.5633 95.4458 27.4033 95.2218 27.318 95.0085C27.2327 94.7952 27.1687 94.5605 27.126 94.3045C26.8487 94.5818 26.5073 94.8485 26.102 95.1045C25.718 95.3392 25.206 95.5845 24.566 95.8405C23.9473 96.0752 23.1793 96.2672 22.262 96.4165C21.3447 96.5658 20.31 96.6405 19.158 96.6405C16.9607 96.6405 15.254 96.1712 14.038 95.2325C12.8433 94.2938 12.246 92.9925 12.246 91.3285C12.246 90.2405 12.4913 89.3552 12.982 88.6725C13.4727 87.9685 14.0913 87.4352 14.838 87.0725C15.606 86.7098 16.3633 86.4645 17.11 86.3365C17.878 86.1872 18.7847 86.0698 19.83 85.9845H19.862C21.654 85.8138 22.966 85.6752 23.798 85.5685C24.6513 85.4405 25.302 85.3125 25.75 85.1845C26.198 85.0352 26.4967 84.8645 26.646 84.6725C26.7953 84.4592 26.87 84.1818 26.87 83.8405C26.87 82.9445 26.4327 82.3152 25.558 81.9525C24.7047 81.5898 23.542 81.4085 22.07 81.4085C19.1473 81.4085 17.6007 82.3472 17.43 84.2245H13.11C13.4087 82.0912 14.3047 80.5872 15.798 79.7125C17.3127 78.8378 19.4033 78.4005 22.07 78.4005C24.1607 78.4005 25.8353 78.5818 27.094 78.9445C28.3527 79.3072 29.27 79.7765 29.846 80.3525C30.4433 80.9072 30.8167 81.4832 30.966 82.0805C31.1153 82.6778 31.19 83.3498 31.19 84.0965ZM26.774 89.1845V87.5525C26.1767 87.8085 25.5153 88.0005 24.79 88.1285C24.0647 88.2352 22.7953 88.3952 20.982 88.6085C19.382 88.8005 18.294 89.0885 17.718 89.4725C17.142 89.8565 16.854 90.4218 16.854 91.1685C16.854 91.7018 16.9607 92.1498 17.174 92.5125C17.3873 92.8538 17.6647 93.1205 18.006 93.3125C18.3687 93.5045 18.7527 93.6432 19.158 93.7285C19.5633 93.7925 19.9793 93.8245 20.406 93.8245C21.0673 93.8245 21.7607 93.7498 22.486 93.6005C23.2113 93.4512 23.894 93.2058 24.534 92.8645C25.1953 92.5232 25.7287 92.0432 26.134 91.4245C26.5607 90.8058 26.774 90.0592 26.774 89.1845ZM34.5533 96.0005V79.0405H38.9693V82.3365H39.0333C39.7373 81.2058 40.5906 80.2992 41.5933 79.6165C42.5959 78.9338 43.8759 78.5925 45.4333 78.5925C45.9666 78.5925 46.5533 78.6458 47.1933 78.7525V83.1045C46.6599 82.9338 46.1799 82.8272 45.7533 82.7845C45.3266 82.7205 44.8679 82.6885 44.3773 82.6885C43.7586 82.6885 43.1399 82.7738 42.5213 82.9445C41.9026 83.1152 41.3159 83.4032 40.7613 83.8085C40.2279 84.2138 39.7906 84.7472 39.4493 85.4085C39.1293 86.0698 38.9693 86.8698 38.9693 87.8085V96.0005H34.5533ZM48.4058 96.0005V79.0405H52.8218V81.6005H52.8858C53.6324 80.6618 54.5711 79.9258 55.7018 79.3925C56.8324 78.8592 58.1231 78.5925 59.5738 78.5925C60.5551 78.5925 61.4618 78.6885 62.2938 78.8805C63.1471 79.0725 63.9044 79.4032 64.5658 79.8725C65.2484 80.3205 65.7818 80.9285 66.1658 81.6965C66.5711 82.4432 66.7738 83.3712 66.7738 84.4805V96.0005H62.3578V85.8885C62.3578 85.3765 62.2938 84.8965 62.1658 84.4485C62.0591 84.0005 61.8564 83.5952 61.5578 83.2325C61.2591 82.8485 60.8218 82.5498 60.2458 82.3365C59.6911 82.1018 58.9764 81.9845 58.1018 81.9845C57.4831 81.9845 56.8644 82.0805 56.2458 82.2725C55.6484 82.4432 55.0831 82.7205 54.5498 83.1045C54.0378 83.4885 53.6218 84.0005 53.3018 84.6405C52.9818 85.2805 52.8218 86.0272 52.8218 86.8805V96.0005H48.4058ZM89.4472 88.6405H73.4472C73.4686 89.1738 73.5859 89.7178 73.7992 90.2725C74.0126 90.8058 74.3326 91.3178 74.7592 91.8085C75.2072 92.2778 75.8046 92.6725 76.5512 92.9925C77.2979 93.2912 78.1832 93.4405 79.2072 93.4405C80.5726 93.4405 81.6286 93.2378 82.3752 92.8325C83.1432 92.4058 83.7726 91.7978 84.2632 91.0085H89.0632C88.7432 91.6272 88.3592 92.2458 87.9112 92.8645C87.4846 93.4618 86.8979 94.0485 86.1512 94.6245C85.4046 95.2005 84.4552 95.6805 83.3032 96.0645C82.1726 96.4485 80.8499 96.6405 79.3352 96.6405C77.5006 96.6405 75.9006 96.3952 74.5352 95.9045C73.1912 95.4138 72.1032 94.7525 71.2712 93.9205C70.4392 93.0672 69.8206 92.1072 69.4152 91.0405C69.0312 89.9738 68.8392 88.8538 68.8392 87.6805C68.8392 86.2938 69.0846 85.0245 69.5752 83.8725C70.0659 82.7205 70.7592 81.7392 71.6552 80.9285C72.5726 80.1178 73.6606 79.4992 74.9192 79.0725C76.1779 78.6245 77.5539 78.4005 79.0472 78.4005C80.8606 78.4005 82.4286 78.6565 83.7512 79.1685C85.0952 79.6805 86.1832 80.3845 87.0152 81.2805C87.8472 82.1765 88.4552 83.2005 88.8392 84.3525C89.2446 85.4832 89.4472 86.6992 89.4472 88.0005V88.6405ZM73.4472 85.8245H84.8392C84.7112 85.0138 84.4446 84.3205 84.0392 83.7445C83.6552 83.1685 83.1859 82.7098 82.6312 82.3685C82.0766 82.0272 81.5006 81.7818 80.9032 81.6325C80.3059 81.4832 79.7086 81.4085 79.1112 81.4085C78.5566 81.4085 77.9912 81.4832 77.4152 81.6325C76.8392 81.7818 76.2739 82.0272 75.7192 82.3685C75.1859 82.6885 74.7166 83.1365 74.3112 83.7125C73.9059 84.2885 73.6179 84.9925 73.4472 85.8245ZM91.517 96.0005V79.0405H95.933V82.3365H95.997C96.701 81.2058 97.5543 80.2992 98.557 79.6165C99.5597 78.9338 100.84 78.5925 102.397 78.5925C102.93 78.5925 103.517 78.6458 104.157 78.7525V83.1045C103.624 82.9338 103.144 82.8272 102.717 82.7845C102.29 82.7205 101.832 82.6885 101.341 82.6885C100.722 82.6885 100.104 82.7738 99.485 82.9445C98.8663 83.1152 98.2797 83.4032 97.725 83.8085C97.1917 84.2138 96.7543 84.7472 96.413 85.4085C96.093 86.0698 95.933 86.8698 95.933 87.8085V96.0005H91.517ZM104.505 90.6885H109.305C109.327 91.2858 109.497 91.7872 109.817 92.1925C110.137 92.5765 110.532 92.8752 111.001 93.0885C111.492 93.3018 111.983 93.4512 112.474 93.5365C112.986 93.6005 113.487 93.6325 113.977 93.6325C115.236 93.6325 116.313 93.4618 117.21 93.1205C118.127 92.7578 118.585 92.2032 118.585 91.4565C118.585 91.0938 118.511 90.8058 118.361 90.5925C118.234 90.3578 117.988 90.1658 117.625 90.0165C117.263 89.8458 116.719 89.6858 115.993 89.5365C115.289 89.3872 114.319 89.2272 113.082 89.0565C111.545 88.8432 110.319 88.6405 109.401 88.4485C108.484 88.2565 107.695 87.9898 107.033 87.6485C106.393 87.2858 105.903 86.8058 105.561 86.2085C105.241 85.5898 105.081 84.8112 105.081 83.8725C105.081 82.7418 105.369 81.8032 105.945 81.0565C106.521 80.3098 107.247 79.7552 108.121 79.3925C108.996 79.0085 109.903 78.7525 110.841 78.6245C111.78 78.4752 112.687 78.4005 113.561 78.4005C114.479 78.4005 115.407 78.4645 116.345 78.5925C117.284 78.6992 118.234 78.9445 119.194 79.3285C120.154 79.7125 120.964 80.3098 121.625 81.1205C122.308 81.9098 122.682 82.9445 122.746 84.2245H118.137C118.052 83.6272 117.828 83.1365 117.465 82.7525C117.124 82.3685 116.708 82.0805 116.217 81.8885C115.748 81.6965 115.268 81.5685 114.778 81.5045C114.287 81.4405 113.807 81.4085 113.337 81.4085C112.164 81.4085 111.225 81.6112 110.521 82.0165C109.839 82.4218 109.497 82.8698 109.497 83.3605C109.497 83.7232 109.54 84.0112 109.625 84.2245C109.732 84.4378 109.935 84.6192 110.233 84.7685C110.532 84.8965 110.991 85.0245 111.609 85.1525C112.228 85.2805 113.081 85.4192 114.17 85.5685C115.962 85.8245 117.337 86.0485 118.297 86.2405C119.279 86.4325 120.164 86.7098 120.954 87.0725C121.743 87.4352 122.34 87.9258 122.746 88.5445C123.172 89.1418 123.385 89.9098 123.385 90.8485C123.385 91.8938 123.151 92.7898 122.681 93.5365C122.212 94.2832 121.551 94.8912 120.698 95.3605C119.866 95.8085 118.884 96.1285 117.753 96.3205C116.623 96.5338 115.375 96.6405 114.009 96.6405C112.943 96.6405 111.876 96.5658 110.809 96.4165C109.764 96.2672 108.772 95.9792 107.833 95.5525C106.895 95.1258 106.116 94.5178 105.497 93.7285C104.879 92.9178 104.548 91.9045 104.505 90.6885Z" fill="#787878"/>
<path d="M-18.5696 60.0005V37.1525H-13.7696V56.2245H0.118376V60.0005H-18.5696ZM1.39813 60.0005V43.0405H5.81413V60.0005H1.39813ZM1.39813 40.3525V36.7685H5.81413V40.3525H1.39813ZM9.90413 60.0005V46.2405H6.41613V43.0405H9.90413V40.8645C9.90413 40.2885 9.95746 39.7658 10.0641 39.2965C10.1921 38.8058 10.4268 38.3472 10.7681 37.9205C11.1095 37.4938 11.6215 37.1525 12.3041 36.8965C13.0081 36.6405 13.9041 36.5125 14.9921 36.5125C15.9095 36.5125 16.6241 36.5232 17.1361 36.5445C17.6695 36.5658 18.2775 36.5978 18.9601 36.6405V39.8405C18.7255 39.7978 18.3948 39.7658 17.9681 39.7445C17.5628 39.7232 17.1361 39.7125 16.6881 39.7125C15.7068 39.7125 15.0668 39.8512 14.7681 40.1285C14.4695 40.4058 14.3201 40.9392 14.3201 41.7285V43.0405H18.9601V46.2405H14.3201V60.0005H9.90413ZM39.5079 52.6405H23.5079C23.5292 53.1738 23.6465 53.7178 23.8599 54.2725C24.0732 54.8058 24.3932 55.3178 24.8199 55.8085C25.2679 56.2778 25.8652 56.6725 26.6119 56.9925C27.3585 57.2912 28.2439 57.4405 29.2679 57.4405C30.6332 57.4405 31.6892 57.2378 32.4359 56.8325C33.2039 56.4058 33.8332 55.7978 34.3239 55.0085H39.1239C38.8039 55.6272 38.4199 56.2458 37.9719 56.8645C37.5452 57.4618 36.9585 58.0485 36.2119 58.6245C35.4652 59.2005 34.5159 59.6805 33.3639 60.0645C32.2332 60.4485 30.9105 60.6405 29.3959 60.6405C27.5612 60.6405 25.9612 60.3952 24.5959 59.9045C23.2519 59.4138 22.1639 58.7525 21.3319 57.9205C20.4999 57.0672 19.8812 56.1072 19.4759 55.0405C19.0919 53.9738 18.8999 52.8538 18.8999 51.6805C18.8999 50.2938 19.1452 49.0245 19.6359 47.8725C20.1265 46.7205 20.8199 45.7392 21.7159 44.9285C22.6332 44.1178 23.7212 43.4992 24.9799 43.0725C26.2385 42.6245 27.6145 42.4005 29.1079 42.4005C30.9212 42.4005 32.4892 42.6565 33.8119 43.1685C35.1559 43.6805 36.2439 44.3845 37.0759 45.2805C37.9079 46.1765 38.5159 47.2005 38.8999 48.3525C39.3052 49.4832 39.5079 50.6992 39.5079 52.0005V52.6405ZM23.5079 49.8245H34.8999C34.7719 49.0138 34.5052 48.3205 34.0999 47.7445C33.7159 47.1685 33.2465 46.7098 32.6919 46.3685C32.1372 46.0272 31.5612 45.7818 30.9639 45.6325C30.3665 45.4832 29.7692 45.4085 29.1719 45.4085C28.6172 45.4085 28.0519 45.4832 27.4759 45.6325C26.8999 45.7818 26.3345 46.0272 25.7799 46.3685C25.2465 46.6885 24.7772 47.1365 24.3719 47.7125C23.9665 48.2885 23.6785 48.9925 23.5079 49.8245ZM41.7056 60.0005V36.7685H46.1216V60.0005H41.7056ZM52.7396 51.5205C52.7396 52.2885 52.8463 53.0138 53.0596 53.6965C53.2943 54.3792 53.6463 54.9872 54.1156 55.5205C54.585 56.0538 55.193 56.4805 55.9396 56.8005C56.6863 57.0992 57.5823 57.2485 58.6276 57.2485C59.673 57.2485 60.569 57.0992 61.3156 56.8005C62.0623 56.4805 62.6703 56.0538 63.1396 55.5205C63.609 54.9872 63.9503 54.3792 64.1636 53.6965C64.3983 53.0138 64.5156 52.2885 64.5156 51.5205C64.5156 50.7525 64.3983 50.0272 64.1636 49.3445C63.9503 48.6618 63.609 48.0538 63.1396 47.5205C62.6703 46.9872 62.0623 46.5712 61.3156 46.2725C60.569 45.9525 59.673 45.7925 58.6276 45.7925C57.5823 45.7925 56.6863 45.9525 55.9396 46.2725C55.193 46.5712 54.585 46.9872 54.1156 47.5205C53.6463 48.0538 53.2943 48.6618 53.0596 49.3445C52.8463 50.0272 52.7396 50.7525 52.7396 51.5205ZM48.1316 51.5205C48.1316 50.3045 48.3236 49.1525 48.7076 48.0645C49.113 46.9765 49.7316 46.0058 50.5636 45.1525C51.417 44.2992 52.5156 43.6272 53.8596 43.1365C55.225 42.6458 56.8143 42.4005 58.6276 42.4005C60.4623 42.4005 62.0516 42.6458 63.3956 43.1365C64.7396 43.6272 65.8276 44.2992 66.6596 45.1525C67.513 46.0058 68.1316 46.9765 68.5156 48.0645C68.921 49.1525 69.1236 50.3045 69.1236 51.5205C69.1236 52.7365 68.921 53.8885 68.5156 54.9765C68.1316 56.0645 67.513 57.0352 66.6596 57.8885C65.8276 58.7418 64.7396 59.4138 63.3956 59.9045C62.0516 60.3952 60.4623 60.6405 58.6276 60.6405C56.8143 60.6405 55.225 60.3952 53.8596 59.9045C52.5156 59.4138 51.417 58.7418 50.5636 57.8885C49.7316 57.0352 49.113 56.0645 48.7076 54.9765C48.3236 53.8885 48.1316 52.7365 48.1316 51.5205ZM71.0014 60.0005V43.0405H75.4174V45.6005H75.4814C76.228 44.6618 77.1667 43.9258 78.2974 43.3925C79.428 42.8592 80.7187 42.5925 82.1694 42.5925C83.1507 42.5925 84.0574 42.6885 84.8894 42.8805C85.7427 43.0725 86.5 43.4032 87.1614 43.8725C87.844 44.3205 88.3774 44.9285 88.7614 45.6965C89.1667 46.4432 89.3694 47.3712 89.3694 48.4805V60.0005H84.9534V49.8885C84.9534 49.3765 84.8894 48.8965 84.7614 48.4485C84.6547 48.0005 84.452 47.5952 84.1534 47.2325C83.8547 46.8485 83.4174 46.5498 82.8414 46.3365C82.2867 46.1018 81.572 45.9845 80.6974 45.9845C80.0787 45.9845 79.46 46.0805 78.8414 46.2725C78.244 46.4432 77.6787 46.7205 77.1454 47.1045C76.6334 47.4885 76.2174 48.0005 75.8974 48.6405C75.5774 49.2805 75.4174 50.0272 75.4174 50.8805V60.0005H71.0014ZM95.7229 51.1685C95.7229 51.8298 95.8295 52.4698 96.0429 53.0885C96.2562 53.7072 96.6082 54.2725 97.0989 54.7845C97.5895 55.2752 98.2295 55.6698 99.0189 55.9685C99.8082 56.2672 100.758 56.4165 101.867 56.4165C103.552 56.4165 104.918 55.9258 105.963 54.9445C107.03 53.9632 107.563 52.6832 107.563 51.1045C107.563 50.1445 107.36 49.3338 106.955 48.6725C106.571 47.9898 106.07 47.4565 105.451 47.0725C104.832 46.6885 104.171 46.4112 103.467 46.2405C102.784 46.0698 102.123 45.9845 101.483 45.9845C99.8189 45.9845 98.4429 46.4752 97.3549 47.4565C96.2669 48.4165 95.7229 49.6538 95.7229 51.1685ZM107.563 42.9765H111.979V59.4245C111.979 60.4912 111.798 61.4725 111.435 62.3685C111.072 63.2858 110.486 64.0858 109.675 64.7685C108.886 65.4725 107.84 66.0272 106.539 66.4325C105.259 66.8378 103.712 67.0405 101.899 67.0405C100.512 67.0405 99.2429 66.9552 98.0909 66.7845C96.9389 66.6138 95.9149 66.3152 95.0189 65.8885C94.1442 65.4832 93.4295 64.9178 92.8749 64.1925C92.3415 63.4672 92.0322 62.5712 91.9469 61.5045H96.5549C96.7682 62.5072 97.3015 63.1792 98.1549 63.5205C99.0295 63.8618 100.235 64.0325 101.771 64.0325C102.987 64.0325 103.979 63.8832 104.747 63.5845C105.536 63.3072 106.123 62.9338 106.507 62.4645C106.912 61.9952 107.19 61.4832 107.339 60.9285C107.488 60.3738 107.563 59.7765 107.563 59.1365V57.0885H107.467C106.443 58.0485 105.366 58.7418 104.235 59.1685C103.126 59.5952 101.899 59.8085 100.555 59.8085C99.3815 59.8085 98.2295 59.6485 97.0989 59.3285C95.9895 59.0085 94.9762 58.5072 94.0589 57.8245C93.1629 57.1418 92.4482 56.2565 91.9149 55.1685C91.3815 54.0592 91.1149 52.7472 91.1149 51.2325C91.1149 50.1018 91.2962 49.0245 91.6589 48.0005C92.0429 46.9765 92.6189 46.0592 93.3869 45.2485C94.1762 44.4165 95.1682 43.7658 96.3629 43.2965C97.5575 42.8272 98.9442 42.5925 100.523 42.5925C102.23 42.5925 103.691 42.8485 104.907 43.3605C106.123 43.8725 106.987 44.5765 107.499 45.4725H107.563V42.9765Z" fill="url(#paint0_linear_890_411)"/>
<defs>
<linearGradient id="paint0_linear_890_411" x1="-120" y1="44.509" x2="173" y2="44.509" gradientUnits="userSpaceOnUse">
<stop stop-color="#9684FF"/>
<stop offset="1" stop-color="#B1A4FF"/>
</linearGradient>
</defs>
</svg>
