<svg width="143" height="30" viewBox="0 0 143 30" fill="none" xmlns="http://www.w3.org/2000/svg">
<path d="M10.8937 12.5124V22.2936L22.0616 15.9104C22.1565 15.8469 22.2303 15.7516 22.283 15.6351C22.3463 15.4975 22.3674 15.3387 22.3463 15.18C22.3252 14.9894 22.2408 14.8095 22.1248 14.6401C21.9983 14.4707 21.819 14.3331 21.6081 14.2272L9.31183 7.17713C8.99546 6.99718 8.66855 6.85956 8.32054 6.77488C7.96199 6.67961 7.58234 6.62668 7.2027 6.62668C5.6103 6.62668 4.46082 7.47354 3.6699 8.68031C2.49933 10.4587 2.04586 12.9993 2.04586 15.0106C2.04586 18.5886 3.49062 21.8278 5.82121 24.1673C8.15181 26.5067 11.3788 27.957 14.9432 27.957C18.5077 27.957 21.7346 26.5067 24.0652 24.1673C26.3958 21.8278 27.8406 18.5886 27.8406 15.0106C27.8406 11.4326 26.3958 8.19337 24.0652 5.85392C21.7346 3.51447 18.5077 2.06422 14.9432 2.06422C14.3105 2.06422 13.6883 2.10656 13.0766 2.20183C12.6548 2.26535 12.2224 2.35004 11.8006 2.45589C11.6213 3.3451 10.8199 4.02258 9.87076 4.02258C8.774 4.02258 7.88817 3.13338 7.88817 2.03246C7.88817 0.931546 8.774 0.042343 9.87076 0.042343C10.3453 0.042343 10.7882 0.211715 11.1257 0.486944C11.6741 0.338744 12.233 0.222301 12.7919 0.1482C13.509 0.0529287 14.2261 0 14.9432 0C19.0666 0 22.8103 1.68313 25.51 4.39308C28.2097 7.10303 29.8865 10.861 29.8865 15C29.8865 19.139 28.2097 22.897 25.51 25.6069C22.8103 28.3169 19.0666 30 14.9432 30C10.8199 30 7.07615 28.3169 4.37646 25.6069C1.67676 22.897 0 19.1496 0 15C0 12.6711 0.548375 9.70713 1.9615 7.54764C3.11098 5.7904 4.80883 4.56246 7.19215 4.56246C7.75107 4.56246 8.29945 4.63656 8.83728 4.78476C9.35402 4.92237 9.84966 5.1235 10.3137 5.38814L22.515 12.3959C23.0001 12.6394 23.4114 12.9887 23.7278 13.4016C24.0652 13.8462 24.2867 14.3649 24.35 14.9153C24.4238 15.4658 24.3394 16.0056 24.1391 16.4608C23.9281 16.9478 23.5801 17.3606 23.1372 17.6464L10.4402 24.9188C10.282 25.0247 10.0817 25.0988 9.87076 25.0988C9.30129 25.0988 8.84782 24.6436 8.84782 24.072V12.5124C8.27836 12.163 7.88817 11.5385 7.88817 10.808C7.88817 9.70713 8.774 8.81793 9.87076 8.81793C10.9675 8.81793 11.8533 9.70713 11.8533 10.808C11.8428 11.5385 11.4632 12.163 10.8937 12.5124Z" fill="url(#paint0_linear_795_1147)"/>
<path d="M42 9.90841C42 10.5638 42.1306 11.1225 42.3917 11.5845C42.6528 12.0465 43.001 12.4118 43.4362 12.6804C43.8714 12.949 44.361 13.1424 44.905 13.2605C45.449 13.3787 46.0256 13.4324 46.6349 13.4324C47.1789 13.4324 47.7012 13.3787 48.2125 13.2713C48.7239 13.1638 49.1809 12.9812 49.6052 12.7233C50.0186 12.4655 50.3559 12.1324 50.5953 11.7027C50.8346 11.2836 50.9652 10.7679 50.9652 10.1663C50.9652 9.69353 50.8564 9.296 50.6388 8.97368C50.4212 8.65136 50.1492 8.40424 49.8337 8.2216C49.5073 8.03895 49.2026 7.91002 48.9089 7.83481C48.6151 7.7596 48.2996 7.68439 47.9732 7.61993H47.9405L45.4707 7.20091C44.8832 7.09347 44.4589 6.93231 44.1978 6.71743C43.9475 6.49181 43.817 6.22321 43.817 5.90089C43.817 5.62154 43.8823 5.37443 44.0237 5.17029C44.1651 4.96616 44.3392 4.79425 44.5677 4.65458C44.7962 4.51491 45.0464 4.41821 45.3184 4.36449C45.5904 4.30003 45.8733 4.27854 46.1671 4.27854C46.7437 4.27854 47.2224 4.33226 47.6033 4.45044C47.9841 4.55788 48.2778 4.7083 48.4954 4.89095C48.713 5.0736 48.8653 5.26699 48.9633 5.46038C49.0612 5.66452 49.1265 5.8794 49.1591 6.12651H50.6497C50.617 5.54633 50.4647 5.06285 50.2145 4.65458C49.9642 4.24631 49.6378 3.92399 49.2353 3.68762C48.8327 3.45125 48.3866 3.2686 47.9079 3.16116C47.4183 3.05372 46.9069 3 46.3629 3C45.0899 3 44.0999 3.2686 43.3926 3.81655C42.6854 4.36449 42.3264 5.09508 42.3264 6.01907C42.3264 6.47032 42.4243 6.85711 42.6093 7.17943C42.7942 7.50175 43.0445 7.7596 43.3383 7.94225C43.632 8.13564 43.9475 8.27532 44.2739 8.38276C44.6003 8.4902 44.9485 8.5654 45.3184 8.61912L47.6033 8.99517C48.2234 9.10261 48.6913 9.26377 49.0068 9.48939C49.3223 9.71502 49.4746 10.0481 49.4746 10.4671C49.4746 10.9936 49.2244 11.4126 48.7239 11.7027C48.2234 12.0035 47.5706 12.1432 46.7546 12.1432C46.3412 12.1432 45.9495 12.1109 45.5687 12.0357C45.1879 11.9713 44.8506 11.8423 44.5459 11.6704C44.2413 11.4985 43.9911 11.2622 43.8061 10.9721C43.6211 10.682 43.5232 10.3167 43.5123 9.89766H42V9.90841Z" fill="white"/>
<path d="M53.8158 7.92076V4.52565H57.6782C58.2331 4.52565 58.6574 4.66532 58.9512 4.95541C59.245 5.2455 59.3864 5.63229 59.3864 6.12651C59.3864 6.67446 59.2341 7.11496 58.9186 7.43728C58.603 7.7596 58.1025 7.92076 57.4062 7.92076H53.8158ZM52.3252 13.1746H53.8158V9.1993H57.6129C58.6574 9.1993 59.4626 8.91996 60.0283 8.36127C60.5941 7.80258 60.877 7.0505 60.877 6.09428C60.877 5.17029 60.5941 4.46119 60.0175 3.96696C59.4408 3.48348 58.603 3.23637 57.5041 3.23637H52.3252V13.1746Z" fill="white"/>
<path d="M62.4437 13.1746H70.6691V11.8961H63.9343V8.68359H70.3318V7.40505H63.9343V4.52565H70.5276V3.23637H62.4437V13.1746Z" fill="white"/>
<path d="M72.3664 13.1746H80.6026V11.8961H73.857V8.68359H80.2544V7.40505H73.857V4.52565H80.4612V3.23637H72.3664V13.1746Z" fill="white"/>
<path d="M82.289 13.1746H90.5253V11.8961H83.7796V8.68359H90.188V7.40505H83.7796V4.52565H90.3838V3.23637H82.289V13.1746Z" fill="white"/>
<path d="M96.1176 7.07198L93.2453 3.23637H91.3413L95.1167 8.08192L91.1454 13.1746H93.0059L96.0306 9.15633L99.077 13.1746H101.035L97.0424 8.08192L100.927 3.23637H99.077L96.1176 7.07198Z" fill="white"/>
<path d="M48.9524 26.0446L44.9594 17.8039H42.8595V27.7421H44.3501V19.6734H44.3827L48.2887 27.7421H49.6161L53.5329 19.5015H53.5656V27.7421H55.0561V17.8039H52.978L48.9524 26.0446Z" fill="white"/>
<path d="M56.8622 27.7421H65.0985V26.4636H58.3528V23.2511H64.7612V21.9619H58.3528V19.0825H64.957V17.8039H56.8622V27.7421Z" fill="white"/>
<path d="M67.9164 26.4636V19.0825H71.2566C71.8768 19.0825 72.399 19.1792 72.8125 19.3726C73.2259 19.5659 73.5523 19.8345 73.7917 20.1676C74.031 20.5114 74.1942 20.8875 74.2813 21.3065C74.3792 21.7255 74.4227 22.1767 74.4227 22.6602C74.4227 23.1652 74.3792 23.6272 74.303 24.0677C74.2269 24.5082 74.0745 24.9057 73.8678 25.2603C73.6611 25.6256 73.3673 25.9157 72.9757 26.1305C72.5949 26.3454 72.1052 26.4529 71.5286 26.4529H67.9164V26.4636ZM66.4258 27.7421H71.6156C72.3664 27.7421 73.0192 27.6132 73.5632 27.3446C74.1181 27.076 74.5642 26.7107 74.9123 26.2487C75.2605 25.776 75.5107 25.2388 75.6848 24.6264C75.848 24.014 75.935 23.3478 75.935 22.6387C75.935 21.1453 75.5651 19.9635 74.8362 19.104C74.1072 18.2444 73.0083 17.8039 71.5395 17.8039H66.4367V27.7421H66.4258Z" fill="white"/>
<path d="M78.9053 17.8039H77.4147V27.7421H78.9053V17.8039Z" fill="white"/>
<path d="M80.842 27.7421H89.0673V26.4636H82.3325V23.2511H88.7301V21.9619H82.3325V19.0825H88.9368V17.8039H80.842V27.7421Z" fill="white"/>
<path d="M98.446 27.7421H100.187V17.8039H98.6853V25.7115H98.6636L92.1899 17.8039H90.46V27.7421H91.9505V19.8345H91.9832L98.446 27.7421Z" fill="white"/>
<path d="M110.392 27.7421H111.894V17.8039H110.392V21.79H103.549V17.8039H102.047V27.7421H103.549V23.0685H110.392V27.7421Z" fill="white"/>
<path d="M121.664 27.7421H123.372L118.824 17.8039H117.116L112.568 27.7421H114.179L115.462 24.852H120.391L121.664 27.7421ZM119.825 23.5627H116.006L117.9 19.1684L119.825 23.5627Z" fill="white"/>
<path d="M124.003 23.9817C124.003 26.657 125.527 27.9893 128.551 27.9893C131.587 27.9893 133.11 26.657 133.11 23.9817V17.8039H131.619V24.1644C131.619 25.0239 131.347 25.6686 130.814 26.0876C130.27 26.5066 129.52 26.7107 128.562 26.7107C127.605 26.7107 126.854 26.5066 126.31 26.0876C125.766 25.6686 125.505 25.0347 125.505 24.1644V17.8039H124.014V23.9817H124.003Z" fill="white"/>
<path d="M134.035 24.476C134.035 25.1313 134.165 25.69 134.426 26.152C134.688 26.614 135.036 26.9793 135.471 27.2479C135.906 27.5165 136.396 27.7099 136.94 27.8281C137.484 27.9463 138.06 28 138.67 28C139.214 28 139.736 27.9463 140.247 27.8388C140.759 27.7314 141.216 27.5488 141.64 27.2909C142.053 27.033 142.391 26.7 142.63 26.2702C142.869 25.8512 143 25.3355 143 24.7338C143 24.2611 142.891 23.8636 142.674 23.5412C142.456 23.2189 142.184 22.9718 141.868 22.7891C141.542 22.6065 141.237 22.4776 140.933 22.4024C140.639 22.3272 140.324 22.2519 139.997 22.1875H139.964L137.495 21.7685C136.907 21.6718 136.483 21.4999 136.222 21.285C135.971 21.0594 135.841 20.7908 135.841 20.4684C135.841 20.1891 135.906 19.942 136.048 19.7378C136.189 19.5337 136.363 19.3618 136.592 19.2221C136.82 19.0932 137.07 18.9858 137.342 18.932C137.614 18.8676 137.897 18.8461 138.191 18.8461C138.768 18.8461 139.246 18.8998 139.616 19.018C139.997 19.1254 140.291 19.2759 140.508 19.4585C140.726 19.6412 140.878 19.8345 140.976 20.0279C141.074 20.2321 141.14 20.447 141.172 20.6941H142.663C142.63 20.1139 142.478 19.6304 142.228 19.2221C141.977 18.8139 141.651 18.4915 141.248 18.2552C140.846 18.0188 140.4 17.8362 139.921 17.7287C139.442 17.6213 138.92 17.5676 138.376 17.5676C137.103 17.5676 136.113 17.8362 135.406 18.3841C134.698 18.932 134.339 19.6626 134.339 20.5866C134.339 21.0379 134.437 21.4247 134.622 21.747C134.807 22.0693 135.058 22.3272 135.351 22.5098C135.645 22.7032 135.961 22.8429 136.287 22.9503C136.613 23.047 136.962 23.133 137.331 23.1867L139.616 23.5627C140.236 23.6594 140.704 23.8313 141.02 24.0569C141.335 24.2826 141.488 24.6156 141.488 25.0346C141.488 25.5611 141.237 25.9801 140.737 26.2702C140.236 26.571 139.584 26.7107 138.768 26.7107C138.354 26.7107 137.963 26.6785 137.582 26.6033C137.201 26.5388 136.864 26.4099 136.559 26.238C136.254 26.0661 136.004 25.8297 135.819 25.5396C135.634 25.2495 135.536 24.8842 135.525 24.4652H134.035V24.476Z" fill="white"/>
<defs>
<linearGradient id="paint0_linear_795_1147" x1="0" y1="15.0025" x2="29.8917" y2="15.0025" gradientUnits="userSpaceOnUse">
<stop stop-color="#3652A1"/>
<stop offset="1" stop-color="#40AAE0"/>
</linearGradient>
</defs>
</svg>
