<svg width="44" height="45" viewBox="0 0 44 45" fill="none" xmlns="http://www.w3.org/2000/svg">
<g clip-path="url(#clip0_1822_868)">
<path d="M43.8732 22.505C43.8732 34.9184 34.0568 44.9703 21.9558 44.9703C9.84514 44.9703 0.0288086 34.9085 0.0288086 22.505C0.0288086 10.0915 9.84514 0.0297852 21.9558 0.0297852C34.0568 0.0297852 43.8732 10.0915 43.8732 22.505Z" fill="white" fill-opacity="0.1"/>
<path d="M14.2308 32.6857H7.96729L10.0777 10.4983C10.281 8.37483 10.7263 6.86656 11.4137 5.96359C12.101 5.06061 13.3789 4.60416 15.2472 4.60416C17.9095 4.60416 19.4874 6.26127 19.9618 9.56557L21.8883 22.624H22.0722L23.9987 9.55565C24.2504 7.87869 24.7732 6.62842 25.567 5.81475C26.3608 5.00107 27.4063 4.59424 28.7132 4.59424C30.601 4.59424 31.8789 5.03084 32.5662 5.91397C33.2439 6.7971 33.6892 8.3153 33.8828 10.4884L35.9932 32.6758H29.7297L28.4809 10.7166L25.2378 29.1731C25.0636 30.205 24.6763 31.0485 24.0665 31.6935C23.4663 32.3385 22.7596 32.6659 21.956 32.6659C21.1235 32.6659 20.4265 32.3583 19.8456 31.7332C19.2648 31.108 18.8775 30.2646 18.6743 29.1731L15.4312 10.7166L14.2308 32.6857Z" fill="white"/>
<path d="M9.49692 38.0441L8.3933 34.9481C8.3449 34.8291 8.30618 34.71 8.26745 34.581C8.27713 34.7199 8.27713 34.8588 8.27713 34.9878C8.27713 34.9878 8.21905 37.9349 8.21905 38.0341H7.91895C7.91895 38.0341 7.99639 34.5909 8.00607 34.4619H8.58692C9.53564 37.2006 9.6034 37.3792 9.66149 37.5876C9.72926 37.3792 9.79702 37.2105 10.7651 34.4619H11.3556C11.3556 34.4619 11.3944 37.9547 11.3944 38.0341H11.0749C11.0749 37.9448 11.0362 35.0077 11.0362 35.0077C11.0362 34.8588 11.0265 34.71 11.0265 34.5711C10.9684 34.71 10.92 34.8688 10.8716 35.0176L9.77766 38.0441H9.49692Z" fill="white"/>
<path d="M12.2852 38.0441V34.4719H14.1342V34.7398H12.6337V36.0497H14.0083V36.3176H12.6337V37.7762H14.26V38.0441H12.2852Z" fill="white"/>
<path d="M14.8794 34.4719H16.0605C16.9898 34.4719 17.5126 34.9879 17.5126 36.258C17.5126 37.935 16.5639 38.0441 15.7507 38.0441H14.8794V34.4719ZM15.983 37.7762C17.0576 37.7762 17.1737 36.903 17.1737 36.2382C17.1737 35.3947 16.9608 34.7299 15.9636 34.7299H15.2085V37.7762H15.983Z" fill="white"/>
<path d="M18.626 34.4719H18.2969V38.0441H18.626V34.4719Z" fill="white"/>
<path d="M21.8885 38.0441L21.3754 36.5756H20.0685L19.4683 38.0441H19.1392L20.63 34.4719H20.9592L22.2564 38.0441H21.8885ZM20.7559 34.849L20.175 36.3176H21.2689L20.7559 34.849Z" fill="white"/>
<path d="M25.2089 35.4344C25.2089 35.4344 24.5894 35.4245 24.4248 35.4245C24.4248 35.1566 24.3667 34.8589 23.9504 34.8589C23.5535 34.8589 23.4567 35.1467 23.4567 35.2856C23.4567 35.5733 23.7374 35.6825 24.0182 35.7718L24.3086 35.8611C24.9572 36.0695 25.2961 36.3374 25.2961 36.9526C25.2961 37.8159 24.6378 38.1136 23.9601 38.1136C22.963 38.1136 22.5273 37.7464 22.5273 37.0419V36.9625C22.7016 36.9725 23.2921 36.9725 23.3793 36.9725V37.0122C23.3793 37.2999 23.4664 37.6373 23.9407 37.6373C24.4248 37.6373 24.4732 37.2503 24.4732 37.1213C24.4732 36.8038 24.2796 36.7244 23.8923 36.5954L23.6697 36.516C23.0404 36.3076 22.6435 36.0993 22.6435 35.4543C22.6435 34.72 23.1663 34.3727 23.9891 34.3727C24.8604 34.3727 25.238 34.6803 25.238 35.365V35.4344H25.2089Z" fill="white"/>
<path d="M27.9292 38.0441V36.4366H26.8739V38.0441H25.9736V34.4719H26.8739V35.881H27.9292V34.4719H28.8295V38.0441H27.9292Z" fill="white"/>
<path d="M30.9784 38.1235C29.8651 38.1235 29.4004 37.6968 29.4004 36.3175C29.4004 35.3352 29.5746 34.3826 31.0364 34.3826C32.2756 34.3826 32.5951 35.0375 32.5951 36.1191C32.5854 37.4983 32.1885 38.1235 30.9784 38.1235ZM31.0171 34.8688C30.3588 34.8688 30.3201 35.5932 30.3201 36.3969C30.3201 37.3793 30.4943 37.6571 30.988 37.6571C31.4818 37.6571 31.6657 37.3197 31.6657 36.1786C31.6657 35.4642 31.627 34.8688 31.0171 34.8688Z" fill="white"/>
<path d="M34.1347 38.0441H33.2344V34.4719H34.7155C35.3835 34.4719 35.945 34.5612 35.945 35.6031C35.945 36.4466 35.4997 36.7442 34.7349 36.7442H34.1347V38.0441ZM34.4348 36.268C34.8608 36.268 35.064 36.1489 35.064 35.5833C35.064 35.1665 34.9188 34.9482 34.5026 34.9482H34.1347V36.2779H34.4348V36.268Z" fill="white"/>
</g>
<defs>
<clipPath id="clip0_1822_868">
<rect width="43.9024" height="45" fill="white"/>
</clipPath>
</defs>
</svg>
