<svg width="97" height="24" viewBox="0 0 97 24" fill="none" xmlns="http://www.w3.org/2000/svg">
<g clip-path="url(#clip0_792_416)">
<path d="M94.8776 3.74767H95.0808L95.4532 4.32706H95.7241L95.3178 3.74767C95.521 3.71359 95.6903 3.61134 95.6903 3.37277C95.6903 3.10012 95.521 2.99787 95.1824 2.99787H94.6406V4.36114H94.8776V3.74767ZM94.8776 3.54318V3.1342H95.1485C95.2839 3.1342 95.4532 3.16828 95.4532 3.30461C95.4532 3.5091 95.2839 3.5091 95.1146 3.5091H94.8776V3.54318ZM96.3675 3.61134C96.3675 2.86154 95.7919 2.3844 95.1146 2.3844C94.4374 2.3844 93.8618 2.86154 93.8618 3.61134C93.8618 4.29298 94.3697 4.83828 95.1146 4.83828C95.7919 4.83828 96.3675 4.36114 96.3675 3.61134ZM96.0966 3.61134C96.0966 4.22481 95.6564 4.63379 95.1146 4.63379C94.5052 4.63379 94.1327 4.19073 94.1327 3.61134C94.1327 3.03195 94.5729 2.58889 95.1146 2.58889C95.6564 2.58889 96.0966 3.03195 96.0966 3.61134Z" fill="white"/>
<path d="M56.3794 12.8472H65.1831V10.3933H60.7812L64.8106 6.57612V3.98591H56.718V6.4398H60.4765L56.3794 10.2229V12.8472ZM75.0703 8.38245C75.0703 5.92857 73.5805 3.71326 70.2622 3.71326C66.9438 3.71326 65.454 5.89449 65.454 8.38245C65.454 10.8363 66.9438 13.0517 70.2622 13.0517C73.5805 13.0517 75.0703 10.8704 75.0703 8.38245ZM71.6843 8.38245C71.6843 9.33674 71.515 10.5978 70.2283 10.5978C68.9416 10.5978 68.7723 9.33674 68.7723 8.38245C68.7723 7.42817 68.9416 6.20122 70.2283 6.20122C71.515 6.20122 71.6843 7.46225 71.6843 8.38245ZM75.9507 12.8472H79.3368V8.14388C79.3368 6.71245 80.1155 6.4398 80.6912 6.4398C81.6731 6.4398 81.8086 7.15551 81.8086 8.17796V12.8472H85.1946V6.74653C85.1946 4.70163 83.7386 3.74734 82.181 3.74734C80.8266 3.74734 79.9462 4.22448 79.3029 5.11061H79.269V3.98591H76.0184V12.8472H75.9507ZM89.1901 7.39408C89.3594 6.4398 89.9351 5.89449 90.917 5.89449C91.7974 5.89449 92.4069 6.57612 92.4069 7.39408H89.1901ZM95.6575 9.16633C95.6575 5.69 94.1338 3.74734 90.6461 3.74734C87.8696 3.74734 85.9734 5.86041 85.9734 8.45062C85.9734 11.4157 88.1066 13.0857 90.917 13.0857C92.9148 13.0857 94.7771 12.1996 95.4543 10.291H92.3053C92.0344 10.7341 91.4249 10.9386 90.8832 10.9386C89.8335 10.9386 89.2579 10.2229 89.1563 9.20042H95.6575V9.16633Z" fill="white"/>
<path d="M0.373535 12.8473H3.75958V8.0418C3.75958 7.12159 4.06432 6.43996 4.91083 6.43996C5.92664 6.43996 6.02822 7.18976 6.02822 8.0418V12.8473H9.41426V8.0418C9.41426 7.12159 9.71901 6.43996 10.5655 6.43996C11.5813 6.43996 11.6829 7.18976 11.6829 8.0418V12.8473H15.069V6.7467C15.069 5.31526 14.2902 3.7475 12.0554 3.7475C9.85445 3.7475 9.17724 5.04261 9.0418 5.14485C8.63548 4.25873 7.61966 3.7475 6.67157 3.7475C5.4526 3.7475 4.47064 4.1224 3.79344 5.14485H3.75958V3.95199H0.508977V12.8473H0.373535ZM25.4641 8.38262C25.4641 5.92873 23.9742 3.71342 20.6559 3.71342C17.3376 3.71342 15.8477 5.89465 15.8477 8.38262C15.8477 10.8365 17.3376 13.0518 20.6559 13.0518C23.9742 13.0518 25.4641 10.8706 25.4641 8.38262ZM22.1119 8.38262C22.1119 9.33691 21.9426 10.5979 20.6559 10.5979C19.3692 10.5979 19.1999 9.33691 19.1999 8.38262C19.1999 7.42833 19.3692 6.20139 20.6559 6.20139C21.9426 6.20139 22.1119 7.46241 22.1119 8.38262ZM32.5748 8.45078C32.5748 9.50731 32.3039 10.632 31.0849 10.632C29.866 10.632 29.5951 9.50731 29.5951 8.45078C29.5951 7.42833 29.866 6.26955 31.0849 6.26955C32.3039 6.26955 32.5748 7.39425 32.5748 8.45078ZM26.3445 12.8473H29.5951V11.893H29.6289C30.0691 12.4383 30.577 13.0859 32.2023 13.0859C34.708 13.0859 35.927 10.632 35.927 8.4167C35.927 6.33772 35.1143 3.84975 32.1685 3.84975C31.1527 3.84975 30.2723 4.29281 29.7644 5.04261H29.7305V0.748312H26.3445V12.8473ZM36.8751 12.8473H40.2611V3.78159H36.8751V12.8473ZM40.2611 0.373413H36.8751V2.79322H40.2611V0.373413ZM41.6155 12.8473H45.0016V0.611985H41.6155V12.8473ZM49.0987 7.39425C49.268 6.43996 49.8436 5.89465 50.8256 5.89465C51.7059 5.89465 52.3154 6.57629 52.3154 7.39425H49.0987ZM55.566 9.1665C55.566 5.69016 54.0423 3.7475 50.5547 3.7475C47.7781 3.7475 45.8819 5.86057 45.8819 8.45078C45.8819 11.4159 48.0151 13.0859 50.8256 13.0859C52.8233 13.0859 54.6856 12.1998 55.3628 10.2912H52.2138C51.9429 10.7343 51.3335 10.9387 50.7917 10.9387C49.742 10.9387 49.1664 10.223 49.0648 9.20058H55.566V9.1665Z" fill="white"/>
<path d="M80.3854 22.3905C80.487 22.3905 80.487 22.3564 80.487 22.2883V20.6864C80.487 19.6981 80.8256 19.1187 81.5706 19.1187C81.7399 19.1187 81.8414 19.1528 81.8753 19.1528C81.9092 19.1528 81.943 19.1187 81.943 19.0505V17.994C81.943 17.9258 81.943 17.8917 81.8414 17.8917C81.232 17.8917 80.7579 18.3007 80.5209 18.6415H80.487C80.487 18.6415 80.4532 18.6415 80.4532 18.6074V18.0962C80.4532 18.0281 80.4532 17.994 80.3516 17.994H79.3019C79.2003 17.994 79.2003 18.0281 79.2003 18.0962V22.2883C79.2003 22.3564 79.2003 22.3905 79.3019 22.3905H80.3854ZM75.9497 18.9142C76.4915 18.9142 76.7962 19.2209 76.864 19.6981C76.864 19.8003 76.864 19.8003 76.7624 19.8003H75.1371C75.0355 19.8003 75.0355 19.8003 75.0355 19.6981C75.0694 19.2209 75.4418 18.9142 75.9497 18.9142ZM75.0694 20.7546C75.0694 20.6864 75.1032 20.6523 75.1709 20.6523H77.9814C78.0829 20.6523 78.0829 20.6183 78.0829 20.4138V20.2434C78.0829 18.846 77.338 17.8576 75.9497 17.8576C74.663 17.8576 73.7827 18.846 73.7827 20.1411C73.7827 21.4703 74.6969 22.4587 76.1529 22.4587C76.6269 22.4587 77.2703 22.3564 77.5073 22.186C77.575 22.1519 77.6089 22.1179 77.6089 22.0497V21.1977C77.6089 21.1295 77.6089 21.0954 77.575 21.0954C77.5412 21.0954 77.5412 21.0954 77.5073 21.1295C77.2364 21.334 76.7285 21.5044 76.2883 21.5044C75.5434 21.5044 75.1371 21.2317 75.0694 20.7546ZM70.3966 18.0962C70.3628 18.0281 70.3628 17.994 70.2612 17.994H69.1776C69.1099 17.994 69.0761 17.994 69.0761 18.0281C69.0761 18.0281 69.0761 18.0621 69.1099 18.0962L71.1754 22.4587C71.2093 22.5268 71.2431 22.5609 71.277 22.5609C71.3447 22.5609 71.3786 22.5268 71.4124 22.4587L73.5795 18.0962C73.5795 18.0621 73.6134 18.0621 73.6134 18.0281C73.6134 17.994 73.5795 17.994 73.5118 17.994H72.3944C72.3267 17.994 72.2928 18.0281 72.2589 18.0962L71.3786 20.1752C71.3786 20.2093 71.3447 20.2093 71.3109 20.2093C71.277 20.2093 71.277 20.2093 71.2431 20.1752L70.3966 18.0962ZM66.7397 18.9142C67.2815 18.9142 67.5862 19.2209 67.6539 19.6981C67.6539 19.8003 67.6539 19.8003 67.5523 19.8003H65.927C65.8255 19.8003 65.8255 19.8003 65.8255 19.6981C65.8593 19.2209 66.2318 18.9142 66.7397 18.9142ZM65.8593 20.7546C65.8593 20.6864 65.8932 20.6523 65.9609 20.6523H68.7713C68.8729 20.6523 68.8729 20.6183 68.8729 20.4138V20.2434C68.8729 18.846 68.128 17.8576 66.7397 17.8576C65.453 17.8576 64.5726 18.846 64.5726 20.1411C64.5726 21.4703 65.4869 22.4587 66.9429 22.4587C67.4169 22.4587 68.0603 22.3564 68.2973 22.186C68.365 22.1519 68.3989 22.1179 68.3989 22.0497V21.1977C68.3989 21.1295 68.3989 21.0954 68.365 21.0954C68.3311 21.0954 68.3311 21.0954 68.2973 21.1295C68.0264 21.334 67.5185 21.5044 67.0783 21.5044C66.3334 21.5044 65.927 21.2317 65.8593 20.7546ZM62.304 22.2883C62.304 22.3564 62.304 22.3905 62.4056 22.3905H63.4891C63.5907 22.3905 63.5907 22.3564 63.5907 22.2883V15.7446C63.5907 15.6764 63.5907 15.6423 63.4891 15.6423H62.4056C62.304 15.6423 62.304 15.6764 62.304 15.7446V22.2883ZM61.1189 22.2883C61.1866 22.2542 61.1866 22.2542 61.1866 22.186V21.1295C61.1866 21.0954 61.1866 21.0613 61.1527 21.0613H61.1189C60.8818 21.2658 60.5771 21.4021 60.1369 21.4021C59.3581 21.4021 58.9857 20.8909 58.9857 20.2093C58.9857 19.5276 59.4258 19.0505 60.1369 19.0505C60.5771 19.0505 60.848 19.1528 61.085 19.3572C61.1189 19.3913 61.1189 19.3913 61.1189 19.3913C61.1527 19.3913 61.1527 19.3572 61.1527 19.3232V18.2666C61.1527 18.2325 61.1527 18.1985 61.085 18.1644C60.8141 18.0281 60.3401 17.9599 59.9676 17.9599C58.6471 17.9599 57.6651 18.9483 57.6651 20.2434C57.6651 21.5385 58.6471 22.5609 59.9676 22.5609C60.3401 22.4928 60.848 22.4246 61.1189 22.2883ZM51.5702 18.9142C52.112 18.9142 52.4167 19.2209 52.4845 19.6981C52.4845 19.8003 52.4845 19.8003 52.3829 19.8003H50.7576C50.656 19.8003 50.656 19.8003 50.656 19.6981C50.7237 19.2209 51.0623 18.9142 51.5702 18.9142ZM50.7237 20.7546C50.7237 20.6864 50.7576 20.6523 50.8253 20.6523H53.6357C53.7373 20.6523 53.7373 20.6183 53.7373 20.4138V20.2434C53.7373 18.846 52.9924 17.8576 51.6041 17.8576C50.3174 17.8576 49.437 18.846 49.437 20.1411C49.437 21.4703 50.3513 22.4587 51.8073 22.4587C52.2813 22.4587 52.9246 22.3564 53.1617 22.186C53.2294 22.1519 53.2633 22.1179 53.2633 22.0497V21.1977C53.2633 21.1295 53.2632 21.0954 53.2294 21.0954C53.1955 21.0954 53.1955 21.0954 53.1617 21.1295C52.8908 21.334 52.3829 21.5044 51.9427 21.5044C51.1639 21.5044 50.7576 21.2317 50.7237 20.7546ZM45.0352 15.7446C45.0352 15.6764 45.0352 15.6423 44.9336 15.6423H43.8501C43.7485 15.6423 43.7485 15.6764 43.7485 15.7446V22.3224C43.7485 22.3905 43.7485 22.4246 43.8501 22.4246H44.9336C45.0352 22.4246 45.0352 22.3905 45.0352 22.3224V21.9815L45.069 21.9475H45.1029C45.3738 22.2542 45.8478 22.4928 46.4234 22.4928C47.6424 22.4928 48.4889 21.4703 48.4889 20.1752C48.4889 18.8801 47.6424 17.8917 46.4234 17.8917C45.8478 17.8917 45.3738 18.1303 45.1029 18.437H45.069C45.069 18.437 45.0352 18.437 45.0352 18.403V15.7446ZM47.2022 20.1752C47.2022 20.8568 46.7959 21.4021 46.1187 21.4021C45.4415 21.4021 45.0352 20.8568 45.0352 20.1752C45.0352 19.5277 45.4415 18.9823 46.1187 18.9823C46.7959 19.0164 47.2022 19.5617 47.2022 20.1752ZM38.0938 22.3905C38.1954 22.3905 38.1954 22.3564 38.1954 22.2883V20.6864C38.1954 19.6981 38.534 19.1187 39.2789 19.1187C39.4482 19.1187 39.5498 19.1528 39.5836 19.1528C39.6175 19.1528 39.6514 19.1187 39.6514 19.0505V17.994C39.6514 17.9258 39.6514 17.8917 39.5498 17.8917C38.9403 17.8917 38.4662 18.3007 38.2292 18.6415H38.1954C38.1954 18.6415 38.1615 18.6415 38.1615 18.6074V18.0962C38.1615 18.0281 38.1615 17.994 38.0599 17.994H37.0103C36.9087 17.994 36.9087 18.0281 36.9087 18.0962V22.2883C36.9087 22.3564 36.9087 22.3905 37.0103 22.3905H38.0938ZM33.6581 18.9142C34.1998 18.9142 34.5046 19.2209 34.5723 19.6981C34.5723 19.8003 34.5723 19.8003 34.4707 19.8003H32.8454C32.7438 19.8003 32.7438 19.8003 32.7438 19.6981C32.7777 19.2209 33.1502 18.9142 33.6581 18.9142ZM32.7777 20.7546C32.7777 20.6864 32.8116 20.6523 32.8793 20.6523H35.6897C35.7913 20.6523 35.7913 20.6183 35.7913 20.4138V20.2434C35.7913 18.846 35.0463 17.8576 33.6581 17.8576C32.3714 17.8576 31.491 18.846 31.491 20.1411C31.491 21.4703 32.4052 22.4587 33.8612 22.4587C34.3353 22.4587 34.9786 22.3564 35.2156 22.186C35.2834 22.1519 35.3172 22.1179 35.3172 22.0497V21.1977C35.3172 21.1295 35.3172 21.0954 35.2834 21.0954C35.2495 21.0954 35.2495 21.0954 35.2156 21.1295C34.9448 21.334 34.4369 21.5044 33.9967 21.5044C33.2517 21.5044 32.8454 21.2317 32.7777 20.7546ZM28.6129 19.0846C28.7144 19.0846 28.7144 19.0846 28.7144 19.1868V22.2883C28.7144 22.3564 28.7144 22.3905 28.816 22.3905H29.8996C30.0011 22.3905 30.0011 22.3564 30.0011 22.2883V19.1868C30.0011 19.0846 30.0011 19.0846 30.1027 19.0846H30.7122C30.8138 19.0846 30.8138 19.0505 30.8138 18.9823V18.0962C30.8138 18.0281 30.8138 17.994 30.7122 17.994H30.1027C30.0011 17.994 30.0011 17.994 30.0011 17.8917V16.0172C30.0011 15.9832 30.0011 15.9491 29.9673 15.9491C29.9334 15.9491 29.9334 15.9832 29.8996 15.9832L28.8499 16.4944C28.7822 16.5285 28.7483 16.5625 28.7483 16.6648V17.9599C28.7483 18.0621 28.7483 18.0621 28.6467 18.0621H28.2404C28.1388 18.0621 28.1388 18.0962 28.1388 18.1644V19.0505C28.1388 19.1187 28.1388 19.1528 28.2404 19.1528H28.6129V19.0846ZM25.193 19.0846C25.2945 19.0846 25.2945 19.0846 25.2945 19.1868V22.2883C25.2945 22.3564 25.2945 22.3905 25.3961 22.3905H26.4797C26.5812 22.3905 26.5812 22.3564 26.5812 22.2883V19.1868C26.5812 19.0846 26.5812 19.0846 26.6828 19.0846H27.2923C27.3939 19.0846 27.3939 19.0505 27.3939 18.9823V18.0962C27.3939 18.0281 27.3939 17.994 27.2923 17.994H26.6828C26.5812 17.994 26.5812 17.994 26.5812 17.8917V16.0172C26.5812 15.9832 26.5812 15.9491 26.5474 15.9491C26.5135 15.9491 26.5135 15.9832 26.4797 15.9832L25.43 16.4944C25.3623 16.5285 25.3284 16.5625 25.3284 16.6648V17.9599C25.3284 18.0621 25.3284 18.0621 25.2268 18.0621H24.8205C24.7189 18.0621 24.7189 18.0962 24.7189 18.1644V19.0505C24.7189 19.1187 24.7189 19.1528 24.8205 19.1528H25.193V19.0846ZM21.7053 18.9142C22.2471 18.9142 22.5519 19.2209 22.6196 19.6981C22.6196 19.8003 22.6196 19.8003 22.518 19.8003H20.8927C20.7911 19.8003 20.7911 19.8003 20.7911 19.6981C20.8588 19.2209 21.2313 18.9142 21.7053 18.9142ZM20.8588 20.7546C20.8588 20.6864 20.8927 20.6523 20.9604 20.6523H23.7708C23.8724 20.6523 23.8724 20.6183 23.8724 20.4138V20.2434C23.8724 18.846 23.1275 17.8576 21.7392 17.8576C20.4525 17.8576 19.5721 18.846 19.5721 20.1411C19.5721 21.4703 20.4864 22.4587 21.9424 22.4587C22.4164 22.4587 23.0598 22.3564 23.2968 22.186C23.3645 22.1519 23.3984 22.1179 23.3984 22.0497V21.1977C23.3984 21.1295 23.3984 21.0954 23.3645 21.0954C23.3306 21.0954 23.3306 21.0954 23.2968 21.1295C23.0259 21.334 22.518 21.5044 22.0778 21.5044C21.3329 21.5044 20.8927 21.2317 20.8588 20.7546ZM15.4073 15.7446C15.4073 15.6764 15.4073 15.6423 15.3057 15.6423H14.2222C14.1206 15.6423 14.1206 15.6764 14.1206 15.7446V22.3224C14.1206 22.3905 14.1206 22.4246 14.2222 22.4246H15.3057C15.4073 22.4246 15.4073 22.3905 15.4073 22.3224V21.9815L15.4412 21.9475H15.475C15.7459 22.2542 16.22 22.4928 16.7956 22.4928C18.0146 22.4928 18.8611 21.4703 18.8611 20.1752C18.8611 18.8801 18.0146 17.8917 16.7956 17.8917C16.22 17.8917 15.7459 18.1303 15.475 18.437H15.4412C15.4412 18.437 15.4073 18.437 15.4073 18.403V15.7446ZM17.5405 20.1752C17.5405 20.8568 17.1342 21.4021 16.457 21.4021C15.7798 21.4021 15.3734 20.8568 15.3734 20.1752C15.3734 19.5277 15.7798 18.9823 16.457 18.9823C17.1342 19.0164 17.5405 19.5617 17.5405 20.1752Z" fill="white"/>
</g>
<defs>
<clipPath id="clip0_792_416">
<rect width="96.8408" height="23.1756" fill="white"/>
</clipPath>
</defs>
</svg>
