<svg width="65" height="24" viewBox="0 0 65 24" fill="none" xmlns="http://www.w3.org/2000/svg">
<path fill-rule="evenodd" clip-rule="evenodd" d="M13.0454 5.79389V23.1756C10.9915 23.0631 8.99313 22.5005 7.2168 21.5443V0L13.0454 5.79389Z" fill="white"/>
<path fill-rule="evenodd" clip-rule="evenodd" d="M14.376 5.79389V23.1756C16.4299 23.0631 18.4282 22.5005 20.2046 21.5443V0L14.376 5.79389Z" fill="white"/>
<path fill-rule="evenodd" clip-rule="evenodd" d="M21.5923 20.7006V5.79395H27.4209V9.45029C27.4209 9.67529 27.4209 9.84405 27.4209 10.0691C27.1988 14.3442 25.0339 18.2818 21.5923 20.7006Z" fill="white"/>
<path fill-rule="evenodd" clip-rule="evenodd" d="M5.82859 20.7006V5.79395H0V9.45029C0 9.67529 0 9.84405 0 10.0691C0.222041 14.3442 2.38695 18.2818 5.82859 20.7006Z" fill="white"/>
<path d="M59.5085 7.03115C58.8979 5.96237 58.2873 4.83734 57.7322 3.76856H56.6775V8.32492H57.5657V4.94984L59.4531 8.32492H60.3967V3.76856H59.5085C59.5085 4.83734 59.5085 5.90612 59.5085 7.03115ZM64.0049 8.32492H64.8931L63.2833 3.76856H62.4506L60.8408 8.32492H61.729L61.951 7.76241H63.8939L64.0049 8.32492ZM62.8392 4.94984L63.5608 7.03115H62.062L62.8392 4.94984ZM55.9004 3.76856H55.0122V8.32492H55.9004V3.76856ZM51.2375 4.49983H52.2922V8.32492H53.1804V4.49983H54.2351V3.76856H51.2375V4.49983ZM49.6277 6.46863V8.32492H50.5159V3.76856H49.6277V5.62486H47.7959V3.76856H46.9077V8.32492H47.7959V6.46863H49.6277ZM43.7991 6.91864H42.911C42.911 7.6499 43.4661 8.32492 44.2432 8.38118C44.9648 8.54993 45.742 8.26868 46.1306 7.59366C46.4081 6.97489 46.1861 6.24363 45.5755 5.90612C45.5755 5.90612 45.52 5.90611 45.52 5.84986C45.0759 5.62486 44.1877 5.39986 43.9657 5.06235C43.7991 4.78109 43.9101 4.44358 44.2432 4.27482C44.2987 4.27482 44.2987 4.21858 44.3542 4.21858C44.6873 4.10607 45.1314 4.27483 45.2424 4.61233C45.2979 4.66859 45.2979 4.78109 45.2979 4.89359H46.1861C46.1861 4.72484 46.1306 4.61233 46.0751 4.44358C45.7975 3.88106 45.2424 3.4873 44.5763 3.59981C44.1877 3.59981 43.7991 3.71231 43.4661 3.93732C43.1885 4.16232 43.022 4.49983 43.022 4.83734C43.022 5.39985 43.4106 5.90611 43.9102 6.07487C44.2432 6.18737 44.6318 6.35612 44.9648 6.52488C45.2979 6.69363 45.4089 7.03114 45.2979 7.36865C45.0759 7.76241 44.5763 7.87491 44.1877 7.64991C44.1322 7.59365 44.0767 7.59366 44.0212 7.53741C43.8546 7.36865 43.7991 7.14364 43.7991 6.91864ZM42.1893 3.76856H41.3012V8.32492H42.1893V3.76856ZM38.9697 3.76856H37.0824V8.32492H37.9705V6.97489H38.6367L39.4693 8.26867H40.4685L39.5803 6.80614C40.0244 6.63738 40.413 6.24362 40.524 5.73736C40.8016 4.89359 40.302 3.99357 39.4693 3.71231C39.2473 3.76856 39.1363 3.76856 38.9697 3.76856ZM38.8032 6.29988H37.9705V4.44358H38.8032C39.3028 4.44358 39.6914 4.89359 39.6914 5.39985C39.6914 5.51235 39.6359 5.62486 39.6359 5.73736C39.4693 6.07487 39.1918 6.29988 38.8032 6.29988ZM34.6954 6.29988H33.8628V4.44358H34.6954C35.8612 4.44358 35.8612 6.29988 34.6954 6.29988ZM32.9746 3.76856V8.32492H33.8628V6.97489C34.862 6.97489 35.9167 7.08739 36.3607 5.96236C36.6938 5.11859 36.3052 4.16232 35.4726 3.82481C35.306 3.76856 35.084 3.71231 34.862 3.71231L32.9746 3.76856Z" fill="white"/>
<path d="M47.2409 18.4496L46.9079 19.6309H44.2434L46.8523 10.5182H50.6826L53.2915 19.6309H50.627L50.294 18.4496H47.2409ZM47.7405 16.6496H49.7389L48.7397 13.162L47.7405 16.6496ZM59.0091 17.2684V19.6309H53.7911V10.5182H56.4001V17.2684H59.0091ZM64.8932 17.2684V19.6309H59.6752V10.5182H62.2842V17.2684H64.8932ZM37.3601 19.6309L35.6392 14.2308V19.6309H33.0303V10.5182H36.4164L38.3038 16.4246L40.1911 10.5182H43.5772V19.6309H41.0238V14.2308L39.3029 19.6309H37.3601Z" fill="white"/>
</svg>
