<svg width="128" height="24" viewBox="0 0 128 24" fill="none" xmlns="http://www.w3.org/2000/svg">
<path fill-rule="evenodd" clip-rule="evenodd" d="M11.3421 19.1503C6.45353 18.6871 2.12852 16.3599 0.525879 13.6741C0.609264 14.1782 1.18746 15.277 1.45228 16.0026C1.64653 16.534 1.92555 16.9645 2.05521 17.3546C4.07936 18.7753 6.4013 19.5195 9.59421 19.8209C12.8847 20.1318 15.7775 19.7336 18.0605 18.6516C16.0593 19.1571 13.8519 19.3876 11.3421 19.1503Z" fill="white"/>
<path fill-rule="evenodd" clip-rule="evenodd" d="M7.53214 9.38615C5.84978 7.57225 4.33923 5.73835 3.03028 3.94946C2.85388 4.17904 2.6555 4.44635 2.44796 4.75094C2.16023 5.16782 1.92886 5.55833 1.75293 5.88474C3.04081 7.28448 4.4666 8.69741 6.01289 10.0831C10.4172 14.035 14.7087 16.6017 18.1371 18.4497C15.0464 16.1939 11.2987 13.4458 7.53214 9.38615Z" fill="white"/>
<path fill-rule="evenodd" clip-rule="evenodd" d="M14.4842 6.18195C13.227 3.69659 12.2424 2.05318 10.7928 0.124268C10.605 0.143361 10.2893 0.299747 9.73356 0.386578C9.3148 0.452042 8.89284 0.409763 8.55518 0.543418C10.6687 2.74373 12.3726 5.04724 14.2487 8.36135C16.3814 12.1305 17.4535 15.1346 18.3515 18.2778C17.9699 14.6586 16.8556 10.8667 14.4842 6.18195Z" fill="white"/>
<path fill-rule="evenodd" clip-rule="evenodd" d="M12.4285 22.9937C6.3148 22.9937 1.35981 18.2381 1.35981 12.3731C1.35981 6.50683 6.28502 1.92164 12.3991 1.92164C18.3928 1.92164 23.3038 6.32363 23.4925 12.0313C23.4971 11.8849 23.5017 11.7376 23.5017 11.5876C23.5017 5.18756 18.2407 0 11.7508 0C5.26103 0 0 5.18801 0 11.5876C0 17.9871 5.26103 23.1756 11.7508 23.1756C13.0154 23.1756 14.2341 22.9774 15.3758 22.6132C14.437 22.8605 13.4492 22.9937 12.4285 22.9937Z" fill="white"/>
<path fill-rule="evenodd" clip-rule="evenodd" d="M6.09639 6.68586C10.2876 2.44662 16.8031 2.12657 20.6544 5.96939C23.0052 8.31564 23.9389 11.8552 23.1358 14.8902C24.2257 11.2801 23.5582 7.18366 20.7932 4.42508C16.7422 0.384051 9.91376 0.637724 5.72344 4.87469C2.96441 7.66691 1.97296 11.5293 2.77428 14.9957C2.65882 12.0853 3.77856 9.03119 6.09639 6.68586Z" fill="white"/>
<path fill-rule="evenodd" clip-rule="evenodd" d="M22.9257 12.6348C22.8927 10.0853 21.909 7.7259 20.1016 6.49345C16.6081 4.10766 11.1808 5.97202 7.79727 10.8764C6.04573 13.4144 5.22792 16.2207 5.3278 18.6688C4.55213 15.798 5.19081 12.2411 7.31758 9.15929C10.7025 4.25586 16.5669 2.41378 20.4195 5.04325C22.7007 6.60074 23.8099 9.39978 23.5937 12.4252C23.5937 12.4252 23.5258 13.2981 23.4429 13.6781C23.365 14.0395 23.1625 14.8228 23.0828 15.0533C23.0017 15.2833 22.9257 12.6348 22.9257 12.6348Z" fill="white"/>
<path fill-rule="evenodd" clip-rule="evenodd" d="M11.3147 11.1537C7.86341 14.7837 7.08317 19.6135 9.57051 21.9406C9.68047 22.0447 9.79593 22.1407 9.91551 22.2302C7.72597 20.0572 8.38388 15.8957 11.4132 12.647C14.1975 9.66298 18.9353 8.35598 21.2279 10.5036C23.2488 12.3952 22.9799 16.0257 20.7629 19.0948C23.8334 15.5297 24.4414 11.02 22.0636 8.79559C19.5767 6.46889 14.7642 7.5245 11.3147 11.1537Z" fill="white"/>
<path fill-rule="evenodd" clip-rule="evenodd" d="M14.5593 14.839C12.2378 16.8402 11.4594 19.7265 12.8252 21.2863C13.8945 22.5078 15.9594 22.551 17.9222 21.55C16.2728 22.3037 14.5703 22.2105 13.665 21.1763C12.4536 19.792 13.117 17.2553 15.1439 15.5073C17.1726 13.758 19.7979 13.4629 21.0074 14.8458C21.9141 15.8814 21.7703 17.5658 20.787 19.0805C22.0598 17.2948 22.3058 15.2582 21.236 14.0371C19.8712 12.4782 16.8826 12.8369 14.5593 14.839Z" fill="white"/>
<path fill-rule="evenodd" clip-rule="evenodd" d="M37.4285 8.08401H35.9633L35.1043 12.0955H36.6208C37.5467 12.0955 38.0525 11.8955 38.4227 11.5095C38.9272 10.9926 39.2318 10.2575 39.2318 9.55558C39.2309 8.60181 38.7091 8.08401 37.4285 8.08401ZM39.3826 12.8797C38.4044 13.4816 37.5802 13.6662 36.3505 13.6662H34.7662L33.8251 18.0609H31.8706L34.3625 6.51196H37.3946C38.8264 6.51196 39.685 6.72972 40.2581 7.11432C40.9486 7.58211 41.3197 8.33359 41.3197 9.16961C41.3201 10.8912 40.5275 12.1619 39.3826 12.8797Z" fill="white"/>
<path fill-rule="evenodd" clip-rule="evenodd" d="M46.0834 12.246C45.9395 12.1606 45.7934 12.1315 45.5776 12.1315C45.0727 12.1315 44.5091 12.5184 43.8746 13.4076L42.8786 18.0596H41.3062L42.3448 13.2198C42.562 12.2315 42.5464 11.6878 42.4025 11.1854L43.8746 10.584C44.0331 10.9568 44.0913 11.5005 43.99 12.0024C44.653 11.1713 45.463 10.6417 46.169 10.6417C46.4284 10.6417 46.5594 10.6704 46.7756 10.7563L46.0834 12.246Z" fill="white"/>
<path fill-rule="evenodd" clip-rule="evenodd" d="M50.11 11.8457C48.6668 11.8457 47.9159 14.1365 47.9159 15.7826C47.9159 16.6573 48.3342 17.0442 49.0434 17.0442C50.4568 17.0442 51.2211 14.8943 51.2211 13.1327C51.2211 12.1607 50.7597 11.8457 50.11 11.8457ZM48.7543 18.2325C47.137 18.2325 46.2134 17.301 46.2134 15.6399C46.2134 12.8481 47.931 10.6423 50.3565 10.6423C52.0297 10.6423 52.9391 11.602 52.9391 13.1909C52.9387 15.8403 51.4378 18.2325 48.7543 18.2325Z" fill="white"/>
<path fill-rule="evenodd" clip-rule="evenodd" d="M62.52 8.48423C61.9982 8.01643 61.3751 7.83141 60.6324 7.83141C59.6052 7.83141 58.6628 8.38285 57.9719 9.26934C57.0116 10.4895 56.4567 12.8121 56.4567 14.2155C56.4567 15.8707 57.2979 16.7395 58.8135 16.7395C59.5887 16.7395 60.2452 16.4881 61.0878 15.9535L61.7782 17.2237C60.7007 17.926 59.5543 18.2611 58.2917 18.2611C55.8153 18.2611 54.3506 16.7063 54.3506 14.1496C54.3506 12.2948 55.0561 10.0713 56.2533 8.60015C57.4477 7.11312 59.2006 6.31165 60.9187 6.31165C62.0476 6.31165 63.0588 6.66124 63.6315 7.22996L62.52 8.48423Z" fill="white"/>
<path fill-rule="evenodd" clip-rule="evenodd" d="M67.7567 12.246C67.6119 12.1606 67.4676 12.1315 67.2504 12.1315C66.7446 12.1315 66.1829 12.5184 65.5484 13.4076L64.5523 18.0596H62.979L64.019 13.2198C64.2348 12.2315 64.2202 11.6878 64.0745 11.1854L65.5484 10.584C65.7064 10.9568 65.7651 11.5005 65.6638 12.0024C66.3268 11.1713 67.1359 10.6417 67.8428 10.6417C68.104 10.6417 68.2332 10.6704 68.4494 10.7563L67.7567 12.246Z" fill="white"/>
<path fill-rule="evenodd" clip-rule="evenodd" d="M71.8103 11.8166C70.9888 11.8166 70.2668 12.4617 69.9488 13.8219C70.0349 13.8219 70.3392 13.8646 70.5852 13.8646C71.4649 13.8646 72.0696 13.736 72.4187 13.3932C72.6038 13.2063 72.7193 12.9768 72.7193 12.6767C72.7198 12.1889 72.4751 11.8166 71.8103 11.8166ZM73.6727 14.0792C73.067 14.6661 72.0701 14.9962 70.5705 14.9962C70.166 14.9962 69.8187 14.9398 69.6899 14.9398C69.6606 15.0825 69.6038 15.4694 69.6038 15.6981C69.6038 16.6 70.1357 17.0301 70.9316 17.0301C71.6958 17.0301 72.3166 16.7714 72.9942 16.2427L73.4853 17.216C72.6038 17.9184 71.7379 18.2471 70.5128 18.2471C68.9541 18.2471 67.915 17.3169 67.915 15.5985C67.915 14.1519 68.5496 12.5922 69.5456 11.632C70.2668 10.9447 71.0759 10.6442 72.0128 10.6442C73.4276 10.6442 74.3224 11.2883 74.3224 12.5767C74.3224 13.1636 74.0906 13.6791 73.6727 14.0792Z" fill="white"/>
<path fill-rule="evenodd" clip-rule="evenodd" d="M79.2303 11.9742C78.7684 11.9742 78.2475 12.2042 77.9025 12.6338C77.311 13.3489 76.9074 14.7523 76.9074 15.7406C76.9074 16.528 77.1947 16.9435 77.7871 16.9435C78.3918 16.9435 79.1854 16.4144 79.6348 15.6552L80.3697 12.261C80.066 12.061 79.7636 11.9742 79.2303 11.9742ZM81.2498 15.5401C80.9177 17.0726 80.9749 17.5304 81.1793 17.8737L79.8199 18.1896C79.6348 17.96 79.5194 17.6023 79.5469 17.1436C78.9838 17.8314 78.2342 18.2032 77.3967 18.2032C75.9389 18.2032 75.2466 17.3436 75.2466 15.7124C75.2466 14.2654 75.8239 12.7188 76.8492 11.7164C77.5415 11.044 78.45 10.6995 79.2875 10.6995C79.9372 10.6995 80.4421 10.8004 80.6863 10.929C80.6863 10.8577 80.8178 10.1998 80.8751 9.95617L81.3942 7.52173L82.9102 7.77904L81.2498 15.5401Z" fill="white"/>
<path fill-rule="evenodd" clip-rule="evenodd" d="M85.839 9.76955C85.2626 9.76955 84.7857 9.29767 84.7857 8.72486C84.7857 8.1375 85.2626 7.66516 85.8523 7.66516C86.4295 7.66516 86.8923 8.1375 86.8923 8.70986C86.8923 9.29767 86.4295 9.76955 85.839 9.76955ZM84.6409 18.0603H83.0259L84.5543 10.8997L86.2151 10.6574L84.6409 18.0603Z" fill="white"/>
<path fill-rule="evenodd" clip-rule="evenodd" d="M91.09 11.9314H89.6895L88.868 15.826C88.8098 16.0983 88.7805 16.3424 88.7805 16.5293C88.7805 16.9862 88.9972 17.1298 89.4585 17.1298C89.6895 17.1298 89.9643 17.0862 90.1948 16.9862V17.9604C89.689 18.1604 89.185 18.2604 88.6787 18.2604C87.6987 18.2604 87.1494 17.774 87.1494 17.0448C87.1494 16.7857 87.1787 16.4143 87.2488 16.0556L88.1303 11.9314H87.3079L87.5379 10.8139H88.3622C88.5056 10.1561 88.6508 9.59739 88.8391 9.05277L90.5261 8.66589C90.3249 9.28144 90.0803 10.1261 89.9364 10.8135H91.6806L91.09 11.9314Z" fill="white"/>
<path fill-rule="evenodd" clip-rule="evenodd" d="M100.72 8.13356H99.103L98.4446 11.2758H100.129C100.854 11.2758 101.292 11.1417 101.629 10.8749C102.05 10.5398 102.353 10.0379 102.353 9.40419C102.353 8.56816 101.949 8.13356 100.72 8.13356ZM99.8268 12.8642H98.1088L97.334 16.4902H99.1863C99.8759 16.4902 100.383 16.3065 100.769 16.0397C101.275 15.6887 101.663 14.9704 101.663 14.2508C101.663 13.3311 101.208 12.8642 99.8268 12.8642ZM101.931 11.9446C103.161 12.1782 103.784 13.1134 103.784 14.2672C103.784 15.1196 103.363 16.1724 102.522 16.9585C101.645 17.7608 100.719 18.0609 98.7822 18.0609H95.0767L97.5686 6.51196H101.208C103.413 6.51196 104.474 7.46483 104.474 9.0205C104.474 10.273 103.683 11.4599 101.931 11.9446Z" fill="white"/>
<path fill-rule="evenodd" clip-rule="evenodd" d="M109.241 11.8889C108.59 11.8889 108.128 12.0316 107.566 12.6908C106.917 13.4646 106.613 14.8675 106.613 15.8844C106.613 16.6723 106.874 16.9723 107.408 16.9723C108.071 16.9723 108.809 16.3136 109.138 15.583L109.917 12.0316C109.774 11.9462 109.486 11.8889 109.241 11.8889ZM111.26 12.8486L110.67 15.7126C110.481 16.5859 110.567 16.9578 110.929 17.3442L109.63 18.3048C109.241 17.9879 109.083 17.5879 109.083 17.1155C108.562 17.8174 107.825 18.233 106.888 18.233C105.749 18.233 104.983 17.4729 104.983 15.9263C104.983 14.3238 105.589 12.7767 106.527 11.817C107.306 11.0297 108.259 10.6423 109.429 10.6423C110.265 10.6423 111.117 10.8151 111.693 11.1874C111.564 11.5888 111.362 12.3335 111.26 12.8486Z" fill="white"/>
<path fill-rule="evenodd" clip-rule="evenodd" d="M119.068 12.8771L117.956 18.0601H116.383L117.409 13.263C117.481 12.9489 117.509 12.7188 117.509 12.5616C117.509 12.146 117.321 11.9887 116.933 11.9887C116.412 11.9887 115.691 12.3474 114.926 13.3339L113.915 18.0601H112.357L113.426 13.0484C113.598 12.2042 113.613 11.7164 113.454 11.1864L114.927 10.5858C115.071 10.915 115.157 11.4455 115.056 11.946C115.749 11.115 116.671 10.6567 117.683 10.6567C118.591 10.6567 119.14 11.215 119.14 12.0888C119.14 12.3333 119.125 12.6338 119.068 12.8771Z" fill="white"/>
<path fill-rule="evenodd" clip-rule="evenodd" d="M124.306 13.9655L126.5 17.9611L124.724 18.1602L122.689 13.9219L125.706 10.6859L127.41 10.9714L124.306 13.9655ZM123.483 10.0268L121.753 18.0602H120.165L121.881 10.0563C122.084 9.13936 122.112 8.4238 121.999 7.97919L123.642 7.43457C123.772 7.8369 123.757 8.75249 123.483 10.0268Z" fill="white"/>
</svg>
