<svg width="136" height="31" viewBox="0 0 136 31" fill="none" xmlns="http://www.w3.org/2000/svg">
<path d="M25.6515 21.4228C25.8806 21.199 26.0091 20.8966 26.0091 20.5813C26.0091 20.2661 25.8806 19.9636 25.6515 19.7399L25.5396 19.6449C25.7766 19.0353 26.1493 18.4838 26.6311 18.0299C27.0854 17.6286 27.4483 17.1397 27.6966 16.5947C27.9449 16.0496 28.0732 15.4602 28.0732 14.8643C28.0732 14.2684 27.9449 13.679 27.6966 13.1339C27.4483 12.5888 27.0854 12.1 26.6311 11.6987C26.1471 11.2451 25.772 10.6937 25.5326 10.0837L25.6515 9.98869C25.8481 9.80391 25.9764 9.56147 26.0166 9.29887C26.0568 9.03627 26.0067 8.76812 25.874 8.53592C25.7413 8.30372 25.5334 8.12039 25.2825 8.01427C25.0316 7.90815 24.7516 7.88516 24.4859 7.94885C24.2201 8.01254 23.9834 8.15937 23.8123 8.36663C23.6413 8.57389 23.5454 8.83003 23.5395 9.09545C23.5336 9.36086 23.618 9.62077 23.7797 9.83497C23.9414 10.0492 24.1714 10.2057 24.4341 10.2805C24.7118 11.0959 25.1924 11.8324 25.8335 12.4248C26.1939 12.7286 26.4829 13.1039 26.6809 13.5254C26.8789 13.9468 26.9814 14.4045 26.9814 14.8677C26.9814 15.3308 26.8789 15.7886 26.6809 16.21C26.4829 16.6314 26.1939 17.0067 25.8335 17.3106C25.1925 17.8977 24.7117 18.6298 24.4341 19.4413C24.2404 19.5015 24.0634 19.6036 23.9163 19.7399C23.8024 19.8504 23.712 19.9816 23.6503 20.1259C23.5887 20.2703 23.5569 20.425 23.5569 20.5813C23.5569 20.8969 23.6862 21.1996 23.9163 21.4228C24.1464 21.6459 24.4585 21.7713 24.7839 21.7713C25.1094 21.7713 25.4214 21.6459 25.6515 21.4228ZM8.04038 27.1567C8.2694 26.933 8.39792 26.6306 8.39792 26.3153C8.39792 26.0001 8.2694 25.6976 8.04038 25.4739L7.92843 25.3789C8.16338 24.7699 8.53364 24.2185 9.01295 23.7638C9.46722 23.3626 9.83013 22.8738 10.0784 22.3287C10.3268 21.7836 10.455 21.1942 10.455 20.5983C10.455 20.0024 10.3268 19.413 10.0784 18.8679C9.83013 18.3228 9.46722 17.834 9.01295 17.4327C8.60939 17.097 8.28547 16.6806 8.0634 16.2121C7.84132 15.7436 7.72634 15.234 7.72634 14.7184C7.72634 14.2028 7.84132 13.6932 8.0634 13.2247C8.28547 12.7562 8.60939 12.3398 9.01295 12.0041C9.47292 11.6026 9.84072 11.1117 10.0925 10.5635C10.3442 10.0152 10.4743 9.42172 10.4743 8.82154C10.4743 8.22135 10.3442 7.62788 10.0925 7.07961C9.84072 6.53134 9.47292 6.04051 9.01295 5.63899C8.49036 5.15506 8.09867 4.5538 7.87246 3.88827C7.92917 3.84903 7.98294 3.80594 8.03338 3.75934C8.2624 3.53562 8.39093 3.23314 8.39093 2.91788C8.39093 2.60263 8.2624 2.30017 8.03338 2.07645C7.80216 1.85521 7.49058 1.73092 7.16577 1.73037C6.92162 1.7283 6.68241 1.79706 6.47886 1.92783C6.27531 2.05859 6.11672 2.24539 6.02345 2.46422C5.93018 2.68306 5.90651 2.92395 5.95546 3.15593C6.00441 3.38791 6.12375 3.6004 6.29816 3.76611C6.42865 3.89124 6.58647 3.98632 6.75995 4.04433C7.00266 4.92788 7.48601 5.73181 8.15933 6.37185C8.51974 6.67569 8.80872 7.051 9.00675 7.47243C9.20479 7.89386 9.30727 8.35161 9.30727 8.81474C9.30727 9.27787 9.20479 9.73562 9.00675 10.1571C8.80872 10.5785 8.51974 10.9538 8.15933 11.2576C7.67372 11.6907 7.28334 12.2145 7.01161 12.7975C6.73988 13.3806 6.5924 14.0109 6.57803 14.6505V14.6912C6.59012 15.3363 6.73641 15.9723 7.00814 16.5611C7.27986 17.15 7.67142 17.6796 8.15933 18.1181C8.51974 18.4219 8.80872 18.7972 9.00675 19.2187C9.20479 19.6401 9.30727 20.0978 9.30727 20.561C9.30727 21.0241 9.20479 21.4818 9.00675 21.9033C8.80872 22.3247 8.51974 22.7 8.15933 23.0038C7.51839 23.591 7.03759 24.3231 6.75995 25.1346C6.56628 25.1948 6.38924 25.2969 6.24218 25.4332C6.06777 25.5989 5.94843 25.8114 5.89948 26.0434C5.85053 26.2753 5.87421 26.5162 5.96747 26.7351C6.06074 26.9539 6.21934 27.1407 6.42289 27.2715C6.62644 27.4022 6.86565 27.471 7.1098 27.4689C7.27867 27.4814 7.44839 27.4601 7.60845 27.4064C7.76851 27.3527 7.91552 27.2677 8.04038 27.1567ZM2.06504 20.5677C2.06542 20.7879 2.1289 21.0036 2.24838 21.1908C2.36786 21.378 2.53864 21.5293 2.74165 21.6278C2.94466 21.7263 3.17191 21.7681 3.39802 21.7486C3.62412 21.7291 3.84018 21.649 4.02207 21.5173C4.20396 21.3856 4.34452 21.2074 4.42804 21.0027C4.51157 20.798 4.53478 20.5748 4.49508 20.358C4.45537 20.1413 4.35433 19.9395 4.20321 19.7752C4.0521 19.6109 3.85688 19.4906 3.63934 19.4277C3.3617 18.6162 2.8809 17.8841 2.23996 17.297C1.87955 16.9931 1.59057 16.6178 1.39254 16.1964C1.1945 15.775 1.09203 15.3172 1.09203 14.8541C1.09203 14.391 1.1945 13.9332 1.39254 13.5118C1.59057 13.0904 1.87955 12.7151 2.23996 12.4112C2.87838 11.8167 3.35857 11.0809 3.63934 10.2669C3.83238 10.2133 4.00817 10.1129 4.15011 9.97513C4.32085 9.80886 4.43696 9.59724 4.4838 9.36702C4.53063 9.1368 4.50609 8.89829 4.41326 8.68159C4.32044 8.46488 4.16349 8.27971 3.96224 8.14944C3.76099 8.01917 3.52446 7.94964 3.2825 7.94964C3.04054 7.94964 2.80401 8.01917 2.60276 8.14944C2.40151 8.27971 2.24456 8.46488 2.15174 8.68159C2.05891 8.89829 2.03436 9.1368 2.0812 9.36702C2.12803 9.59724 2.24415 9.80886 2.41488 9.97513L2.53383 10.0701C2.29438 10.6802 1.91933 11.2316 1.43532 11.6851C0.982951 12.0875 0.621764 12.5767 0.374678 13.1217C0.127591 13.6666 0 14.2554 0 14.8507C0 15.446 0.127591 16.0348 0.374678 16.5798C0.621764 17.1247 0.982951 17.6139 1.43532 18.0163C1.91933 18.4699 2.29438 19.0213 2.53383 19.6313L2.41488 19.7263C2.19058 19.9524 2.06522 20.254 2.06504 20.5677ZM14.8623 29.6675C15.09 29.4458 15.2183 29.1458 15.2192 28.8328C15.2186 28.5178 15.0905 28.2157 14.8623 27.9914C14.7712 27.9019 14.6646 27.8284 14.5475 27.7743V2.2461C14.6646 2.19196 14.7712 2.11848 14.8623 2.02895C15.0905 1.8047 15.2186 1.50252 15.2192 1.18751C15.2192 0.872566 15.0902 0.570524 14.8606 0.347822C14.6309 0.12512 14.3195 0 13.9947 0C13.67 0 13.3585 0.12512 13.1289 0.347822C12.8993 0.570524 12.7703 0.872566 12.7703 1.18751C12.7708 1.50252 12.899 1.8047 13.1271 2.02895C13.2183 2.11848 13.3248 2.19196 13.442 2.2461V27.7607C13.3248 27.8148 13.2183 27.8883 13.1271 27.9778C12.899 28.2021 12.7708 28.5043 12.7703 28.8193C12.7695 29.0555 12.8415 29.2865 12.9768 29.4829C13.1122 29.6792 13.3049 29.832 13.5302 29.9216C13.7556 30.0112 14.0034 30.0336 14.2419 29.9859C14.4804 29.9382 14.6989 29.8227 14.8693 29.6539L14.8623 29.6675ZM20.194 3.88148C19.9688 4.54944 19.577 5.15314 19.0535 5.63899C18.6011 6.04138 18.2399 6.53056 17.9928 7.07551C17.7458 7.62045 17.6182 8.20927 17.6182 8.80457C17.6182 9.39988 17.7458 9.98867 17.9928 10.5336C18.2399 11.0786 18.6011 11.5677 19.0535 11.9701C19.457 12.3059 19.781 12.7223 20.003 13.1908C20.2251 13.6593 20.3401 14.1688 20.3401 14.6845C20.3401 15.2001 20.2251 15.7097 20.003 16.1782C19.781 16.6467 19.457 17.063 19.0535 17.3988C18.6011 17.8012 18.2399 18.2903 17.9928 18.8353C17.7458 19.3802 17.6182 19.969 17.6182 20.5643C17.6182 21.1597 17.7458 21.7485 17.9928 22.2934C18.2399 22.8384 18.6011 23.3275 19.0535 23.7299C19.5375 24.1822 19.9105 24.7341 20.145 25.345L20.033 25.4399C19.8623 25.6062 19.7462 25.8178 19.6994 26.048C19.6525 26.2783 19.6771 26.5168 19.7699 26.7335C19.8627 26.9502 20.0197 27.1354 20.2209 27.2656C20.4222 27.3959 20.6587 27.4654 20.9007 27.4654C21.1426 27.4654 21.3792 27.3959 21.5804 27.2656C21.7817 27.1354 21.9386 26.9502 22.0314 26.7335C22.1242 26.5168 22.1488 26.2783 22.102 26.048C22.0551 25.8178 21.939 25.6062 21.7683 25.4399C21.6223 25.3023 21.4449 25.2 21.2505 25.1414C20.9729 24.3298 20.4921 23.5977 19.8511 23.0106C19.4907 22.7068 19.2017 22.3315 19.0037 21.9101C18.8057 21.4886 18.7032 21.0309 18.7032 20.5677C18.7032 20.1046 18.8057 19.6469 19.0037 19.2254C19.2017 18.804 19.4907 18.4287 19.8511 18.1249C20.341 17.6878 20.7338 17.1586 21.0057 16.5694C21.2776 15.9802 21.4228 15.3435 21.4324 14.698V14.6573C21.4181 14.0176 21.2706 13.3874 20.9988 12.8043C20.7271 12.2213 20.3367 11.6975 19.8511 11.2644C19.4907 10.9606 19.2017 10.5853 19.0037 10.1638C18.8057 9.74241 18.7032 9.28467 18.7032 8.82154C18.7032 8.3584 18.8057 7.90066 19.0037 7.47922C19.2017 7.05779 19.4907 6.68248 19.8511 6.37864C20.5244 5.7386 21.0078 4.93467 21.2505 4.05112C21.424 3.99311 21.5818 3.89803 21.7123 3.7729C21.883 3.60663 21.9991 3.39503 22.046 3.16481C22.0928 2.93459 22.0683 2.69606 21.9754 2.47936C21.8826 2.26266 21.7257 2.0775 21.5244 1.94723C21.3232 1.81696 21.0866 1.74743 20.8447 1.74743C20.6027 1.74743 20.3662 1.81696 20.1649 1.94723C19.9637 2.0775 19.8067 2.26266 19.7139 2.47936C19.6211 2.69606 19.5966 2.93459 19.6434 3.16481C19.6902 3.39503 19.8063 3.60663 19.9771 3.7729C20.0496 3.82488 20.1269 3.87032 20.208 3.90863L20.194 3.88148Z" fill="url(#paint0_linear_795_1063)"/>
<path d="M40.0696 16.5687H42.1249V10.8222H47.4957C48.3746 10.8222 49.0209 11.0561 49.4346 11.5239C49.8611 11.9917 50.1067 12.8136 50.1714 13.9894C50.1714 14.0527 50.1778 14.1981 50.1908 14.4256C50.2425 15.159 50.2877 15.6584 50.3265 15.9239C50.3653 16.1894 50.4557 16.4044 50.5979 16.5687H52.7695C52.6532 16.4297 52.5562 16.2779 52.4787 16.1136C52.4141 15.9492 52.3559 15.7406 52.3042 15.4877C52.2654 15.2348 52.2331 14.9187 52.2072 14.5394C52.1814 14.1601 52.1491 13.6101 52.1103 12.8894C52.0715 12.0802 51.8776 11.4228 51.5286 10.917C51.1796 10.3986 50.7013 10.0952 50.0938 10.0067V9.96874C50.8435 9.72851 51.4187 9.31758 51.8194 8.73597C52.2202 8.15436 52.4205 7.45264 52.4205 6.6308C52.4205 6.17563 52.3494 5.73942 52.2072 5.32218C52.065 4.89229 51.8453 4.50666 51.548 4.16528C51.2507 3.81125 50.8565 3.53309 50.3653 3.33079C49.8741 3.12849 49.2989 3.02734 48.6396 3.02734H40.0696V16.5687ZM42.1249 9.07735V4.77217H47.9222C48.7236 4.77217 49.3312 4.96815 49.7448 5.36011C50.1584 5.73942 50.3653 6.26413 50.3653 6.93425C50.3653 7.19977 50.3265 7.45896 50.2489 7.71184C50.1714 7.95207 50.0356 8.17965 49.8418 8.39459C49.6608 8.59689 49.4023 8.76126 49.0662 8.8877C48.743 9.01414 48.3423 9.07735 47.8641 9.07735H42.1249Z" fill="white"/>
<path d="M66.5705 16.5687H68.6258V3.02734H66.5705V8.45149H57.1474V3.02734H55.0921V16.5687H57.1474V10.1963H66.5705V16.5687Z" fill="white"/>
<path d="M71.991 16.5687H83.3142V14.8239H74.0462V10.4429H82.8489V8.69804H74.0462V4.77217H83.1203V3.02734H71.991V16.5687Z" fill="white"/>
<path d="M97.1019 16.5687H99.4868V3.02734H97.4315V13.7998H97.3927L88.4931 3.02734H86.1082V16.5687H88.1635V5.79631H88.2023L97.1019 16.5687Z" fill="white"/>
<path d="M102.891 11.448C102.891 15.0894 104.978 16.9101 109.153 16.9101C113.329 16.9101 115.416 15.0894 115.416 11.448V3.02734H113.361V11.6946C113.361 12.8705 112.986 13.7429 112.236 14.3118C111.5 14.8808 110.472 15.1653 109.153 15.1653C107.835 15.1653 106.801 14.8808 106.051 14.3118C105.314 13.7429 104.946 12.8705 104.946 11.6946V3.02734H102.891V11.448Z" fill="white"/>
<path d="M127.125 14.2549L121.638 3.02734H118.749V16.5687H120.804V5.56873H120.843L126.214 16.5687H128.037L133.427 5.34114H133.465V16.5687H135.521V3.02734H132.671L127.125 14.2549Z" fill="white"/>
<path d="M40.5498 23.2699H42.7546C43.0915 23.2699 43.3528 23.344 43.5384 23.4921C43.7239 23.6401 43.8167 23.8957 43.8167 24.2587C43.8167 24.5787 43.7288 24.8271 43.553 25.0038C43.3772 25.1758 43.0745 25.2617 42.6447 25.2617H40.5498V23.2699ZM40.0078 27.8984H40.5498V25.749H42.5861C43.1721 25.749 43.6214 25.6224 43.9339 25.3692C44.2464 25.1113 44.4027 24.7411 44.4027 24.2587C44.4027 24.0007 44.3587 23.7763 44.2708 23.5852C44.1878 23.3941 44.0731 23.2413 43.9266 23.1266C43.7801 23.0072 43.6116 22.9213 43.4212 22.8687C43.2356 22.8114 43.0378 22.7827 42.8279 22.7827H40.0078V27.8984Z" fill="white"/>
<path d="M45.6047 25.3406C45.6047 25.7752 45.6804 26.1621 45.8318 26.5013C45.9831 26.8404 46.1907 27.1246 46.4544 27.3539C46.7229 27.5784 47.0257 27.7479 47.3626 27.8626C47.7045 27.9724 48.0658 28.0273 48.4467 28.0273C48.8276 28.0273 49.1865 27.9724 49.5235 27.8626C49.8653 27.7479 50.168 27.5784 50.4317 27.3539C50.7003 27.1246 50.9103 26.8404 51.0617 26.5013C51.213 26.1621 51.2887 25.7752 51.2887 25.3406C51.2887 24.9059 51.213 24.519 51.0617 24.1799C50.9103 23.8407 50.7003 23.5589 50.4317 23.3344C50.168 23.1052 49.8653 22.9356 49.5235 22.8257C49.1865 22.7111 48.8276 22.6538 48.4467 22.6538C48.0658 22.6538 47.7045 22.7111 47.3626 22.8257C47.0257 22.9356 46.7229 23.1052 46.4544 23.3344C46.1907 23.5589 45.9831 23.8407 45.8318 24.1799C45.6804 24.519 45.6047 24.9059 45.6047 25.3406ZM46.1907 25.3406C46.1907 24.968 46.2517 24.6432 46.3738 24.3661C46.4959 24.0843 46.6619 23.8527 46.8719 23.6712C47.0867 23.4897 47.3285 23.3559 47.597 23.2699C47.8656 23.184 48.1488 23.141 48.4467 23.141C48.7446 23.141 49.0278 23.184 49.2964 23.2699C49.565 23.3559 49.8042 23.4897 50.0142 23.6712C50.2291 23.8527 50.3975 24.0843 50.5196 24.3661C50.6417 24.6432 50.7027 24.968 50.7027 25.3406C50.7027 25.7131 50.6417 26.0403 50.5196 26.3221C50.3975 26.5992 50.2291 26.8284 50.0142 27.0099C49.8042 27.1915 49.565 27.3252 49.2964 27.4112C49.0278 27.4972 48.7446 27.5401 48.4467 27.5401C48.1488 27.5401 47.8656 27.4972 47.597 27.4112C47.3285 27.3204 47.0867 27.1867 46.8719 27.0099C46.6619 26.8284 46.4959 26.5992 46.3738 26.3221C46.2517 26.0403 46.1907 25.7131 46.1907 25.3406Z" fill="white"/>
<path d="M58.061 27.1962H58.0463L56.5008 22.7827H55.8342L54.2887 27.1962H54.274L52.8237 22.7827H52.2158L53.9517 27.8984H54.5817L56.1345 23.5279H56.1492L57.724 27.8984H58.3539L60.1119 22.7827H59.5259L58.061 27.1962Z" fill="white"/>
<path d="M61.3327 27.8984H65.5518V27.4112H61.8747V25.491H65.3613V25.0038H61.8747V23.2699H65.4932V22.7827H61.3327V27.8984Z" fill="white"/>
<path d="M67.0795 27.8984H67.6215V25.6486H69.7237C70.1779 25.6486 70.5002 25.737 70.6906 25.9137C70.8859 26.0905 70.986 26.4033 70.9909 26.8523C70.9958 27.1485 71.008 27.3849 71.0275 27.5616C71.052 27.7336 71.0861 27.8458 71.1301 27.8984H71.7161C71.6868 27.8697 71.6599 27.8172 71.6355 27.7408C71.616 27.6643 71.5989 27.5712 71.5842 27.4613C71.5696 27.3515 71.5574 27.244 71.5476 27.1389C71.5427 27.0291 71.5378 26.9287 71.533 26.838C71.5134 26.3842 71.4402 26.0475 71.3132 25.8278C71.1911 25.608 70.9543 25.4719 70.6027 25.4194V25.405C70.9299 25.3334 71.1814 25.1805 71.3572 24.9465C71.5378 24.7124 71.6282 24.4521 71.6282 24.1655C71.6282 23.9076 71.5818 23.6879 71.489 23.5064C71.4011 23.3249 71.279 23.1816 71.1228 23.0765C70.9665 22.9714 70.7883 22.8974 70.5881 22.8544C70.3879 22.8066 70.1681 22.7827 69.9288 22.7827H67.0795V27.8984ZM67.6215 23.2699H69.9655C70.1022 23.2699 70.234 23.2819 70.361 23.3058C70.488 23.3296 70.6003 23.375 70.6979 23.4419C70.8005 23.504 70.8835 23.5947 70.947 23.7142C71.0105 23.8336 71.0422 23.984 71.0422 24.1655C71.0422 24.3518 71.0129 24.5118 70.9543 24.6456C70.8957 24.7745 70.8127 24.8772 70.7053 24.9537C70.6027 25.0253 70.4831 25.0779 70.3463 25.1113C70.2145 25.1447 70.0704 25.1614 69.9142 25.1614H67.6215V23.2699Z" fill="white"/>
<path d="M73.2412 27.8984H77.4603V27.4112H73.7832V25.491H77.2698V25.0038H73.7832V23.2699H77.4017V22.7827H73.2412V27.8984Z" fill="white"/>
<path d="M78.9001 27.8984H81.5224C81.8788 27.8984 82.1963 27.8339 82.4746 27.7049C82.7578 27.576 82.9947 27.3968 83.1851 27.1676C83.3755 26.9335 83.5172 26.6613 83.6099 26.3508C83.7076 26.0403 83.7564 25.7036 83.7564 25.3406C83.7564 24.5286 83.5587 23.9004 83.1631 23.4562C82.7676 23.0072 82.1938 22.7827 81.4418 22.7827H78.9001V27.8984ZM79.4421 23.2699H81.4198C82.0156 23.2699 82.4551 23.4443 82.7383 23.793C83.0264 24.1369 83.1704 24.6527 83.1704 25.3406C83.1704 25.7179 83.1241 26.0403 83.0313 26.3078C82.9434 26.5753 82.8189 26.7902 82.6577 26.9526C82.4966 27.115 82.311 27.2321 82.101 27.3037C81.8959 27.3754 81.6689 27.4112 81.4198 27.4112H79.4421V23.2699Z" fill="white"/>
<path d="M88.1047 27.8984H91.0127C91.2275 27.8984 91.4351 27.8721 91.6353 27.8196C91.8404 27.7622 92.0259 27.6763 92.192 27.5616C92.358 27.4422 92.4898 27.2894 92.5875 27.1031C92.69 26.9168 92.7413 26.6947 92.7413 26.4368C92.7413 26.1024 92.6412 25.823 92.441 25.5985C92.2457 25.3692 91.9771 25.2307 91.6353 25.1829V25.1686C91.9331 25.1017 92.1578 24.968 92.3092 24.7674C92.4605 24.5668 92.5362 24.3351 92.5362 24.0724C92.5362 23.6855 92.4141 23.375 92.17 23.141C91.9307 22.9022 91.5669 22.7827 91.0786 22.7827H88.1047V27.8984ZM88.6468 23.2699H90.976C91.2983 23.2699 91.5474 23.3344 91.7232 23.4634C91.9038 23.5876 91.9942 23.7977 91.9942 24.0939C91.9942 24.4187 91.8916 24.6527 91.6865 24.796C91.4814 24.9346 91.1836 25.0038 90.7929 25.0038H88.6468V23.2699ZM88.6468 25.491H91.0566C91.4033 25.491 91.6719 25.5627 91.8623 25.706C92.0577 25.8445 92.1553 26.0881 92.1553 26.4368C92.1553 26.7711 92.043 27.0171 91.8184 27.1747C91.5986 27.3324 91.3008 27.4112 90.9248 27.4112H88.6468V25.491Z" fill="white"/>
<path d="M96.0244 27.8984H96.5664V25.749L98.9177 22.7827H98.2145L96.2954 25.2188L94.3763 22.7827H93.6731L96.0244 25.749V27.8984Z" fill="white"/>
<path d="M106.879 24.2444C106.869 23.953 106.803 23.7046 106.681 23.4992C106.559 23.289 106.395 23.1243 106.19 23.0048C105.985 22.8807 105.756 22.7923 105.502 22.7397C105.248 22.6824 104.979 22.6538 104.696 22.6538C104.427 22.6538 104.171 22.68 103.927 22.7326C103.688 22.7851 103.468 22.8711 103.268 22.9905C103.072 23.1052 102.916 23.258 102.799 23.4491C102.687 23.6401 102.63 23.8694 102.63 24.1369C102.63 24.5333 102.784 24.8342 103.092 25.0396C103.404 25.245 103.888 25.3979 104.542 25.4982L104.725 25.5268C105.013 25.5698 105.248 25.6104 105.428 25.6486C105.614 25.6869 105.785 25.7418 105.941 25.8134C106.097 25.8803 106.219 25.9711 106.307 26.0857C106.4 26.2003 106.447 26.346 106.447 26.5227C106.447 26.7186 106.403 26.8834 106.315 27.0171C106.227 27.1461 106.107 27.2488 105.956 27.3252C105.804 27.4016 105.636 27.4566 105.45 27.49C105.265 27.5234 105.065 27.5401 104.85 27.5401C104.581 27.5401 104.342 27.521 104.132 27.4828C103.927 27.4398 103.744 27.3682 103.583 27.2679C103.421 27.1676 103.292 27.0314 103.194 26.8595C103.102 26.6828 103.043 26.4654 103.019 26.2075H102.477C102.496 26.5418 102.567 26.8261 102.689 27.0601C102.811 27.2942 102.977 27.4828 103.187 27.6261C103.397 27.7694 103.639 27.8721 103.912 27.9342C104.191 27.9963 104.503 28.0273 104.85 28.0273C105.128 28.0273 105.394 28.0011 105.648 27.9485C105.902 27.896 106.134 27.81 106.344 27.6906C106.554 27.5664 106.72 27.4016 106.842 27.1962C106.969 26.9861 107.033 26.7305 107.033 26.4296C107.033 26.1956 106.981 25.9997 106.879 25.8421C106.776 25.6797 106.637 25.5507 106.461 25.4552C106.285 25.3597 106.09 25.2856 105.875 25.2331C105.665 25.1758 105.416 25.1232 105.128 25.0755C104.415 24.9608 103.917 24.839 103.634 24.7101C103.356 24.5763 103.216 24.3542 103.216 24.0437C103.216 23.7619 103.353 23.5422 103.627 23.3846C103.905 23.2222 104.261 23.141 104.696 23.141C104.921 23.141 105.126 23.1601 105.311 23.1983C105.502 23.2317 105.67 23.289 105.817 23.3702C105.963 23.4514 106.08 23.5661 106.168 23.7142C106.261 23.8575 106.317 24.0342 106.337 24.2444H106.879Z" fill="white"/>
<path d="M109.047 23.2699H111.251C111.588 23.2699 111.85 23.344 112.035 23.4921C112.221 23.6401 112.313 23.8957 112.313 24.2587C112.313 24.5787 112.226 24.8271 112.05 25.0038C111.874 25.1758 111.571 25.2617 111.142 25.2617H109.047V23.2699ZM108.505 27.8984H109.047V25.749H111.083C111.669 25.749 112.118 25.6224 112.431 25.3692C112.743 25.1113 112.899 24.7411 112.899 24.2587C112.899 24.0007 112.856 23.7763 112.768 23.5852C112.685 23.3941 112.57 23.2413 112.423 23.1266C112.277 23.0072 112.108 22.9213 111.918 22.8687C111.732 22.8114 111.535 22.7827 111.325 22.7827H108.505V27.8984Z" fill="white"/>
<path d="M114.394 27.8984H118.614V27.4112H114.937V25.491H118.423V25.0038H114.937V23.2699H118.555V22.7827H114.394V27.8984Z" fill="white"/>
<path d="M120.141 27.8984H124.36V27.4112H120.683V25.491H124.17V25.0038H120.683V23.2699H124.302V22.7827H120.141V27.8984Z" fill="white"/>
<path d="M125.888 27.8984H130.107V27.4112H126.43V25.491H129.917V25.0038H126.43V23.2699H130.049V22.7827H125.888V27.8984Z" fill="white"/>
<path d="M131.005 27.8984H131.701L133.503 25.6988L135.29 27.8984H136.008L133.891 25.2761L135.942 22.7827H135.268L133.517 24.8892L131.818 22.7827H131.093L133.129 25.3047L131.005 27.8984Z" fill="white"/>
<defs>
<linearGradient id="paint0_linear_795_1063" x1="-5.74528" y1="15.0089" x2="33.6854" y2="15.0089" gradientUnits="userSpaceOnUse">
<stop stop-color="#D94379"/>
<stop offset="0.3625" stop-color="#D02D90"/>
<stop offset="1" stop-color="#008DD0"/>
</linearGradient>
</defs>
</svg>
