<svg width="95" height="28" viewBox="0 0 95 28" fill="none" xmlns="http://www.w3.org/2000/svg">
<path d="M4.10314 19.3502V23.3805H8.1125V22.1313H5.34581V19.3502H4.10314ZM10.6916 4.61953V5.86869H13.4583V8.64983H14.701V4.61953H10.6916ZM7.12774 4.73737C6.94017 4.78451 6.72915 4.85522 6.54158 4.92593C6.07265 5.13805 5.62717 5.42088 5.27547 5.79798C4.90032 6.15152 4.59552 6.59933 4.40795 7.07071C4.22037 7.54209 4.10314 8.06061 4.10314 8.57912C4.10314 9.12121 4.22037 9.63973 4.40795 10.1111C4.61897 10.6061 4.90032 11.0303 5.27547 11.4074C5.62717 11.7609 6.0492 12.0438 6.54158 12.2559C7.01051 12.4444 7.52633 12.5623 8.04216 12.5623H8.1125H10.6916H10.762C11.6764 12.5623 12.5673 12.7508 13.3645 13.0808C14.2086 13.4108 14.9589 13.9293 15.5919 14.5657C16.2015 15.202 16.7174 15.9562 17.0691 16.7811C17.3973 17.6061 17.5849 18.4781 17.5849 19.4209C17.5849 20.3401 17.3973 21.2357 17.0691 22.037C16.7174 22.8855 16.225 23.6397 15.5919 24.2761C14.9589 24.9125 14.2086 25.4074 13.3645 25.7609C12.8018 25.9966 12.1922 26.1616 11.5826 26.2323C11.3716 25.9731 11.0668 25.7845 10.6916 25.7845C10.082 25.7845 9.58963 26.2795 9.58963 26.8923C9.58963 27.5051 10.082 28 10.6916 28C11.0902 28 11.4419 27.7879 11.6295 27.4579C12.4032 27.3636 13.1301 27.1751 13.8334 26.8923C14.8182 26.4916 15.7092 25.8788 16.4595 25.1246C17.2097 24.3704 17.7959 23.4747 18.2179 22.4848C18.6165 21.5185 18.8276 20.4815 18.8276 19.3973C18.8276 18.2896 18.6165 17.2525 18.2179 16.3098C17.8194 15.3199 17.2097 14.4242 16.4595 13.67C15.7092 12.9158 14.8182 12.3266 13.8334 11.9024C12.8956 11.5253 11.8405 11.3131 10.762 11.3131H10.6916H8.1125H8.04216C7.29187 11.3131 6.61192 11.0067 6.11954 10.5118V10.4882C5.88508 10.2525 5.67406 9.94613 5.55683 9.61616C5.41615 9.30976 5.34581 8.95623 5.34581 8.57912C5.34581 8.20202 5.41615 7.84848 5.55683 7.54209C5.69751 7.21212 5.88508 6.90572 6.14299 6.67003C6.4009 6.41077 6.68226 6.22222 7.01051 6.08081C7.1043 6.03367 7.17464 6.0101 7.26842 5.98653C7.47944 6.22222 7.7608 6.36364 8.1125 6.36364C8.72211 6.36364 9.21449 5.86869 9.21449 5.25589C9.21449 4.6431 8.72211 4.14815 8.1125 4.14815C7.69046 4.12458 7.31532 4.38384 7.12774 4.73737ZM7.17464 0.542088C6.4009 0.612795 5.65061 0.824916 4.97066 1.10774C3.98591 1.50842 3.09494 2.12121 2.34465 2.87542C1.59436 3.62963 1.0082 4.52525 0.586163 5.51515C0.211019 6.45791 0 7.49495 0 8.57912C0 9.68687 0.211019 10.7239 0.60961 11.6667C1.0082 12.6566 1.61781 13.5522 2.3681 14.3064C3.11839 15.0606 4.00936 15.6498 4.99411 16.0741C5.95542 16.4747 6.98706 16.6869 8.0656 16.6869H8.13594H10.7151H10.7854C11.5357 16.6869 12.2156 16.9933 12.708 17.4882L12.7315 17.5118C12.9659 17.7475 13.1769 18.0539 13.2942 18.3838C13.4349 18.7138 13.5052 19.0673 13.5052 19.4209C13.5052 19.798 13.4349 20.1515 13.2942 20.4579C13.1301 20.7879 12.919 21.0943 12.6611 21.33C12.4267 21.5892 12.1219 21.8013 11.7936 21.9428C11.6998 21.9663 11.6295 21.9899 11.5357 22.037C11.3247 21.8013 11.0433 21.6599 10.6916 21.6599C10.082 21.6599 9.58963 22.1549 9.58963 22.7677C9.58963 23.3805 10.082 23.8754 10.6916 23.8754C11.1137 23.8754 11.4888 23.6397 11.6764 23.2862C11.8874 23.2391 12.075 23.1684 12.2625 23.0976C12.7549 22.8855 13.1769 22.5791 13.5521 22.2256C13.9038 21.8485 14.2086 21.4242 14.3962 20.9293C14.5837 20.4579 14.701 19.9394 14.701 19.4209C14.701 18.8788 14.5837 18.3838 14.3962 17.9125C14.2086 17.4175 13.9038 16.9697 13.5521 16.6162C13.1769 16.2391 12.7549 15.9562 12.2625 15.7441C11.7936 15.5556 11.2778 15.4377 10.762 15.4377H10.6916H8.1125H8.04216C7.12774 15.4377 6.23678 15.2492 5.43959 14.9192C4.59552 14.5892 3.84523 14.0707 3.23562 13.4343C2.60256 12.798 2.08674 12.0438 1.73504 11.2189C1.40679 10.4175 1.21922 9.52188 1.21922 8.57912C1.21922 7.65993 1.40679 6.76431 1.73504 5.96296C2.08674 5.13805 2.60256 4.36027 3.23562 3.74747C3.86868 3.11111 4.61897 2.61616 5.46304 2.26263C6.02576 2.02694 6.63537 1.86195 7.24498 1.79125C7.43255 2.0505 7.7608 2.21549 8.1125 2.21549C8.72211 2.21549 9.21449 1.72054 9.21449 1.10774C9.21449 0.49495 8.72211 0 8.1125 0C7.71391 0 7.36221 0.212121 7.17464 0.542088Z" fill="white"/>
<path d="M37.1511 23.3812H30.5626V15.957H37.1511V16.8526H31.5474V19.0917H37.1511V19.9873H31.5474V22.4856H37.1511V23.3812ZM41.0198 23.3812H38.0421V15.957H41.1136H41.3012H41.4887L41.6529 15.9806L41.8404 16.0041L42.0045 16.0277L42.1687 16.0513L42.3328 16.0984L42.4969 16.1455C42.5438 16.1691 42.6142 16.1691 42.6611 16.1927C42.7079 16.2162 42.7783 16.2398 42.8252 16.2634C42.8721 16.287 42.919 16.3105 42.9659 16.3341C43.0127 16.3577 43.0596 16.3812 43.1065 16.4048L43.2472 16.4991C43.2941 16.5226 43.341 16.5698 43.3879 16.5934C43.4348 16.6169 43.4817 16.6641 43.5286 16.6876C43.5755 16.7112 43.6224 16.7583 43.6458 16.7819C43.6927 16.829 43.7396 16.8526 43.763 16.8997C43.8099 16.9469 43.8334 16.9705 43.8803 17.0176C43.9272 17.0647 43.9506 17.1119 43.9975 17.159C44.021 17.2061 44.0678 17.2533 44.0913 17.3004C44.1147 17.3476 44.1616 17.3947 44.1851 17.4418C44.2085 17.489 44.2554 17.5361 44.2789 17.6068C44.3023 17.654 44.3258 17.7247 44.3726 17.7718C44.3961 17.8189 44.4195 17.8896 44.443 17.9368C44.4899 18.0546 44.5368 18.1725 44.5602 18.3139C44.5837 18.4553 44.6306 18.5731 44.654 18.7381C44.6775 18.8795 44.7009 19.0445 44.7009 19.1859C44.7009 19.3509 44.7243 19.5159 44.7243 19.6809C44.7243 19.8223 44.7243 19.9402 44.7009 20.0816C44.7009 20.223 44.6775 20.3408 44.654 20.4587C44.6306 20.5765 44.6071 20.7179 44.5837 20.8358C44.5602 20.9536 44.5133 21.0715 44.4899 21.1893C44.443 21.3072 44.3961 21.4014 44.3492 21.5193C44.3023 21.6371 44.2554 21.7314 44.1851 21.8257C44.1147 21.92 44.0678 22.0142 43.9975 22.1085C43.9272 22.2028 43.8568 22.2971 43.763 22.3678C43.6927 22.462 43.5989 22.5327 43.5051 22.6035C43.4113 22.6742 43.3176 22.7449 43.2238 22.8156C43.13 22.8863 43.0128 22.9334 42.919 22.9806C42.8017 23.0277 42.7079 23.0748 42.5907 23.122C42.4735 23.1691 42.3562 23.1927 42.239 23.2398C42.1218 23.2634 41.9811 23.287 41.8639 23.3105C41.7232 23.3341 41.606 23.3577 41.4653 23.3577C41.3012 23.3812 41.1605 23.3812 41.0198 23.3812ZM40.9963 16.8526H39.0034V22.4856H41.0901C41.3012 22.4856 41.4887 22.462 41.6763 22.4385C41.7701 22.4149 41.8639 22.4149 41.9342 22.3913C42.028 22.3678 42.0983 22.3442 42.1921 22.3206C42.2625 22.2971 42.3562 22.2499 42.4266 22.2264C42.4969 22.1792 42.5673 22.1556 42.6376 22.1085C42.7079 22.0614 42.7783 22.0142 42.8252 21.9671C42.8955 21.92 42.9424 21.8728 43.0127 21.8021C43.0596 21.755 43.13 21.6843 43.1769 21.6136C43.2238 21.5428 43.2707 21.4721 43.3176 21.4014C43.3645 21.3307 43.4113 21.26 43.4348 21.1657C43.4817 21.095 43.5051 21.0008 43.5286 20.9065C43.552 20.8122 43.5755 20.7179 43.5989 20.6237C43.6224 20.5294 43.6458 20.4351 43.6458 20.3173C43.6693 20.223 43.6693 20.1051 43.6693 19.9873C43.6693 19.8694 43.6693 19.7516 43.6693 19.6338V19.4452V19.2567L43.6458 19.0917L43.6224 18.9267L43.5989 18.7617L43.6224 18.6439L43.5755 18.5024L43.5286 18.361L43.4817 18.2432L43.4348 18.1253L43.3644 18.0075L43.2941 17.8896L43.2238 17.7954C43.2003 17.7718 43.1769 17.7247 43.1534 17.7011L43.0831 17.6068L42.9893 17.5125L42.8955 17.4418L42.8017 17.3711L42.7079 17.3004L42.6142 17.2297L42.4969 17.1826L42.3797 17.1354L42.2625 17.0883L42.1452 17.0412C42.0514 17.0176 41.9811 16.994 41.8873 16.9705C41.7935 16.9469 41.6997 16.9233 41.606 16.9233C41.5122 16.8997 41.4184 16.8997 41.3012 16.8997C41.2074 16.8526 41.0901 16.8526 40.9963 16.8526ZM60.5273 21.3543C60.5742 21.2836 60.5976 21.2129 60.6445 21.1422C60.668 21.0715 60.7149 21.0008 60.7383 20.9301C60.7618 20.8593 60.7852 20.7651 60.8087 20.6944C60.8321 20.6237 60.8556 20.5294 60.8556 20.4351L60.9025 20.223H61.8638L61.8169 20.5058V20.6708L61.7934 20.8122L61.7465 20.9536L61.6996 21.095L61.6527 21.2365L61.6058 21.3779L61.5355 21.5193L61.4652 21.6136L61.3948 21.755L61.301 21.8964L61.2073 22.0142L61.1135 22.1321L61.0197 22.2499L60.9025 22.3678L60.7852 22.4856L60.668 22.6035C60.6211 22.627 60.5742 22.6742 60.5273 22.6977L60.3866 22.792L60.2459 22.8863L60.1053 22.9806L59.9411 23.0513L59.8005 23.1455L59.6363 23.2162L59.4722 23.287C59.355 23.3341 59.2377 23.3577 59.1205 23.4048C59.0033 23.4284 58.8626 23.4519 58.7454 23.4755C58.6047 23.4991 58.4875 23.5226 58.3468 23.5226C58.2061 23.5226 58.0654 23.5462 57.9247 23.5462H57.7137L57.5027 23.5226C57.4324 23.5226 57.362 23.4991 57.2917 23.4991C57.2213 23.4991 57.151 23.4755 57.0807 23.4755C57.0103 23.4755 56.94 23.4519 56.8696 23.4519C56.7993 23.4284 56.729 23.4284 56.6586 23.4048C56.5883 23.3812 56.518 23.3812 56.4711 23.3577C56.4007 23.3341 56.3304 23.3105 56.2835 23.287C56.1663 23.2634 56.0959 23.2398 56.049 23.2162C55.9787 23.1927 55.9318 23.1691 55.8614 23.1455C55.7911 23.122 55.7442 23.0984 55.6739 23.0513C55.627 23.0277 55.5566 22.9806 55.5098 22.957C55.4629 22.9334 55.3925 22.8863 55.3456 22.8627C55.2987 22.8391 55.2284 22.792 55.1815 22.7449C55.1346 22.6977 55.0877 22.6742 55.0174 22.627C54.9705 22.5799 54.9236 22.5563 54.8767 22.5092C54.8298 22.462 54.7829 22.4149 54.736 22.3678C54.6891 22.3206 54.6422 22.2735 54.5953 22.2264C54.5484 22.1792 54.5015 22.1321 54.4781 22.0849C54.4312 22.0378 54.4078 21.9907 54.3609 21.9435C54.314 21.8964 54.2905 21.8492 54.2436 21.7785C54.2202 21.7314 54.1733 21.6607 54.1499 21.6136C54.1264 21.5664 54.0795 21.4957 54.0561 21.4486C54.0326 21.4014 54.0092 21.3307 53.9623 21.26C53.9388 21.1893 53.9154 21.1422 53.8919 21.0715C53.8685 21.0479 53.845 20.9772 53.8216 20.9065C53.7982 20.8358 53.7747 20.7886 53.7747 20.7179C53.7513 20.6472 53.7513 20.5765 53.7278 20.5294C53.7044 20.4587 53.7044 20.388 53.7044 20.3173C53.7044 20.2466 53.6809 20.1758 53.6809 20.1051C53.6809 20.0344 53.6575 19.9637 53.6575 19.893C53.6575 19.8223 53.6575 19.7516 53.6575 19.6809C53.6575 19.563 53.6575 19.4452 53.6809 19.3274C53.6809 19.2095 53.7044 19.0917 53.7278 18.9738L53.7747 18.8088C53.7982 18.7617 53.7982 18.691 53.8216 18.6439L53.8685 18.4789C53.8919 18.4317 53.9154 18.361 53.9388 18.3139C53.9623 18.2668 53.9857 18.196 54.0092 18.1489C54.0326 18.1018 54.0561 18.0311 54.0795 17.9839C54.103 17.9368 54.1264 17.8661 54.1733 17.8189C54.1967 17.7718 54.2436 17.7011 54.2671 17.654C54.2905 17.6068 54.3374 17.5597 54.3609 17.489C54.4078 17.4418 54.4312 17.3947 54.4781 17.3476C54.525 17.3004 54.5484 17.2533 54.5953 17.2061C54.6422 17.159 54.6891 17.1119 54.7126 17.0647C54.7595 17.0176 54.8064 16.9705 54.8532 16.9233C54.9001 16.8762 54.947 16.829 54.9939 16.7819C55.0408 16.7348 55.0877 16.6876 55.1581 16.6641C55.2049 16.6169 55.2753 16.5934 55.3222 16.5462C55.3691 16.4991 55.4394 16.4755 55.4863 16.4284C55.5332 16.4048 55.6035 16.3577 55.6739 16.3341C55.7442 16.3105 55.7911 16.2634 55.8614 16.2398C55.9083 16.1927 55.9787 16.1691 56.049 16.1455C56.1194 16.122 56.1897 16.0984 56.26 16.0748C56.3304 16.0513 56.4007 16.0277 56.4711 16.0041C56.5414 15.9806 56.6117 15.957 56.6821 15.957C56.7524 15.9334 56.8228 15.9334 56.9165 15.9099C56.9869 15.8863 57.0807 15.8863 57.151 15.8627C57.2448 15.8627 57.3151 15.8391 57.3855 15.8391C57.4558 15.8391 57.5496 15.8391 57.6434 15.8156C57.7372 15.8156 57.8075 15.8156 57.9013 15.8156C58.0185 15.8156 58.1358 15.8156 58.253 15.8156C58.3702 15.8156 58.4875 15.8391 58.6047 15.8391C58.7219 15.8627 58.8157 15.8627 58.9329 15.8863C59.0502 15.9099 59.144 15.9334 59.2377 15.957C59.3315 15.9806 59.4488 16.0041 59.5426 16.0513C59.6363 16.0748 59.7301 16.122 59.8239 16.1691C59.9177 16.2162 60.0115 16.2634 60.1053 16.287C60.1991 16.3341 60.2928 16.3812 60.3632 16.4284C60.457 16.4755 60.5273 16.5462 60.6211 16.5934C60.6914 16.6641 60.7852 16.7112 60.8556 16.7819C60.9259 16.8526 60.9962 16.9233 61.0666 16.994C61.1369 17.0647 61.1838 17.1354 61.2542 17.2297C61.301 17.3004 61.3714 17.3947 61.4183 17.4654C61.4652 17.5597 61.5121 17.6304 61.559 17.7247C61.6058 17.8189 61.6293 17.9132 61.6762 18.0075C61.6996 18.1018 61.7465 18.196 61.77 18.3139L61.8403 18.6203H60.8556L60.7383 18.4553C60.7149 18.3846 60.6914 18.3139 60.668 18.2432C60.6445 18.1725 60.6211 18.1018 60.5742 18.0546C60.5508 17.9839 60.5039 17.9368 60.4804 17.8661C60.4335 17.8189 60.4101 17.7482 60.3632 17.7011C60.3163 17.654 60.2694 17.6068 60.2225 17.5361C60.1756 17.489 60.1287 17.4418 60.0818 17.3947C60.0349 17.3476 59.9646 17.3004 59.9177 17.2533C59.8474 17.2061 59.8005 17.1826 59.7301 17.1354C59.6598 17.0883 59.5894 17.0647 59.5191 17.0176C59.4488 16.994 59.3784 16.9469 59.3081 16.9233C59.2377 16.8997 59.1674 16.8762 59.0971 16.8526C59.0267 16.829 58.9564 16.8055 58.8626 16.7819C58.7923 16.7583 58.6985 16.7348 58.6281 16.7348C58.5578 16.7112 58.464 16.7112 58.3937 16.6876C58.2999 16.6876 58.2295 16.6641 58.1358 16.6641C58.042 16.6641 57.9716 16.6641 57.8778 16.6641H57.6903H57.5027L57.3386 16.6876L57.1745 16.7112L57.0103 16.7348C56.9634 16.7583 56.8931 16.7583 56.8462 16.7819L56.6821 16.829C56.6352 16.8526 56.5883 16.8526 56.518 16.8762L56.3773 16.9469C56.3304 16.9705 56.2835 16.994 56.2366 17.0176L56.1194 17.1354L55.9787 17.2061L55.8614 17.3004L55.7442 17.3711L55.627 17.4654L55.5098 17.5597L55.416 17.6775L55.3222 17.7954L55.2284 17.9132L55.1346 18.0311L55.0643 18.1489L54.9939 18.2668L54.9236 18.3846L54.8532 18.526L54.8064 18.6674L54.7595 18.8088L54.7126 18.9503L54.6891 19.0917L54.6657 19.2331L54.6422 19.3745V19.5159V19.6809C54.6422 19.7987 54.6422 19.893 54.6657 19.9873L54.6891 20.1287L54.7126 20.2701L54.736 20.4115L54.7829 20.5529L54.8298 20.6944L54.8767 20.8358L54.9236 20.9536L54.9939 21.0715L55.0643 21.1893L55.1346 21.3072L55.2049 21.425L55.2987 21.5428L55.3925 21.6607L55.4863 21.755C55.5097 21.7785 55.5566 21.8257 55.6035 21.8492C55.6504 21.8728 55.6739 21.92 55.7208 21.9435L55.838 22.0378L55.9552 22.1085L56.0959 22.1792L56.2366 22.2499L56.3773 22.3206L56.518 22.3913L56.6821 22.4385L56.8462 22.4856L56.9869 22.5563C57.0338 22.5799 57.1041 22.5799 57.151 22.5799L57.3386 22.6035L57.5262 22.627H57.7137H57.9013C57.9951 22.627 58.1123 22.627 58.1827 22.627C58.2764 22.627 58.3702 22.6035 58.464 22.6035C58.5578 22.5799 58.6516 22.5799 58.7219 22.5563C58.8157 22.5327 58.886 22.5092 58.9798 22.4856C59.0502 22.462 59.144 22.4385 59.2143 22.3913C59.2846 22.3678 59.3784 22.3206 59.4488 22.2971C59.5191 22.2499 59.5894 22.2263 59.6598 22.1792C59.7301 22.1321 59.8005 22.0849 59.8708 22.0378C59.9411 21.9907 59.988 21.9435 60.0584 21.8964C60.1287 21.8492 60.1756 21.7785 60.2225 21.7314C60.2694 21.6843 60.3163 21.6136 60.3632 21.5428C60.4335 21.4957 60.4804 21.425 60.5273 21.3543ZM62.872 23.3812H61.9341L63.8098 19.6102L65.6386 15.957H66.4827L66.5062 15.9806C67.3737 17.7482 68.2412 19.4452 69.0853 21.1657L70.1873 23.3577H69.0853L67.9599 21.1422H64.1146L63.0126 23.3577H62.872V23.3812ZM67.5144 20.2701L66.0372 17.2769L64.5601 20.2701H67.5144ZM71.9927 16.8526H68.9681V15.957H76.002V16.8526H72.9774V23.3812H71.9927V16.8526ZM77.2212 23.3812H76.4944V15.957H77.4791V23.3812H77.2212ZM79.4018 19.0917L79.3783 19.2331L79.3549 19.3745V19.5159V19.6573C79.3549 19.7516 79.3549 19.8459 79.3783 19.9402L79.4018 20.0816L79.4252 20.223L79.4487 20.3644L79.4955 20.5058L79.5424 20.6472L79.5893 20.7886L79.6128 20.9065L79.6831 21.0243L79.7535 21.1422L79.8238 21.26L79.8941 21.3779L79.9879 21.4957L80.0817 21.6136L80.1755 21.7314L80.2927 21.8257L80.41 21.92L80.5272 22.0142L80.6444 22.1085L80.7851 22.1792L80.9258 22.2499L81.0665 22.3206L81.2071 22.3913C81.3009 22.4385 81.4182 22.462 81.5354 22.5092C81.6526 22.5327 81.7464 22.5563 81.8637 22.5799C81.9809 22.6035 82.0981 22.627 82.2153 22.627C82.3326 22.627 82.4733 22.6506 82.5905 22.6506H82.7781L82.9656 22.627C83.036 22.627 83.0829 22.6035 83.1532 22.6035L83.3408 22.5799L83.5049 22.5563C83.5518 22.5327 83.6221 22.5327 83.669 22.5092C83.7159 22.4856 83.7863 22.4856 83.8332 22.462L83.9973 22.4149L84.138 22.3442C84.1849 22.3206 84.2317 22.2971 84.2786 22.2735L84.4193 22.2028L84.56 22.1321L84.6772 22.0378L84.7945 21.9435L84.9117 21.8492C84.9586 21.8257 84.982 21.7785 85.0289 21.755L85.1227 21.6371L85.2165 21.5193L85.3103 21.4014L85.3806 21.2836L85.451 21.1657L85.5213 21.0479L85.5917 20.9065L85.6385 20.7886L85.6854 20.6472L85.7323 20.5058L85.7792 20.3644L85.8027 20.223L85.8261 20.1051L85.8496 19.9637V19.8223V19.6809V19.5395V19.3981L85.8261 19.2331L85.8027 19.0917L85.7792 18.9503L85.7323 18.8088L85.6854 18.6674L85.6385 18.5496L85.5917 18.4317L85.5213 18.3139L85.451 18.196L85.3806 18.0782L85.3103 17.9604L85.2165 17.8425L85.1227 17.7011L85.0055 17.6068L84.8882 17.5125L84.771 17.4183L84.6538 17.324L84.5366 17.2297L84.4193 17.1354L84.2786 17.0647L84.138 16.994L83.9973 16.9233C83.9504 16.8997 83.9035 16.8762 83.8332 16.8762C83.7863 16.8526 83.7394 16.8526 83.669 16.829C83.6221 16.8055 83.5518 16.8055 83.5049 16.7819C83.458 16.7583 83.3877 16.7583 83.3408 16.7583L83.1532 16.7348C83.1063 16.7348 83.036 16.7112 82.9656 16.7112H82.7781H82.5905H82.4029H82.2153C82.145 16.7112 82.0981 16.7348 82.0278 16.7348C81.9574 16.7348 81.9105 16.7583 81.8402 16.7583L81.6761 16.7819C81.6292 16.8055 81.5588 16.8055 81.512 16.829C81.4651 16.8526 81.3947 16.8526 81.3478 16.8762L81.1837 16.9233C81.0899 16.9705 80.9727 17.0176 80.8789 17.0647C80.7851 17.1119 80.6913 17.159 80.621 17.2297C80.5272 17.2769 80.4569 17.3476 80.3865 17.3947C80.3162 17.4654 80.2458 17.5125 80.1755 17.5833L80.0817 17.7011L79.9879 17.8189L79.8941 17.9368L79.8238 18.0546L79.73 18.1725C79.7066 18.2196 79.6831 18.2432 79.6597 18.2903L79.5893 18.4082L79.5424 18.5496L79.4955 18.691L79.4487 18.8324L79.4018 18.9738V19.0917ZM78.417 20.2937L78.3936 20.1287L78.3701 19.9637V19.7987V19.6573V19.5159V19.3509L78.3936 19.1859L78.417 19.021L78.4405 18.856L78.4874 18.691L78.5342 18.526L78.5811 18.361C78.6046 18.3139 78.628 18.2432 78.6515 18.196C78.6749 18.1489 78.6984 18.0782 78.7218 18.0311C78.7453 17.9839 78.7687 17.9132 78.7922 17.8661C78.8156 17.8189 78.8391 17.7482 78.8859 17.7011C78.9094 17.654 78.9563 17.6068 78.9797 17.5361C79.0032 17.489 79.0501 17.4418 79.0735 17.3711L79.1907 17.2297L79.308 17.0883C79.3549 17.0412 79.4018 16.994 79.4487 16.9469C79.4955 16.8997 79.5424 16.8526 79.5893 16.8055C79.6362 16.7583 79.6831 16.7112 79.7535 16.6641C79.8004 16.6169 79.8707 16.5698 79.9176 16.5462C79.9645 16.4991 80.0348 16.4755 80.0817 16.4284C80.1286 16.3812 80.1989 16.3577 80.2693 16.3105C80.3396 16.287 80.3865 16.2398 80.4569 16.2162C80.5272 16.1927 80.5975 16.1455 80.6679 16.122C80.8086 16.0513 80.9492 16.0041 81.1134 15.957C81.254 15.9099 81.4182 15.8627 81.5823 15.8391C81.7464 15.8156 81.9105 15.792 82.0981 15.7684C82.2622 15.7449 82.4498 15.7449 82.6374 15.7449C82.7312 15.7449 82.825 15.7449 82.9187 15.7449C83.0125 15.7449 83.1063 15.7449 83.1767 15.7684C83.2704 15.7684 83.3408 15.792 83.4346 15.792C83.5284 15.8156 83.5987 15.8156 83.6925 15.8391C83.7863 15.8627 83.8566 15.8627 83.9269 15.8863C83.9973 15.9099 84.0911 15.9334 84.1614 15.957C84.2318 15.9806 84.3021 16.0041 84.3724 16.0277C84.4428 16.0513 84.5131 16.0748 84.5835 16.122C84.6538 16.1455 84.7241 16.1927 84.7945 16.2162C84.8648 16.2398 84.9351 16.287 84.982 16.3105C85.0524 16.3577 85.0993 16.3812 85.1696 16.4284C85.24 16.4755 85.2868 16.4991 85.3337 16.5462C85.3806 16.5934 85.451 16.6169 85.4979 16.6641C85.5448 16.7112 85.5916 16.7583 85.662 16.8055C85.7089 16.8526 85.7558 16.8997 85.8027 16.9469C85.8496 16.994 85.8965 17.0412 85.9433 17.0883L86.0606 17.2297L86.1778 17.3711L86.2716 17.5361L86.3654 17.7011L86.4592 17.8661L86.5295 18.0311C86.553 18.0782 86.5764 18.1489 86.5999 18.196L86.6702 18.361C86.7171 18.4789 86.7405 18.5732 86.764 18.691C86.7874 18.8088 86.8109 18.9031 86.8343 18.9974C86.8578 19.0917 86.8578 19.2095 86.8812 19.3038C86.8812 19.3981 86.9047 19.5159 86.9047 19.6102V19.7516V19.9166L86.8812 20.0816L86.8578 20.2466L86.7405 20.4351L86.6936 20.6001L86.6467 20.7651L86.5999 20.9301C86.5764 20.9772 86.553 21.0479 86.5295 21.095L86.4592 21.26L86.3888 21.425L86.295 21.59L86.2013 21.755L86.1075 21.92L85.9902 22.0614L85.873 22.2028C85.8261 22.2499 85.7792 22.2971 85.7323 22.3442C85.6854 22.3913 85.6385 22.4385 85.5917 22.4856C85.5448 22.5327 85.4979 22.5799 85.4275 22.627C85.3806 22.6742 85.3337 22.7213 85.2634 22.7449C85.2165 22.792 85.1462 22.8156 85.0993 22.8627C85.0524 22.9099 84.982 22.9334 84.9117 22.9806C84.8414 23.0277 84.7945 23.0513 84.7241 23.0748C84.6538 23.0984 84.5834 23.1455 84.5131 23.1691C84.3724 23.2398 84.2317 23.287 84.0676 23.3341C83.9269 23.3812 83.7628 23.4284 83.5987 23.4519C83.4346 23.4755 83.2704 23.4991 83.0829 23.5226C82.9187 23.5462 82.7312 23.5462 82.5436 23.5462C82.356 23.5462 82.1684 23.5462 82.0043 23.5226C81.9105 23.5226 81.8402 23.4991 81.7464 23.4991C81.6526 23.4991 81.5823 23.4755 81.4885 23.4519C81.4182 23.4284 81.3244 23.4284 81.254 23.4048C81.1837 23.3812 81.0899 23.3577 81.0196 23.3341C80.9492 23.3105 80.8789 23.287 80.8086 23.2634C80.7382 23.2398 80.6679 23.2162 80.5975 23.1691C80.5272 23.1455 80.4569 23.0984 80.3865 23.0748C80.3162 23.0513 80.2458 23.0041 80.1989 22.9806C80.1286 22.9334 80.0817 22.9099 80.0114 22.8627C79.941 22.8156 79.8941 22.792 79.8472 22.7449C79.8004 22.6977 79.73 22.6506 79.6831 22.627C79.6362 22.5799 79.5893 22.5327 79.5424 22.4856C79.4955 22.4385 79.4487 22.3913 79.4018 22.3442C79.3549 22.2971 79.308 22.2499 79.2611 22.2028L79.1439 22.0614L79.0266 21.92L78.9328 21.7785L78.839 21.6136C78.839 21.5193 78.8156 21.4721 78.7922 21.425C78.7687 21.3779 78.7453 21.3307 78.7218 21.26L78.6515 21.095C78.628 21.0479 78.6046 20.9772 78.5811 20.9301L78.5342 20.7651L78.4874 20.6001L78.4405 20.4351L78.417 20.2937ZM88.4756 23.3812H87.7487V15.957H88.71L93.9855 21.8728V15.957H94.9703V23.3812H94.009L88.7335 17.4654V23.3812H88.4756ZM71.7347 7.61355L74.4076 4.64386H75.6972L72.3913 8.34419L75.6972 12.0445H74.4076L71.7347 9.07483L69.0618 12.0445H67.7723L71.0782 8.34419L67.7723 4.64386H69.0618L71.7347 7.61355ZM41.9811 5.51591H39.0034V8.1085C40.035 8.1085 41.7232 8.29705 42.8252 8.01423L42.8955 7.99066L42.9659 7.96709L43.0362 7.94352L43.1065 7.91995L43.1769 7.89638L43.2472 7.87281L43.3176 7.82567L43.3644 7.77854L43.4113 7.7314L43.4582 7.68426L43.5051 7.63712L43.552 7.58998L43.5989 7.54285L43.6458 7.49571L43.6693 7.425C43.6927 7.37786 43.7161 7.33072 43.7161 7.28359C43.7396 7.23645 43.7396 7.18931 43.763 7.14217C43.763 7.09503 43.7865 7.02433 43.7865 6.97719C43.7865 6.93005 43.7865 6.85934 43.7865 6.78864V6.67079V6.55295L43.763 6.45867L43.7396 6.36439L43.6693 6.29369L43.6458 6.22298L43.6224 6.15227L43.5755 6.08157L43.5286 6.01086L43.4817 5.94015L43.4348 5.89301L43.3879 5.84588L43.341 5.79874L43.2941 5.7516L43.2472 5.72803L43.2003 5.70446C43.1534 5.68089 43.1065 5.65732 43.0596 5.65732C43.0128 5.63375 42.9659 5.63375 42.919 5.61019C42.8721 5.58662 42.8252 5.58662 42.7783 5.58662C42.7314 5.58662 42.6845 5.56305 42.6376 5.56305L42.4969 5.53948H42.3328H42.1687L41.9811 5.51591ZM38.7689 12.0445H38.0421V4.64386H42.2156C42.3328 4.64386 42.45 4.64386 42.5673 4.66742L42.8017 4.69099L42.919 4.71456L43.0127 4.73813L43.13 4.7617C43.2003 4.78527 43.2707 4.78527 43.341 4.80884C43.4113 4.83241 43.4817 4.85598 43.552 4.87955C43.552 4.87955 43.6224 4.90311 43.6927 4.95025C43.763 4.97382 43.8099 5.02096 43.8803 5.0681C43.9506 5.11524 43.9975 5.16237 44.0678 5.20951C44.1382 5.25665 44.1851 5.30379 44.232 5.3745C44.2789 5.42163 44.3258 5.49234 44.3726 5.56305C44.4195 5.63375 44.4664 5.70446 44.4899 5.77517C44.5368 5.84588 44.5602 5.91658 44.5837 6.01086C44.6071 6.08157 44.6306 6.17584 44.654 6.27012C44.6775 6.36439 44.6775 6.45867 44.7009 6.55295C44.7009 6.64722 44.7243 6.7415 44.7243 6.85934C44.7243 6.93005 44.7243 7.02433 44.7243 7.09503C44.7243 7.16574 44.7009 7.26002 44.7009 7.33072C44.6775 7.40143 44.6775 7.47214 44.654 7.54285C44.6306 7.61355 44.6071 7.68426 44.5837 7.75497C44.5602 7.82567 44.5133 7.89638 44.4899 7.94352C44.4664 8.01423 44.4195 8.06136 44.3726 8.13207C44.3258 8.17921 44.2789 8.24992 44.232 8.29706C44.1851 8.34419 44.1382 8.4149 44.0678 8.46204C44.021 8.50918 43.9506 8.55631 43.8803 8.60345C43.8099 8.65059 43.7396 8.69773 43.6927 8.7213C43.6224 8.76844 43.552 8.792 43.4817 8.81557C43.4113 8.83914 43.3176 8.86271 43.2472 8.88628C43.1769 8.90985 43.0831 8.93342 42.9893 8.95699C42.8955 8.98056 42.8017 8.98056 42.7314 9.00413C42.6376 9.00413 42.5438 9.02769 42.45 9.02769C42.3562 9.02769 42.239 9.02769 42.1452 9.02769H39.0268V12.0681H38.7689V12.0445ZM30.422 10.6068C30.3985 10.5361 30.3516 10.4418 30.3282 10.3476C30.3047 10.2533 30.2813 10.159 30.2578 10.0883C30.2344 9.99402 30.2344 9.89975 30.2109 9.80547C30.2109 9.7112 30.1875 9.61692 30.1875 9.49907V9.26338H31.1723V9.52264C31.1723 9.59335 31.1723 9.66406 31.1957 9.73477C31.1957 9.80547 31.2191 9.87618 31.2191 9.94689C31.2426 10.0176 31.2426 10.0647 31.266 10.1354C31.2895 10.2061 31.3129 10.2533 31.3364 10.3004C31.3598 10.3476 31.3833 10.3947 31.4302 10.4654C31.4536 10.5125 31.5005 10.5597 31.524 10.6068C31.5708 10.654 31.5943 10.7011 31.6412 10.7482C31.6881 10.7954 31.735 10.8189 31.7819 10.8661C31.8288 10.9132 31.8991 10.9368 31.946 10.9839C32.0163 11.0075 32.0632 11.0546 32.1336 11.0782C32.2039 11.1018 32.2742 11.1253 32.3446 11.1489C32.4149 11.1725 32.5087 11.196 32.579 11.2196C32.6728 11.2432 32.7432 11.2668 32.837 11.2668C32.9307 11.2903 33.0245 11.2903 33.1183 11.3139C33.2121 11.3139 33.3293 11.3375 33.4466 11.3375C33.5638 11.3375 33.6576 11.3375 33.7983 11.3375H33.9624H34.1265H34.2672L34.4079 11.3139L34.5486 11.2903L34.6892 11.2668L34.8065 11.2432L34.9237 11.2196L35.0409 11.196L35.1347 11.1725L35.2285 11.1489L35.3223 11.1018L35.3926 11.0546L35.463 11.0075L35.5333 10.9604L35.6036 10.9132L35.674 10.8661L35.7209 10.8189L35.7678 10.7718L35.8147 10.7247L35.8616 10.6775L35.9085 10.6304L35.9319 10.5833L35.9553 10.5361C35.9788 10.489 35.9788 10.4654 36.0022 10.4183C36.0257 10.3711 36.0257 10.3476 36.0257 10.3004C36.0257 10.2533 36.0491 10.2297 36.0491 10.1826C36.0491 10.1354 36.0491 10.0883 36.0491 10.0647C36.0491 9.92332 36.0257 9.7819 35.9788 9.64049L35.9319 9.56978L35.9085 9.54621L35.8616 9.47551L35.885 9.4048C35.8381 9.35766 35.8147 9.33409 35.7678 9.31052L35.7209 9.28695L35.6505 9.23982L35.5802 9.21625L35.5099 9.19268C35.4395 9.16911 35.3457 9.12197 35.2754 9.0984L35.0644 9.02769L34.8534 8.98056L34.5954 8.93342L34.3141 8.88628L32.9073 8.60345C32.7901 8.57988 32.6963 8.55631 32.6025 8.53274C32.5087 8.50918 32.4149 8.48561 32.3211 8.46204C32.2273 8.43847 32.1336 8.4149 32.0632 8.39133C31.9694 8.36776 31.8991 8.34419 31.8288 8.32062C31.7584 8.29705 31.6646 8.27349 31.5943 8.22635C31.524 8.20278 31.4536 8.15564 31.3833 8.13207C31.3129 8.1085 31.266 8.06136 31.1957 8.0378C31.1488 8.01423 31.0785 7.96709 31.0316 7.91995C30.9378 7.84924 30.844 7.75497 30.7737 7.66069C30.7033 7.56642 30.633 7.44857 30.5861 7.33072C30.5392 7.21288 30.4923 7.09503 30.4689 6.95362C30.4454 6.81221 30.422 6.69436 30.422 6.52938C30.422 6.45867 30.422 6.38796 30.4454 6.29369C30.4454 6.22298 30.4689 6.15227 30.4923 6.08157C30.5157 6.01086 30.5392 5.94015 30.5626 5.86944C30.5861 5.79874 30.633 5.72803 30.6564 5.68089C30.6799 5.61019 30.7268 5.56305 30.7737 5.49234C30.8206 5.42163 30.8674 5.3745 30.9143 5.32736C30.9612 5.28022 31.0316 5.20951 31.0785 5.16237C31.1488 5.11524 31.1957 5.0681 31.266 5.02096C31.3364 4.97382 31.4067 4.92668 31.4771 4.90312C31.5474 4.85598 31.6412 4.83241 31.7115 4.78527C31.8053 4.7617 31.8756 4.71456 31.9694 4.69099C32.0632 4.66742 32.157 4.64386 32.2508 4.62029C32.3446 4.59672 32.4384 4.57315 32.5322 4.57315C32.6259 4.54958 32.7432 4.54958 32.837 4.52601C32.9542 4.52601 33.048 4.50244 33.1652 4.50244C33.2824 4.50244 33.3997 4.50244 33.5169 4.50244C33.6341 4.50244 33.7514 4.50244 33.8921 4.50244C34.0093 4.50244 34.1265 4.52601 34.2437 4.52601C34.361 4.52601 34.4782 4.54958 34.572 4.57315C34.6892 4.59672 34.783 4.62029 34.8768 4.64386C34.9706 4.66742 35.0878 4.69099 35.1816 4.71456C35.2754 4.73813 35.3692 4.78527 35.463 4.80884C35.5568 4.83241 35.6271 4.87955 35.7209 4.92668C35.7912 4.97382 35.885 5.02096 35.9553 5.0681C36.0257 5.11524 36.096 5.16237 36.1664 5.23308C36.2367 5.28022 36.307 5.35093 36.3539 5.39806C36.4243 5.46877 36.4712 5.51591 36.5181 5.58662C36.565 5.65732 36.6118 5.72803 36.6587 5.79874C36.7056 5.86944 36.7291 5.96372 36.776 6.03443C36.7994 6.10514 36.8229 6.19941 36.8463 6.29369C36.8698 6.38796 36.8932 6.48224 36.8932 6.55295C36.9167 6.64722 36.9167 6.7415 36.9167 6.83577V7.09503H35.9319C35.9319 7.00076 35.9085 6.88291 35.9085 6.78864L35.885 6.64722L35.8616 6.57652L35.8147 6.4351L35.7912 6.36439L35.7678 6.29369L35.7443 6.22298L35.7209 6.15227L35.674 6.10514L35.6271 6.03443L35.5802 5.98729L35.5333 5.94015L35.4864 5.89301L35.4161 5.84588V5.79874L35.3457 5.7516L35.2754 5.70446L35.1816 5.65732L35.0878 5.61019L34.994 5.58662L34.9003 5.53948L34.783 5.49234L34.6658 5.46877L34.5486 5.4452L34.4079 5.42163L34.2672 5.39806L34.1265 5.3745H33.9858H33.8217H33.6576C33.5404 5.3745 33.4466 5.3745 33.3528 5.3745C33.259 5.3745 33.1652 5.3745 33.0714 5.39806L32.9542 5.42163L32.837 5.4452L32.7197 5.46877L32.6025 5.49234L32.5087 5.51591H32.368L32.2742 5.53948L32.2039 5.58662L32.1336 5.61019L32.0632 5.63375L31.9929 5.68089L31.8991 5.72803L31.8522 5.77517L31.8053 5.82231L31.7584 5.86944L31.7115 5.91658L31.6646 5.94015L31.6412 5.98729L31.6177 6.03443L31.5943 6.08157L31.5708 6.1287L31.5474 6.17584L31.524 6.22298L31.5005 6.29369V6.34083V6.41153C31.5005 6.45867 31.5005 6.48224 31.5005 6.52938C31.5005 6.57652 31.5005 6.60009 31.5005 6.64722C31.5005 6.69436 31.5005 6.71793 31.524 6.7415C31.524 6.76507 31.5474 6.81221 31.5474 6.83577C31.5474 6.85934 31.5708 6.90648 31.5708 6.93005C31.5708 6.95362 31.5943 6.97719 31.6177 7.00076C31.6412 7.02433 31.6412 7.0479 31.6646 7.07147C31.6881 7.09503 31.7115 7.1186 31.7115 7.14217C31.735 7.16574 31.7584 7.18931 31.7819 7.21288C31.8053 7.23645 31.8288 7.26002 31.8522 7.26002C31.8756 7.28359 31.9225 7.30716 31.946 7.30716C31.9929 7.33072 32.0163 7.35429 32.0632 7.35429C32.1101 7.37786 32.157 7.40143 32.2039 7.40143C32.2508 7.425 32.3211 7.44857 32.3915 7.44857C32.4618 7.47214 32.5087 7.49571 32.579 7.49571L32.7901 7.54285L33.0245 7.58998L34.572 7.87281C34.6658 7.89638 34.7596 7.91995 34.8534 7.91995C34.9471 7.94352 35.0409 7.96709 35.1347 7.99066C35.2285 8.01423 35.2988 8.0378 35.3926 8.06136C35.4864 8.08493 35.5568 8.1085 35.6271 8.13207C35.6974 8.15564 35.7678 8.17921 35.8616 8.22635C35.9319 8.24992 36.0022 8.29705 36.0726 8.32062C36.1429 8.34419 36.1898 8.39133 36.2601 8.4149C36.3305 8.43847 36.3774 8.48561 36.4243 8.53274C36.4712 8.57988 36.5415 8.62702 36.5884 8.65059C36.6353 8.69773 36.6822 8.74487 36.7291 8.792C36.776 8.83914 36.7994 8.88628 36.8463 8.95699C36.8932 9.00413 36.9167 9.07483 36.9401 9.12197C36.9635 9.16911 36.987 9.23982 37.0104 9.31052C37.0339 9.38123 37.0573 9.42837 37.0573 9.49907C37.0808 9.56978 37.0808 9.64049 37.0808 9.7112C37.0808 9.7819 37.0808 9.85261 37.0808 9.92332V10.0176V10.1354L37.0573 10.2297L37.0339 10.324L37.0573 10.5125L37.0339 10.6068L36.987 10.7011L36.9401 10.7954L36.8932 10.8896L36.8463 11.0075L36.776 11.1018L36.7056 11.196L36.6353 11.2903L36.565 11.3846L36.4712 11.4553L36.3774 11.526L36.2836 11.5967L36.1664 11.6674L36.0491 11.7381L35.9319 11.8088L35.7912 11.856L35.6505 11.9031L35.5099 11.9503L35.3457 11.9974L35.1816 12.0445L35.0175 12.0681L34.8299 12.0917L34.6423 12.1152L34.4782 12.1859H34.2906H34.0796H33.8686H33.6576H33.4466H33.2121L33.0011 12.1624L32.8135 12.1388L32.6259 12.1152L32.4384 12.0681L32.2508 12.021L32.0867 11.9738L31.9225 11.9267L31.7584 11.8795C31.7115 11.856 31.6646 11.8324 31.6177 11.8088C31.5708 11.7853 31.524 11.7617 31.4771 11.7381C31.4302 11.7146 31.3833 11.691 31.3364 11.6674C31.2895 11.6439 31.2426 11.6203 31.2191 11.5967C31.1723 11.5496 31.1254 11.5024 31.1019 11.4789C31.055 11.4553 31.0316 11.4082 30.9847 11.3846C30.9612 11.361 30.9143 11.3139 30.8909 11.2903L30.7971 11.196C30.7737 11.1489 30.7268 11.1253 30.7033 11.0782C30.6799 11.0546 30.6564 11.0075 30.633 10.9604C30.6095 10.9132 30.5861 10.8896 30.5626 10.8425C30.5392 10.7954 30.5157 10.7718 30.4923 10.7247C30.4454 10.7011 30.4454 10.654 30.422 10.6068ZM52.1569 12.0445H45.5684V4.64386H52.1569V5.53948H46.5532V7.77854H52.1569V8.65059H46.5532V11.1489H52.1569V12.0445ZM59.8005 12.0445H53.212V4.64386H59.8005V5.53948H54.1967V7.77854H59.8005V8.65059H54.1967V11.1489H59.8005V12.0445ZM67.444 12.0445H60.8556V4.64386H67.444V5.53948H61.8403V7.77854H67.444V8.65059H61.8403V11.1489H67.444V12.0445ZM46.4359 22.792C46.2718 22.6742 46.1546 22.5327 46.0374 22.3678C45.9201 22.2028 45.8263 22.0378 45.756 21.8492C45.6857 21.6607 45.6153 21.4721 45.5919 21.2365C45.545 21.0243 45.545 20.7886 45.545 20.5529V15.957H46.5297V20.5529C46.5297 20.6472 46.5297 20.7415 46.5297 20.8122C46.5297 20.9065 46.5532 20.9772 46.5532 21.0479C46.5766 21.1186 46.5766 21.1893 46.6001 21.26C46.6235 21.3307 46.647 21.4014 46.6704 21.4721C46.6939 21.5428 46.7173 21.59 46.7407 21.6607C46.7642 21.7078 46.8111 21.7785 46.8345 21.8257C46.8814 21.8728 46.9049 21.92 46.9518 21.9671C46.9987 22.0142 47.0456 22.0614 47.0924 22.1085C47.1393 22.1556 47.1862 22.2028 47.2566 22.2264C47.3035 22.2735 47.3738 22.2971 47.4441 22.3206C47.5145 22.3442 47.5848 22.3913 47.6552 22.4149C47.7255 22.4385 47.7958 22.462 47.8896 22.4856C47.9834 22.5092 48.0538 22.5327 48.1475 22.5563C48.2413 22.5799 48.3351 22.5799 48.4523 22.6035C48.5461 22.6035 48.6634 22.627 48.7806 22.627C48.8978 22.627 49.0151 22.627 49.1323 22.627C49.3668 22.627 49.6012 22.6035 49.8122 22.6035C50.0233 22.5799 50.2108 22.5563 50.375 22.5092C50.4687 22.4856 50.5391 22.462 50.6094 22.4385C50.6798 22.4149 50.7501 22.3913 50.8204 22.3442C50.8908 22.3206 50.9377 22.2735 51.008 22.2499C51.0549 22.2028 51.1252 22.1792 51.1721 22.1321C51.219 22.0849 51.2659 22.0378 51.3128 21.9907C51.3597 21.9435 51.3832 21.8964 51.4301 21.8492C51.4769 21.8021 51.5004 21.7314 51.5238 21.6843C51.5473 21.6371 51.5707 21.5664 51.5942 21.4957C51.6176 21.425 51.6411 21.3543 51.6645 21.2836C51.688 21.2129 51.688 21.1422 51.7114 21.0715C51.7349 21.0008 51.7349 20.9065 51.7349 20.8358C51.7349 20.7651 51.7349 20.6708 51.7349 20.5765V15.957H52.7196V20.5529C52.7196 20.7886 52.6962 21.0243 52.6727 21.2365C52.6258 21.4486 52.5789 21.6607 52.5086 21.8492C52.4383 22.0378 52.3445 22.2028 52.2272 22.3678C52.11 22.5327 51.9693 22.6742 51.8286 22.792C51.688 22.9099 51.5004 23.0277 51.3128 23.122C51.1253 23.2162 50.9142 23.287 50.7032 23.3577C50.4922 23.4284 50.2343 23.4755 49.9998 23.4991C49.7419 23.5226 49.4605 23.5462 49.1792 23.5462C48.593 23.5462 48.1006 23.4755 47.6552 23.3577C47.4441 23.287 47.2331 23.2162 47.0456 23.122C46.7407 23.0277 46.5766 22.9099 46.4359 22.792Z" fill="white"/>
</svg>
