<svg width="123" height="30" viewBox="0 0 123 30" fill="none" xmlns="http://www.w3.org/2000/svg">
<path d="M11.8341 12.5124V22.2936L23.015 15.9104C23.1101 15.8469 23.184 15.7516 23.2367 15.6351C23.3001 15.4975 23.3212 15.3387 23.3001 15.18C23.279 14.9894 23.1945 14.8095 23.0784 14.6401C22.9517 14.4707 22.7722 14.3331 22.561 14.2272L10.2504 7.17713C9.93369 6.99718 9.6064 6.85956 9.25798 6.77488C8.89901 6.67961 8.51892 6.62668 8.13884 6.62668C6.54458 6.62668 5.39376 7.47354 4.60191 8.68031C3.42998 10.4587 2.97598 12.9993 2.97598 15.0106C2.97598 18.5886 4.42243 21.8278 6.75574 24.1673C9.08906 26.5067 12.3198 27.957 15.8884 27.957C19.457 27.957 22.6877 26.5067 25.021 24.1673C27.3544 21.8278 28.8008 18.5886 28.8008 15.0106C28.8008 11.4326 27.3544 8.19337 25.021 5.85392C22.6877 3.51447 19.457 2.06422 15.8884 2.06422C15.2549 2.06422 14.632 2.10656 14.0196 2.20183C13.5973 2.26535 13.1644 2.35004 12.7421 2.45589C12.5626 3.3451 11.7602 4.02258 10.81 4.02258C9.71198 4.02258 8.82511 3.13338 8.82511 2.03246C8.82511 0.931546 9.71198 0.042343 10.81 0.042343C11.2851 0.042343 11.7286 0.211715 12.0664 0.486944C12.6154 0.338744 13.175 0.222301 13.7346 0.1482C14.4525 0.0529287 15.1705 0 15.8884 0C20.0166 0 23.7647 1.68313 26.4675 4.39308C29.1703 7.10303 30.8491 10.861 30.8491 15C30.8491 19.139 29.1703 22.897 26.4675 25.6069C23.7647 28.3169 20.0166 30 15.8884 30C11.7602 30 8.01214 28.3169 5.3093 25.6069C2.60645 22.897 0.927734 19.1496 0.927734 15C0.927734 12.6711 1.47675 9.70713 2.89152 7.54764C4.04234 5.7904 5.74217 4.56246 8.12828 4.56246C8.68785 4.56246 9.23687 4.63656 9.77532 4.78476C10.2927 4.92237 10.7889 5.1235 11.2534 5.38814L23.469 12.3959C23.9547 12.6394 24.3665 12.9887 24.6832 13.4016C25.021 13.8462 25.2428 14.3649 25.3061 14.9153C25.38 15.4658 25.2956 16.0056 25.095 16.4608C24.8838 16.9478 24.5354 17.3606 24.0919 17.6464L11.3801 24.9188C11.2218 25.0247 11.0212 25.0988 10.81 25.0988C10.2399 25.0988 9.78588 24.6436 9.78588 24.072V12.5124C9.21575 12.163 8.82511 11.5385 8.82511 10.808C8.82511 9.70713 9.71198 8.81793 10.81 8.81793C11.908 8.81793 12.7949 9.70713 12.7949 10.808C12.7843 11.5385 12.4043 12.163 11.8341 12.5124Z" fill="white"/>
<path d="M39.9316 10.1994C39.9316 10.7401 40.0378 11.201 40.2501 11.5822C40.4624 11.9633 40.7455 12.2647 41.0994 12.4863C41.4533 12.7079 41.8514 12.8674 42.2937 12.9649C42.7361 13.0625 43.205 13.1068 43.7004 13.1068C44.1427 13.1068 44.5674 13.0625 44.9832 12.9738C45.399 12.8852 45.7705 12.7345 46.1156 12.5218C46.4517 12.309 46.726 12.0342 46.9206 11.6797C47.1153 11.334 47.2214 10.9085 47.2214 10.4122C47.2214 10.0222 47.1329 9.6942 46.956 9.42828C46.7791 9.16237 46.5579 8.9585 46.3013 8.80782C46.0359 8.65713 45.7882 8.55077 45.5494 8.48872C45.3105 8.42667 45.0539 8.36463 44.7885 8.31144H44.762L42.7538 7.96575C42.276 7.87712 41.931 7.74416 41.7187 7.56688C41.5152 7.38074 41.4091 7.15915 41.4091 6.89323C41.4091 6.66277 41.4621 6.4589 41.5771 6.29049C41.6922 6.12208 41.8337 5.98026 42.0195 5.86503C42.2053 5.7498 42.4087 5.67002 42.6299 5.62571C42.8511 5.57252 43.0811 5.55479 43.32 5.55479C43.7889 5.55479 44.1781 5.59911 44.4877 5.69662C44.7974 5.78525 45.0363 5.90935 45.2132 6.06003C45.3901 6.21072 45.514 6.37027 45.5936 6.52981C45.6732 6.69823 45.7263 6.8755 45.7528 7.07937H46.9649C46.9383 6.60073 46.8145 6.20185 46.611 5.86503C46.4075 5.5282 46.1421 5.26229 45.8148 5.06728C45.4874 4.87228 45.1247 4.7216 44.7355 4.63296C44.3374 4.54432 43.9216 4.5 43.4792 4.5C42.4441 4.5 41.6391 4.7216 41.064 5.17365C40.489 5.62571 40.197 6.22844 40.197 6.99073C40.197 7.36301 40.2767 7.68211 40.4271 7.94803C40.5775 8.21394 40.7809 8.42667 41.0198 8.57736C41.2587 8.73691 41.5152 8.85214 41.7806 8.94077C42.046 9.02941 42.3291 9.09146 42.6299 9.13578L44.4877 9.44601C44.992 9.53465 45.3724 9.66761 45.629 9.85375C45.8855 10.0399 46.0094 10.3147 46.0094 10.6604C46.0094 11.0947 45.8059 11.4404 45.399 11.6797C44.992 11.9279 44.4612 12.0431 43.7977 12.0431C43.4615 12.0431 43.143 12.0165 42.8334 11.9545C42.5238 11.9013 42.2495 11.7949 42.0018 11.6531C41.7541 11.5113 41.5506 11.3163 41.4002 11.077C41.2498 10.8376 41.1702 10.5363 41.1613 10.1906H39.9316V10.1994Z" fill="white"/>
<path d="M49.5393 8.55963V5.75866H52.6799C53.1311 5.75866 53.4761 5.87389 53.715 6.11321C53.9538 6.35254 54.0688 6.67164 54.0688 7.07937C54.0688 7.53143 53.945 7.89484 53.6884 8.16076C53.4319 8.42667 53.0249 8.55963 52.4587 8.55963H49.5393ZM48.3273 12.894H49.5393V9.61442H52.6268C53.4761 9.61442 54.1308 9.38396 54.5908 8.92305C55.0508 8.46213 55.2809 7.84166 55.2809 7.05278C55.2809 6.29049 55.0508 5.70548 54.582 5.29774C54.1131 4.89887 53.4319 4.695 52.5384 4.695H48.3273V12.894Z" fill="white"/>
<path d="M56.5548 12.894H63.243V11.8392H57.7668V9.18896H62.9687V8.13417H57.7668V5.75866H63.128V4.695H56.5548V12.894Z" fill="white"/>
<path d="M64.6231 12.894H71.3201V11.8392H65.8351V9.18896H71.037V8.13417H65.8351V5.75866H71.2051V4.695H64.6231V12.894Z" fill="white"/>
<path d="M72.6914 12.894H79.3884V11.8392H73.9034V9.18896H79.1142V8.13417H73.9034V5.75866H79.2734V4.695H72.6914V12.894Z" fill="white"/>
<path d="M83.9357 7.85939L81.6001 4.695H80.0519L83.1218 8.69259L79.8927 12.894H81.4055L83.8649 9.57897L86.342 12.894H87.9344L84.6877 8.69259L87.846 4.695H86.342L83.9357 7.85939Z" fill="white"/>
<path d="M45.5848 23.5118L42.338 16.7132H40.6305V24.9123H41.8426V18.2555H41.8691L45.0451 24.9123H46.1244L49.3093 18.1137H49.3358V24.9123H50.5478V16.7132H48.8581L45.5848 23.5118Z" fill="white"/>
<path d="M52.0164 24.9123H58.7134V23.8575H53.2284V21.2072H58.4392V20.1435H53.2284V17.768H58.5984V16.7132H52.0164V24.9123Z" fill="white"/>
<path d="M61.0047 23.8575V17.768H63.7207C64.225 17.768 64.6496 17.8478 64.9858 18.0074C65.322 18.1669 65.5874 18.3885 65.782 18.6633C65.9767 18.9469 66.1094 19.2572 66.1801 19.6028C66.2598 19.9485 66.2951 20.3208 66.2951 20.7197C66.2951 21.1363 66.2598 21.5174 66.1978 21.8808C66.1359 22.2443 66.012 22.5722 65.844 22.8647C65.6759 23.1661 65.437 23.4054 65.1185 23.5827C64.8089 23.76 64.4108 23.8486 63.9419 23.8486H61.0047V23.8575ZM59.7927 24.9123H64.0127C64.6231 24.9123 65.1539 24.8059 65.5962 24.5843C66.0474 24.3627 66.4102 24.0613 66.6933 23.6802C66.9764 23.2902 67.1798 22.847 67.3214 22.3418C67.4541 21.8365 67.5249 21.287 67.5249 20.702C67.5249 19.4699 67.2241 18.4949 66.6313 17.7858C66.0386 17.0767 65.1451 16.7132 63.9507 16.7132H59.8016V24.9123H59.7927Z" fill="white"/>
<path d="M69.94 16.7132H68.728V24.9123H69.94V16.7132Z" fill="white"/>
<path d="M71.5148 24.9123H78.203V23.8575H72.7268V21.2072H77.9287V20.1435H72.7268V17.768H78.0968V16.7132H71.5148V24.9123Z" fill="white"/>
<path d="M85.8289 24.9123H87.2444V16.7132H86.0235V23.237H86.0058L80.742 16.7132H79.3353V24.9123H80.5474V18.3885H80.5739L85.8289 24.9123Z" fill="white"/>
<path d="M95.5427 24.9123H96.7636V16.7132H95.5427V20.0017H89.9781V16.7132H88.7572V24.9123H89.9781V21.0565H95.5427V24.9123Z" fill="white"/>
<path d="M104.708 24.9123H106.097L102.399 16.7132H101.01L97.3121 24.9123H98.6214L99.6653 22.5279H103.673L104.708 24.9123ZM103.213 21.4642H100.108L101.647 17.8389L103.213 21.4642Z" fill="white"/>
<path d="M106.61 21.8099C106.61 24.017 107.849 25.1161 110.308 25.1161C112.776 25.1161 114.015 24.017 114.015 21.8099V16.7132H112.803V21.9606C112.803 22.6697 112.582 23.2016 112.148 23.5472C111.706 23.8929 111.095 24.0613 110.317 24.0613C109.538 24.0613 108.928 23.8929 108.486 23.5472C108.043 23.2016 107.831 22.6786 107.831 21.9606V16.7132H106.619V21.8099H106.61Z" fill="white"/>
<path d="M114.767 22.2177C114.767 22.7584 114.873 23.2193 115.085 23.6004C115.298 23.9816 115.581 24.2829 115.935 24.5045C116.288 24.7261 116.687 24.8857 117.129 24.9832C117.571 25.0807 118.04 25.125 118.536 25.125C118.978 25.125 119.403 25.0807 119.818 24.992C120.234 24.9034 120.606 24.7527 120.951 24.54C121.287 24.3273 121.561 24.0525 121.756 23.6979C121.95 23.3522 122.057 22.9268 122.057 22.4304C122.057 22.0404 121.968 21.7124 121.791 21.4465C121.614 21.1806 121.393 20.9767 121.137 20.826C120.871 20.6754 120.623 20.569 120.376 20.507C120.137 20.4449 119.88 20.3829 119.615 20.3297H119.588L117.58 19.984C117.102 19.9042 116.757 19.7624 116.545 19.5851C116.342 19.399 116.235 19.1774 116.235 18.9115C116.235 18.681 116.288 18.4771 116.404 18.3087C116.519 18.1403 116.66 17.9985 116.846 17.8833C117.032 17.7769 117.235 17.6883 117.456 17.6439C117.677 17.5908 117.907 17.573 118.146 17.573C118.615 17.573 119.004 17.6173 119.305 17.7148C119.615 17.8035 119.854 17.9276 120.031 18.0783C120.208 18.229 120.331 18.3885 120.411 18.548C120.491 18.7165 120.544 18.8937 120.57 19.0976H121.782C121.756 18.619 121.632 18.2201 121.428 17.8833C121.225 17.5464 120.96 17.2805 120.632 17.0855C120.305 16.8905 119.942 16.7398 119.553 16.6512C119.164 16.5626 118.739 16.5182 118.297 16.5182C117.262 16.5182 116.457 16.7398 115.882 17.1919C115.307 17.6439 115.015 18.2467 115.015 19.009C115.015 19.3812 115.094 19.7003 115.245 19.9663C115.395 20.2322 115.598 20.4449 115.837 20.5956C116.076 20.7551 116.333 20.8704 116.598 20.959C116.864 21.0388 117.147 21.1097 117.447 21.154L119.305 21.4642C119.81 21.544 120.19 21.6858 120.446 21.872C120.703 22.0581 120.827 22.3329 120.827 22.6786C120.827 23.1129 120.623 23.4586 120.216 23.6979C119.81 23.9461 119.279 24.0613 118.615 24.0613C118.279 24.0613 117.961 24.0348 117.651 23.9727C117.341 23.9195 117.067 23.8132 116.819 23.6713C116.572 23.5295 116.368 23.3345 116.218 23.0952C116.067 22.8559 115.988 22.5545 115.979 22.2088H114.767V22.2177Z" fill="white"/>
</svg>
