<svg width="115" height="32" viewBox="0 0 115 32" fill="none" xmlns="http://www.w3.org/2000/svg">
<path d="M40.5791 22.7887V9.27669H48.7109C52.9411 9.27669 54.9536 10.9195 54.9536 13.9587C54.9536 16.9362 53.0027 18.579 48.7315 18.579H43.4129V22.7887H40.5791ZM43.4129 16.6282H48.5056C51.0314 16.6282 52.2429 15.8068 52.2429 14.0613C52.2429 12.3775 51.1751 11.515 48.485 11.515H43.4129V16.6282Z" fill="white"/>
<path d="M57.1854 22.7887V9.27669H59.9987V22.7887H57.1854Z" fill="white"/>
<path d="M62.8386 22.7887V9.27669H66.8635L76.1658 18.9692H76.2069V9.27669H78.9175V22.7887H76.1247L65.5903 11.7614H65.5698V22.7887H62.8386Z" fill="white"/>
<path d="M88.9178 23.0351C82.0797 23.0351 81.361 20.037 81.361 18.2505H83.9279C83.9279 19.5442 84.6876 20.8995 88.9178 20.8995C93.2507 20.8995 94.0105 19.8933 94.0105 18.7228C94.0105 18.0451 93.5998 17.6139 92.7579 17.388C91.7927 17.1621 89.575 17.1005 87.9938 17.0184C86.2278 16.9157 84.0511 16.7309 82.9216 16.197C81.9154 15.7247 81.2788 14.739 81.2788 13.4658C81.2788 11.0427 83.6609 9.03027 88.8562 9.03027C95.0578 9.03027 96.2077 11.2686 96.2077 13.6917H93.6409C93.6409 12.1516 92.4704 11.1659 88.8562 11.1659C85.5501 11.1659 84.0921 11.9873 84.0921 13.2605C84.0921 13.9381 84.4618 14.3078 85.1394 14.5542C85.9813 14.8417 88.2607 14.9238 89.7803 15.0059C91.6901 15.1086 93.6409 15.2318 94.8524 15.6631C96.1256 16.1559 96.8443 17.2237 96.8443 18.5174C96.8443 20.5709 95.6738 23.0351 88.9178 23.0351Z" fill="white"/>
<path d="M106.445 23.0351C99.6066 23.0351 98.8879 20.037 98.8879 18.2505H101.455C101.455 19.5442 102.215 20.8995 106.445 20.8995C110.778 20.8995 111.537 19.8933 111.537 18.7228C111.537 18.0451 111.127 17.6139 110.285 17.388C109.32 17.1621 107.102 17.1005 105.521 17.0184C103.755 16.9157 101.578 16.7309 100.449 16.197C99.4423 15.7247 98.8057 14.739 98.8057 13.4658C98.8057 11.0427 101.188 9.03027 106.383 9.03027C112.585 9.03027 113.735 11.2686 113.735 13.6917H111.168C111.168 12.1516 109.997 11.1659 106.383 11.1659C103.077 11.1659 101.619 11.9873 101.619 13.2605C101.619 13.9381 101.989 14.3078 102.666 14.5542C103.508 14.8417 105.788 14.9238 107.307 15.0059C109.217 15.1086 111.168 15.2318 112.379 15.6631C113.652 16.1559 114.371 17.2237 114.371 18.5174C114.371 20.5709 113.201 23.0351 106.445 23.0351Z" fill="white"/>
<path d="M24.8862 11.0952C23.9427 12.0387 22.413 12.0387 21.4696 11.0952C20.5261 10.1518 20.5261 8.62211 21.4696 7.67865C22.413 6.7352 23.9427 6.7352 24.8862 7.67865C25.8296 8.62211 25.8296 10.1518 24.8862 11.0952Z" fill="white"/>
<path d="M8.23041 20.9178C9.17387 19.9744 10.7035 19.9744 11.647 20.9178C12.5904 21.8613 12.5904 23.3909 11.647 24.3344C10.7035 25.2779 9.17387 25.2779 8.23041 24.3344C7.28695 23.3909 7.28695 21.8613 8.23041 20.9178Z" fill="white"/>
<path d="M21.3842 24.3344C20.4407 23.3909 20.4407 21.8613 21.3842 20.9178C22.3276 19.9744 23.8573 19.9744 24.8007 20.9178C25.7442 21.8613 25.7442 23.3909 24.8007 24.3344C23.8573 25.2779 22.3276 25.2779 21.3842 24.3344Z" fill="white"/>
<path d="M20.6154 14.5118C19.9079 15.2194 18.7606 15.2194 18.053 14.5118C17.3454 13.8042 17.3454 12.6569 18.053 11.9494C18.7606 11.2418 19.9079 11.2418 20.6154 11.9494C21.323 12.6569 21.323 13.8042 20.6154 14.5118Z" fill="white"/>
<path d="M17.7968 3.15171C17.0892 3.8593 15.942 3.8593 15.2344 3.15171C14.5268 2.44412 14.5268 1.29688 15.2344 0.589289C15.942 -0.118305 17.0892 -0.118305 17.7968 0.589289C18.5044 1.29688 18.5044 2.44412 17.7968 3.15171Z" fill="white"/>
<path d="M17.7968 31.3383C17.0892 32.0459 15.942 32.0459 15.2344 31.3383C14.5268 30.6308 14.5268 29.4835 15.2344 28.7759C15.942 28.0683 17.0892 28.0683 17.7968 28.7759C18.5044 29.4835 18.5044 30.6308 17.7968 31.3383Z" fill="white"/>
<path d="M31.8901 17.245C31.1825 17.9526 30.0353 17.9526 29.3277 17.245C28.6201 16.5374 28.6201 15.3902 29.3277 14.6826C30.0353 13.975 31.1825 13.975 31.8901 14.6826C32.5977 15.3902 32.5977 16.5374 31.8901 17.245Z" fill="white"/>
<path d="M3.70347 17.245C2.99587 17.9526 1.84864 17.9526 1.14105 17.245C0.433453 16.5374 0.433453 15.3902 1.14105 14.6826C1.84864 13.975 2.99587 13.975 3.70347 14.6826C4.41106 15.3902 4.41106 16.5374 3.70347 17.245Z" fill="white"/>
<path d="M12.5011 17.5013C13.2087 16.7937 14.3559 16.7937 15.0635 17.5013C15.7711 18.2089 15.7711 19.3561 15.0635 20.0637C14.3559 20.7713 13.2087 20.7713 12.5011 20.0637C11.7935 19.3561 11.7935 18.2089 12.5011 17.5013Z" fill="white"/>
<path d="M17.9676 20.0637C17.26 19.3561 17.26 18.2089 17.9676 17.5013C18.6752 16.7937 19.8224 16.7937 20.53 17.5013C21.2376 18.2089 21.2376 19.3561 20.53 20.0637C19.8224 20.7713 18.6752 20.7713 17.9676 20.0637Z" fill="white"/>
<path d="M11.5616 7.67866C12.505 8.62211 12.505 10.1518 11.5616 11.0952C10.6181 12.0387 9.08846 12.0387 8.145 11.0952C7.20154 10.1518 7.20154 8.62211 8.145 7.67865C9.08846 6.7352 10.6181 6.7352 11.5616 7.67866Z" fill="white"/>
<path d="M14.9781 11.9494C15.6857 12.6569 15.6857 13.8042 14.9781 14.5118C14.2705 15.2194 13.1233 15.2194 12.4157 14.5118C11.7081 13.8042 11.7081 12.6569 12.4157 11.9494C13.1233 11.2418 14.2705 11.2418 14.9781 11.9494Z" fill="white"/>
<path d="M17.1562 16.6044C16.8024 16.9582 16.2288 16.9582 15.875 16.6044C15.5212 16.2506 15.5212 15.677 15.875 15.3232C16.2288 14.9694 16.8024 14.9694 17.1562 15.3232C17.51 15.677 17.51 16.2506 17.1562 16.6044Z" fill="white"/>
<path d="M10.3231 16.6044C9.96926 16.9582 9.39564 16.9582 9.04185 16.6044C8.68805 16.2506 8.68805 15.677 9.04185 15.3232C9.39564 14.9694 9.96926 14.9694 10.3231 15.3232C10.6769 15.677 10.6769 16.2506 10.3231 16.6044Z" fill="white"/>
<path d="M17.1562 23.4375C16.8024 23.7913 16.2288 23.7913 15.875 23.4375C15.5212 23.0837 15.5212 22.5101 15.875 22.1563C16.2288 21.8025 16.8024 21.8025 17.1562 22.1563C17.51 22.5101 17.51 23.0837 17.1562 23.4375Z" fill="white"/>
<path d="M23.9893 16.6044C23.6355 16.9582 23.0619 16.9582 22.7081 16.6044C22.3543 16.2506 22.3543 15.677 22.7081 15.3232C23.0619 14.9694 23.6355 14.9694 23.9893 15.3232C24.3431 15.677 24.3431 16.2506 23.9893 16.6044Z" fill="white"/>
<path d="M17.1562 9.7713C16.8024 10.1251 16.2288 10.1251 15.875 9.7713C15.5212 9.4175 15.5212 8.84388 15.875 8.49009C16.2288 8.13629 16.8024 8.13629 17.1562 8.49009C17.51 8.84388 17.51 9.4175 17.1562 9.7713Z" fill="white"/>
<g opacity="0.7">
<path d="M71.5 30.6524C71.5 30.2684 71.5831 29.9319 71.7494 29.6429C71.9196 29.35 72.1532 29.1224 72.4501 28.9601C72.747 28.7938 73.0854 28.7107 73.4655 28.7107C73.699 28.7107 73.9029 28.7344 74.0771 28.7819C74.2552 28.8294 74.4017 28.8769 74.5165 28.9244L74.1424 31.0324C74.1384 31.0522 74.1345 31.076 74.1305 31.1037C74.1305 31.1274 74.1305 31.1532 74.1305 31.1809C74.1305 31.2917 74.1622 31.3709 74.2255 31.4184C74.2889 31.4619 74.372 31.4837 74.4749 31.4837L74.2908 31.8994C74.0771 31.8994 73.9128 31.8479 73.798 31.745C73.6871 31.6381 73.6317 31.4738 73.6317 31.2521C73.5209 31.4421 73.3804 31.6044 73.2101 31.739C73.0439 31.8736 72.8479 31.9409 72.6223 31.9409C72.4283 31.9409 72.2462 31.8895 72.076 31.7865C71.9058 31.6797 71.7672 31.5312 71.6603 31.3412C71.5534 31.1472 71.5 30.9176 71.5 30.6524ZM73.9286 29.2392C73.8534 29.2154 73.7742 29.1976 73.6911 29.1857C73.6119 29.1699 73.5149 29.162 73.4001 29.162C73.127 29.162 72.8895 29.2233 72.6876 29.346C72.4857 29.4688 72.3274 29.639 72.2126 29.8567C72.1017 30.0705 72.0463 30.3139 72.0463 30.5871C72.0463 30.7771 72.0799 30.9374 72.1472 31.068C72.2185 31.1987 72.3095 31.2976 72.4204 31.3649C72.5312 31.4322 72.646 31.4659 72.7648 31.4659C72.9271 31.4659 73.0755 31.4105 73.2101 31.2996C73.3447 31.1888 73.4595 31.0344 73.5545 30.8365C73.6535 30.6385 73.7248 30.4129 73.7683 30.1595L73.9286 29.2392Z" fill="white"/>
<path d="M76.9083 30.8187C76.9083 30.7078 76.8845 30.6069 76.837 30.5158C76.7935 30.4248 76.7123 30.3317 76.5936 30.2367C76.4748 30.1378 76.3046 30.0269 76.0829 29.9042C75.7741 29.73 75.5544 29.5578 75.4238 29.3876C75.2971 29.2174 75.2338 28.9997 75.2338 28.7344C75.2338 28.5127 75.2912 28.3208 75.406 28.1585C75.5247 27.9961 75.689 27.8695 75.8988 27.7784C76.1086 27.6874 76.3501 27.6418 76.6232 27.6418C76.8726 27.6418 77.0983 27.6735 77.3002 27.7369C77.5021 27.7962 77.6901 27.8774 77.8643 27.9803L77.5733 28.4435C77.4308 28.3524 77.2804 28.2772 77.122 28.2178C76.9676 28.1585 76.7855 28.1288 76.5757 28.1288C76.3422 28.1288 76.1541 28.1802 76.0116 28.2831C75.8691 28.3821 75.7979 28.5127 75.7979 28.6751C75.7979 28.8215 75.8474 28.9522 75.9463 29.067C76.0492 29.1778 76.2373 29.3065 76.5104 29.4529C76.7717 29.5915 76.9716 29.728 77.1102 29.8626C77.2527 29.9933 77.3497 30.1318 77.4011 30.2783C77.4565 30.4248 77.4842 30.5871 77.4842 30.7652C77.4842 31.0067 77.4209 31.2165 77.2942 31.3946C77.1715 31.5688 76.9993 31.7034 76.7776 31.7984C76.5559 31.8934 76.2986 31.9409 76.0057 31.9409C75.7207 31.9409 75.4634 31.9033 75.2338 31.8281C75.0042 31.7489 74.8023 31.6401 74.6281 31.5015L74.9962 31.0443C75.1308 31.167 75.2872 31.266 75.4653 31.3412C75.6474 31.4124 75.8474 31.4481 76.0651 31.4481C76.3224 31.4481 76.5263 31.3927 76.6767 31.2818C76.8311 31.167 76.9083 31.0126 76.9083 30.8187Z" fill="white"/>
<path d="M77.4727 31.65L79.7529 27.7131H80.3883L81.2968 31.8044L80.7564 31.929L80.507 30.7415H78.5831L77.924 31.9172L77.4727 31.65ZM78.8503 30.2664H80.4061L79.9845 28.2653L78.8503 30.2664Z" fill="white"/>
<path d="M82.3661 27.7725C82.5165 27.7408 82.6769 27.7151 82.8471 27.6953C83.0213 27.6755 83.2133 27.6656 83.4231 27.6656C83.7437 27.6656 84.0109 27.723 84.2247 27.8378C84.4385 27.9486 84.5968 28.0971 84.6997 28.2831C84.8066 28.4652 84.8601 28.6612 84.8601 28.871C84.8601 29.1956 84.7809 29.4688 84.6225 29.6904C84.4642 29.9082 84.2465 30.0744 83.9694 30.1892C83.6923 30.3001 83.3776 30.3555 83.0252 30.3555C82.9302 30.3555 82.8352 30.3515 82.7402 30.3436C82.6492 30.3317 82.5641 30.3159 82.4849 30.2961L82.2117 31.8697H81.6476L82.3661 27.7725ZM83.3637 28.1347C83.2568 28.1347 83.1618 28.1387 83.0787 28.1466C82.9995 28.1545 82.9263 28.1644 82.859 28.1763L82.568 29.8211C82.6472 29.8448 82.7323 29.8626 82.8233 29.8745C82.9184 29.8824 83.0114 29.8864 83.1024 29.8864C83.526 29.8864 83.8328 29.7973 84.0228 29.6192C84.2128 29.441 84.3078 29.2134 84.3078 28.9363C84.3078 28.7028 84.2247 28.5108 84.0584 28.3603C83.8961 28.2099 83.6646 28.1347 83.3637 28.1347Z" fill="white"/>
<path d="M86.3646 30.6524C86.3646 30.2684 86.4477 29.9319 86.614 29.6429C86.7842 29.35 87.0178 29.1224 87.3147 28.9601C87.6116 28.7938 87.95 28.7107 88.33 28.7107C88.5636 28.7107 88.7675 28.7344 88.9417 28.7819C89.1198 28.8294 89.2663 28.8769 89.3811 28.9244L89.007 31.0324C89.003 31.0522 88.9991 31.076 88.9951 31.1037C88.9951 31.1274 88.9951 31.1532 88.9951 31.1809C88.9951 31.2917 89.0268 31.3709 89.0901 31.4184C89.1534 31.4619 89.2366 31.4837 89.3395 31.4837L89.1554 31.8994C88.9417 31.8994 88.7774 31.8479 88.6626 31.745C88.5517 31.6381 88.4963 31.4738 88.4963 31.2521C88.3855 31.4421 88.2449 31.6044 88.0747 31.739C87.9085 31.8736 87.7125 31.9409 87.4869 31.9409C87.2929 31.9409 87.1108 31.8895 86.9406 31.7865C86.7703 31.6797 86.6318 31.5312 86.5249 31.3412C86.418 31.1472 86.3646 30.9176 86.3646 30.6524ZM88.7932 29.2392C88.718 29.2154 88.6388 29.1976 88.5557 29.1857C88.4765 29.1699 88.3795 29.162 88.2647 29.162C87.9916 29.162 87.7541 29.2233 87.5522 29.346C87.3503 29.4688 87.1919 29.639 87.0771 29.8567C86.9663 30.0705 86.9109 30.3139 86.9109 30.5871C86.9109 30.7771 86.9445 30.9374 87.0118 31.068C87.0831 31.1987 87.1741 31.2976 87.285 31.3649C87.3958 31.4322 87.5106 31.4659 87.6294 31.4659C87.7917 31.4659 87.9401 31.4105 88.0747 31.2996C88.2093 31.1888 88.3241 31.0344 88.4191 30.8365C88.5181 30.6385 88.5893 30.4129 88.6329 30.1595L88.7932 29.2392Z" fill="white"/>
<path d="M91.8619 29.4529C91.7471 29.3738 91.6185 29.3045 91.476 29.2451C91.3374 29.1857 91.1791 29.156 91.0009 29.156C90.8149 29.156 90.6704 29.1877 90.5674 29.251C90.4645 29.3144 90.4131 29.3975 90.4131 29.5004C90.4131 29.5598 90.4289 29.6172 90.4606 29.6726C90.4962 29.7241 90.5576 29.7795 90.6446 29.8389C90.7357 29.8983 90.8624 29.9695 91.0247 30.0527C91.2939 30.1872 91.4938 30.3278 91.6244 30.4743C91.755 30.6168 91.8204 30.7929 91.8204 31.0027C91.8204 31.2125 91.7649 31.3867 91.6541 31.5253C91.5433 31.6638 91.3948 31.7687 91.2087 31.84C91.0227 31.9073 90.8129 31.9409 90.5793 31.9409C90.3378 31.9409 90.1241 31.9112 89.938 31.8519C89.7559 31.7885 89.5976 31.7074 89.463 31.6084L89.7658 31.169C89.8727 31.2561 89.9994 31.3293 90.1459 31.3887C90.2923 31.4481 90.4527 31.4778 90.6268 31.4778C90.8248 31.4778 90.9811 31.4402 91.0959 31.3649C91.2107 31.2897 91.2681 31.1967 91.2681 31.0859C91.2681 30.9829 91.2246 30.8879 91.1375 30.8008C91.0544 30.7137 90.8901 30.6088 90.6446 30.4861C90.4467 30.3872 90.2923 30.2922 90.1815 30.2011C90.0706 30.1061 89.9934 30.0052 89.9499 29.8983C89.9064 29.7914 89.8846 29.6687 89.8846 29.5301C89.8846 29.3718 89.9321 29.2312 90.0271 29.1085C90.1221 28.9858 90.2547 28.8888 90.4249 28.8176C90.5952 28.7463 90.7911 28.7107 91.0128 28.7107C91.2345 28.7107 91.4324 28.7404 91.6066 28.7997C91.7847 28.8552 91.9411 28.9225 92.0757 29.0016L91.8619 29.4529Z" fill="white"/>
<path d="M94.5111 27.7725C94.6615 27.7408 94.8218 27.7151 94.9921 27.6953C95.1662 27.6755 95.3582 27.6656 95.568 27.6656C95.8887 27.6656 96.1559 27.723 96.3697 27.8378C96.5834 27.9486 96.7418 28.0971 96.8447 28.2831C96.9516 28.4652 97.005 28.6612 97.005 28.871C97.005 29.1956 96.9258 29.4688 96.7675 29.6904C96.6092 29.9082 96.3914 30.0744 96.1143 30.1892C95.8372 30.3001 95.5225 30.3555 95.1702 30.3555C95.0752 30.3555 94.9802 30.3515 94.8852 30.3436C94.7941 30.3317 94.709 30.3159 94.6298 30.2961L94.3567 31.8697H93.7926L94.5111 27.7725ZM95.5087 28.1347C95.4018 28.1347 95.3068 28.1387 95.2236 28.1466C95.1445 28.1545 95.0712 28.1644 95.0039 28.1763L94.713 29.8211C94.7921 29.8448 94.8773 29.8626 94.9683 29.8745C95.0633 29.8824 95.1563 29.8864 95.2474 29.8864C95.671 29.8864 95.9778 29.7973 96.1678 29.6192C96.3578 29.441 96.4528 29.2134 96.4528 28.9363C96.4528 28.7028 96.3697 28.5108 96.2034 28.3603C96.0411 28.2099 95.8095 28.1347 95.5087 28.1347Z" fill="white"/>
<path d="M98.3385 31.9409C98.0456 31.9409 97.7922 31.8815 97.5785 31.7628C97.3647 31.644 97.1984 31.4797 97.0797 31.2699C96.9649 31.0562 96.9075 30.8147 96.9075 30.5455C96.9075 30.2011 96.9767 29.8904 97.1153 29.6132C97.2578 29.3361 97.4557 29.1164 97.7091 28.9541C97.9624 28.7918 98.2613 28.7107 98.6057 28.7107C98.8987 28.7107 99.152 28.7701 99.3658 28.8888C99.5795 29.0076 99.7438 29.1719 99.8586 29.3817C99.9774 29.5915 100.037 29.833 100.037 30.1061C100.037 30.4465 99.9675 30.7573 99.8289 31.0384C99.6904 31.3155 99.4924 31.5352 99.2351 31.6975C98.9818 31.8598 98.6829 31.9409 98.3385 31.9409ZM98.3563 31.4659C98.5938 31.4659 98.7957 31.4085 98.962 31.2937C99.1322 31.1749 99.2628 31.0166 99.3539 30.8187C99.4449 30.6207 99.4905 30.399 99.4905 30.1536C99.4905 29.9715 99.4548 29.8092 99.3836 29.6667C99.3123 29.5202 99.2094 29.4034 99.0748 29.3164C98.9402 29.2293 98.7779 29.1857 98.5879 29.1857C98.3543 29.1857 98.1525 29.2451 97.9822 29.3639C97.812 29.4787 97.6814 29.635 97.5903 29.833C97.4993 30.0309 97.4538 30.2526 97.4538 30.498C97.4538 30.6761 97.4894 30.8384 97.5606 30.9849C97.6319 31.1314 97.7348 31.2482 97.8694 31.3353C98.004 31.4223 98.1663 31.4659 98.3563 31.4659Z" fill="white"/>
<path d="M102.457 29.4529C102.342 29.3738 102.214 29.3045 102.071 29.2451C101.932 29.1857 101.774 29.156 101.596 29.156C101.41 29.156 101.265 29.1877 101.163 29.251C101.06 29.3144 101.008 29.3975 101.008 29.5004C101.008 29.5598 101.024 29.6172 101.056 29.6726C101.091 29.7241 101.153 29.7795 101.24 29.8389C101.331 29.8983 101.457 29.9695 101.62 30.0527C101.889 30.1872 102.089 30.3278 102.219 30.4743C102.35 30.6168 102.415 30.7929 102.415 31.0027C102.415 31.2125 102.36 31.3867 102.249 31.5253C102.138 31.6638 101.99 31.7687 101.804 31.84C101.618 31.9073 101.408 31.9409 101.174 31.9409C100.933 31.9409 100.719 31.9112 100.533 31.8519C100.351 31.7885 100.193 31.7074 100.058 31.6084L100.361 31.169C100.468 31.2561 100.594 31.3293 100.741 31.3887C100.887 31.4481 101.048 31.4778 101.222 31.4778C101.42 31.4778 101.576 31.4402 101.691 31.3649C101.806 31.2897 101.863 31.1967 101.863 31.0859C101.863 30.9829 101.82 30.8879 101.733 30.8008C101.649 30.7137 101.485 30.6088 101.24 30.4861C101.042 30.3872 100.887 30.2922 100.777 30.2011C100.666 30.1061 100.589 30.0052 100.545 29.8983C100.501 29.7914 100.48 29.6687 100.48 29.5301C100.48 29.3718 100.527 29.2312 100.622 29.1085C100.717 28.9858 100.85 28.8888 101.02 28.8176C101.19 28.7463 101.386 28.7107 101.608 28.7107C101.83 28.7107 102.027 28.7404 102.202 28.7997C102.38 28.8552 102.536 28.9225 102.671 29.0016L102.457 29.4529Z" fill="white"/>
<path d="M104.917 29.4529C104.802 29.3738 104.674 29.3045 104.531 29.2451C104.393 29.1857 104.234 29.156 104.056 29.156C103.87 29.156 103.726 29.1877 103.623 29.251C103.52 29.3144 103.468 29.3975 103.468 29.5004C103.468 29.5598 103.484 29.6172 103.516 29.6726C103.552 29.7241 103.613 29.7795 103.7 29.8389C103.791 29.8983 103.918 29.9695 104.08 30.0527C104.349 30.1872 104.549 30.3278 104.68 30.4743C104.81 30.6168 104.876 30.7929 104.876 31.0027C104.876 31.2125 104.82 31.3867 104.709 31.5253C104.599 31.6638 104.45 31.7687 104.264 31.84C104.078 31.9073 103.868 31.9409 103.635 31.9409C103.393 31.9409 103.179 31.9112 102.993 31.8519C102.811 31.7885 102.653 31.7074 102.518 31.6084L102.821 31.169C102.928 31.2561 103.055 31.3293 103.201 31.3887C103.348 31.4481 103.508 31.4778 103.682 31.4778C103.88 31.4778 104.036 31.4402 104.151 31.3649C104.266 31.2897 104.323 31.1967 104.323 31.0859C104.323 30.9829 104.28 30.8879 104.193 30.8008C104.11 30.7137 103.945 30.6088 103.7 30.4861C103.502 30.3872 103.348 30.2922 103.237 30.2011C103.126 30.1061 103.049 30.0052 103.005 29.8983C102.962 29.7914 102.94 29.6687 102.94 29.5301C102.94 29.3718 102.987 29.2312 103.082 29.1085C103.177 28.9858 103.31 28.8888 103.48 28.8176C103.651 28.7463 103.846 28.7107 104.068 28.7107C104.29 28.7107 104.488 28.7404 104.662 28.7997C104.84 28.8552 104.996 28.9225 105.131 29.0016L104.917 29.4529Z" fill="white"/>
<path d="M106.148 28.2535C106.038 28.2535 105.952 28.2218 105.893 28.1585C105.838 28.0912 105.81 28.014 105.81 27.9269C105.81 27.8002 105.85 27.6992 105.929 27.624C106.008 27.5449 106.107 27.5053 106.226 27.5053C106.336 27.5053 106.42 27.5389 106.475 27.6062C106.534 27.6696 106.564 27.7448 106.564 27.8319C106.564 27.9546 106.525 28.0555 106.445 28.1347C106.366 28.2139 106.267 28.2535 106.148 28.2535ZM105.751 31.8697H105.216L105.757 28.7819H106.291L105.751 31.8697Z" fill="white"/>
<path d="M109.55 29.8508C109.55 30.1477 109.499 30.4228 109.396 30.6761C109.293 30.9295 109.146 31.1512 108.956 31.3412C108.77 31.5312 108.549 31.6797 108.291 31.7865C108.034 31.8895 107.753 31.9409 107.448 31.9409C107.266 31.9409 107.098 31.9231 106.943 31.8875C106.789 31.8558 106.66 31.8142 106.557 31.7628L107.311 27.4756H107.846L107.507 29.4054C107.622 29.1956 107.769 29.0274 107.947 28.9007C108.129 28.774 108.333 28.7107 108.558 28.7107C108.748 28.7107 108.917 28.7582 109.063 28.8532C109.214 28.9482 109.332 29.0828 109.419 29.257C109.507 29.4272 109.55 29.6251 109.55 29.8508ZM108.422 29.1738C108.279 29.1738 108.133 29.2233 107.982 29.3223C107.832 29.4213 107.693 29.5875 107.567 29.8211C107.44 30.0507 107.341 30.3634 107.27 30.7593L107.151 31.4184C107.214 31.4342 107.28 31.4461 107.347 31.454C107.418 31.4619 107.494 31.4659 107.573 31.4659C107.846 31.4659 108.089 31.3986 108.303 31.264C108.521 31.1254 108.691 30.9394 108.814 30.7058C108.94 30.4723 109.004 30.211 109.004 29.922C109.004 29.6924 108.95 29.5103 108.843 29.3757C108.737 29.2411 108.596 29.1738 108.422 29.1738Z" fill="white"/>
<path d="M110.43 30.8008C110.422 30.8523 110.416 30.8998 110.412 30.9433C110.409 30.9829 110.407 31.0186 110.407 31.0502C110.407 31.1848 110.446 31.2897 110.525 31.3649C110.608 31.4402 110.717 31.4778 110.852 31.4778C110.919 31.4778 110.986 31.4698 111.054 31.454C111.121 31.4382 111.182 31.4164 111.238 31.3887L111.291 31.8222C111.22 31.8578 111.137 31.8855 111.042 31.9053C110.947 31.929 110.844 31.9409 110.733 31.9409C110.496 31.9409 110.292 31.8736 110.122 31.739C109.955 31.6005 109.872 31.3927 109.872 31.1155C109.872 31.0126 109.88 30.9117 109.896 30.8127L110.478 27.4756H111.012L110.43 30.8008Z" fill="white"/>
<path d="M112.704 31.9409C112.442 31.9409 112.211 31.8855 112.009 31.7747C111.811 31.6599 111.655 31.4976 111.54 31.2878C111.429 31.074 111.374 30.8226 111.374 30.5336C111.374 30.2051 111.441 29.9022 111.575 29.6251C111.714 29.348 111.908 29.1263 112.157 28.9601C112.411 28.7938 112.706 28.7107 113.042 28.7107C113.272 28.7107 113.466 28.7542 113.624 28.8413C113.786 28.9284 113.911 29.0412 113.998 29.1798C114.085 29.3183 114.129 29.4668 114.129 29.6251C114.129 29.8428 114.077 30.023 113.974 30.1655C113.871 30.308 113.739 30.4188 113.577 30.498C113.414 30.5732 113.238 30.6267 113.048 30.6583C112.862 30.69 112.684 30.7058 112.514 30.7058C112.407 30.7058 112.3 30.7019 112.193 30.694C112.09 30.6821 111.999 30.6702 111.92 30.6583C111.952 30.9196 112.045 31.1195 112.199 31.2581C112.353 31.3966 112.551 31.4659 112.793 31.4659C112.991 31.4659 113.167 31.4402 113.321 31.3887C113.476 31.3372 113.606 31.2858 113.713 31.2343L113.761 31.7093C113.642 31.7648 113.491 31.8182 113.309 31.8697C113.127 31.9172 112.925 31.9409 112.704 31.9409ZM113.001 29.162C112.814 29.162 112.646 29.2095 112.496 29.3045C112.345 29.3955 112.221 29.5222 112.122 29.6845C112.027 29.8428 111.963 30.0249 111.932 30.2308C112.023 30.2466 112.114 30.2605 112.205 30.2724C112.3 30.2803 112.403 30.2842 112.514 30.2842C112.846 30.2842 113.109 30.2387 113.303 30.1477C113.497 30.0527 113.594 29.8923 113.594 29.6667C113.594 29.5281 113.539 29.4094 113.428 29.3104C113.321 29.2114 113.179 29.162 113.001 29.162Z" fill="white"/>
</g>
</svg>
