<svg width="114" height="34" viewBox="0 0 114 34" fill="none" xmlns="http://www.w3.org/2000/svg">
<g clip-path="url(#clip0_922_1232)">
<path d="M29.1333 24.2484C29.3848 23.9948 29.526 23.652 29.526 23.2947C29.526 22.9374 29.3848 22.5946 29.1333 22.3411L29.0103 22.2334C29.2706 21.5425 29.6799 20.9176 30.2091 20.4031C30.708 19.9483 31.1066 19.3943 31.3793 18.7765C31.652 18.1587 31.7929 17.4908 31.7929 16.8154C31.7929 16.14 31.652 15.4721 31.3793 14.8543C31.1066 14.2366 30.708 13.6825 30.2091 13.2278C29.6775 12.7137 29.2656 12.0888 29.0027 11.3974L29.1333 11.2898C29.3491 11.0803 29.4901 10.8056 29.5342 10.508C29.5784 10.2103 29.5233 9.90644 29.3776 9.64328C29.2319 9.38012 29.0036 9.17235 28.728 9.05208C28.4524 8.93181 28.1449 8.90575 27.8531 8.97794C27.5612 9.05012 27.3012 9.21652 27.1134 9.45142C26.9255 9.68631 26.8202 9.9766 26.8137 10.2774C26.8072 10.5782 26.8999 10.8728 27.0775 11.1155C27.2551 11.3583 27.5077 11.5358 27.7962 11.6204C28.1012 12.5446 28.629 13.3793 29.3331 14.0507C29.7289 14.395 30.0463 14.8204 30.2638 15.298C30.4813 15.7756 30.5938 16.2944 30.5938 16.8193C30.5938 17.3442 30.4813 17.8629 30.2638 18.3406C30.0463 18.8182 29.7289 19.2435 29.3331 19.5879C28.6292 20.2533 28.1011 21.083 27.7962 22.0027C27.5835 22.071 27.3891 22.1867 27.2275 22.3411C27.1024 22.4663 27.0031 22.615 26.9354 22.7786C26.8677 22.9422 26.8328 23.1176 26.8328 23.2947C26.8328 23.6524 26.9748 23.9954 27.2275 24.2484C27.4803 24.5013 27.823 24.6434 28.1804 24.6434C28.5378 24.6434 28.8806 24.5013 29.1333 24.2484ZM9.79146 30.7469C10.043 30.4933 10.1841 30.1505 10.1841 29.7933C10.1841 29.436 10.043 29.0932 9.79146 28.8396L9.6685 28.732C9.92654 28.0418 10.3332 27.4169 10.8596 26.9016C11.3585 26.4468 11.7571 25.8928 12.0298 25.275C12.3025 24.6573 12.4434 23.9893 12.4434 23.314C12.4434 22.6386 12.3025 21.9706 12.0298 21.3529C11.7571 20.7351 11.3585 20.1811 10.8596 19.7263C10.4164 19.3458 10.0606 18.8739 9.81673 18.3429C9.57283 17.812 9.44655 17.2345 9.44655 16.6501C9.44655 16.0657 9.57283 15.4882 9.81673 14.9572C10.0606 14.4263 10.4164 13.9543 10.8596 13.5739C11.3648 13.1188 11.7687 12.5625 12.0452 11.9412C12.3217 11.3198 12.4646 10.6472 12.4646 9.96697C12.4646 9.28677 12.3217 8.61417 12.0452 7.99279C11.7687 7.37142 11.3648 6.81515 10.8596 6.3601C10.2857 5.81164 9.85548 5.13021 9.60703 4.37594C9.66932 4.33147 9.72838 4.28264 9.78377 4.22982C10.0353 3.97627 10.1764 3.63346 10.1764 3.27617C10.1764 2.91889 10.0353 2.5761 9.78377 2.32255C9.52983 2.07181 9.18763 1.93095 8.8309 1.93032C8.56276 1.92797 8.30003 2.00591 8.07648 2.15411C7.85293 2.30231 7.67875 2.51401 7.57632 2.76202C7.47389 3.01003 7.44788 3.28304 7.50164 3.54596C7.55541 3.80887 7.68648 4.04969 7.87802 4.23749C8.02134 4.3793 8.19466 4.48707 8.3852 4.55281C8.65176 5.55416 9.18261 6.46529 9.92209 7.19067C10.3179 7.53502 10.6353 7.96037 10.8528 8.43799C11.0703 8.91561 11.1828 9.43439 11.1828 9.95928C11.1828 10.4842 11.0703 11.0029 10.8528 11.4806C10.6353 11.9582 10.3179 12.3835 9.92209 12.7279C9.38876 13.2187 8.96002 13.8123 8.66159 14.4731C8.36315 15.1339 8.20118 15.8482 8.1854 16.5732V16.6193C8.19868 17.3503 8.35935 18.0712 8.65778 18.7385C8.9562 19.4059 9.38624 20.0061 9.92209 20.5031C10.3179 20.8474 10.6353 21.2728 10.8528 21.7504C11.0703 22.228 11.1828 22.7468 11.1828 23.2716C11.1828 23.7965 11.0703 24.3153 10.8528 24.7929C10.6353 25.2706 10.3179 25.6959 9.92209 26.0403C9.21817 26.7056 8.69012 27.5354 8.3852 28.4551C8.1725 28.5234 7.97806 28.6391 7.81655 28.7935C7.625 28.9813 7.49393 29.2221 7.44017 29.485C7.38641 29.7479 7.41241 30.0209 7.51484 30.269C7.61727 30.517 7.79145 30.7287 8.01501 30.8769C8.23856 31.0251 8.50128 31.103 8.76942 31.1007C8.95489 31.1148 9.14129 31.0906 9.31708 31.0298C9.49287 30.9689 9.65432 30.8727 9.79146 30.7469ZM3.22891 23.2793C3.22933 23.5288 3.29905 23.7733 3.43027 23.9855C3.56149 24.1976 3.74905 24.3691 3.97201 24.4807C4.19498 24.5923 4.44456 24.6397 4.69288 24.6176C4.94121 24.5955 5.1785 24.5048 5.37826 24.3555C5.57803 24.2062 5.7324 24.0043 5.82413 23.7723C5.91586 23.5403 5.94135 23.2873 5.89775 23.0417C5.85415 22.796 5.74317 22.5673 5.57721 22.3812C5.41124 22.195 5.19683 22.0586 4.95792 21.9873C4.653 21.0676 4.12494 20.2379 3.42102 19.5725C3.0252 19.2281 2.70782 18.8028 2.49032 18.3252C2.27283 17.8475 2.16028 17.3288 2.16028 16.8039C2.16028 16.279 2.27283 15.7602 2.49032 15.2826C2.70782 14.805 3.0252 14.3796 3.42102 14.0353C4.12218 13.3615 4.64956 12.5276 4.95792 11.6051C5.16993 11.5443 5.36299 11.4305 5.51889 11.2744C5.7064 11.0859 5.83392 10.8461 5.88536 10.5852C5.9368 10.3243 5.90984 10.054 5.8079 9.80837C5.70595 9.56277 5.53358 9.3529 5.31255 9.20526C5.09153 9.05763 4.83175 8.97883 4.56601 8.97883C4.30027 8.97883 4.0405 9.05763 3.81947 9.20526C3.59844 9.3529 3.42608 9.56277 3.32413 9.80837C3.22218 10.054 3.19522 10.3243 3.24666 10.5852C3.2981 10.8461 3.42562 11.0859 3.61314 11.2744L3.74377 11.382C3.48079 12.0734 3.06888 12.6983 2.53731 13.2124C2.04048 13.6684 1.6438 14.2228 1.37244 14.8404C1.10107 15.458 0.960938 16.1254 0.960938 16.8001C0.960938 17.4747 1.10107 18.142 1.37244 18.7596C1.6438 19.3772 2.04048 19.9316 2.53731 20.3877C3.06888 20.9017 3.48079 21.5267 3.74377 22.218L3.61314 22.3257C3.36679 22.582 3.2291 22.9237 3.22891 23.2793ZM17.2838 33.5924C17.5339 33.3411 17.6747 33.0011 17.6757 32.6464C17.6751 32.2894 17.5344 31.947 17.2838 31.6928C17.1837 31.5914 17.0667 31.5081 16.938 31.4467V2.51481C17.0667 2.45346 17.1837 2.37018 17.2838 2.26871C17.5344 2.01457 17.6751 1.6721 17.6757 1.31509C17.6757 0.958146 17.5341 0.615832 17.2819 0.363436C17.0297 0.11104 16.6876 -0.0307617 16.331 -0.0307617C15.9743 -0.0307617 15.6322 0.11104 15.38 0.363436C15.1278 0.615832 14.9862 0.958146 14.9862 1.31509C14.9868 1.6721 15.1275 2.01457 15.3781 2.26871C15.4782 2.37018 15.5952 2.45346 15.7239 2.51481V31.4313C15.5952 31.4927 15.4782 31.576 15.3781 31.6775C15.1275 31.9316 14.9868 32.2741 14.9862 32.6311C14.9854 32.8988 15.0643 33.1606 15.213 33.3832C15.3617 33.6057 15.5733 33.7788 15.8208 33.8804C16.0683 33.9819 16.3404 34.0073 16.6024 33.9533C16.8644 33.8992 17.1043 33.7682 17.2915 33.577L17.2838 33.5924ZM23.1394 4.36824C22.8921 5.12527 22.4618 5.80947 21.8868 6.3601C21.39 6.81613 20.9933 7.37054 20.722 7.98815C20.4506 8.60575 20.3105 9.27307 20.3105 9.94775C20.3105 10.6224 20.4506 11.2897 20.722 11.9073C20.9933 12.5249 21.39 13.0793 21.8868 13.5354C22.33 13.9159 22.6858 14.3878 22.9297 14.9188C23.1736 15.4497 23.2999 16.0272 23.2999 16.6116C23.2999 17.196 23.1736 17.7735 22.9297 18.3045C22.6858 18.8355 22.33 19.3074 21.8868 19.6878C21.39 20.1439 20.9933 20.6983 20.722 21.3159C20.4506 21.9335 20.3105 22.6008 20.3105 23.2755C20.3105 23.9502 20.4506 24.6175 20.722 25.2351C20.9933 25.8527 21.39 26.4071 21.8868 26.8631C22.4184 27.3757 22.8281 28.0012 23.0856 28.6935L22.9627 28.8012C22.7751 28.9896 22.6476 29.2294 22.5962 29.4904C22.5447 29.7513 22.5717 30.0216 22.6736 30.2672C22.7756 30.5128 22.948 30.7226 23.169 30.8703C23.39 31.0179 23.6498 31.0967 23.9155 31.0967C24.1813 31.0967 24.441 31.0179 24.6621 30.8703C24.8831 30.7226 25.0555 30.5128 25.1574 30.2672C25.2594 30.0216 25.2863 29.7513 25.2349 29.4904C25.1834 29.2294 25.0559 28.9896 24.8684 28.8012C24.7081 28.6452 24.5133 28.5292 24.2998 28.4628C23.9948 27.543 23.4668 26.7133 22.7629 26.048C22.367 25.7036 22.0497 25.2783 21.8322 24.8006C21.6147 24.323 21.5021 23.8042 21.5021 23.2793C21.5021 22.7545 21.6147 22.2357 21.8322 21.7581C22.0497 21.2804 22.367 20.8551 22.7629 20.5107C23.3008 20.0154 23.7323 19.4156 24.0309 18.7479C24.3295 18.0801 24.4889 17.3585 24.4995 16.627V16.5809C24.4838 15.8559 24.3218 15.1416 24.0234 14.4808C23.7249 13.82 23.2962 13.2264 22.7629 12.7356C22.367 12.3912 22.0497 11.9659 21.8322 11.4883C21.6147 11.0106 21.5021 10.4919 21.5021 9.96697C21.5021 9.44209 21.6147 8.92331 21.8322 8.44569C22.0497 7.96807 22.367 7.54272 22.7629 7.19837C23.5023 6.47299 24.0332 5.56186 24.2998 4.56051C24.4903 4.49477 24.6636 4.387 24.8069 4.24519C24.9944 4.05675 25.122 3.81694 25.1734 3.55603C25.2248 3.29511 25.1979 3.02477 25.0959 2.77918C24.994 2.53358 24.8216 2.32374 24.6006 2.1761C24.3796 2.02846 24.1198 1.94966 23.8541 1.94966C23.5883 1.94966 23.3285 2.02846 23.1075 2.1761C22.8865 2.32374 22.7141 2.53358 22.6122 2.77918C22.5102 3.02477 22.4833 3.29511 22.5347 3.55603C22.5861 3.81694 22.7137 4.05675 22.9012 4.24519C22.9808 4.30411 23.0657 4.3556 23.1548 4.39901L23.1394 4.36824Z" fill="white"/>
</g>
<path d="M43.1755 17.6675H44.6912V13.3349H48.652C49.3002 13.3349 49.7769 13.5113 50.0819 13.864C50.3965 14.2167 50.5776 14.8363 50.6253 15.7229C50.6253 15.7705 50.6301 15.8802 50.6396 16.0517C50.6777 16.6046 50.7111 16.9812 50.7397 17.1814C50.7683 17.3816 50.835 17.5436 50.9399 17.6675H52.5414C52.4556 17.5627 52.3841 17.4483 52.3269 17.3244C52.2792 17.2004 52.2363 17.0431 52.1982 16.8525C52.1696 16.6618 52.1458 16.4235 52.1267 16.1375C52.1076 15.8516 52.0838 15.4369 52.0552 14.8935C52.0266 14.2834 51.8836 13.7877 51.6262 13.4064C51.3688 13.0156 51.0161 12.7868 50.5681 12.7201V12.6915C51.121 12.5103 51.5452 12.2005 51.8407 11.762C52.1362 11.3235 52.284 10.7945 52.284 10.1748C52.284 9.83165 52.2315 9.50277 52.1267 9.18819C52.0218 8.86408 51.8598 8.57334 51.6405 8.31595C51.4213 8.04904 51.1305 7.83932 50.7683 7.68679C50.406 7.53427 49.9818 7.45801 49.4957 7.45801H43.1755V17.6675ZM44.6912 12.0194V8.77352H48.9666C49.5576 8.77352 50.0057 8.92128 50.3107 9.21679C50.6158 9.50277 50.7683 9.89838 50.7683 10.4036C50.7683 10.6038 50.7397 10.7992 50.6825 10.9899C50.6253 11.171 50.5252 11.3426 50.3822 11.5046C50.2487 11.6572 50.0581 11.7811 49.8102 11.8764C49.5719 11.9717 49.2764 12.0194 48.9237 12.0194H44.6912Z" fill="white"/>
<path d="M62.7193 17.6675H64.235V7.45801H62.7193V11.5475H55.7699V7.45801H54.2542V17.6675H55.7699V12.8631H62.7193V17.6675Z" fill="white"/>
<path d="M66.7168 17.6675H75.0674V16.352H68.2325V13.0489H74.7242V11.7334H68.2325V8.77352H74.9244V7.45801H66.7168V17.6675Z" fill="white"/>
<path d="M85.2355 17.6675H86.9943V7.45801H85.4786V15.5799H85.45L78.8867 7.45801H77.1279V17.6675H78.6436V9.54567H78.6722L85.2355 17.6675Z" fill="white"/>
<path d="M89.5047 13.8068C89.5047 16.5522 91.0442 17.9249 94.1233 17.9249C97.2023 17.9249 98.7419 16.5522 98.7419 13.8068V7.45801H97.2262V13.9927C97.2262 14.8792 96.9497 15.537 96.3968 15.966C95.8535 16.3949 95.0956 16.6094 94.1233 16.6094C93.1509 16.6094 92.3883 16.3949 91.8354 15.966C91.2921 15.537 91.0204 14.8792 91.0204 13.9927V7.45801H89.5047V13.8068Z" fill="white"/>
<path d="M107.377 15.9231L103.33 7.45801H101.2V17.6675H102.716V9.37408H102.744L106.705 17.6675H108.049L112.024 9.20249H112.053V17.6675H113.569V7.45801H111.467L107.377 15.9231Z" fill="white"/>
<path d="M43.5296 22.7199H45.1556C45.4041 22.7199 45.5967 22.7757 45.7336 22.8874C45.8704 22.999 45.9389 23.1917 45.9389 23.4654C45.9389 23.7066 45.874 23.8939 45.7444 24.0272C45.6147 24.1568 45.3915 24.2216 45.0746 24.2216H43.5296V22.7199ZM43.1299 26.2095H43.5296V24.5889H45.0313C45.4635 24.5889 45.7948 24.4935 46.0253 24.3027C46.2558 24.1082 46.371 23.8291 46.371 23.4654C46.371 23.2709 46.3386 23.1016 46.2738 22.9576C46.2126 22.8135 46.1279 22.6983 46.0199 22.6119C45.9118 22.5218 45.7876 22.457 45.6472 22.4174C45.5103 22.3742 45.3645 22.3526 45.2096 22.3526H43.1299V26.2095Z" fill="white"/>
<path d="M47.2575 24.281C47.2575 24.6088 47.3133 24.9005 47.4249 25.1561C47.5366 25.4118 47.6896 25.6261 47.8841 25.799C48.0821 25.9682 48.3054 26.0961 48.5539 26.1825C48.806 26.2653 49.0725 26.3067 49.3534 26.3067C49.6343 26.3067 49.899 26.2653 50.1475 26.1825C50.3995 26.0961 50.6228 25.9682 50.8173 25.799C51.0154 25.6261 51.1702 25.4118 51.2819 25.1561C51.3935 24.9005 51.4493 24.6088 51.4493 24.281C51.4493 23.9533 51.3935 23.6616 51.2819 23.4059C51.1702 23.1503 51.0154 22.9378 50.8173 22.7685C50.6228 22.5957 50.3995 22.4678 50.1475 22.385C49.899 22.2986 49.6343 22.2553 49.3534 22.2553C49.0725 22.2553 48.806 22.2986 48.5539 22.385C48.3054 22.4678 48.0821 22.5957 47.8841 22.7685C47.6896 22.9378 47.5366 23.1503 47.4249 23.4059C47.3133 23.6616 47.2575 23.9533 47.2575 24.281ZM47.6896 24.281C47.6896 24.0001 47.7346 23.7553 47.8247 23.5464C47.9147 23.3339 48.0371 23.1593 48.192 23.0224C48.3504 22.8856 48.5287 22.7847 48.7268 22.7199C48.9248 22.6551 49.1337 22.6227 49.3534 22.6227C49.5731 22.6227 49.7819 22.6551 49.98 22.7199C50.1781 22.7847 50.3545 22.8856 50.5094 23.0224C50.6678 23.1593 50.7921 23.3339 50.8821 23.5464C50.9721 23.7553 51.0172 24.0001 51.0172 24.281C51.0172 24.5619 50.9721 24.8086 50.8821 25.0211C50.7921 25.23 50.6678 25.4028 50.5094 25.5397C50.3545 25.6765 50.1781 25.7774 49.98 25.8422C49.7819 25.907 49.5731 25.9394 49.3534 25.9394C49.1337 25.9394 48.9248 25.907 48.7268 25.8422C48.5287 25.7738 48.3504 25.6729 48.192 25.5397C48.0371 25.4028 47.9147 25.23 47.8247 25.0211C47.7346 24.8086 47.6896 24.5619 47.6896 24.281Z" fill="white"/>
<path d="M56.4437 25.6801H56.4329L55.2931 22.3526H54.8015L53.6617 25.6801H53.6509L52.5813 22.3526H52.133L53.4132 26.2095H53.8778L55.023 22.9144H55.0338L56.1952 26.2095H56.6598L57.9562 22.3526H57.5241L56.4437 25.6801Z" fill="white"/>
<path d="M58.8565 26.2095H61.968V25.8422H59.2562V24.3945H61.8275V24.0272H59.2562V22.7199H61.9248V22.3526H58.8565V26.2095Z" fill="white"/>
<path d="M63.0946 26.2095H63.4944V24.5133H65.0447C65.3796 24.5133 65.6173 24.5799 65.7578 24.7132C65.9018 24.8464 65.9756 25.0823 65.9792 25.4208C65.9828 25.6441 65.9918 25.8224 66.0063 25.9556C66.0243 26.0853 66.0495 26.1699 66.0819 26.2095H66.514C66.4924 26.1879 66.4726 26.1483 66.4546 26.0907C66.4402 26.033 66.4276 25.9628 66.4168 25.88C66.406 25.7972 66.397 25.7161 66.3898 25.6369C66.3862 25.5541 66.3826 25.4785 66.379 25.41C66.3646 25.0679 66.3106 24.814 66.2169 24.6484C66.1269 24.4827 65.9522 24.3801 65.6929 24.3405V24.3297C65.9342 24.2756 66.1197 24.1604 66.2493 23.9839C66.3826 23.8075 66.4492 23.6112 66.4492 23.3951C66.4492 23.2007 66.415 23.035 66.3466 22.8982C66.2818 22.7613 66.1917 22.6533 66.0765 22.5741C65.9612 22.4948 65.8298 22.439 65.6821 22.4066C65.5345 22.3706 65.3724 22.3526 65.196 22.3526H63.0946V26.2095ZM63.4944 22.7199H65.223C65.3238 22.7199 65.4211 22.7289 65.5147 22.7469C65.6083 22.7649 65.6911 22.7991 65.7632 22.8495C65.8388 22.8964 65.9 22.9648 65.9468 23.0548C65.9937 23.1448 66.0171 23.2583 66.0171 23.3951C66.0171 23.5356 65.9955 23.6562 65.9522 23.7571C65.909 23.8543 65.8478 23.9317 65.7686 23.9893C65.6929 24.0434 65.6047 24.083 65.5039 24.1082C65.4067 24.1334 65.3004 24.146 65.1852 24.146H63.4944V22.7199Z" fill="white"/>
<path d="M67.6388 26.2095H70.7502V25.8422H68.0385V24.3945H70.6098V24.0272H68.0385V22.7199H70.707V22.3526H67.6388V26.2095Z" fill="white"/>
<path d="M71.8121 26.2095H73.746C74.0088 26.2095 74.2429 26.1609 74.4482 26.0637C74.6571 25.9664 74.8317 25.8314 74.9722 25.6585C75.1126 25.4821 75.2171 25.2768 75.2855 25.0427C75.3575 24.8086 75.3935 24.5547 75.3935 24.281C75.3935 23.6688 75.2477 23.1953 74.956 22.8604C74.6643 22.5218 74.2411 22.3526 73.6865 22.3526H71.8121V26.2095ZM72.2118 22.7199H73.6703C74.1097 22.7199 74.4338 22.8513 74.6427 23.1142C74.8551 23.3735 74.9614 23.7625 74.9614 24.281C74.9614 24.5655 74.9272 24.8086 74.8587 25.0103C74.7939 25.212 74.7021 25.374 74.5832 25.4965C74.4644 25.6189 74.3276 25.7071 74.1727 25.7612C74.0215 25.8152 73.854 25.8422 73.6703 25.8422H72.2118V22.7199Z" fill="white"/>
<path d="M78.6003 26.2095H80.7448C80.9033 26.2095 81.0563 26.1897 81.204 26.1501C81.3552 26.1069 81.4921 26.0421 81.6145 25.9556C81.737 25.8656 81.8342 25.7504 81.9062 25.6099C81.9819 25.4695 82.0197 25.302 82.0197 25.1075C82.0197 24.8554 81.9459 24.6448 81.7982 24.4755C81.6542 24.3027 81.4561 24.1982 81.204 24.1622V24.1514C81.4237 24.101 81.5893 24.0001 81.701 23.8489C81.8126 23.6976 81.8684 23.523 81.8684 23.3249C81.8684 23.0332 81.7784 22.7991 81.5983 22.6227C81.4219 22.4426 81.1536 22.3526 80.7935 22.3526H78.6003V26.2095ZM79 22.7199H80.7178C80.9555 22.7199 81.1392 22.7685 81.2688 22.8658C81.4021 22.9594 81.4687 23.1178 81.4687 23.3411C81.4687 23.586 81.3931 23.7625 81.2418 23.8705C81.0906 23.9749 80.8709 24.0272 80.5828 24.0272H79V22.7199ZM79 24.3945H80.7773C81.0329 24.3945 81.231 24.4485 81.3715 24.5565C81.5155 24.661 81.5875 24.8446 81.5875 25.1075C81.5875 25.3596 81.5047 25.5451 81.339 25.6639C81.177 25.7828 80.9573 25.8422 80.68 25.8422H79V24.3945Z" fill="white"/>
<path d="M84.4409 26.2095H84.8406V24.5889L86.5746 22.3526H86.056L84.6407 24.1892L83.2254 22.3526H82.7069L84.4409 24.5889V26.2095Z" fill="white"/>
<path d="M92.4457 23.4546C92.4385 23.2349 92.3899 23.0476 92.2999 22.8928C92.2098 22.7343 92.0892 22.6101 91.9379 22.52C91.7867 22.4264 91.6174 22.3598 91.4302 22.3202C91.2429 22.2769 91.0448 22.2553 90.836 22.2553C90.6379 22.2553 90.4488 22.2751 90.2688 22.3148C90.0923 22.3544 89.9302 22.4192 89.7826 22.5092C89.6385 22.5957 89.5233 22.7109 89.4369 22.8549C89.354 22.999 89.3126 23.1719 89.3126 23.3735C89.3126 23.6724 89.4261 23.8993 89.6529 24.0542C89.8834 24.209 90.2399 24.3243 90.7225 24.3999L90.8576 24.4215C91.07 24.4539 91.2429 24.4845 91.3761 24.5133C91.513 24.5421 91.639 24.5835 91.7543 24.6376C91.8695 24.688 91.9595 24.7564 92.0244 24.8428C92.0928 24.9293 92.127 25.0391 92.127 25.1724C92.127 25.32 92.0946 25.4442 92.0298 25.5451C91.9649 25.6423 91.8767 25.7197 91.7651 25.7774C91.6534 25.835 91.5292 25.8764 91.3923 25.9016C91.2555 25.9268 91.1078 25.9394 90.9494 25.9394C90.7513 25.9394 90.5749 25.925 90.42 25.8962C90.2688 25.8638 90.1337 25.8098 90.0149 25.7341C89.896 25.6585 89.8006 25.5559 89.7286 25.4262C89.6601 25.293 89.6169 25.1291 89.5989 24.9347H89.1992C89.2136 25.1868 89.2658 25.401 89.3558 25.5775C89.4459 25.754 89.5683 25.8962 89.7232 26.0042C89.878 26.1123 90.0563 26.1897 90.258 26.2365C90.4632 26.2833 90.6937 26.3067 90.9494 26.3067C91.1547 26.3067 91.3509 26.2869 91.5382 26.2473C91.7255 26.2077 91.8965 26.1429 92.0514 26.0529C92.2062 25.9592 92.3287 25.835 92.4187 25.6801C92.5123 25.5217 92.5592 25.329 92.5592 25.1021C92.5592 24.9257 92.5213 24.778 92.4457 24.6592C92.3701 24.5367 92.2675 24.4395 92.1378 24.3675C92.0082 24.2954 91.8641 24.2396 91.7057 24.2C91.5508 24.1568 91.3671 24.1172 91.1547 24.0812C90.6289 23.9947 90.2616 23.9029 90.0527 23.8057C89.8474 23.7048 89.7448 23.5374 89.7448 23.3033C89.7448 23.0908 89.8456 22.9252 90.0473 22.8063C90.2526 22.6839 90.5154 22.6227 90.836 22.6227C91.0016 22.6227 91.1529 22.6371 91.2897 22.6659C91.4302 22.6911 91.5544 22.7343 91.6624 22.7955C91.7705 22.8568 91.8569 22.9432 91.9217 23.0548C91.9902 23.1629 92.0316 23.2961 92.046 23.4546H92.4457Z" fill="white"/>
<path d="M94.0445 22.7199H95.6705C95.9189 22.7199 96.1116 22.7757 96.2485 22.8874C96.3853 22.999 96.4537 23.1917 96.4537 23.4654C96.4537 23.7066 96.3889 23.8939 96.2593 24.0272C96.1296 24.1568 95.9063 24.2216 95.5894 24.2216H94.0445V22.7199ZM93.6448 26.2095H94.0445V24.5889H95.5462C95.9784 24.5889 96.3097 24.4935 96.5402 24.3027C96.7706 24.1082 96.8859 23.8291 96.8859 23.4654C96.8859 23.2709 96.8535 23.1016 96.7886 22.9576C96.7274 22.8135 96.6428 22.6983 96.5348 22.6119C96.4267 22.5218 96.3025 22.457 96.162 22.4174C96.0252 22.3742 95.8793 22.3526 95.7245 22.3526H93.6448V26.2095Z" fill="white"/>
<path d="M97.9884 26.2095H101.1V25.8422H98.3881V24.3945H100.959V24.0272H98.3881V22.7199H101.057V22.3526H97.9884V26.2095Z" fill="white"/>
<path d="M102.227 26.2095H105.338V25.8422H102.626V24.3945H105.198V24.0272H102.626V22.7199H105.295V22.3526H102.227V26.2095Z" fill="white"/>
<path d="M106.465 26.2095H109.576V25.8422H106.864V24.3945H109.436V24.0272H106.864V22.7199H109.533V22.3526H106.465V26.2095Z" fill="white"/>
<path d="M110.238 26.2095H110.751L112.08 24.5511L113.398 26.2095H113.928L112.367 24.2324L113.879 22.3526H113.382L112.091 23.9407L110.838 22.3526H110.303L111.805 24.254L110.238 26.2095Z" fill="white"/>
<defs>
<clipPath id="clip0_922_1232">
<rect width="30.8224" height="34" fill="white" transform="translate(0.969727)"/>
</clipPath>
</defs>
</svg>
