<svg width="105" height="26" viewBox="0 0 105 26" fill="none" xmlns="http://www.w3.org/2000/svg">
<g clip-path="url(#clip0_922_1207)">
<path d="M75.7838 22.1461L76.8744 20.7188H77.5543L76.1266 22.525L77.5957 24.4247H76.8744L75.753 22.9247L74.6369 24.4247H73.9512L75.4154 22.525L74.0239 20.7188H74.725L75.7838 22.1461Z" fill="white"/>
<path d="M70.8457 24.4247V20.7188H73.8257V21.1962H71.3961V22.2707H73.753V22.7482H71.3961V23.9472H73.8777V24.4247H70.8457Z" fill="white"/>
<path d="M67.3457 24.4247V20.7188H70.3257V21.1962H67.8961V22.2707H70.253V22.7482H67.8961V23.9472H70.3777V24.4247H67.3457Z" fill="white"/>
<path d="M63.8467 24.4247V20.7188H66.8267V21.1962H64.397V22.2707H66.754V22.7482H64.397V23.9472H66.8787V24.4247H63.8467Z" fill="white"/>
<path d="M60.2764 24.4247V20.7188H62.187C62.5919 20.7188 62.8998 20.8104 63.111 20.9938C63.3222 21.1737 63.4278 21.4368 63.4278 21.7828C63.4278 22.1357 63.3222 22.4178 63.111 22.6288C62.9035 22.8364 62.6073 22.9403 62.2231 22.9403H60.8267V24.4247H60.2764ZM60.8267 22.4627H62.1504C62.4067 22.4627 62.5919 22.4022 62.706 22.2811C62.8201 22.1599 62.8775 21.9973 62.8775 21.7932C62.8775 21.6098 62.8239 21.4644 62.7161 21.3572C62.6089 21.2499 62.4534 21.1962 62.2491 21.1962H60.8267V22.4627Z" fill="white"/>
<path d="M56.6318 23.2042H57.1822C57.1854 23.3634 57.222 23.4983 57.291 23.609C57.36 23.7163 57.4502 23.8028 57.5611 23.8686C57.6752 23.9309 57.8016 23.9759 57.9401 24.0035C58.0786 24.0278 58.2235 24.0399 58.3758 24.0399C58.6773 24.0399 58.9193 23.9845 59.1029 23.8738C59.2865 23.763 59.3778 23.609 59.3778 23.4118C59.3778 23.2526 59.3189 23.1316 59.2016 23.0485C59.0875 22.962 58.9161 22.8997 58.6873 22.8616L57.8467 22.7215C57.7113 22.7007 57.5834 22.6713 57.4624 22.6333C57.3414 22.5952 57.2252 22.5416 57.1143 22.4723C57.0071 22.3997 56.919 22.3045 56.8494 22.1868C56.7804 22.0658 56.7459 21.9204 56.7459 21.7508C56.7459 21.4083 56.8754 21.1349 57.135 20.9308C57.3982 20.7266 57.7633 20.6245 58.2304 20.6245C58.4315 20.6245 58.6199 20.6453 58.7967 20.6868C58.9766 20.7249 59.1411 20.7889 59.2897 20.8789C59.4383 20.9688 59.5577 21.09 59.648 21.2422C59.7414 21.391 59.795 21.5727 59.8088 21.7872H59.2584C59.2446 21.6973 59.2207 21.6159 59.1857 21.5433C59.1512 21.4671 59.0944 21.3962 59.0148 21.3304C58.9352 21.2612 58.8243 21.2059 58.6826 21.1644C58.544 21.1228 58.3689 21.1021 58.1582 21.1021C58.0505 21.1021 57.947 21.1142 57.8467 21.1384C57.7464 21.1592 57.6545 21.1955 57.5712 21.2474C57.4884 21.2958 57.4205 21.3598 57.369 21.4394C57.3202 21.5156 57.2963 21.6055 57.2963 21.7093C57.2963 21.8304 57.343 21.9325 57.4364 22.0156C57.5298 22.0986 57.6853 22.1592 57.9035 22.1972L58.8121 22.3529H58.8227C58.9437 22.3772 59.0578 22.4049 59.165 22.436C59.2759 22.4637 59.39 22.5121 59.5078 22.5814C59.6289 22.6471 59.7292 22.7405 59.8088 22.8616C59.8884 22.9793 59.9282 23.1263 59.9282 23.3028C59.9282 23.5277 59.8831 23.7198 59.7934 23.879C59.7032 24.0347 59.5806 24.1609 59.4245 24.2578C59.2722 24.3513 59.1029 24.417 58.9161 24.4551C58.7293 24.4966 58.535 24.5174 58.3344 24.5174C58.1094 24.5174 57.8966 24.4949 57.6959 24.4499C57.4985 24.4084 57.3186 24.3374 57.1562 24.2371C56.997 24.1367 56.8685 24.0018 56.7719 23.8322C56.6785 23.6592 56.6318 23.4499 56.6318 23.2042Z" fill="white"/>
<path d="M53.2589 22.4056L54.4897 20.7188H55.1595L53.5238 22.8728V24.4247H52.9736V22.8987L51.3486 20.7188H52.0495L53.2589 22.4056Z" fill="white"/>
<path d="M47.8945 24.4247V20.7188H49.9556C50.3398 20.7188 50.6253 20.8 50.8122 20.9627C51.0026 21.1219 51.0977 21.3502 51.0977 21.6479C51.0977 21.8589 51.0493 22.0285 50.9524 22.1565C50.8555 22.2811 50.7239 22.3728 50.5578 22.4316V22.442C50.7794 22.4939 50.9507 22.5942 51.0718 22.743C51.1964 22.8918 51.2587 23.0959 51.2587 23.3555C51.2587 23.4905 51.2345 23.6219 51.186 23.75C51.1375 23.878 51.0649 23.9939 50.968 24.0977C50.8711 24.1981 50.7482 24.2777 50.5994 24.3365C50.4506 24.3953 50.2792 24.4247 50.0854 24.4247H47.8945ZM48.4448 22.2499H49.9452C50.1425 22.2499 50.2913 22.2015 50.3917 22.1046C50.4955 22.0077 50.5474 21.8831 50.5474 21.7309C50.5474 21.5579 50.4955 21.4264 50.3917 21.3364C50.2913 21.243 50.1321 21.1962 49.9141 21.1962H48.4448V22.2499ZM48.4448 23.9472H49.9349C50.0837 23.9472 50.2083 23.9299 50.3087 23.8953C50.409 23.8607 50.4886 23.814 50.5474 23.7552C50.6063 23.6963 50.6478 23.6306 50.672 23.5579C50.6963 23.4818 50.7084 23.4022 50.7084 23.3192C50.7084 23.243 50.6963 23.1703 50.672 23.1011C50.6478 23.0285 50.6063 22.9645 50.5474 22.9091C50.4921 22.8537 50.4177 22.8105 50.3242 22.7793C50.2307 22.7447 50.1165 22.7274 49.9816 22.7274H48.4448V23.9472Z" fill="white"/>
<path d="M42.3398 24.4247V20.7188H44.2192C44.7591 20.7188 45.1641 20.8796 45.434 21.2014C45.704 21.5233 45.839 21.9627 45.839 22.5198C45.839 22.7863 45.8078 23.0337 45.7455 23.2621C45.6867 23.4905 45.5933 23.6929 45.4652 23.8694C45.3371 24.0423 45.171 24.179 44.9668 24.2794C44.7661 24.3763 44.5272 24.4247 44.2504 24.4247H42.3398ZM42.8902 23.9472H44.2244C44.439 23.9472 44.6172 23.9074 44.7591 23.8278C44.901 23.7448 45.01 23.6358 45.0862 23.5008C45.1624 23.3659 45.2143 23.2171 45.242 23.0545C45.2731 22.8918 45.2887 22.717 45.2887 22.5302C45.2887 22.3503 45.2714 22.1824 45.2368 22.0267C45.2022 21.871 45.1415 21.7309 45.055 21.6063C44.9685 21.4783 44.8474 21.3779 44.6917 21.3052C44.5393 21.2326 44.349 21.1962 44.1206 21.1962H42.8902V23.9472Z" fill="white"/>
<path d="M38.8408 24.4247V20.7188H41.8208V21.1962H39.3911V22.2707H41.7481V22.7482H39.3911V23.9472H41.8727V24.4247H38.8408Z" fill="white"/>
<path d="M35.0781 24.4247V20.7188H37.3728C37.5493 20.7188 37.7034 20.7464 37.8349 20.8018C37.9664 20.8571 38.072 20.9333 38.1516 21.0302C38.2312 21.1236 38.29 21.2291 38.3281 21.3468C38.3661 21.461 38.3852 21.5804 38.3852 21.7049C38.3852 21.9298 38.3315 22.1219 38.2242 22.2811C38.117 22.4402 37.9629 22.5527 37.7622 22.6184V22.6288C37.9248 22.653 38.0529 22.7361 38.1464 22.878C38.2398 23.0164 38.2917 23.1963 38.3021 23.4178C38.3125 23.615 38.3211 23.7655 38.3281 23.8694C38.335 23.9732 38.3436 24.0596 38.354 24.1289C38.3679 24.1981 38.3834 24.2552 38.4007 24.3002C38.4215 24.3451 38.4475 24.3867 38.4786 24.4247H37.8972C37.8591 24.3798 37.8349 24.3209 37.8245 24.2482C37.8141 24.1756 37.802 24.0389 37.7881 23.8382C37.7847 23.7759 37.783 23.7361 37.783 23.7188C37.7656 23.397 37.6999 23.1721 37.5857 23.0441C37.4749 22.916 37.3019 22.852 37.0665 22.852H35.6284V24.4247H35.0781ZM35.6284 22.3745H37.1652C37.2932 22.3745 37.4005 22.3572 37.487 22.3226C37.577 22.288 37.6463 22.243 37.6947 22.1876C37.7466 22.1288 37.783 22.0665 37.8037 22.0008C37.8245 21.9316 37.8349 21.8606 37.8349 21.788C37.8349 21.6046 37.7795 21.461 37.6688 21.3572C37.558 21.2499 37.3953 21.1962 37.1807 21.1962H35.6284V22.3745Z" fill="white"/>
<path d="M31.5586 24.4247V20.7188H34.5386V21.1962H32.1089V22.2707H34.4659V22.7482H32.1089V23.9472H34.5905V24.4247H31.5586Z" fill="white"/>
<path d="M29.492 24.4247L28.4641 21.352H28.4537L27.4309 24.4247H26.8235L25.6035 20.7188H26.2005L27.1506 23.7292H27.161L28.1525 20.7188H28.8067L29.8242 23.7292H29.8346L30.7795 20.7188H31.3505L30.0942 24.4247H29.492Z" fill="white"/>
<path d="M21.4766 22.571C21.4766 22.3218 21.5147 22.0831 21.5908 21.8547C21.6704 21.6228 21.7932 21.4152 21.9594 21.2318C22.1255 21.045 22.3401 20.8979 22.6031 20.7906C22.8697 20.6799 23.1812 20.6245 23.5376 20.6245C23.8941 20.6245 24.2039 20.6799 24.4669 20.7906C24.7334 20.8979 24.9497 21.045 25.1159 21.2318C25.282 21.4152 25.4031 21.6228 25.4793 21.8547C25.5589 22.0831 25.5987 22.3218 25.5987 22.571C25.5987 22.8201 25.5589 23.0606 25.4793 23.2924C25.4031 23.5208 25.282 23.7284 25.1159 23.9153C24.9497 24.0987 24.7334 24.2457 24.4669 24.3565C24.2039 24.4638 23.8941 24.5174 23.5376 24.5174C23.1812 24.5174 22.8697 24.4638 22.6031 24.3565C22.3401 24.2457 22.1255 24.0987 21.9594 23.9153C21.7932 23.7284 21.6704 23.5208 21.5908 23.2924C21.5147 23.0606 21.4766 22.8201 21.4766 22.571ZM25.0484 22.571C25.0484 22.0969 24.9065 21.7335 24.6227 21.481C24.3423 21.2283 23.9806 21.1021 23.5376 21.1021C23.0946 21.1021 22.7312 21.2283 22.4474 21.481C22.167 21.7335 22.0269 22.0969 22.0269 22.571C22.0269 23.0416 22.167 23.4049 22.4474 23.6609C22.7312 23.9136 23.0946 24.0399 23.5376 24.0399C23.9806 24.0399 24.3423 23.9136 24.6227 23.6609C24.9065 23.4049 25.0484 23.0416 25.0484 22.571Z" fill="white"/>
<path d="M18.1084 24.4247V20.7188H20.0189C20.4239 20.7188 20.7319 20.8104 20.943 20.9938C21.1541 21.1737 21.2597 21.4368 21.2597 21.7828C21.2597 22.1357 21.1541 22.4178 20.943 22.6288C20.7353 22.8364 20.4394 22.9403 20.0553 22.9403H18.6587V24.4247H18.1084ZM18.6587 22.4627H19.9826C20.2387 22.4627 20.4239 22.4022 20.5381 22.2811C20.6523 22.1599 20.7094 21.9973 20.7094 21.7932C20.7094 21.6098 20.6557 21.4644 20.5485 21.3572C20.4412 21.2499 20.2854 21.1962 20.0812 21.1962H18.6587V22.4627Z" fill="white"/>
<path d="M0.0730714 14.4388H2.85869C3.00293 15.1238 3.37254 15.6826 3.96753 16.1152C4.56251 16.5298 5.36484 16.7371 6.37454 16.7371C7.02362 16.7371 7.52845 16.665 7.88902 16.5208C8.26764 16.3766 8.52908 16.1783 8.67333 15.9259C8.83557 15.6736 8.91672 15.3852 8.91672 15.0607C8.91672 14.6641 8.79954 14.3577 8.56517 14.1414C8.34879 13.9251 8.02425 13.7448 7.59155 13.6006C7.15879 13.4564 6.61793 13.3302 5.96885 13.222C5.30174 13.0598 4.64365 12.8795 3.99457 12.6812C3.3455 12.483 2.75953 12.2396 2.23666 11.9512C1.71379 11.6448 1.2991 11.2662 0.992593 10.8156C0.704117 10.3469 0.559878 9.77906 0.559878 9.11213C0.559878 8.49922 0.695105 7.94946 0.965553 7.46273C1.25403 6.95801 1.65068 6.53442 2.15552 6.19191C2.66036 5.8494 3.25535 5.58802 3.94048 5.40777C4.62562 5.2095 5.37385 5.11035 6.18523 5.11035C7.35713 5.11035 8.33075 5.29963 9.10603 5.67817C9.89936 6.05671 10.4944 6.58849 10.891 7.27346C11.3057 7.95848 11.513 8.74262 11.513 9.62587H8.86264C8.71839 8.90482 8.43896 8.38207 8.02425 8.0576C7.60954 7.73313 6.98753 7.57092 6.15816 7.57092C5.32879 7.57092 4.69774 7.71509 4.26502 8.00353C3.83231 8.29197 3.61594 8.68849 3.61594 9.19326C3.61594 9.5718 3.75117 9.87823 4.02162 10.1126C4.3101 10.3289 4.71577 10.5182 5.23864 10.6804C5.7615 10.8426 6.37454 11.0048 7.0777 11.1671C7.72678 11.3473 8.33977 11.5366 8.91672 11.7349C9.49367 11.9151 10.0075 12.1495 10.4583 12.4379C10.9271 12.7083 11.2967 13.0689 11.5671 13.5195C11.8376 13.9702 11.9728 14.5289 11.9728 15.1959C11.9728 16.0251 11.7474 16.7371 11.2967 17.332C10.864 17.9268 10.2329 18.3865 9.40356 18.711C8.57419 19.0174 7.5735 19.1706 6.40155 19.1706C5.37385 19.1706 4.48138 19.0535 3.72412 18.8191C2.9849 18.5848 2.36287 18.2784 1.85803 17.8998C1.37122 17.5213 0.992593 17.1157 0.722145 16.683C0.451699 16.2504 0.262385 15.8358 0.154206 15.4393C0.0640564 15.0427 0.0370116 14.7092 0.0730714 14.4388Z" fill="white"/>
<path d="M12.9346 5.40788H22.4543V7.90579H12.9346V5.40788ZM16.18 4.10801C16.18 2.82486 17.2203 1.78467 18.5038 1.78467H19.209V18.8733H16.18V4.10801Z" fill="white"/>
<path d="M29.797 19.1706C28.5709 19.1706 27.444 18.8732 26.4163 18.2784C25.4067 17.6835 24.5953 16.8633 23.9823 15.8178C23.3873 14.7542 23.0898 13.5375 23.0898 12.1675C23.0898 10.7615 23.3963 9.53572 24.0093 8.4902C24.6224 7.4267 25.4517 6.59751 26.4975 6.00264C27.5432 5.40777 28.7151 5.11035 30.0133 5.11035C31.4557 5.11035 32.6006 5.42581 33.448 6.05671C34.2954 6.68761 34.8994 7.53484 35.26 8.5984C35.6206 9.6619 35.8009 10.8516 35.8009 12.1675C35.8009 12.9066 35.6927 13.6907 35.4764 14.5199C35.26 15.3311 34.9174 16.0882 34.4487 16.7912C33.9979 17.4942 33.3849 18.071 32.6096 18.5217C31.8524 18.9543 30.9148 19.1706 29.797 19.1706ZM30.7164 16.683C31.7262 16.683 32.5826 16.4937 33.2857 16.1152C34.0069 15.7186 34.5478 15.1779 34.9084 14.4929C35.2871 13.8079 35.4764 13.0328 35.4764 12.1675C35.4764 11.2121 35.2871 10.401 34.9084 9.73401C34.5298 9.04904 33.9889 8.52629 33.2857 8.16573C32.5826 7.7872 31.7262 7.59793 30.7164 7.59793C29.2741 7.59793 28.1562 8.02157 27.3629 8.8688C26.5696 9.71597 26.1729 10.8156 26.1729 12.1675C26.1729 13.0508 26.3623 13.835 26.7409 14.5199C27.1375 15.2049 27.6784 15.7367 28.3636 16.1152C29.0487 16.4937 29.833 16.683 30.7164 16.683ZM35.4764 5.40777H38.5054V18.8732H35.6927C35.6927 18.8732 35.6747 18.7019 35.6386 18.3595C35.6026 18.017 35.5665 17.6024 35.5305 17.1157C35.4944 16.611 35.4764 16.1333 35.4764 15.6826V5.40777Z" fill="white"/>
<path d="M55.4082 8.00354L55.7872 5.57005H64.5765V8.00354H55.4082ZM62.0073 5.57005H65.0362V18.8732H62.0073V5.57005ZM52.4063 18.8732V4.6507L55.4082 4.92109V18.8732H52.4063ZM42.6973 18.8732V5.08333L45.6992 5.35372V18.8732H42.6973ZM47.6465 0.432623H49.8912V3.02837H48.1874C47.7005 3.01034 47.2678 3.07343 46.8892 3.21764C46.5106 3.34382 46.2131 3.57816 45.9967 3.92065C45.7984 4.24512 45.6992 4.72281 45.6992 5.35372L42.6973 5.08333C42.6973 4.00177 42.8866 3.1185 43.2652 2.43351C43.6619 1.74852 44.2298 1.24379 44.969 0.919328C45.7263 0.594859 46.6188 0.432623 47.6465 0.432623ZM40.0469 5.57005H59.5463V8.00354H40.0469V5.57005ZM57.3825 0H65.0362V2.59574H57.8963C57.4096 2.57771 56.9771 2.63179 56.5981 2.75798C56.2197 2.88416 55.922 3.1185 55.706 3.46099C55.5075 3.80349 55.4082 4.29019 55.4082 4.92109L52.4063 4.6507C52.4063 3.56915 52.5956 2.68587 52.9743 2.00089C53.3708 1.3159 53.9387 0.811168 54.678 0.486702C55.4353 0.162234 56.337 0 57.3825 0Z" fill="white"/>
<path d="M66.5713 5.57005H76.3345V8.00354H66.5713V5.57005ZM74.3332 0H76.5506V2.59574H74.874C74.3693 2.57771 73.9272 2.63179 73.5488 2.75798C73.1879 2.88416 72.8997 3.1185 72.6831 3.46099C72.4852 3.80349 72.3859 4.29019 72.3859 4.92109V18.8732H69.3565V4.6507C69.3565 3.56915 69.555 2.68587 69.952 2.00089C70.3485 1.3159 70.9164 0.811168 71.6557 0.486702C72.413 0.162234 73.3052 0 74.3332 0Z" fill="white"/>
<path d="M76.5547 5.40771H79.773L85.2093 18.3324L82.6129 18.8732L76.5547 5.40771ZM91.5647 5.40771L82.9107 24.281H79.7459L83.4515 16.8993L88.3464 5.40771H91.5647Z" fill="white"/>
<path opacity="0.3" d="M99.3855 23.2432C101.177 23.2432 102.629 21.7912 102.629 20C102.629 18.2089 101.177 16.7568 99.3855 16.7568C97.5939 16.7568 96.1416 18.2089 96.1416 20C96.1416 21.7912 97.5939 23.2432 99.3855 23.2432Z" fill="white"/>
<path d="M95.3701 16.9326C97.0648 16.9326 98.4383 18.306 98.4385 20C98.4385 21.6941 97.0649 23.0684 95.3701 23.0684C93.6754 23.0683 92.3018 21.6941 92.3018 20C92.3019 18.306 93.6755 16.9327 95.3701 16.9326Z" stroke="white"/>
<path d="M91.9422 23.4479C93.8703 23.4479 95.4333 21.8852 95.4333 19.9576C95.4333 18.03 93.8703 16.4673 91.9422 16.4673C90.0142 16.4673 88.4512 18.03 88.4512 19.9576C88.4512 21.8852 90.0142 23.4479 91.9422 23.4479Z" fill="white"/>
</g>
<defs>
<clipPath id="clip0_922_1207">
<rect width="104.553" height="26" fill="white" transform="translate(0.0576172)"/>
</clipPath>
</defs>
</svg>
