<svg width="292" height="77" viewBox="0 0 292 77" fill="none" xmlns="http://www.w3.org/2000/svg">
<g filter="url(#filter0_f_910_379)">
<rect x="25" y="25" width="242" height="27" fill="black"/>
</g>
<path d="M159.742 27.2921H180.176V29.9819H161.905V33.7062H159.07V27.2921H159.742ZM95.5396 27.3408C97.4574 27.4374 99.3202 28.0064 100.958 28.996C102.384 29.875 103.434 31.2387 103.911 32.8299L104.164 33.6757H101.18L101.02 33.2437C100.597 32.1863 99.7777 31.3301 98.7328 30.8521C97.295 30.2157 95.727 29.9178 94.1526 29.9819H85.6705V51.7677H82.8287V27.2921C86.9588 27.2921 91.4711 27.0548 95.5458 27.3408H95.5396ZM161.905 41.2582V49.078H180.176V51.7373H159.07V39.0127L159.353 39.177C159.661 39.396 159.883 39.5482 160.081 39.7003L160.789 40.2723L161.184 40.6192L161.905 41.2582ZM136.317 39.6577V49.078H154.588V51.7373H133.5V38.3494C133.999 38.477 134.486 38.6481 134.955 38.8605C135.429 39.0905 135.885 39.3571 136.317 39.6577ZM110.741 38.6719V49.078H129.012V51.7373H107.918V38.3494C108.153 38.3202 108.39 38.306 108.627 38.3068C109.354 38.3066 110.075 38.4301 110.759 38.6719H110.741ZM205.993 27.2921H209.944L197.652 39.5177L209.944 51.7373H205.715L195.532 41.6172L185.355 51.7373H181.126L193.418 39.5177L181.126 27.2921H185.355L195.532 37.4122L205.715 27.2921H205.993ZM128.322 29.9515H110.759V33.6757H107.918V27.2921H129.031V29.9819L128.322 29.9515ZM153.898 29.9515H136.317V33.6757H133.481V27.2921H154.588V29.9819L153.898 29.9515ZM61.0315 28.7648C62.8808 27.6329 65.476 27 68.6075 27C71.739 27 74.2972 27.6451 76.128 28.8256C77.0412 29.3993 77.7991 30.184 78.3361 31.1118C78.8731 32.0395 79.1732 33.0825 79.2102 34.1504L79.2472 34.8441H76.3684L76.3315 34.2356C76.309 33.5565 76.1137 32.894 75.7636 32.309C75.4134 31.7241 74.9197 31.2356 74.328 30.8886C72.9842 30.0549 71.0116 29.6715 68.5459 29.6715C66.0801 29.6715 64.1322 30.0671 62.7822 30.846C62.2298 31.1189 61.7647 31.5373 61.4383 32.055C61.1119 32.5727 60.937 33.1694 60.9329 33.7792C60.944 34.2265 61.0762 34.6628 61.3157 35.0427C61.5553 35.4225 61.8935 35.7322 62.2952 35.9395C63.5057 36.621 64.8221 37.1001 66.1911 37.3574C66.9493 37.5339 67.874 37.6921 68.8664 37.8625C70.2842 38.1059 71.8376 38.3737 73.3479 38.7571C74.9438 39.0929 76.4525 39.7496 77.7801 40.6862C78.4348 41.1774 78.9615 41.8157 79.3163 42.5481C79.6712 43.2804 79.844 44.0858 79.8205 44.8973C79.8332 45.9461 79.547 46.9772 78.9945 47.8731C78.3878 48.8059 77.5661 49.5838 76.5965 50.1429C75.4902 50.7991 74.2824 51.2719 73.0212 51.5426C71.5496 51.861 70.0462 52.0141 68.5397 51.999C65.1 51.999 62.326 51.2626 60.3596 49.9786C59.3644 49.3704 58.537 48.5288 57.9508 47.5287C57.3647 46.5286 57.0381 45.401 57 44.2461V43.5585H59.8418V44.167C59.8642 44.9334 60.085 45.6814 60.4831 46.3398C60.8813 46.9981 61.4436 47.5448 62.1164 47.9278C63.6144 48.8589 65.815 49.364 68.5952 49.364C71.2335 49.364 73.3972 48.9198 74.8643 48.08C75.4699 47.7802 75.9804 47.322 76.3402 46.7554C76.7 46.1888 76.8953 45.5355 76.9047 44.8669C76.9047 42.0189 72.8732 41.3312 68.6568 40.6071C63.4602 39.7125 58.0233 38.7814 58.0233 33.7731C58.0317 32.7503 58.3145 31.7481 58.8429 30.8683C59.3713 29.9885 60.1265 29.2627 61.0315 28.7648Z" fill="white"/>
<path fill-rule="evenodd" clip-rule="evenodd" d="M85.6702 35.6232C86.7968 35.6869 87.9 35.9659 88.9188 36.4447C90.0735 37.0387 91.1346 37.7951 92.0688 38.6903C93.3017 39.7735 94.4544 40.8141 96.7846 40.8141C99.1147 40.8141 100.292 39.7735 101.507 38.6964C103.134 37.2419 104.823 35.7267 108.528 35.5989H108.62C110.124 35.6143 111.603 35.9814 112.935 36.6699C113.898 37.2119 114.786 37.8724 115.58 38.6355L115.648 38.6964C116.88 39.7857 118.045 40.8385 120.388 40.8385C122.73 40.8385 123.895 39.7978 125.11 38.7146L125.196 38.6355C126.811 37.1993 128.506 35.7267 132.156 35.5928H132.248C135.947 35.7206 137.642 37.2298 139.276 38.6903C140.508 39.7735 141.661 40.8141 143.998 40.8141C146.334 40.8141 147.499 39.7735 148.713 38.6964C149.527 37.9102 150.438 37.2292 151.426 36.6699C152.758 35.9811 154.237 35.6141 155.741 35.5989H155.839C159.489 35.7267 161.184 37.1993 162.793 38.6416L162.861 38.7025C164.093 39.7918 165.258 40.8445 167.601 40.8445C169.943 40.8445 171.127 39.7918 172.341 38.7086C173.186 37.9145 174.131 37.2314 175.152 36.676C176.462 35.9902 177.917 35.6191 179.4 35.5928H180.213V38.1974H179.467C176.798 38.313 175.485 39.4692 174.228 40.595C173.456 41.3403 172.592 41.9864 171.657 42.518C170.43 43.1104 169.081 43.4184 167.715 43.4184C166.349 43.4184 165 43.1104 163.773 42.518C162.839 41.9864 161.978 41.3403 161.208 40.595L160.814 40.2481C160.518 40.0047 160.302 39.8283 160.105 39.6761C159.908 39.524 159.686 39.3719 159.378 39.1528C158.913 38.8728 158.414 38.6539 157.892 38.5016C157.237 38.3077 156.56 38.1993 155.876 38.1791C154.773 38.1945 153.689 38.4678 152.714 38.9763C151.936 39.4293 151.218 39.975 150.575 40.6011C149.804 41.3464 148.94 41.9925 148.004 42.5241C146.777 43.1165 145.429 43.4245 144.062 43.4245C142.696 43.4245 141.348 43.1165 140.12 42.5241C139.185 41.9925 138.321 41.3464 137.55 40.6011C136.787 39.8939 135.912 39.3143 134.961 38.885C134.113 38.4883 133.197 38.253 132.261 38.1913C131.157 38.206 130.073 38.4792 129.098 38.9885C128.32 39.4429 127.599 39.9884 126.953 40.6133C126.184 41.3585 125.322 42.0047 124.389 42.5363C123.161 43.1287 121.813 43.4367 120.447 43.4367C119.08 43.4367 117.732 43.1287 116.504 42.5363C115.569 42.0047 114.705 41.3586 113.934 40.6133C112.214 39.0736 110.414 38.2947 108.633 38.2947C106.851 38.2947 105.063 39.0615 103.325 40.6133C102.555 41.36 101.691 42.0062 100.754 42.5363C99.5282 43.1291 98.1808 43.4372 96.8154 43.4372C95.45 43.4372 94.1027 43.1291 92.8764 42.5363C91.9409 42.0047 91.0772 41.3586 90.3058 40.6133C89.5704 39.9138 88.7406 39.3179 87.8401 38.8424C87.1589 38.5088 86.4212 38.3025 85.6641 38.2339L85.6702 35.6232Z" fill="url(#paint0_linear_910_379)"/>
<path d="M217.981 35V28.158H215.011V27.146H222.117V28.158H219.147V35H217.981ZM228.062 33.658L231.208 27.146H232.825V35H231.659V28.488H231.637L228.579 35H227.545L224.498 28.62H224.476V35H223.31V27.146H224.949L228.062 33.658Z" fill="white"/>
<defs>
<filter id="filter0_f_910_379" x="0" y="0" width="292" height="77" filterUnits="userSpaceOnUse" color-interpolation-filters="sRGB">
<feFlood flood-opacity="0" result="BackgroundImageFix"/>
<feBlend mode="normal" in="SourceGraphic" in2="BackgroundImageFix" result="shape"/>
<feGaussianBlur stdDeviation="12.5" result="effect1_foregroundBlur_910_379"/>
</filter>
<linearGradient id="paint0_linear_910_379" x1="85.6702" y1="39.5179" x2="180.182" y2="39.5179" gradientUnits="userSpaceOnUse">
<stop stop-color="#F48020"/>
<stop offset="0.06" stop-color="#ED6D32"/>
<stop offset="0.17" stop-color="#DB3B62"/>
<stop offset="0.25" stop-color="#CC1389"/>
<stop offset="0.5" stop-color="#0088CA"/>
<stop offset="0.75" stop-color="#72BE44"/>
<stop offset="1" stop-color="#FDD301"/>
</linearGradient>
</defs>
</svg>
