<svg width="143" height="39" viewBox="0 0 143 39" fill="none" xmlns="http://www.w3.org/2000/svg">
<path d="M5.26932 26.5247V31.9768H10.4182V30.287H6.86517V26.5247H5.26932ZM13.7303 6.59711V8.28697H17.2834V12.0493H18.8792V6.59711H13.7303ZM9.15356 6.75654C8.91268 6.8203 8.64169 6.91596 8.4008 7.01161C7.79859 7.29856 7.2265 7.68117 6.77484 8.19132C6.29307 8.66958 5.90164 9.27538 5.66076 9.91306C5.41987 10.5507 5.26932 11.2522 5.26932 11.9536C5.26932 12.687 5.41987 13.3884 5.66076 14.0261C5.93175 14.6957 6.29307 15.2696 6.77484 15.7797C7.2265 16.258 7.76848 16.6406 8.4008 16.9275C9.00301 17.1826 9.66544 17.342 10.3279 17.342H10.4182H13.7303H13.8207C14.995 17.342 16.1392 17.5971 17.1629 18.0435C18.2469 18.4899 19.2104 19.1913 20.0234 20.0522C20.8063 20.9131 21.4687 21.9333 21.9204 23.0493C22.3419 24.1652 22.5828 25.3449 22.5828 26.6203C22.5828 27.8638 22.3419 29.0754 21.9204 30.1594C21.4687 31.3073 20.8364 32.3275 20.0234 33.1884C19.2104 34.0493 18.2469 34.7189 17.1629 35.1971C16.4403 35.516 15.6574 35.7391 14.8745 35.8348C14.6035 35.4841 14.2121 35.229 13.7303 35.229C12.9475 35.229 12.3152 35.8986 12.3152 36.7275C12.3152 37.5565 12.9475 38.2261 13.7303 38.2261C14.2422 38.2261 14.6939 37.9391 14.9348 37.4928C15.9284 37.3652 16.8618 37.1102 17.7651 36.7275C19.0298 36.1855 20.174 35.3565 21.1375 34.3362C22.101 33.316 22.8538 32.1044 23.3958 30.7652C23.9077 29.458 24.1786 28.0551 24.1786 26.5884C24.1786 25.0899 23.9077 23.687 23.3958 22.4116C22.8839 21.0725 22.101 19.8609 21.1375 18.8406C20.174 17.8203 19.0298 17.0232 17.7651 16.4493C16.5607 15.9391 15.2058 15.6522 13.8207 15.6522H13.7303H10.4182H10.3279C9.36433 15.6522 8.49113 15.2377 7.85881 14.5681V14.5362C7.55771 14.2174 7.28672 13.8029 7.13617 13.3565C6.9555 12.942 6.86517 12.4638 6.86517 11.9536C6.86517 11.4435 6.9555 10.9652 7.13617 10.5507C7.31683 10.1044 7.55771 9.68987 7.88893 9.37103C8.22014 9.0203 8.58146 8.76523 9.00301 8.57393C9.12345 8.51016 9.21378 8.47827 9.33422 8.44639C9.60522 8.76523 9.96654 8.95653 10.4182 8.95653C11.2011 8.95653 11.8334 8.28697 11.8334 7.45798C11.8334 6.629 11.2011 5.95943 10.4182 5.95943C9.87621 5.92755 9.39445 6.27827 9.15356 6.75654ZM9.21378 1.08117C8.22014 1.17682 7.25661 1.46378 6.38341 1.84639C5.11877 2.38842 3.97457 3.2174 3.01104 4.23769C2.04751 5.25798 1.29475 6.46958 0.75276 7.80871C0.270994 9.08407 0 10.487 0 11.9536C0 13.4522 0.270994 14.8551 0.78287 16.1304C1.29475 17.4696 2.07762 18.6812 3.04115 19.7015C4.00468 20.7218 5.14888 21.5189 6.41352 22.0928C7.64804 22.6348 8.9729 22.9218 10.358 22.9218H10.4483H13.7605H13.8508C14.8143 22.9218 15.6875 23.3362 16.3198 24.0058L16.3499 24.0377C16.6511 24.3565 16.922 24.771 17.0726 25.2174C17.2533 25.6638 17.3436 26.142 17.3436 26.6203C17.3436 27.1304 17.2533 27.6087 17.0726 28.0232C16.8618 28.4696 16.5908 28.8841 16.2596 29.2029C15.9585 29.5536 15.5671 29.8406 15.1455 30.0319C15.0251 30.0638 14.9348 30.0957 14.8143 30.1594C14.5433 29.8406 14.182 29.6493 13.7303 29.6493C12.9475 29.6493 12.3152 30.3189 12.3152 31.1478C12.3152 31.9768 12.9475 32.6464 13.7303 32.6464C14.2723 32.6464 14.7541 32.3275 14.995 31.8493C15.266 31.7855 15.5069 31.6899 15.7477 31.5942C16.3801 31.3073 16.922 30.8928 17.4038 30.4145C17.8555 29.9044 18.2469 29.3304 18.4878 28.6609C18.7287 28.0232 18.8792 27.3218 18.8792 26.6203C18.8792 25.887 18.7287 25.2174 18.4878 24.5797C18.2469 23.9102 17.8555 23.3044 17.4038 22.8261C16.922 22.316 16.3801 21.9333 15.7477 21.6464C15.1455 21.3913 14.4831 21.2319 13.8207 21.2319H13.7303H10.4182H10.3279C9.15356 21.2319 8.00937 20.9768 6.98561 20.5304C5.90164 20.0841 4.93811 19.3826 4.15524 18.5218C3.34225 17.6609 2.67983 16.6406 2.22817 15.5246C1.80662 14.4406 1.56574 13.229 1.56574 11.9536C1.56574 10.7102 1.80662 9.49856 2.22817 8.41451C2.67983 7.29856 3.34225 6.24639 4.15524 5.4174C4.96822 4.55654 5.93175 3.88697 7.01572 3.40871C7.73837 3.08987 8.52124 2.86668 9.30411 2.77103C9.545 3.12175 9.96654 3.34494 10.4182 3.34494C11.2011 3.34494 11.8334 2.67538 11.8334 1.84639C11.8334 1.0174 11.2011 0.347839 10.4182 0.347839C9.90632 0.347839 9.45467 0.634796 9.21378 1.08117Z" fill="url(#paint0_linear_795_1074)"/>
<path d="M47.5728 35.8485H36.7925V23.5427H47.5728V25.0272H38.4038V28.7385H47.5728V30.223H38.4038V34.364H47.5728V35.8485ZM53.9029 35.8485H49.0307V23.5427H54.0564H54.3633H54.6702L54.9388 23.5818L55.2457 23.6208L55.5142 23.6599L55.7828 23.699L56.0513 23.7771L56.3199 23.8552C56.3966 23.8943 56.5117 23.8943 56.5884 23.9334C56.6651 23.9724 56.7802 24.0115 56.857 24.0506C56.9337 24.0896 57.0104 24.1287 57.0871 24.1678C57.1639 24.2068 57.2406 24.2459 57.3173 24.285L57.5475 24.4412C57.6242 24.4803 57.701 24.5584 57.7777 24.5975C57.8544 24.6366 57.9311 24.7147 58.0079 24.7538C58.0846 24.7928 58.1613 24.871 58.1997 24.91C58.2764 24.9881 58.3532 25.0272 58.3915 25.1053C58.4682 25.1835 58.5066 25.2225 58.5833 25.3007C58.6601 25.3788 58.6984 25.4569 58.7752 25.5351C58.8135 25.6132 58.8903 25.6913 58.9286 25.7695C58.967 25.8476 59.0437 25.9257 59.0821 26.0039C59.1204 26.082 59.1972 26.1601 59.2355 26.2773C59.2739 26.3555 59.3123 26.4727 59.389 26.5508C59.4273 26.6289 59.4657 26.7461 59.5041 26.8242C59.5808 27.0196 59.6575 27.2149 59.6959 27.4493C59.7343 27.6837 59.811 27.879 59.8494 28.1525C59.8877 28.3869 59.9261 28.6603 59.9261 28.8947C59.9261 29.1682 59.9644 29.4417 59.9644 29.7151C59.9644 29.9495 59.9644 30.1448 59.9261 30.3792C59.9261 30.6136 59.8877 30.809 59.8494 31.0043C59.811 31.1996 59.7726 31.434 59.7343 31.6293C59.6959 31.8247 59.6192 32.02 59.5808 32.2153C59.5041 32.4107 59.4273 32.5669 59.3506 32.7623C59.2739 32.9576 59.1972 33.1138 59.0821 33.2701C58.967 33.4264 58.8903 33.5826 58.7752 33.7389C58.6601 33.8952 58.545 34.0514 58.3915 34.1686C58.2764 34.3249 58.123 34.4421 57.9695 34.5593C57.8161 34.6765 57.6626 34.7937 57.5091 34.9109C57.3557 35.0281 57.1639 35.1062 57.0104 35.1843C56.8186 35.2625 56.6651 35.3406 56.4733 35.4187C56.2815 35.4969 56.0897 35.5359 55.8979 35.6141C55.706 35.6531 55.4758 35.6922 55.284 35.7313C55.0538 35.7703 54.862 35.8094 54.6318 35.8094C54.3633 35.8485 54.1331 35.8485 53.9029 35.8485ZM53.8646 25.0272H50.6036V34.364H54.018C54.3633 34.364 54.6702 34.3249 54.9771 34.2858C55.1306 34.2468 55.284 34.2468 55.3991 34.2077C55.5526 34.1686 55.6677 34.1296 55.8211 34.0905C55.9362 34.0514 56.0897 33.9733 56.2048 33.9342C56.3199 33.8561 56.435 33.817 56.55 33.7389C56.6651 33.6608 56.7802 33.5826 56.857 33.5045C56.972 33.4264 57.0488 33.3482 57.1639 33.231C57.2406 33.1529 57.3557 33.0357 57.4324 32.9185C57.5091 32.8013 57.5859 32.6841 57.6626 32.5669C57.7393 32.4497 57.8161 32.3325 57.8544 32.1763C57.9312 32.0591 57.9695 31.9028 58.0079 31.7465C58.0462 31.5903 58.0846 31.434 58.123 31.2778C58.1613 31.1215 58.1997 30.9652 58.1997 30.7699C58.2381 30.6136 58.2381 30.4183 58.2381 30.223C58.2381 30.0276 58.2381 29.8323 58.2381 29.637V29.3245V29.0119L58.1997 28.7385L58.1613 28.465L58.123 28.1915L58.1613 27.9962L58.0846 27.7618L58.0079 27.5274L57.9312 27.3321L57.8544 27.1368L57.7393 26.9414L57.6242 26.7461L57.5091 26.5898C57.4708 26.5508 57.4324 26.4727 57.3941 26.4336L57.279 26.2773L57.1255 26.1211L56.9721 26.0039L56.8186 25.8867L56.6651 25.7695L56.5117 25.6523L56.3199 25.5741L56.128 25.496L55.9362 25.4179L55.7444 25.3397C55.5909 25.3007 55.4759 25.2616 55.3224 25.2225C55.1689 25.1835 55.0155 25.1444 54.862 25.1444C54.7086 25.1053 54.5551 25.1053 54.3633 25.1053C54.2098 25.0272 54.018 25.0272 53.8646 25.0272ZM85.8218 32.4888C85.8986 32.3716 85.9369 32.2544 86.0137 32.1372C86.052 32.02 86.1288 31.9028 86.1671 31.7856C86.2055 31.6684 86.2439 31.5121 86.2822 31.3949C86.3206 31.2778 86.3589 31.1215 86.3589 30.9652L86.4357 30.6136H88.0086L87.9319 31.0824V31.3559L87.8935 31.5903L87.8168 31.8247L87.7401 32.0591L87.6633 32.2935L87.5866 32.5279L87.4715 32.7623L87.3564 32.9185L87.2413 33.1529L87.0879 33.3873L86.9344 33.5826L86.7809 33.778L86.6275 33.9733L86.4357 34.1686L86.2439 34.364L86.052 34.5593C85.9753 34.5984 85.8986 34.6765 85.8218 34.7155L85.5917 34.8718L85.3615 35.0281L85.1313 35.1843L84.8627 35.3015L84.6326 35.4578L84.364 35.575L84.0955 35.6922C83.9036 35.7703 83.7118 35.8094 83.52 35.8875C83.3282 35.9266 83.098 35.9657 82.9062 36.0047C82.676 36.0438 82.4842 36.0829 82.254 36.0829C82.0238 36.0829 81.7936 36.1219 81.5634 36.1219H81.2182L80.8729 36.0829C80.7578 36.0829 80.6427 36.0438 80.5276 36.0438C80.4125 36.0438 80.2974 36.0047 80.1823 36.0047C80.0672 36.0047 79.9521 35.9657 79.837 35.9657C79.722 35.9266 79.6069 35.9266 79.4918 35.8875C79.3767 35.8485 79.2616 35.8485 79.1849 35.8094C79.0698 35.7703 78.9547 35.7313 78.8779 35.6922C78.6861 35.6531 78.571 35.6141 78.4943 35.575C78.3792 35.5359 78.3025 35.4969 78.1874 35.4578C78.0723 35.4187 77.9956 35.3797 77.8805 35.3015C77.8037 35.2625 77.6887 35.1843 77.6119 35.1453C77.5352 35.1062 77.4201 35.0281 77.3434 34.989C77.2667 34.9499 77.1516 34.8718 77.0748 34.7937C76.9981 34.7155 76.9214 34.6765 76.8063 34.5983C76.7296 34.5202 76.6528 34.4812 76.5761 34.403C76.4994 34.3249 76.4226 34.2468 76.3459 34.1686C76.2692 34.0905 76.1925 34.0124 76.1157 33.9342C76.039 33.8561 75.9623 33.778 75.9239 33.6998C75.8472 33.6217 75.8088 33.5436 75.7321 33.4654C75.6554 33.3873 75.617 33.3092 75.5403 33.192C75.5019 33.1138 75.4252 32.9967 75.3868 32.9185C75.3484 32.8404 75.2717 32.7232 75.2334 32.6451C75.195 32.5669 75.1566 32.4497 75.0799 32.3325C75.0415 32.2153 75.0032 32.1372 74.9648 32.02C74.9264 31.9809 74.8881 31.8637 74.8497 31.7465C74.8114 31.6293 74.773 31.5512 74.773 31.434C74.7346 31.3168 74.7346 31.1996 74.6963 31.1215C74.6579 31.0043 74.6579 30.8871 74.6579 30.7699C74.6579 30.6527 74.6195 30.5355 74.6195 30.4183C74.6195 30.3011 74.5812 30.1839 74.5812 30.0667C74.5812 29.9495 74.5812 29.8323 74.5812 29.7151C74.5812 29.5198 74.5812 29.3245 74.6195 29.1291C74.6195 28.9338 74.6579 28.7385 74.6963 28.5431L74.773 28.2697C74.8114 28.1915 74.8114 28.0744 74.8497 27.9962L74.9264 27.7228C74.9648 27.6446 75.0032 27.5274 75.0415 27.4493C75.0799 27.3712 75.1183 27.254 75.1566 27.1758C75.195 27.0977 75.2334 26.9805 75.2717 26.9024C75.3101 26.8242 75.3484 26.707 75.4252 26.6289C75.4635 26.5508 75.5403 26.4336 75.5786 26.3555C75.617 26.2773 75.6937 26.1992 75.7321 26.082C75.8088 26.0039 75.8472 25.9257 75.9239 25.8476C76.0006 25.7695 76.039 25.6913 76.1157 25.6132C76.1925 25.5351 76.2692 25.4569 76.3076 25.3788C76.3843 25.3007 76.461 25.2225 76.5377 25.1444C76.6145 25.0663 76.6912 24.9881 76.7679 24.91C76.8447 24.8319 76.9214 24.7538 77.0365 24.7147C77.1132 24.6366 77.2283 24.5975 77.305 24.5194C77.3817 24.4412 77.4968 24.4022 77.5736 24.324C77.6503 24.285 77.7654 24.2068 77.8805 24.1678C77.9956 24.1287 78.0723 24.0506 78.1874 24.0115C78.2641 23.9334 78.3792 23.8943 78.4943 23.8552C78.6094 23.8162 78.7245 23.7771 78.8396 23.738C78.9547 23.699 79.0698 23.6599 79.1849 23.6208C79.2999 23.5818 79.415 23.5427 79.5301 23.5427C79.6452 23.5036 79.7603 23.5036 79.9138 23.4646C80.0289 23.4255 80.1823 23.4255 80.2974 23.3864C80.4509 23.3864 80.566 23.3474 80.6811 23.3474C80.7962 23.3474 80.9496 23.3474 81.1031 23.3083C81.2565 23.3083 81.3716 23.3083 81.5251 23.3083C81.7169 23.3083 81.9087 23.3083 82.1005 23.3083C82.2924 23.3083 82.4842 23.3474 82.676 23.3474C82.8678 23.3864 83.0213 23.3864 83.2131 23.4255C83.4049 23.4646 83.5584 23.5036 83.7118 23.5427C83.8653 23.5818 84.0571 23.6208 84.2106 23.699C84.364 23.738 84.5175 23.8162 84.6709 23.8943C84.8244 23.9724 84.9778 24.0506 85.1313 24.0896C85.2848 24.1678 85.4382 24.2459 85.5533 24.324C85.7068 24.4022 85.8218 24.5194 85.9753 24.5975C86.0904 24.7147 86.2439 24.7928 86.3589 24.91C86.474 25.0272 86.5891 25.1444 86.7042 25.2616C86.8193 25.3788 86.896 25.496 87.0111 25.6523C87.0879 25.7695 87.203 25.9257 87.2797 26.0429C87.3564 26.1992 87.4331 26.3164 87.5099 26.4727C87.5866 26.6289 87.625 26.7852 87.7017 26.9414C87.7401 27.0977 87.8168 27.254 87.8551 27.4493L87.9702 27.9572H86.3589L86.1671 27.6837C86.1288 27.5665 86.0904 27.4493 86.052 27.3321C86.0137 27.2149 85.9753 27.0977 85.8986 27.0196C85.8602 26.9024 85.7835 26.8242 85.7451 26.707C85.6684 26.6289 85.63 26.5117 85.5533 26.4336C85.4766 26.3555 85.3998 26.2773 85.3231 26.1601C85.2464 26.082 85.1697 26.0039 85.0929 25.9257C85.0162 25.8476 84.9011 25.7695 84.8244 25.6913C84.7093 25.6132 84.6326 25.5741 84.5175 25.496C84.4024 25.4179 84.2873 25.3788 84.1722 25.3007C84.0571 25.2616 83.942 25.1835 83.8269 25.1444C83.7118 25.1053 83.5967 25.0663 83.4816 25.0272C83.3665 24.9881 83.2515 24.9491 83.098 24.91C82.9829 24.871 82.8294 24.8319 82.7144 24.8319C82.5993 24.7928 82.4458 24.7928 82.3307 24.7538C82.1773 24.7538 82.0622 24.7147 81.9087 24.7147C81.7553 24.7147 81.6402 24.7147 81.4867 24.7147H81.1798H80.8729L80.6043 24.7538L80.3358 24.7928L80.0672 24.8319C79.9905 24.871 79.8754 24.871 79.7987 24.91L79.5301 24.9881C79.4534 25.0272 79.3767 25.0272 79.2616 25.0663L79.0314 25.1835C78.9547 25.2225 78.8779 25.2616 78.8012 25.3007L78.6094 25.496L78.3792 25.6132L78.1874 25.7695L77.9956 25.8867L77.8038 26.0429L77.6119 26.1992L77.4585 26.3945L77.305 26.5898L77.1516 26.7852L76.9981 26.9805L76.883 27.1758L76.7679 27.3712L76.6528 27.5665L76.5377 27.8009L76.461 28.0353L76.3843 28.2697L76.3076 28.5041L76.2692 28.7385L76.2308 28.9729L76.1925 29.2073V29.4417V29.7151C76.1925 29.9104 76.1925 30.0667 76.2308 30.223L76.2692 30.4574L76.3076 30.6918L76.3459 30.9262L76.4226 31.1606L76.4994 31.3949L76.5761 31.6293L76.6528 31.8247L76.7679 32.02L76.883 32.2153L76.9981 32.4107L77.1132 32.606L77.2667 32.8013L77.4201 32.9966L77.5736 33.1529C77.6119 33.192 77.6887 33.2701 77.7654 33.3092C77.8421 33.3482 77.8805 33.4264 77.9572 33.4654L78.149 33.6217L78.3409 33.7389L78.571 33.8561L78.8012 33.9733L79.0314 34.0905L79.2616 34.2077L79.5301 34.2858L79.7987 34.364L80.0289 34.4812C80.1056 34.5202 80.2207 34.5202 80.2974 34.5202L80.6043 34.5593L80.9112 34.5983H81.2182H81.5251C81.6785 34.5983 81.8703 34.5983 81.9854 34.5983C82.1389 34.5983 82.2924 34.5593 82.4458 34.5593C82.5993 34.5202 82.7527 34.5202 82.8678 34.4812C83.0213 34.4421 83.1364 34.403 83.2898 34.364C83.4049 34.3249 83.5584 34.2858 83.6735 34.2077C83.7886 34.1686 83.942 34.0905 84.0571 34.0514C84.1722 33.9733 84.2873 33.9342 84.4024 33.8561C84.5175 33.778 84.6326 33.6998 84.7477 33.6217C84.8627 33.5436 84.9395 33.4654 85.0546 33.3873C85.1697 33.3092 85.2464 33.192 85.3231 33.1138C85.3998 33.0357 85.4766 32.9185 85.5533 32.8013C85.6684 32.7232 85.7451 32.606 85.8218 32.4888ZM89.6583 35.8485H88.1237L91.1928 29.5979L94.1852 23.5427H95.5663L95.6047 23.5818C97.0242 26.5117 98.4436 29.3245 99.8247 32.1763L101.628 35.8094H99.8247L97.9833 32.1372H91.6916L89.8884 35.8094H89.6583V35.8485ZM97.2544 30.6918L94.8374 25.7304L92.4205 30.6918H97.2544ZM104.582 25.0272H99.6329V23.5427H111.142V25.0272H106.193V35.8485H104.582V25.0272ZM113.137 35.8485H111.948V23.5427H113.559V35.8485H113.137ZM116.705 28.7385L116.667 28.9729L116.628 29.2073V29.4417V29.6761C116.628 29.8323 116.628 29.9886 116.667 30.1448L116.705 30.3792L116.743 30.6136L116.782 30.848L116.858 31.0824L116.935 31.3168L117.012 31.5512L117.05 31.7465L117.165 31.9419L117.28 32.1372L117.395 32.3325L117.511 32.5279L117.664 32.7232L117.818 32.9185L117.971 33.1138L118.163 33.2701L118.355 33.4264L118.546 33.5826L118.738 33.7389L118.968 33.8561L119.199 33.9733L119.429 34.0905L119.659 34.2077C119.812 34.2858 120.004 34.3249 120.196 34.403C120.388 34.4421 120.541 34.4812 120.733 34.5202C120.925 34.5593 121.117 34.5983 121.309 34.5983C121.5 34.5983 121.731 34.6374 121.922 34.6374H122.229L122.536 34.5983C122.651 34.5983 122.728 34.5593 122.843 34.5593L123.15 34.5202L123.419 34.4812C123.495 34.4421 123.61 34.4421 123.687 34.403C123.764 34.364 123.879 34.364 123.956 34.3249L124.224 34.2468L124.454 34.1296C124.531 34.0905 124.608 34.0514 124.685 34.0124L124.915 33.8952L125.145 33.778L125.337 33.6217L125.529 33.4654L125.721 33.3092C125.797 33.2701 125.836 33.192 125.912 33.1529L126.066 32.9576L126.219 32.7623L126.373 32.5669L126.488 32.3716L126.603 32.1763L126.718 31.9809L126.833 31.7465L126.91 31.5512L126.987 31.3168L127.063 31.0824L127.14 30.848L127.178 30.6136L127.217 30.4183L127.255 30.1839V29.9495V29.7151V29.4807V29.2463L127.217 28.9729L127.178 28.7385L127.14 28.5041L127.063 28.2697L126.987 28.0353L126.91 27.84L126.833 27.6446L126.718 27.4493L126.603 27.254L126.488 27.0586L126.373 26.8633L126.219 26.668L126.066 26.4336L125.874 26.2773L125.682 26.1211L125.49 25.9648L125.299 25.8085L125.107 25.6523L124.915 25.496L124.685 25.3788L124.454 25.2616L124.224 25.1444C124.148 25.1053 124.071 25.0663 123.956 25.0663C123.879 25.0272 123.802 25.0272 123.687 24.9881C123.61 24.9491 123.495 24.9491 123.419 24.91C123.342 24.871 123.227 24.871 123.15 24.871L122.843 24.8319C122.766 24.8319 122.651 24.7928 122.536 24.7928H122.229H121.922H121.616H121.309C121.194 24.7928 121.117 24.8319 121.002 24.8319C120.887 24.8319 120.81 24.871 120.695 24.871L120.426 24.91C120.35 24.9491 120.234 24.9491 120.158 24.9881C120.081 25.0272 119.966 25.0272 119.889 25.0663L119.621 25.1444C119.467 25.2225 119.275 25.3007 119.122 25.3788C118.968 25.4569 118.815 25.5351 118.7 25.6523C118.546 25.7304 118.431 25.8476 118.316 25.9257C118.201 26.0429 118.086 26.1211 117.971 26.2383L117.818 26.4336L117.664 26.6289L117.511 26.8242L117.395 27.0196L117.242 27.2149C117.204 27.293 117.165 27.3321 117.127 27.4102L117.012 27.6056L116.935 27.84L116.858 28.0744L116.782 28.3087L116.705 28.5431V28.7385ZM115.094 30.7308L115.055 30.4574L115.017 30.1839V29.9104V29.6761V29.4417V29.1682L115.055 28.8947L115.094 28.6213L115.132 28.3478L115.209 28.0744L115.285 27.8009L115.362 27.5274C115.401 27.4493 115.439 27.3321 115.477 27.254C115.516 27.1758 115.554 27.0586 115.592 26.9805C115.631 26.9024 115.669 26.7852 115.707 26.707C115.746 26.6289 115.784 26.5117 115.861 26.4336C115.899 26.3555 115.976 26.2773 116.014 26.1601C116.053 26.082 116.129 26.0039 116.168 25.8867L116.36 25.6523L116.551 25.4179C116.628 25.3397 116.705 25.2616 116.782 25.1835C116.858 25.1053 116.935 25.0272 117.012 24.9491C117.089 24.871 117.165 24.7928 117.28 24.7147C117.357 24.6366 117.472 24.5584 117.549 24.5194C117.626 24.4412 117.741 24.4022 117.818 24.324C117.894 24.2459 118.009 24.2068 118.124 24.1287C118.24 24.0896 118.316 24.0115 118.431 23.9724C118.546 23.9334 118.662 23.8552 118.777 23.8162C119.007 23.699 119.237 23.6208 119.506 23.5427C119.736 23.4646 120.004 23.3864 120.273 23.3474C120.541 23.3083 120.81 23.2693 121.117 23.2302C121.385 23.1911 121.692 23.1911 121.999 23.1911C122.153 23.1911 122.306 23.1911 122.46 23.1911C122.613 23.1911 122.766 23.1911 122.882 23.2302C123.035 23.2302 123.15 23.2693 123.304 23.2693C123.457 23.3083 123.572 23.3083 123.726 23.3474C123.879 23.3864 123.994 23.3864 124.109 23.4255C124.224 23.4646 124.378 23.5036 124.493 23.5427C124.608 23.5818 124.723 23.6208 124.838 23.6599C124.953 23.699 125.068 23.738 125.183 23.8162C125.299 23.8552 125.414 23.9334 125.529 23.9724C125.644 24.0115 125.759 24.0896 125.836 24.1287C125.951 24.2068 126.027 24.2459 126.143 24.324C126.258 24.4022 126.334 24.4412 126.411 24.5194C126.488 24.5975 126.603 24.6366 126.68 24.7147C126.756 24.7928 126.833 24.871 126.948 24.9491C127.025 25.0272 127.102 25.1053 127.178 25.1835C127.255 25.2616 127.332 25.3397 127.409 25.4179L127.6 25.6523L127.792 25.8867L127.946 26.1601L128.099 26.4336L128.253 26.707L128.368 26.9805C128.406 27.0586 128.444 27.1758 128.483 27.254L128.598 27.5274C128.675 27.7228 128.713 27.879 128.751 28.0744C128.79 28.2697 128.828 28.4259 128.866 28.5822C128.905 28.7385 128.905 28.9338 128.943 29.0901C128.943 29.2463 128.981 29.4417 128.981 29.5979V29.8323V30.1058L128.943 30.3792L128.905 30.6527L128.713 30.9652L128.636 31.2387L128.559 31.5121L128.483 31.7856C128.444 31.8637 128.406 31.9809 128.368 32.0591L128.253 32.3325L128.137 32.606L127.984 32.8795L127.831 33.1529L127.677 33.4264L127.485 33.6608L127.293 33.8952C127.217 33.9733 127.14 34.0514 127.063 34.1296C126.987 34.2077 126.91 34.2858 126.833 34.364C126.756 34.4421 126.68 34.5202 126.565 34.5983C126.488 34.6765 126.411 34.7546 126.296 34.7937C126.219 34.8718 126.104 34.9109 126.027 34.989C125.951 35.0671 125.836 35.1062 125.721 35.1843C125.605 35.2625 125.529 35.3015 125.414 35.3406C125.299 35.3797 125.183 35.4578 125.068 35.4969C124.838 35.6141 124.608 35.6922 124.339 35.7703C124.109 35.8485 123.841 35.9266 123.572 35.9657C123.304 36.0047 123.035 36.0438 122.728 36.0829C122.46 36.1219 122.153 36.1219 121.846 36.1219C121.539 36.1219 121.232 36.1219 120.963 36.0829C120.81 36.0829 120.695 36.0438 120.541 36.0438C120.388 36.0438 120.273 36.0047 120.119 35.9657C120.004 35.9266 119.851 35.9266 119.736 35.8875C119.621 35.8485 119.467 35.8094 119.352 35.7703C119.237 35.7313 119.122 35.6922 119.007 35.6531C118.892 35.6141 118.777 35.575 118.662 35.4969C118.546 35.4578 118.431 35.3797 118.316 35.3406C118.201 35.3015 118.086 35.2234 118.009 35.1843C117.894 35.1062 117.818 35.0671 117.702 34.989C117.587 34.9109 117.511 34.8718 117.434 34.7937C117.357 34.7155 117.242 34.6374 117.165 34.5983C117.089 34.5202 117.012 34.4421 116.935 34.364C116.858 34.2858 116.782 34.2077 116.705 34.1296C116.628 34.0514 116.551 33.9733 116.475 33.8952L116.283 33.6608L116.091 33.4264L115.938 33.192L115.784 32.9185C115.784 32.7623 115.746 32.6841 115.707 32.606C115.669 32.5279 115.631 32.4497 115.592 32.3325L115.477 32.0591C115.439 31.9809 115.401 31.8637 115.362 31.7856L115.285 31.5121L115.209 31.2387L115.132 30.9652L115.094 30.7308ZM131.552 35.8485H130.363V23.5427H131.935L140.567 33.3482V23.5427H142.179V35.8485H140.606L131.974 26.0429V35.8485H131.552ZM104.16 9.7134L108.533 4.7911H110.643L105.234 10.9244L110.643 17.0578H108.533L104.16 12.1355L99.7864 17.0578H97.6764L103.086 10.9244L97.6764 4.7911H99.7864L104.16 9.7134ZM55.4758 6.23653H50.6036V10.5338C52.2916 10.5338 55.0538 10.8463 56.857 10.3775L56.9721 10.3384L57.0871 10.2994L57.2022 10.2603L57.3173 10.2213L57.4324 10.1822L57.5475 10.1431L57.6626 10.065L57.7393 9.98686L57.8161 9.90873L57.8928 9.83059L57.9695 9.75246L58.0462 9.67433L58.123 9.5962L58.1997 9.51807L58.2381 9.40087C58.2764 9.32274 58.3148 9.24461 58.3148 9.16647C58.3532 9.08834 58.3532 9.01021 58.3915 8.93208C58.3915 8.85395 58.4299 8.73675 58.4299 8.65862C58.4299 8.58049 58.4299 8.46329 58.4299 8.34609V8.15076V7.95543L58.3915 7.79917L58.3532 7.6429L58.2381 7.52571L58.1997 7.40851L58.1613 7.29131L58.0846 7.17411L58.0079 7.05692L57.9312 6.93972L57.8544 6.86159L57.7777 6.78346L57.701 6.70532L57.6242 6.62719L57.5475 6.58813L57.4708 6.54906C57.3941 6.50999 57.3173 6.47093 57.2406 6.47093C57.1639 6.43186 57.0871 6.43186 57.0104 6.3928C56.9337 6.35373 56.857 6.35373 56.7802 6.35373C56.7035 6.35373 56.6268 6.31467 56.55 6.31467L56.3199 6.2756H56.0513H55.7828L55.4758 6.23653ZM50.22 17.0578H49.0307V4.7911H55.8595C56.0513 4.7911 56.2431 4.7911 56.4349 4.83016L56.8186 4.86923L57.0104 4.9083L57.1639 4.94736L57.3557 4.98643C57.4708 5.02549 57.5859 5.02549 57.701 5.06456C57.8161 5.10362 57.9311 5.14269 58.0462 5.18176C58.0462 5.18176 58.1613 5.22082 58.2764 5.29895C58.3915 5.33802 58.4683 5.41615 58.5833 5.49428C58.6984 5.57241 58.7752 5.65055 58.8903 5.72868C59.0053 5.80681 59.0821 5.88494 59.1588 6.00214C59.2355 6.08027 59.3123 6.19747 59.389 6.31467C59.4657 6.43186 59.5424 6.54906 59.5808 6.66626C59.6575 6.78346 59.6959 6.90065 59.7343 7.05692C59.7726 7.17411 59.811 7.33038 59.8494 7.48664C59.8877 7.6429 59.8877 7.79917 59.9261 7.95543C59.9261 8.1117 59.9644 8.26796 59.9644 8.46329C59.9644 8.58049 59.9644 8.73675 59.9644 8.85395C59.9644 8.97114 59.9261 9.12741 59.9261 9.24461C59.8877 9.3618 59.8877 9.479 59.8494 9.5962C59.811 9.7134 59.7726 9.83059 59.7343 9.94779C59.6959 10.065 59.6192 10.1822 59.5808 10.2603C59.5424 10.3775 59.4657 10.4556 59.389 10.5728C59.3123 10.651 59.2355 10.7682 59.1588 10.8463C59.0821 10.9244 59.0053 11.0416 58.8903 11.1198C58.8135 11.1979 58.6984 11.276 58.5833 11.3542C58.4683 11.4323 58.3532 11.5104 58.2764 11.5495C58.1613 11.6276 58.0462 11.6667 57.9312 11.7058C57.8161 11.7448 57.6626 11.7839 57.5475 11.823C57.4324 11.862 57.279 11.9011 57.1255 11.9402C56.972 11.9792 56.8186 11.9792 56.7035 12.0183C56.55 12.0183 56.3966 12.0573 56.2431 12.0573C56.0897 12.0573 55.8979 12.0573 55.7444 12.0573H50.642V17.0968H50.22V17.0578ZM36.5623 14.6748C36.524 14.5576 36.4473 14.4013 36.4089 14.245C36.3705 14.0888 36.3322 13.9325 36.2938 13.8153C36.2554 13.659 36.2554 13.5028 36.2171 13.3465C36.2171 13.1903 36.1787 13.034 36.1787 12.8387V12.448H37.79V12.8777C37.79 12.9949 37.79 13.1121 37.8284 13.2293C37.8284 13.3465 37.8667 13.4637 37.8667 13.5809C37.9051 13.6981 37.9051 13.7762 37.9435 13.8934C37.9818 14.0106 38.0202 14.0888 38.0586 14.1669C38.0969 14.245 38.1353 14.3232 38.212 14.4404C38.2504 14.5185 38.3271 14.5966 38.3655 14.6748C38.4422 14.7529 38.4806 14.831 38.5573 14.9092C38.634 14.9873 38.7107 15.0264 38.7875 15.1045C38.8642 15.1826 38.9793 15.2217 39.056 15.2998C39.1711 15.3389 39.2478 15.417 39.3629 15.4561C39.478 15.4951 39.5931 15.5342 39.7082 15.5733C39.8233 15.6123 39.9768 15.6514 40.0918 15.6905C40.2453 15.7295 40.3604 15.7686 40.5139 15.7686C40.6673 15.8077 40.8208 15.8077 40.9742 15.8467C41.1277 15.8467 41.3195 15.8858 41.5113 15.8858C41.7031 15.8858 41.8566 15.8858 42.0868 15.8858H42.3553H42.6239H42.8541L43.0842 15.8467L43.3144 15.8077L43.5446 15.7686L43.7364 15.7295L43.9283 15.6905L44.1201 15.6514L44.2735 15.6123L44.427 15.5733L44.5804 15.4951L44.6955 15.417L44.8106 15.3389L44.9257 15.2607L45.0408 15.1826L45.1559 15.1045L45.2326 15.0264L45.3094 14.9482L45.3861 14.8701L45.4628 14.792L45.5395 14.7138L45.5779 14.6357L45.6163 14.5576C45.6546 14.4794 45.6546 14.4404 45.693 14.3622C45.7314 14.2841 45.7314 14.245 45.7314 14.1669C45.7314 14.0888 45.7697 14.0497 45.7697 13.9716C45.7697 13.8934 45.7697 13.8153 45.7697 13.7762C45.7697 13.5419 45.7314 13.3075 45.6546 13.0731L45.5779 12.9559L45.5395 12.9168L45.4628 12.7996L45.5012 12.6824C45.4245 12.6043 45.3861 12.5652 45.3094 12.5261L45.2326 12.4871L45.1175 12.4089L45.0024 12.3699L44.8874 12.3308C44.7723 12.2917 44.6188 12.2136 44.5037 12.1745L44.1584 12.0573L43.8132 11.9792L43.3912 11.9011L42.9308 11.823L40.6289 11.3542C40.4371 11.3151 40.2837 11.276 40.1302 11.237C39.9768 11.1979 39.8233 11.1588 39.6698 11.1198C39.5164 11.0807 39.3629 11.0416 39.2478 11.0026C39.0944 10.9635 38.9793 10.9244 38.8642 10.8854C38.7491 10.8463 38.5956 10.8072 38.4806 10.7291C38.3655 10.69 38.2504 10.6119 38.1353 10.5728C38.0202 10.5338 37.9435 10.4556 37.8284 10.4166C37.7516 10.3775 37.6365 10.2994 37.5598 10.2213C37.4064 10.1041 37.2529 9.94779 37.1378 9.79153C37.0227 9.63526 36.9076 9.43993 36.8309 9.24461C36.7542 9.04928 36.6774 8.85395 36.6391 8.61955C36.6007 8.38516 36.5623 8.18983 36.5623 7.91637C36.5623 7.79917 36.5624 7.68197 36.6007 7.52571C36.6007 7.40851 36.6391 7.29131 36.6774 7.17411C36.7158 7.05692 36.7542 6.93972 36.7925 6.82252C36.8309 6.70532 36.9076 6.58813 36.946 6.50999C36.9844 6.3928 37.0611 6.31467 37.1378 6.19747C37.2145 6.08027 37.2913 6.00214 37.368 5.92401C37.4447 5.84588 37.5598 5.72868 37.6365 5.65055C37.7516 5.57241 37.8284 5.49428 37.9435 5.41615C38.0585 5.33802 38.1736 5.25989 38.2887 5.22082C38.4038 5.14269 38.5573 5.10362 38.6724 5.02549C38.8258 4.98643 38.9409 4.90829 39.0944 4.86923C39.2478 4.83016 39.4013 4.7911 39.5547 4.75203C39.7082 4.71296 39.8617 4.6739 40.0151 4.6739C40.1686 4.63483 40.3604 4.63483 40.5139 4.59577C40.7057 4.59577 40.8591 4.5567 41.0509 4.5567C41.2428 4.5567 41.4346 4.5567 41.6264 4.5567C41.8182 4.5567 42.0101 4.5567 42.2402 4.5567C42.4321 4.5567 42.6239 4.59577 42.8157 4.59577C43.0075 4.59577 43.1993 4.63483 43.3528 4.6739C43.5446 4.71296 43.6981 4.75203 43.8515 4.7911C44.005 4.83016 44.1968 4.86923 44.3503 4.9083C44.5037 4.94736 44.6572 5.02549 44.8106 5.06456C44.9641 5.10362 45.0792 5.18176 45.2326 5.25989C45.3477 5.33802 45.5012 5.41615 45.6163 5.49428C45.7314 5.57241 45.8465 5.65055 45.9616 5.76774C46.0766 5.84587 46.1917 5.96307 46.2685 6.0412C46.3836 6.1584 46.4603 6.23653 46.537 6.35373C46.6137 6.47093 46.6905 6.58813 46.7672 6.70532C46.8439 6.82252 46.8823 6.97879 46.959 7.09598C46.9974 7.21318 47.0357 7.36944 47.0741 7.52571C47.1125 7.68197 47.1508 7.83823 47.1508 7.95543C47.1892 8.1117 47.1892 8.26796 47.1892 8.42422V8.85395H45.5779C45.5779 8.69768 45.5395 8.50235 45.5395 8.34609L45.5012 8.1117L45.4628 7.9945L45.3861 7.7601L45.3477 7.6429L45.3094 7.52571L45.271 7.40851L45.2326 7.29131L45.1559 7.21318L45.0792 7.09598L45.0024 7.01785L44.9257 6.93972L44.849 6.86159L44.7339 6.78346V6.70532L44.6188 6.62719L44.5037 6.54906L44.3503 6.47093L44.1968 6.3928L44.0433 6.35373L43.8899 6.2756L43.6981 6.19747L43.5063 6.1584L43.3144 6.11934L43.0842 6.08027L42.8541 6.0412L42.6239 6.00214H42.3937H42.1251H41.8566C41.6648 6.00214 41.5113 6.00214 41.3579 6.00214C41.2044 6.00214 41.0509 6.00214 40.8975 6.0412L40.7057 6.08027L40.5139 6.11934L40.322 6.1584L40.1302 6.19747L39.9768 6.23653H39.7466L39.5931 6.2756L39.478 6.35373L39.3629 6.3928L39.2478 6.43186L39.1327 6.50999L38.9793 6.58813L38.9026 6.66626L38.8258 6.74439L38.7491 6.82252L38.6724 6.90065L38.5956 6.93972L38.5573 7.01785L38.5189 7.09598L38.4806 7.17411L38.4422 7.25225L38.4038 7.33038L38.3655 7.40851L38.3271 7.52571V7.60384V7.72104C38.3271 7.79917 38.3271 7.83823 38.3271 7.91637C38.3271 7.9945 38.3271 8.03356 38.3271 8.1117C38.3271 8.18983 38.3271 8.22889 38.3655 8.26796C38.3655 8.30702 38.4038 8.38516 38.4038 8.42422C38.4038 8.46329 38.4422 8.54142 38.4422 8.58049C38.4422 8.61955 38.4806 8.65862 38.5189 8.69768C38.5573 8.73675 38.5573 8.77582 38.5956 8.81488C38.634 8.85395 38.6724 8.89301 38.6724 8.93208C38.7107 8.97114 38.7491 9.01021 38.7875 9.04928C38.8258 9.08834 38.8642 9.12741 38.9026 9.12741C38.9409 9.16647 39.0177 9.20554 39.056 9.20554C39.1327 9.24461 39.1711 9.28367 39.2478 9.28367C39.3246 9.32274 39.4013 9.3618 39.478 9.3618C39.5547 9.40087 39.6698 9.43993 39.7849 9.43993C39.9 9.479 39.9768 9.51807 40.0918 9.51807L40.4371 9.5962L40.8208 9.67433L43.3528 10.1431C43.5063 10.1822 43.6597 10.2213 43.8132 10.2213C43.9666 10.2603 44.1201 10.2994 44.2735 10.3384C44.427 10.3775 44.5421 10.4166 44.6955 10.4556C44.849 10.4947 44.9641 10.5338 45.0792 10.5728C45.1943 10.6119 45.3094 10.651 45.4628 10.7291C45.5779 10.7682 45.693 10.8463 45.8081 10.8854C45.9232 10.9244 45.9999 11.0026 46.115 11.0416C46.2301 11.0807 46.3068 11.1588 46.3836 11.237C46.4603 11.3151 46.5754 11.3932 46.6521 11.4323C46.7288 11.5104 46.8056 11.5886 46.8823 11.6667C46.959 11.7448 46.9974 11.823 47.0741 11.9402C47.1508 12.0183 47.1892 12.1355 47.2276 12.2136C47.2659 12.2917 47.3043 12.4089 47.3427 12.5261C47.381 12.6433 47.4194 12.7215 47.4194 12.8387C47.4578 12.9559 47.4578 13.0731 47.4578 13.1903C47.4578 13.3075 47.4578 13.4247 47.4578 13.5419V13.6981V13.8934L47.4194 14.0497L47.381 14.206L47.4194 14.5185L47.381 14.6748L47.3043 14.831L47.2276 14.9873L47.1508 15.1436L47.0741 15.3389L46.959 15.4951L46.8439 15.6514L46.7288 15.8077L46.6137 15.9639L46.4603 16.0811L46.3068 16.1983L46.1534 16.3155L45.9616 16.4327L45.7697 16.5499L45.5779 16.6671L45.3477 16.7453L45.1175 16.8234L44.8874 16.9015L44.6188 16.9796L44.3503 17.0578L44.0817 17.0968L43.7748 17.1359L43.4679 17.175L43.1993 17.2922H42.8924H42.5472H42.2019H41.8566H41.5113H41.1277L40.7824 17.2531L40.4755 17.214L40.1686 17.175L39.8617 17.0968L39.5547 17.0187L39.2862 16.9406L39.0177 16.8624L38.7491 16.7843C38.6724 16.7453 38.5956 16.7062 38.5189 16.6671C38.4422 16.6281 38.3655 16.589 38.2887 16.5499C38.212 16.5109 38.1353 16.4718 38.0586 16.4327C37.9818 16.3937 37.9051 16.3546 37.8667 16.3155C37.79 16.2374 37.7133 16.1593 37.6749 16.1202C37.5982 16.0811 37.5598 16.003 37.4831 15.9639C37.4447 15.9249 37.368 15.8467 37.3296 15.8077L37.1762 15.6514C37.1378 15.5733 37.0611 15.5342 37.0227 15.4561C36.9844 15.417 36.946 15.3389 36.9076 15.2607C36.8693 15.1826 36.8309 15.1436 36.7925 15.0654C36.7542 14.9873 36.7158 14.9482 36.6774 14.8701C36.6007 14.831 36.6007 14.7529 36.5623 14.6748ZM72.1259 17.0578H61.3456V4.7911H72.1259V6.2756H62.9568V9.98686H72.1259V11.4323H62.9568V15.5733H72.1259V17.0578ZM84.6326 17.0578H73.8523V4.7911H84.6326V6.2756H75.4635V9.98686H84.6326V11.4323H75.4635V15.5733H84.6326V17.0578ZM97.1393 17.0578H86.3589V4.7911H97.1393V6.2756H87.9702V9.98686H97.1393V11.4323H87.9702V15.5733H97.1393V17.0578ZM62.765 34.8718C62.4965 34.6765 62.3047 34.4421 62.1128 34.1686C61.921 33.8952 61.7676 33.6217 61.6525 33.3092C61.5374 32.9966 61.4223 32.6841 61.3839 32.2935C61.3072 31.9419 61.3072 31.5512 61.3072 31.1606V23.5427H62.9185V31.1606C62.9185 31.3168 62.9185 31.4731 62.9185 31.5903C62.9185 31.7465 62.9568 31.8637 62.9568 31.9809C62.9952 32.0981 62.9952 32.2153 63.0336 32.3325C63.0719 32.4497 63.1103 32.5669 63.1487 32.6841C63.187 32.8013 63.2254 32.8795 63.2638 32.9966C63.3021 33.0748 63.3789 33.192 63.4172 33.2701C63.4939 33.3482 63.5323 33.4264 63.609 33.5045C63.6858 33.5826 63.7625 33.6608 63.8392 33.7389C63.9159 33.817 63.9927 33.8952 64.1078 33.9342C64.1845 34.0124 64.2996 34.0514 64.4147 34.0905C64.5298 34.1296 64.6449 34.2077 64.76 34.2468C64.875 34.2858 64.9901 34.3249 65.1436 34.364C65.2971 34.403 65.4122 34.4421 65.5656 34.4812C65.7191 34.5202 65.8725 34.5202 66.0643 34.5593C66.2178 34.5593 66.4096 34.5983 66.6014 34.5983C66.7933 34.5983 66.9851 34.5983 67.1769 34.5983C67.5605 34.5983 67.9442 34.5593 68.2895 34.5593C68.6347 34.5202 68.9416 34.4812 69.2102 34.403C69.3636 34.364 69.4787 34.3249 69.5938 34.2858C69.7089 34.2468 69.824 34.2077 69.9391 34.1296C70.0542 34.0905 70.1309 34.0124 70.246 33.9733C70.3228 33.8952 70.4378 33.8561 70.5146 33.778C70.5913 33.6998 70.668 33.6217 70.7448 33.5436C70.8215 33.4654 70.8599 33.3873 70.9366 33.3092C71.0133 33.231 71.0517 33.1138 71.09 33.0357C71.1284 32.9576 71.1668 32.8404 71.2051 32.7232C71.2435 32.606 71.2819 32.4888 71.3202 32.3716C71.3586 32.2544 71.3586 32.1372 71.397 32.02C71.4353 31.9028 71.4353 31.7465 71.4353 31.6293C71.4353 31.5121 71.4353 31.3559 71.4353 31.1996V23.5427H73.0466V31.1606C73.0466 31.5512 73.0082 31.9419 72.9699 32.2935C72.8932 32.6451 72.8164 32.9966 72.7013 33.3092C72.5862 33.6217 72.4328 33.8952 72.241 34.1686C72.0491 34.4421 71.819 34.6765 71.5888 34.8718C71.3586 35.0671 71.0517 35.2625 70.7448 35.4187C70.4379 35.575 70.0926 35.6922 69.7473 35.8094C69.402 35.9266 68.98 36.0047 68.5964 36.0438C68.1744 36.0829 67.714 36.1219 67.2536 36.1219C66.2945 36.1219 65.4889 36.0047 64.76 35.8094C64.4147 35.6922 64.0694 35.575 63.7625 35.4187C63.2638 35.2625 62.9952 35.0671 62.765 34.8718Z" fill="white"/>
<defs>
<linearGradient id="paint0_linear_795_1074" x1="-40.3141" y1="77.5573" x2="-12.7938" y2="97.7848" gradientUnits="userSpaceOnUse">
<stop stop-color="#F58634"/>
<stop offset="0.290879" stop-color="#ED7347"/>
<stop offset="0.752316" stop-color="#D94379"/>
<stop offset="1" stop-color="#D02D90"/>
</linearGradient>
</defs>
</svg>
