<svg width="76" height="17" viewBox="0 0 76 17" fill="none" xmlns="http://www.w3.org/2000/svg">
<path d="M11.8745 11.5542C11.9042 12.3248 11.7529 13.0916 11.4329 13.7912C11.113 14.4909 10.6337 15.1033 10.0344 15.5781C8.82573 16.4486 7.37022 16.8958 5.88843 16.852C3.72515 16.8949 1.63138 16.0766 0.0558205 14.5725L0 14.5132L2.5538 11.8959L2.61228 11.9633C3.02755 12.4362 3.53064 12.8215 4.09277 13.0971C4.65491 13.3727 5.26509 13.5332 5.88843 13.5695C6.65463 13.5695 7.9405 13.3592 7.9405 11.9519C7.9405 10.829 6.84003 10.469 4.84245 9.81522L4.79593 9.79972C2.81762 9.15333 0.796109 8.10522 0.796109 5.23456C0.796109 1.78828 3.83568 0.246786 6.84735 0.246786C8.72407 0.257115 10.5356 0.946146 11.9563 2.19L12.0227 2.24796L9.52608 4.91979L9.46627 4.84834C9.13169 4.45462 8.72119 4.13453 8.26004 3.90779C7.79889 3.68105 7.29687 3.55247 6.78488 3.52995C6.29844 3.52995 4.71087 3.63713 4.71087 5.01281C4.71087 5.98273 5.54818 6.29345 7.02743 6.76527C9.07154 7.43862 11.8745 8.35663 11.8745 11.5542ZM52.3546 1.92039C52.3565 2.18199 52.3026 2.44092 52.1964 2.67934C52.0955 2.91063 51.9505 3.11939 51.7697 3.2936C51.589 3.46781 51.376 3.60403 51.1431 3.69442C50.8987 3.79395 50.6376 3.84475 50.3742 3.84405C50.1134 3.85113 49.8538 3.80461 49.6111 3.70732C49.3685 3.61002 49.1477 3.46394 48.9621 3.27787C48.7799 3.10396 48.6352 2.89358 48.5373 2.66002C48.4394 2.42647 48.3903 2.17484 48.3933 1.92106C48.3926 1.66766 48.4428 1.41677 48.5408 1.18368C48.6366 0.953128 48.7803 0.746225 48.9621 0.577062C49.1484 0.403475 49.362 0.262685 49.5941 0.160513C49.8399 0.0520504 50.1055 -0.0026107 50.3736 9.58133e-05C50.6369 -0.00033372 50.8979 0.0504612 51.1424 0.149729C51.3768 0.241992 51.5914 0.379312 51.7744 0.554142C51.9517 0.727263 52.0947 0.933168 52.1957 1.16076C52.3025 1.39951 52.3563 1.65824 52.3546 1.92039ZM75.0969 8.38629C75.3814 9.20695 75.5198 10.0724 75.5055 10.9422V11.3938C75.5058 11.5361 75.4985 11.6783 75.4836 11.8198H67.5039C67.5295 12.1217 67.6242 12.4134 67.7803 12.6717C67.9373 12.928 68.1402 13.1523 68.3784 13.3329C68.8856 13.7185 69.5023 13.9269 70.1361 13.9268C70.6425 13.9434 71.145 13.8317 71.5981 13.6019C71.9803 13.399 72.3127 13.1118 72.571 12.7614L75.0909 14.379C74.5762 15.1401 73.8703 15.7478 73.0461 16.1389C72.1205 16.5667 71.1118 16.7775 70.0949 16.7556C69.2976 16.7602 68.5053 16.6276 67.7518 16.3634C67.0384 16.1154 66.3808 15.7258 65.8173 15.2175C65.2554 14.704 64.8103 14.0727 64.5128 13.3673C64.1838 12.5729 64.022 11.7175 64.0377 10.8559C64.0261 10.0066 64.1843 9.16374 64.5029 8.3782C64.7922 7.6694 65.2219 7.02841 65.7655 6.49498C66.307 5.97218 66.9459 5.56429 67.6448 5.29522C68.3929 5.0065 69.1875 4.86203 69.9879 4.86924C70.7516 4.8604 71.5097 5.00115 72.2208 5.28377C72.8824 5.5494 73.4785 5.95893 73.9671 6.48353C74.4698 7.0343 74.857 7.68275 75.1055 8.38966L75.0969 8.38629ZM72.1762 9.5355C72.1874 8.98361 71.9941 8.44754 71.6346 8.0331C71.4259 7.81379 71.1721 7.64381 70.8913 7.53524C70.6105 7.42667 70.3095 7.38217 70.0099 7.40491C69.6782 7.40114 69.3486 7.45823 69.037 7.57342C68.7541 7.67844 68.4921 7.83414 68.2635 8.0331C68.0445 8.22405 67.864 8.45613 67.7318 8.71656C67.6012 8.97012 67.5257 9.24916 67.5106 9.53483L72.1762 9.5355ZM61.1058 8.52447C60.7984 8.23211 60.448 7.99015 60.0671 7.80731C59.6736 7.61382 59.2418 7.514 58.8045 7.51545C58.4805 7.51228 58.1597 7.58131 57.8649 7.71766C57.7307 7.77363 57.617 7.87064 57.5397 7.99519C57.4624 8.11975 57.4253 8.26565 57.4336 8.41258C57.4305 8.56188 57.4751 8.70818 57.5607 8.82966C57.6464 8.95113 57.7684 9.04127 57.9087 9.0866C58.4087 9.27596 58.9224 9.42582 59.4451 9.53483C59.8708 9.62867 60.2885 9.75623 60.6944 9.91632C61.1035 10.0748 61.4872 10.294 61.8328 10.5668C62.1703 10.8343 62.4489 11.1704 62.6508 11.5535C62.8666 11.9834 62.9731 12.4612 62.9605 12.9434C62.985 13.5279 62.8581 14.1087 62.5924 14.628C62.3267 15.1473 61.9314 15.5869 61.446 15.903C60.9826 16.2081 60.47 16.4282 59.9316 16.5534C59.3812 16.6869 58.8174 16.7548 58.2516 16.7556C57.3536 16.7557 56.4615 16.608 55.6101 16.3182C54.8042 16.0607 54.0671 15.6196 53.455 15.0288L55.4885 12.8537C55.8292 13.225 56.2348 13.5292 56.6846 13.7508C57.1509 13.9887 57.6659 14.1116 58.1878 14.1094C58.4912 14.1074 58.7899 14.0345 59.061 13.8964C59.1996 13.8305 59.3151 13.7233 59.3921 13.5892C59.4691 13.4551 59.5041 13.3003 59.4923 13.1456C59.4923 12.9783 59.4411 12.8153 59.3459 12.6787C59.2507 12.5422 59.1161 12.439 58.9607 12.3832C58.4235 12.1605 57.8674 11.9879 57.2993 11.8676C56.9083 11.7757 56.5241 11.6559 56.1497 11.509C55.7765 11.3655 55.4292 11.1605 55.1217 10.9024C54.8145 10.6419 54.5627 10.3209 54.3814 9.95879C54.1793 9.53969 54.0805 9.07709 54.0936 8.61074C54.0753 8.01063 54.2206 7.41703 54.5136 6.89535C54.7853 6.43339 55.1554 6.03889 55.5968 5.74075C56.0468 5.43821 56.5437 5.21447 57.0667 5.07886C57.5899 4.93887 58.1286 4.86729 58.6696 4.86587C59.492 4.86543 60.3092 4.99785 61.0905 5.25815C61.8357 5.49415 62.5193 5.89625 63.0914 6.43499L61.1058 8.52447ZM48.5694 16.395V5.22512H52.1951V16.3917L48.5694 16.395ZM46.8735 8.25553C46.7179 8.21199 46.5589 8.182 46.3983 8.16588C46.2433 8.15106 46.0922 8.14364 45.9451 8.14364C45.5206 8.1302 45.0993 8.22279 44.7184 8.41325C44.4114 8.57137 44.1399 8.79212 43.921 9.06166C43.7265 9.30706 43.5803 9.58804 43.4904 9.88936C43.4092 10.1424 43.3645 10.4059 43.3574 10.6719V16.3964H39.7317V5.23861H43.2245V6.85289H43.2684C43.5415 6.28966 43.9536 5.80763 44.4646 5.45362C44.9917 5.08989 45.6174 4.90145 46.2548 4.9144C46.3988 4.91426 46.5428 4.92168 46.6861 4.93664C46.8024 4.94695 46.9173 4.96955 47.029 5.00405L46.8735 8.25553ZM34.0214 16.395V10.2924C34.0225 9.99161 33.9965 9.69132 33.9437 9.39531C33.8993 9.13284 33.8136 8.87932 33.6898 8.64445C33.5734 8.42976 33.4012 8.25145 33.1921 8.12881C32.9447 7.99351 32.6662 7.92766 32.3853 7.93807C32.0906 7.93141 31.7986 7.99684 31.5341 8.12881C31.2934 8.25372 31.0852 8.43428 30.926 8.6559C30.7593 8.88935 30.6357 9.15151 30.5612 9.42968C30.4796 9.72517 30.4386 10.0307 30.4396 10.3376V16.3917H26.792V5.22512H30.3067V6.77538H30.3512C30.496 6.51975 30.6705 6.2826 30.8709 6.069C31.0899 5.833 31.3434 5.63251 31.6225 5.47451C31.9202 5.30535 32.2353 5.16973 32.5621 5.0701C32.9135 4.96367 33.2786 4.91074 33.6453 4.91305C34.2946 4.89388 34.9389 5.03255 35.5246 5.31746C36.0135 5.56439 36.4405 5.92098 36.7733 6.36018C37.0957 6.79865 37.3286 7.29796 37.4584 7.82887C37.597 8.37085 37.6675 8.92841 37.6684 9.48832V16.3944L34.0214 16.395ZM21.0178 16.395V14.8448H20.9733C20.8344 15.1077 20.6594 15.3494 20.4537 15.5626C20.2323 15.7929 19.9791 15.9893 19.7021 16.1456C19.4013 16.3162 19.0825 16.4519 18.7518 16.5501C18.3964 16.6559 18.0277 16.7088 17.6573 16.7071C17.0116 16.7273 16.3706 16.5886 15.7893 16.3027C15.3047 16.0538 14.8815 15.6974 14.5513 15.26C14.23 14.8251 13.9971 14.3297 13.8661 13.8027C13.7261 13.2574 13.6555 12.6961 13.6561 12.1325V5.22512H17.3038V11.2792C17.3028 11.5795 17.325 11.8795 17.3702 12.1763C17.409 12.4439 17.4952 12.7022 17.6247 12.9386C17.7424 13.1554 17.914 13.3372 18.1225 13.4657C18.3729 13.6039 18.6558 13.6698 18.9405 13.6565C19.2221 13.6713 19.5028 13.6132 19.7561 13.4876C20.0094 13.362 20.2271 13.1731 20.3885 12.9386C20.7217 12.4448 20.893 11.8571 20.8783 11.259V5.22512H24.504V16.3917L21.0178 16.395Z" fill="white"/>
</svg>
