<svg width="328" height="102" viewBox="0 0 328 102" fill="none" xmlns="http://www.w3.org/2000/svg">
<path d="M75.087 23L67.503 0.151999H72.687L77.839 17.88H77.903L83.599 0.151999H88.591L94.319 17.88H94.383L99.631 0.151999H104.623L96.943 23H91.759L86.063 5.464H85.999L80.271 23H75.087ZM124.779 15.64H108.779C108.8 16.1733 108.917 16.7173 109.131 17.272C109.344 17.8053 109.664 18.3173 110.091 18.808C110.539 19.2773 111.136 19.672 111.883 19.992C112.629 20.2907 113.515 20.44 114.539 20.44C115.904 20.44 116.96 20.2373 117.707 19.832C118.475 19.4053 119.104 18.7973 119.595 18.008H124.395C124.075 18.6267 123.691 19.2453 123.243 19.864C122.816 20.4613 122.229 21.048 121.483 21.624C120.736 22.2 119.787 22.68 118.635 23.064C117.504 23.448 116.181 23.64 114.667 23.64C112.832 23.64 111.232 23.3947 109.867 22.904C108.523 22.4133 107.435 21.752 106.603 20.92C105.771 20.0667 105.152 19.1067 104.747 18.04C104.363 16.9733 104.171 15.8533 104.171 14.68C104.171 13.2933 104.416 12.024 104.907 10.872C105.397 9.72 106.091 8.73867 106.987 7.928C107.904 7.11733 108.992 6.49867 110.251 6.072C111.509 5.624 112.885 5.4 114.379 5.4C116.192 5.4 117.76 5.656 119.083 6.168C120.427 6.68 121.515 7.384 122.347 8.28C123.179 9.176 123.787 10.2 124.171 11.352C124.576 12.4827 124.779 13.6987 124.779 15V15.64ZM108.779 12.824H120.171C120.043 12.0133 119.776 11.32 119.371 10.744C118.987 10.168 118.517 9.70933 117.963 9.368C117.408 9.02667 116.832 8.78133 116.235 8.632C115.637 8.48267 115.04 8.408 114.443 8.408C113.888 8.408 113.323 8.48267 112.747 8.632C112.171 8.78133 111.605 9.02667 111.051 9.368C110.517 9.688 110.048 10.136 109.643 10.712C109.237 11.288 108.949 11.992 108.779 12.824ZM156.21 11.992H151.602C151.432 11.096 150.909 10.3387 150.034 9.72C149.181 9.10133 148.136 8.792 146.898 8.792C144.978 8.792 143.517 9.34667 142.514 10.456C141.512 11.5653 141.01 12.92 141.01 14.52C141.01 15.2667 141.117 15.992 141.33 16.696C141.544 17.3787 141.874 17.9867 142.322 18.52C142.77 19.0533 143.336 19.48 144.018 19.8C144.701 20.0987 145.501 20.248 146.418 20.248C148.018 20.248 149.17 19.96 149.874 19.384C150.578 18.808 151.186 17.848 151.698 16.504H156.306C156.072 18.1253 155.528 19.4373 154.674 20.44C153.842 21.4427 152.904 22.168 151.858 22.616C150.834 23.064 149.906 23.3413 149.074 23.448C148.242 23.576 147.517 23.64 146.898 23.64C145.085 23.64 143.496 23.3947 142.13 22.904C140.786 22.4133 139.688 21.7413 138.834 20.888C138.002 20.0347 137.384 19.064 136.978 17.976C136.594 16.888 136.402 15.736 136.402 14.52C136.402 11.7467 137.341 9.53867 139.218 7.896C141.096 6.232 143.656 5.4 146.898 5.4C147.688 5.4 148.541 5.48533 149.458 5.656C150.397 5.82667 151.346 6.14667 152.306 6.616C153.266 7.08533 154.098 7.768 154.802 8.664C155.528 9.53867 155.997 10.648 156.21 11.992ZM158.085 23V6.04H162.501V9.336H162.565C163.269 8.20533 164.122 7.29867 165.125 6.616C166.127 5.93333 167.407 5.592 168.965 5.592C169.498 5.592 170.085 5.64533 170.725 5.752V10.104C170.191 9.93333 169.711 9.82667 169.285 9.784C168.858 9.72 168.399 9.688 167.909 9.688C167.29 9.688 166.671 9.77333 166.053 9.944C165.434 10.1147 164.847 10.4027 164.293 10.808C163.759 11.2133 163.322 11.7467 162.981 12.408C162.661 13.0693 162.501 13.8693 162.501 14.808V23H158.085ZM192.001 15.64H176.001C176.022 16.1733 176.14 16.7173 176.353 17.272C176.566 17.8053 176.886 18.3173 177.313 18.808C177.761 19.2773 178.358 19.672 179.105 19.992C179.852 20.2907 180.737 20.44 181.761 20.44C183.126 20.44 184.182 20.2373 184.929 19.832C185.697 19.4053 186.326 18.7973 186.817 18.008H191.617C191.297 18.6267 190.913 19.2453 190.465 19.864C190.038 20.4613 189.452 21.048 188.705 21.624C187.958 22.2 187.009 22.68 185.857 23.064C184.726 23.448 183.404 23.64 181.889 23.64C180.054 23.64 178.454 23.3947 177.089 22.904C175.745 22.4133 174.657 21.752 173.825 20.92C172.993 20.0667 172.374 19.1067 171.969 18.04C171.585 16.9733 171.393 15.8533 171.393 14.68C171.393 13.2933 171.638 12.024 172.129 10.872C172.62 9.72 173.313 8.73867 174.209 7.928C175.126 7.11733 176.214 6.49867 177.473 6.072C178.732 5.624 180.108 5.4 181.601 5.4C183.414 5.4 184.982 5.656 186.305 6.168C187.649 6.68 188.737 7.384 189.569 8.28C190.401 9.176 191.009 10.2 191.393 11.352C191.798 12.4827 192.001 13.6987 192.001 15V15.64ZM176.001 12.824H187.393C187.265 12.0133 186.998 11.32 186.593 10.744C186.209 10.168 185.74 9.70933 185.185 9.368C184.63 9.02667 184.054 8.78133 183.457 8.632C182.86 8.48267 182.262 8.408 181.665 8.408C181.11 8.408 180.545 8.48267 179.969 8.632C179.393 8.78133 178.828 9.02667 178.273 9.368C177.74 9.688 177.27 10.136 176.865 10.712C176.46 11.288 176.172 11.992 176.001 12.824ZM212.279 11.096V19.128C212.279 19.5333 212.375 19.8 212.567 19.928C212.759 20.0347 212.983 20.088 213.239 20.088C213.452 20.088 213.708 20.0773 214.007 20.056C214.305 20.0347 214.529 20.0133 214.679 19.992V23.096C214.572 23.1173 214.412 23.1493 214.199 23.192C213.708 23.2987 213.271 23.3733 212.887 23.416C212.524 23.4587 212.076 23.48 211.543 23.48C210.881 23.48 210.327 23.4053 209.879 23.256C209.452 23.1067 209.121 22.9147 208.887 22.68C208.652 22.4453 208.492 22.2213 208.407 22.008C208.321 21.7947 208.257 21.56 208.215 21.304C207.937 21.5813 207.596 21.848 207.191 22.104C206.807 22.3387 206.295 22.584 205.655 22.84C205.036 23.0747 204.268 23.2667 203.351 23.416C202.433 23.5653 201.399 23.64 200.247 23.64C198.049 23.64 196.343 23.1707 195.127 22.232C193.932 21.2933 193.335 19.992 193.335 18.328C193.335 17.24 193.58 16.3547 194.071 15.672C194.561 14.968 195.18 14.4347 195.927 14.072C196.695 13.7093 197.452 13.464 198.199 13.336C198.967 13.1867 199.873 13.0693 200.919 12.984H200.951C202.743 12.8133 204.055 12.6747 204.887 12.568C205.74 12.44 206.391 12.312 206.839 12.184C207.287 12.0347 207.585 11.864 207.735 11.672C207.884 11.4587 207.959 11.1813 207.959 10.84C207.959 9.944 207.521 9.31467 206.647 8.952C205.793 8.58933 204.631 8.408 203.159 8.408C200.236 8.408 198.689 9.34667 198.519 11.224H194.199C194.497 9.09067 195.393 7.58667 196.887 6.712C198.401 5.83733 200.492 5.4 203.159 5.4C205.249 5.4 206.924 5.58133 208.183 5.944C209.441 6.30667 210.359 6.776 210.935 7.352C211.532 7.90667 211.905 8.48267 212.055 9.08C212.204 9.67733 212.279 10.3493 212.279 11.096ZM207.863 16.184V14.552C207.265 14.808 206.604 15 205.879 15.128C205.153 15.2347 203.884 15.3947 202.071 15.608C200.471 15.8 199.383 16.088 198.807 16.472C198.231 16.856 197.943 17.4213 197.943 18.168C197.943 18.7013 198.049 19.1493 198.263 19.512C198.476 19.8533 198.753 20.12 199.095 20.312C199.457 20.504 199.841 20.6427 200.247 20.728C200.652 20.792 201.068 20.824 201.495 20.824C202.156 20.824 202.849 20.7493 203.575 20.6C204.3 20.4507 204.983 20.2053 205.623 19.864C206.284 19.5227 206.817 19.0427 207.223 18.424C207.649 17.8053 207.863 17.0587 207.863 16.184ZM217.018 18.264V9.24H213.498V6.04H217.018V0.792H221.434V6.04H226.042V9.24H221.434V16.984C221.434 18.0933 221.519 18.872 221.69 19.32C221.882 19.768 222.33 19.992 223.034 19.992C223.802 19.992 224.826 19.9707 226.106 19.928H226.202V23.128C225.541 23.2133 224.965 23.2773 224.474 23.32C224.005 23.3627 223.45 23.384 222.81 23.384C221.487 23.384 220.431 23.2667 219.642 23.032C218.874 22.8187 218.298 22.4987 217.914 22.072C217.551 21.624 217.306 21.112 217.178 20.536C217.071 19.9387 217.018 19.1813 217.018 18.264ZM247.777 15.64H231.777C231.799 16.1733 231.916 16.7173 232.129 17.272C232.343 17.8053 232.663 18.3173 233.089 18.808C233.537 19.2773 234.135 19.672 234.881 19.992C235.628 20.2907 236.513 20.44 237.537 20.44C238.903 20.44 239.959 20.2373 240.705 19.832C241.473 19.4053 242.103 18.7973 242.593 18.008H247.393C247.073 18.6267 246.689 19.2453 246.241 19.864C245.815 20.4613 245.228 21.048 244.481 21.624C243.735 22.2 242.785 22.68 241.633 23.064C240.503 23.448 239.18 23.64 237.665 23.64C235.831 23.64 234.231 23.3947 232.865 22.904C231.521 22.4133 230.433 21.752 229.601 20.92C228.769 20.0667 228.151 19.1067 227.745 18.04C227.361 16.9733 227.169 15.8533 227.169 14.68C227.169 13.2933 227.415 12.024 227.905 10.872C228.396 9.72 229.089 8.73867 229.985 7.928C230.903 7.11733 231.991 6.49867 233.249 6.072C234.508 5.624 235.884 5.4 237.377 5.4C239.191 5.4 240.759 5.656 242.081 6.168C243.425 6.68 244.513 7.384 245.345 8.28C246.177 9.176 246.785 10.2 247.169 11.352C247.575 12.4827 247.777 13.6987 247.777 15V15.64ZM231.777 12.824H243.169C243.041 12.0133 242.775 11.32 242.369 10.744C241.985 10.168 241.516 9.70933 240.961 9.368C240.407 9.02667 239.831 8.78133 239.233 8.632C238.636 8.48267 238.039 8.408 237.441 8.408C236.887 8.408 236.321 8.48267 235.745 8.632C235.169 8.78133 234.604 9.02667 234.049 9.368C233.516 9.688 233.047 10.136 232.641 10.712C232.236 11.288 231.948 11.992 231.777 12.824ZM63.2016 75.736V82.712H70.9136C72.3643 82.712 73.4203 82.4667 74.0816 81.976C74.7643 81.464 75.1056 80.5573 75.1056 79.256C75.1056 78.5733 74.999 78.008 74.7856 77.56C74.5723 77.0907 74.2843 76.728 73.9216 76.472C73.559 76.1947 73.143 76.0027 72.6736 75.896C72.2256 75.7893 71.7563 75.736 71.2656 75.736H63.2016ZM58.4016 95V72.152H72.4816C73.8256 72.152 74.9776 72.344 75.9376 72.728C76.8976 73.0907 77.6656 73.6027 78.2416 74.264C78.839 74.9253 79.2656 75.6827 79.5216 76.536C79.7776 77.3893 79.9056 78.296 79.9056 79.256C79.9056 80.152 79.7563 81.0267 79.4576 81.88C79.1803 82.712 78.7323 83.4587 78.1136 84.12C77.5163 84.7813 76.7483 85.3147 75.8096 85.72C74.871 86.104 73.783 86.296 72.5456 86.296H63.2016V95H58.4016ZM101.868 87.64H85.8679C85.8892 88.1733 86.0065 88.7173 86.2199 89.272C86.4332 89.8053 86.7532 90.3173 87.1799 90.808C87.6279 91.2773 88.2252 91.672 88.9719 91.992C89.7185 92.2907 90.6039 92.44 91.6279 92.44C92.9932 92.44 94.0492 92.2373 94.7959 91.832C95.5639 91.4053 96.1932 90.7973 96.6839 90.008H101.484C101.164 90.6267 100.78 91.2453 100.332 91.864C99.9052 92.4613 99.3185 93.048 98.5719 93.624C97.8252 94.2 96.8759 94.68 95.7239 95.064C94.5932 95.448 93.2705 95.64 91.7559 95.64C89.9212 95.64 88.3212 95.3947 86.9559 94.904C85.6119 94.4133 84.5239 93.752 83.6919 92.92C82.8599 92.0667 82.2412 91.1067 81.8359 90.04C81.4519 88.9733 81.2599 87.8533 81.2599 86.68C81.2599 85.2933 81.5052 84.024 81.9959 82.872C82.4865 81.72 83.1799 80.7387 84.0759 79.928C84.9932 79.1173 86.0812 78.4987 87.3399 78.072C88.5985 77.624 89.9745 77.4 91.4679 77.4C93.2812 77.4 94.8492 77.656 96.1719 78.168C97.5159 78.68 98.6039 79.384 99.4359 80.28C100.268 81.176 100.876 82.2 101.26 83.352C101.665 84.4827 101.868 85.6987 101.868 87V87.64ZM85.8679 84.824H97.2599C97.1319 84.0133 96.8652 83.32 96.4599 82.744C96.0759 82.168 95.6065 81.7093 95.0519 81.368C94.4972 81.0267 93.9212 80.7813 93.3239 80.632C92.7265 80.4827 92.1292 80.408 91.5319 80.408C90.9772 80.408 90.4119 80.4827 89.8359 80.632C89.2599 80.7813 88.6945 81.0267 88.1399 81.368C87.6065 81.688 87.1372 82.136 86.7319 82.712C86.3265 83.288 86.0385 83.992 85.8679 84.824ZM107.81 86.52C107.81 87.288 107.916 88.0133 108.13 88.696C108.364 89.3787 108.716 89.9867 109.186 90.52C109.655 91.0533 110.263 91.48 111.01 91.8C111.756 92.0987 112.652 92.248 113.698 92.248C114.743 92.248 115.639 92.0987 116.386 91.8C117.132 91.48 117.74 91.0533 118.21 90.52C118.679 89.9867 119.02 89.3787 119.234 88.696C119.468 88.0133 119.586 87.288 119.586 86.52C119.586 85.752 119.468 85.0267 119.234 84.344C119.02 83.6613 118.679 83.0533 118.21 82.52C117.74 81.9867 117.132 81.5707 116.386 81.272C115.639 80.952 114.743 80.792 113.698 80.792C112.652 80.792 111.756 80.952 111.01 81.272C110.263 81.5707 109.655 81.9867 109.186 82.52C108.716 83.0533 108.364 83.6613 108.13 84.344C107.916 85.0267 107.81 85.752 107.81 86.52ZM103.202 86.52C103.202 85.304 103.394 84.152 103.778 83.064C104.183 81.976 104.802 81.0053 105.634 80.152C106.487 79.2987 107.586 78.6267 108.93 78.136C110.295 77.6453 111.884 77.4 113.698 77.4C115.532 77.4 117.122 77.6453 118.466 78.136C119.81 78.6267 120.898 79.2987 121.73 80.152C122.583 81.0053 123.202 81.976 123.586 83.064C123.991 84.152 124.194 85.304 124.194 86.52C124.194 87.736 123.991 88.888 123.586 89.976C123.202 91.064 122.583 92.0347 121.73 92.888C120.898 93.7413 119.81 94.4133 118.466 94.904C117.122 95.3947 115.532 95.64 113.698 95.64C111.884 95.64 110.295 95.3947 108.93 94.904C107.586 94.4133 106.487 93.7413 105.634 92.888C104.802 92.0347 104.183 91.064 103.778 89.976C103.394 88.888 103.202 87.736 103.202 86.52ZM135.991 80.984C135.01 80.984 134.146 81.144 133.399 81.464C132.674 81.7627 132.077 82.1787 131.607 82.712C131.159 83.224 130.829 83.8107 130.615 84.472C130.402 85.1333 130.295 85.8373 130.295 86.584C130.295 87.3307 130.402 88.0453 130.615 88.728C130.829 89.3893 131.159 89.9867 131.607 90.52C132.077 91.0533 132.674 91.48 133.399 91.8C134.125 92.0987 134.989 92.248 135.991 92.248C136.994 92.248 137.858 92.0987 138.583 91.8C139.33 91.48 139.927 91.0533 140.375 90.52C140.845 89.9867 141.186 89.3893 141.399 88.728C141.613 88.0453 141.719 87.3307 141.719 86.584C141.719 85.8587 141.613 85.1653 141.399 84.504C141.186 83.8213 140.845 83.224 140.375 82.712C139.927 82.1787 139.33 81.7627 138.583 81.464C137.858 81.144 136.994 80.984 135.991 80.984ZM126.071 101.464V78.04H130.487V80.472H130.551C131.17 79.4907 132.055 78.7653 133.207 78.296C134.359 77.8267 135.639 77.592 137.047 77.592C138.605 77.592 139.97 77.848 141.143 78.36C142.317 78.872 143.287 79.5653 144.055 80.44C144.823 81.2933 145.389 82.2533 145.751 83.32C146.135 84.3867 146.327 85.4747 146.327 86.584C146.327 87.7147 146.135 88.824 145.751 89.912C145.389 90.9787 144.823 91.9493 144.055 92.824C143.309 93.6773 142.338 94.36 141.143 94.872C139.97 95.384 138.605 95.64 137.047 95.64C136.215 95.64 135.426 95.5333 134.679 95.32C133.933 95.128 133.261 94.872 132.663 94.552C132.066 94.232 131.586 93.912 131.223 93.592C130.861 93.2507 130.637 92.9413 130.551 92.664H130.487V101.464H126.071ZM148.333 95V71.768H152.749V95H148.333ZM175.559 87.64H159.559C159.58 88.1733 159.698 88.7173 159.911 89.272C160.124 89.8053 160.444 90.3173 160.871 90.808C161.319 91.2773 161.916 91.672 162.663 91.992C163.41 92.2907 164.295 92.44 165.319 92.44C166.684 92.44 167.74 92.2373 168.487 91.832C169.255 91.4053 169.884 90.7973 170.375 90.008H175.175C174.855 90.6267 174.471 91.2453 174.023 91.864C173.596 92.4613 173.01 93.048 172.263 93.624C171.516 94.2 170.567 94.68 169.415 95.064C168.284 95.448 166.962 95.64 165.447 95.64C163.612 95.64 162.012 95.3947 160.647 94.904C159.303 94.4133 158.215 93.752 157.383 92.92C156.551 92.0667 155.932 91.1067 155.527 90.04C155.143 88.9733 154.951 87.8533 154.951 86.68C154.951 85.2933 155.196 84.024 155.687 82.872C156.178 81.72 156.871 80.7387 157.767 79.928C158.684 79.1173 159.772 78.4987 161.031 78.072C162.29 77.624 163.666 77.4 165.159 77.4C166.972 77.4 168.54 77.656 169.863 78.168C171.207 78.68 172.295 79.384 173.127 80.28C173.959 81.176 174.567 82.2 174.951 83.352C175.356 84.4827 175.559 85.6987 175.559 87V87.64ZM159.559 84.824H170.951C170.823 84.0133 170.556 83.32 170.151 82.744C169.767 82.168 169.298 81.7093 168.743 81.368C168.188 81.0267 167.612 80.7813 167.015 80.632C166.418 80.4827 165.82 80.408 165.223 80.408C164.668 80.408 164.103 80.4827 163.527 80.632C162.951 80.7813 162.386 81.0267 161.831 81.368C161.298 81.688 160.828 82.136 160.423 82.712C160.018 83.288 159.73 83.992 159.559 84.824ZM188.463 95V72.152H193.263V91.224H207.151V95H188.463ZM212.175 86.52C212.175 87.288 212.281 88.0133 212.495 88.696C212.729 89.3787 213.081 89.9867 213.551 90.52C214.02 91.0533 214.628 91.48 215.375 91.8C216.121 92.0987 217.017 92.248 218.063 92.248C219.108 92.248 220.004 92.0987 220.751 91.8C221.497 91.48 222.105 91.0533 222.575 90.52C223.044 89.9867 223.385 89.3787 223.599 88.696C223.833 88.0133 223.951 87.288 223.951 86.52C223.951 85.752 223.833 85.0267 223.599 84.344C223.385 83.6613 223.044 83.0533 222.575 82.52C222.105 81.9867 221.497 81.5707 220.751 81.272C220.004 80.952 219.108 80.792 218.063 80.792C217.017 80.792 216.121 80.952 215.375 81.272C214.628 81.5707 214.02 81.9867 213.551 82.52C213.081 83.0533 212.729 83.6613 212.495 84.344C212.281 85.0267 212.175 85.752 212.175 86.52ZM207.567 86.52C207.567 85.304 207.759 84.152 208.143 83.064C208.548 81.976 209.167 81.0053 209.999 80.152C210.852 79.2987 211.951 78.6267 213.295 78.136C214.66 77.6453 216.249 77.4 218.063 77.4C219.897 77.4 221.487 77.6453 222.831 78.136C224.175 78.6267 225.263 79.2987 226.095 80.152C226.948 81.0053 227.567 81.976 227.951 83.064C228.356 84.152 228.559 85.304 228.559 86.52C228.559 87.736 228.356 88.888 227.951 89.976C227.567 91.064 226.948 92.0347 226.095 92.888C225.263 93.7413 224.175 94.4133 222.831 94.904C221.487 95.3947 219.897 95.64 218.063 95.64C216.249 95.64 214.66 95.3947 213.295 94.904C211.951 94.4133 210.852 93.7413 209.999 92.888C209.167 92.0347 208.548 91.064 208.143 89.976C207.759 88.888 207.567 87.736 207.567 86.52ZM236.356 95L228.612 78.04H233.604L238.66 90.648L243.908 78.04H248.9L241.156 95H236.356ZM269.697 87.64H253.697C253.718 88.1733 253.835 88.7173 254.049 89.272C254.262 89.8053 254.582 90.3173 255.009 90.808C255.457 91.2773 256.054 91.672 256.801 91.992C257.547 92.2907 258.433 92.44 259.457 92.44C260.822 92.44 261.878 92.2373 262.625 91.832C263.393 91.4053 264.022 90.7973 264.513 90.008H269.313C268.993 90.6267 268.609 91.2453 268.161 91.864C267.734 92.4613 267.147 93.048 266.401 93.624C265.654 94.2 264.705 94.68 263.553 95.064C262.422 95.448 261.099 95.64 259.585 95.64C257.75 95.64 256.15 95.3947 254.785 94.904C253.441 94.4133 252.353 93.752 251.521 92.92C250.689 92.0667 250.07 91.1067 249.665 90.04C249.281 88.9733 249.089 87.8533 249.089 86.68C249.089 85.2933 249.334 84.024 249.825 82.872C250.315 81.72 251.009 80.7387 251.905 79.928C252.822 79.1173 253.91 78.4987 255.169 78.072C256.427 77.624 257.803 77.4 259.297 77.4C261.11 77.4 262.678 77.656 264.001 78.168C265.345 78.68 266.433 79.384 267.265 80.28C268.097 81.176 268.705 82.2 269.089 83.352C269.494 84.4827 269.697 85.6987 269.697 87V87.64ZM253.697 84.824H265.089C264.961 84.0133 264.694 83.32 264.289 82.744C263.905 82.168 263.435 81.7093 262.881 81.368C262.326 81.0267 261.75 80.7813 261.153 80.632C260.555 80.4827 259.958 80.408 259.361 80.408C258.806 80.408 258.241 80.4827 257.665 80.632C257.089 80.7813 256.523 81.0267 255.969 81.368C255.435 81.688 254.966 82.136 254.561 82.712C254.155 83.288 253.867 83.992 253.697 84.824Z" fill="#787878"/>
<path d="M5.76037 39.736V55.416H12.5124C13.4937 55.416 14.3897 55.32 15.2004 55.128C16.011 54.9147 16.7577 54.5307 17.4404 53.976C18.123 53.4 18.6564 52.6 19.0404 51.576C19.4457 50.5307 19.6484 49.208 19.6484 47.608C19.6484 45.8587 19.403 44.4507 18.9124 43.384C18.443 42.296 17.8244 41.496 17.0564 40.984C16.3097 40.4507 15.5417 40.1093 14.7524 39.96C13.963 39.8107 13.131 39.736 12.2564 39.736H5.76037ZM0.960375 59V36.152H13.2804C15.4564 36.152 17.2697 36.44 18.7204 37.016C20.1924 37.592 21.3444 38.4027 22.1764 39.448C23.0084 40.4933 23.595 41.7093 23.9364 43.096C24.2777 44.4827 24.4484 46.0507 24.4484 47.8C24.4484 49.144 24.2777 50.4667 23.9364 51.768C23.6164 53.048 23.0617 54.2427 22.2724 55.352C21.5044 56.44 20.4697 57.3253 19.1684 58.008C17.867 58.6693 16.2884 59 14.4324 59H0.960375ZM26.8344 59V42.04H31.2504V59H26.8344ZM26.8344 39.352V35.768H31.2504V39.352H26.8344ZM37.7404 50.168C37.7404 50.8293 37.847 51.4693 38.0604 52.088C38.2737 52.7067 38.6257 53.272 39.1164 53.784C39.607 54.2747 40.247 54.6693 41.0364 54.968C41.8257 55.2667 42.775 55.416 43.8844 55.416C45.5697 55.416 46.935 54.9253 47.9804 53.944C49.047 52.9627 49.5804 51.6827 49.5804 50.104C49.5804 49.144 49.3777 48.3333 48.9724 47.672C48.5884 46.9893 48.087 46.456 47.4684 46.072C46.8497 45.688 46.1884 45.4107 45.4844 45.24C44.8017 45.0693 44.1404 44.984 43.5004 44.984C41.8364 44.984 40.4604 45.4747 39.3724 46.456C38.2844 47.416 37.7404 48.6533 37.7404 50.168ZM49.5804 41.976H53.9964V58.424C53.9964 59.4907 53.815 60.472 53.4524 61.368C53.0897 62.2853 52.503 63.0853 51.6924 63.768C50.903 64.472 49.8577 65.0267 48.5564 65.432C47.2764 65.8373 45.7297 66.04 43.9164 66.04C42.5297 66.04 41.2604 65.9547 40.1084 65.784C38.9564 65.6133 37.9324 65.3147 37.0364 64.888C36.1617 64.4827 35.447 63.9173 34.8924 63.192C34.359 62.4667 34.0497 61.5707 33.9644 60.504H38.5724C38.7857 61.5067 39.319 62.1787 40.1724 62.52C41.047 62.8613 42.2524 63.032 43.7884 63.032C45.0044 63.032 45.9964 62.8827 46.7644 62.584C47.5537 62.3067 48.1404 61.9333 48.5244 61.464C48.9297 60.9947 49.207 60.4827 49.3564 59.928C49.5057 59.3733 49.5804 58.776 49.5804 58.136V56.088H49.4844C48.4604 57.048 47.383 57.7413 46.2524 58.168C45.143 58.5947 43.9164 58.808 42.5724 58.808C41.399 58.808 40.247 58.648 39.1164 58.328C38.007 58.008 36.9937 57.5067 36.0764 56.824C35.1804 56.1413 34.4657 55.256 33.9324 54.168C33.399 53.0587 33.1324 51.7467 33.1324 50.232C33.1324 49.1013 33.3137 48.024 33.6764 47C34.0604 45.976 34.6364 45.0587 35.4044 44.248C36.1937 43.416 37.1857 42.7653 38.3804 42.296C39.575 41.8267 40.9617 41.592 42.5404 41.592C44.247 41.592 45.7084 41.848 46.9244 42.36C48.1404 42.872 49.0044 43.576 49.5164 44.472H49.5804V41.976ZM56.8831 59V42.04H61.2991V59H56.8831ZM56.8831 39.352V35.768H61.2991V39.352H56.8831ZM65.4211 54.264V45.24H61.9011V42.04H65.4211V36.792H69.8371V42.04H74.4451V45.24H69.8371V52.984C69.8371 54.0933 69.9225 54.872 70.0931 55.32C70.2851 55.768 70.7331 55.992 71.4371 55.992C72.2051 55.992 73.2291 55.9707 74.5091 55.928H74.6051V59.128C73.9438 59.2133 73.3678 59.2773 72.8771 59.32C72.4078 59.3627 71.8531 59.384 71.2131 59.384C69.8905 59.384 68.8345 59.2667 68.0451 59.032C67.2771 58.8187 66.7011 58.4987 66.3171 58.072C65.9545 57.624 65.7091 57.112 65.5811 56.536C65.4745 55.9387 65.4211 55.1813 65.4211 54.264ZM94.3244 47.096V55.128C94.3244 55.5333 94.4204 55.8 94.6124 55.928C94.8044 56.0347 95.0284 56.088 95.2844 56.088C95.4977 56.088 95.7537 56.0773 96.0524 56.056C96.351 56.0347 96.575 56.0133 96.7244 55.992V59.096C96.6177 59.1173 96.4577 59.1493 96.2444 59.192C95.7537 59.2987 95.3164 59.3733 94.9324 59.416C94.5697 59.4587 94.1217 59.48 93.5884 59.48C92.927 59.48 92.3724 59.4053 91.9244 59.256C91.4977 59.1067 91.167 58.9147 90.9324 58.68C90.6977 58.4453 90.5377 58.2213 90.4524 58.008C90.367 57.7947 90.303 57.56 90.2604 57.304C89.983 57.5813 89.6417 57.848 89.2364 58.104C88.8524 58.3387 88.3404 58.584 87.7004 58.84C87.0817 59.0747 86.3137 59.2667 85.3964 59.416C84.479 59.5653 83.4444 59.64 82.2924 59.64C80.095 59.64 78.3884 59.1707 77.1724 58.232C75.9777 57.2933 75.3804 55.992 75.3804 54.328C75.3804 53.24 75.6257 52.3547 76.1164 51.672C76.607 50.968 77.2257 50.4347 77.9724 50.072C78.7404 49.7093 79.4977 49.464 80.2444 49.336C81.0124 49.1867 81.919 49.0693 82.9644 48.984H82.9964C84.7884 48.8133 86.1004 48.6747 86.9324 48.568C87.7857 48.44 88.4364 48.312 88.8844 48.184C89.3324 48.0347 89.631 47.864 89.7804 47.672C89.9297 47.4587 90.0044 47.1813 90.0044 46.84C90.0044 45.944 89.567 45.3147 88.6924 44.952C87.839 44.5893 86.6764 44.408 85.2044 44.408C82.2817 44.408 80.735 45.3467 80.5644 47.224H76.2444C76.543 45.0907 77.439 43.5867 78.9324 42.712C80.447 41.8373 82.5377 41.4 85.2044 41.4C87.295 41.4 88.9697 41.5813 90.2284 41.944C91.487 42.3067 92.4044 42.776 92.9804 43.352C93.5777 43.9067 93.951 44.4827 94.1004 45.08C94.2497 45.6773 94.3244 46.3493 94.3244 47.096ZM89.9084 52.184V50.552C89.311 50.808 88.6497 51 87.9244 51.128C87.199 51.2347 85.9297 51.3947 84.1164 51.608C82.5164 51.8 81.4284 52.088 80.8524 52.472C80.2764 52.856 79.9884 53.4213 79.9884 54.168C79.9884 54.7013 80.095 55.1493 80.3084 55.512C80.5217 55.8533 80.799 56.12 81.1404 56.312C81.503 56.504 81.887 56.6427 82.2924 56.728C82.6977 56.792 83.1137 56.824 83.5404 56.824C84.2017 56.824 84.895 56.7493 85.6204 56.6C86.3457 56.4507 87.0284 56.2053 87.6684 55.864C88.3297 55.5227 88.863 55.0427 89.2684 54.424C89.695 53.8053 89.9084 53.0587 89.9084 52.184ZM97.8156 59V35.768H102.232V59H97.8156ZM115.812 59V36.152H135.652V39.736H120.612V45.496H135.044V49.08H120.612V55.416H135.908V59H115.812ZM135.978 59L143.594 50.264L136.522 42.04H142.218L146.57 47.544L151.018 42.04H156.714L149.578 50.264L157.226 59H151.338L146.57 52.984L141.674 59H135.978ZM167.736 44.984C166.755 44.984 165.891 45.144 165.144 45.464C164.419 45.7627 163.822 46.1787 163.352 46.712C162.904 47.224 162.574 47.8107 162.36 48.472C162.147 49.1333 162.04 49.8373 162.04 50.584C162.04 51.3307 162.147 52.0453 162.36 52.728C162.574 53.3893 162.904 53.9867 163.352 54.52C163.822 55.0533 164.419 55.48 165.144 55.8C165.87 56.0987 166.734 56.248 167.736 56.248C168.739 56.248 169.603 56.0987 170.328 55.8C171.075 55.48 171.672 55.0533 172.12 54.52C172.59 53.9867 172.931 53.3893 173.144 52.728C173.358 52.0453 173.464 51.3307 173.464 50.584C173.464 49.8587 173.358 49.1653 173.144 48.504C172.931 47.8213 172.59 47.224 172.12 46.712C171.672 46.1787 171.075 45.7627 170.328 45.464C169.603 45.144 168.739 44.984 167.736 44.984ZM157.816 65.464V42.04H162.232V44.472H162.296C162.915 43.4907 163.8 42.7653 164.952 42.296C166.104 41.8267 167.384 41.592 168.792 41.592C170.35 41.592 171.715 41.848 172.888 42.36C174.062 42.872 175.032 43.5653 175.8 44.44C176.568 45.2933 177.134 46.2533 177.496 47.32C177.88 48.3867 178.072 49.4747 178.072 50.584C178.072 51.7147 177.88 52.824 177.496 53.912C177.134 54.9787 176.568 55.9493 175.8 56.824C175.054 57.6773 174.083 58.36 172.888 58.872C171.715 59.384 170.35 59.64 168.792 59.64C167.96 59.64 167.171 59.5333 166.424 59.32C165.678 59.128 165.006 58.872 164.408 58.552C163.811 58.232 163.331 57.912 162.968 57.592C162.606 57.2507 162.382 56.9413 162.296 56.664H162.232V65.464H157.816ZM200.014 51.64H184.014C184.035 52.1733 184.153 52.7173 184.366 53.272C184.579 53.8053 184.899 54.3173 185.326 54.808C185.774 55.2773 186.371 55.672 187.118 55.992C187.865 56.2907 188.75 56.44 189.774 56.44C191.139 56.44 192.195 56.2373 192.942 55.832C193.71 55.4053 194.339 54.7973 194.83 54.008H199.63C199.31 54.6267 198.926 55.2453 198.478 55.864C198.051 56.4613 197.465 57.048 196.718 57.624C195.971 58.2 195.022 58.68 193.87 59.064C192.739 59.448 191.417 59.64 189.902 59.64C188.067 59.64 186.467 59.3947 185.102 58.904C183.758 58.4133 182.67 57.752 181.838 56.92C181.006 56.0667 180.387 55.1067 179.982 54.04C179.598 52.9733 179.406 51.8533 179.406 50.68C179.406 49.2933 179.651 48.024 180.142 46.872C180.633 45.72 181.326 44.7387 182.222 43.928C183.139 43.1173 184.227 42.4987 185.486 42.072C186.745 41.624 188.121 41.4 189.614 41.4C191.427 41.4 192.995 41.656 194.318 42.168C195.662 42.68 196.75 43.384 197.582 44.28C198.414 45.176 199.022 46.2 199.406 47.352C199.811 48.4827 200.014 49.6987 200.014 51V51.64ZM184.014 48.824H195.406C195.278 48.0133 195.011 47.32 194.606 46.744C194.222 46.168 193.753 45.7093 193.198 45.368C192.643 45.0267 192.067 44.7813 191.47 44.632C190.873 44.4827 190.275 44.408 189.678 44.408C189.123 44.408 188.558 44.4827 187.982 44.632C187.406 44.7813 186.841 45.0267 186.286 45.368C185.753 45.688 185.283 46.136 184.878 46.712C184.473 47.288 184.185 47.992 184.014 48.824ZM202.084 59V42.04H206.5V45.336H206.564C207.268 44.2053 208.121 43.2987 209.124 42.616C210.127 41.9333 211.407 41.592 212.964 41.592C213.497 41.592 214.084 41.6453 214.724 41.752V46.104C214.191 45.9333 213.711 45.8267 213.284 45.784C212.857 45.72 212.399 45.688 211.908 45.688C211.289 45.688 210.671 45.7733 210.052 45.944C209.433 46.1147 208.847 46.4027 208.292 46.808C207.759 47.2133 207.321 47.7467 206.98 48.408C206.66 49.0693 206.5 49.8693 206.5 50.808V59H202.084ZM216.064 59V42.04H220.48V59H216.064ZM216.064 39.352V35.768H220.48V39.352H216.064ZM243.29 51.64H227.29C227.312 52.1733 227.429 52.7173 227.642 53.272C227.856 53.8053 228.176 54.3173 228.602 54.808C229.05 55.2773 229.648 55.672 230.394 55.992C231.141 56.2907 232.026 56.44 233.05 56.44C234.416 56.44 235.472 56.2373 236.218 55.832C236.986 55.4053 237.616 54.7973 238.106 54.008H242.906C242.586 54.6267 242.202 55.2453 241.754 55.864C241.328 56.4613 240.741 57.048 239.994 57.624C239.248 58.2 238.298 58.68 237.146 59.064C236.016 59.448 234.693 59.64 233.178 59.64C231.344 59.64 229.744 59.3947 228.378 58.904C227.034 58.4133 225.946 57.752 225.114 56.92C224.282 56.0667 223.664 55.1067 223.258 54.04C222.874 52.9733 222.682 51.8533 222.682 50.68C222.682 49.2933 222.928 48.024 223.418 46.872C223.909 45.72 224.602 44.7387 225.498 43.928C226.416 43.1173 227.504 42.4987 228.762 42.072C230.021 41.624 231.397 41.4 232.89 41.4C234.704 41.4 236.272 41.656 237.594 42.168C238.938 42.68 240.026 43.384 240.858 44.28C241.69 45.176 242.298 46.2 242.682 47.352C243.088 48.4827 243.29 49.6987 243.29 51V51.64ZM227.29 48.824H238.682C238.554 48.0133 238.288 47.32 237.882 46.744C237.498 46.168 237.029 45.7093 236.474 45.368C235.92 45.0267 235.344 44.7813 234.746 44.632C234.149 44.4827 233.552 44.408 232.954 44.408C232.4 44.408 231.834 44.4827 231.258 44.632C230.682 44.7813 230.117 45.0267 229.562 45.368C229.029 45.688 228.56 46.136 228.154 46.712C227.749 47.288 227.461 47.992 227.29 48.824ZM245.36 59V42.04H249.776V44.6H249.84C250.587 43.6613 251.525 42.9253 252.656 42.392C253.787 41.8587 255.077 41.592 256.528 41.592C257.509 41.592 258.416 41.688 259.248 41.88C260.101 42.072 260.859 42.4027 261.52 42.872C262.203 43.32 262.736 43.928 263.12 44.696C263.525 45.4427 263.728 46.3707 263.728 47.48V59H259.312V48.888C259.312 48.376 259.248 47.896 259.12 47.448C259.013 47 258.811 46.5947 258.512 46.232C258.213 45.848 257.776 45.5493 257.2 45.336C256.645 45.1013 255.931 44.984 255.056 44.984C254.437 44.984 253.819 45.08 253.2 45.272C252.603 45.4427 252.037 45.72 251.504 46.104C250.992 46.488 250.576 47 250.256 47.64C249.936 48.28 249.776 49.0267 249.776 49.88V59H245.36ZM285.41 47.992H280.802C280.631 47.096 280.108 46.3387 279.234 45.72C278.38 45.1013 277.335 44.792 276.098 44.792C274.178 44.792 272.716 45.3467 271.714 46.456C270.711 47.5653 270.21 48.92 270.21 50.52C270.21 51.2667 270.316 51.992 270.53 52.696C270.743 53.3787 271.074 53.9867 271.522 54.52C271.97 55.0533 272.535 55.48 273.218 55.8C273.9 56.0987 274.7 56.248 275.618 56.248C277.218 56.248 278.37 55.96 279.074 55.384C279.778 54.808 280.386 53.848 280.898 52.504H285.506C285.271 54.1253 284.727 55.4373 283.874 56.44C283.042 57.4427 282.103 58.168 281.058 58.616C280.034 59.064 279.106 59.3413 278.274 59.448C277.442 59.576 276.716 59.64 276.098 59.64C274.284 59.64 272.695 59.3947 271.33 58.904C269.986 58.4133 268.887 57.7413 268.034 56.888C267.202 56.0347 266.583 55.064 266.178 53.976C265.794 52.888 265.602 51.736 265.602 50.52C265.602 47.7467 266.54 45.5387 268.418 43.896C270.295 42.232 272.855 41.4 276.098 41.4C276.887 41.4 277.74 41.4853 278.658 41.656C279.596 41.8267 280.546 42.1467 281.506 42.616C282.466 43.0853 283.298 43.768 284.002 44.664C284.727 45.5387 285.196 46.648 285.41 47.992ZM307.348 51.64H291.348C291.369 52.1733 291.487 52.7173 291.7 53.272C291.913 53.8053 292.233 54.3173 292.66 54.808C293.108 55.2773 293.705 55.672 294.452 55.992C295.199 56.2907 296.084 56.44 297.108 56.44C298.473 56.44 299.529 56.2373 300.276 55.832C301.044 55.4053 301.673 54.7973 302.164 54.008H306.964C306.644 54.6267 306.26 55.2453 305.812 55.864C305.385 56.4613 304.799 57.048 304.052 57.624C303.305 58.2 302.356 58.68 301.204 59.064C300.073 59.448 298.751 59.64 297.236 59.64C295.401 59.64 293.801 59.3947 292.436 58.904C291.092 58.4133 290.004 57.752 289.172 56.92C288.34 56.0667 287.721 55.1067 287.316 54.04C286.932 52.9733 286.74 51.8533 286.74 50.68C286.74 49.2933 286.985 48.024 287.476 46.872C287.967 45.72 288.66 44.7387 289.556 43.928C290.473 43.1173 291.561 42.4987 292.82 42.072C294.079 41.624 295.455 41.4 296.948 41.4C298.761 41.4 300.329 41.656 301.652 42.168C302.996 42.68 304.084 43.384 304.916 44.28C305.748 45.176 306.356 46.2 306.74 47.352C307.145 48.4827 307.348 49.6987 307.348 51V51.64ZM291.348 48.824H302.74C302.612 48.0133 302.345 47.32 301.94 46.744C301.556 46.168 301.087 45.7093 300.532 45.368C299.977 45.0267 299.401 44.7813 298.804 44.632C298.207 44.4827 297.609 44.408 297.012 44.408C296.457 44.408 295.892 44.4827 295.316 44.632C294.74 44.7813 294.175 45.0267 293.62 45.368C293.087 45.688 292.617 46.136 292.212 46.712C291.807 47.288 291.519 47.992 291.348 48.824ZM308.554 53.688H313.354C313.375 54.2853 313.546 54.7867 313.866 55.192C314.186 55.576 314.58 55.8747 315.05 56.088C315.54 56.3013 316.031 56.4507 316.522 56.536C317.034 56.6 317.535 56.632 318.026 56.632C319.284 56.632 320.362 56.4613 321.258 56.12C322.175 55.7573 322.634 55.2027 322.634 54.456C322.634 54.0933 322.559 53.8053 322.41 53.592C322.282 53.3573 322.036 53.1653 321.674 53.016C321.311 52.8453 320.767 52.6853 320.042 52.536C319.338 52.3867 318.367 52.2267 317.13 52.056C315.594 51.8427 314.367 51.64 313.45 51.448C312.532 51.256 311.743 50.9893 311.082 50.648C310.442 50.2853 309.951 49.8053 309.61 49.208C309.29 48.5893 309.13 47.8107 309.13 46.872C309.13 45.7413 309.418 44.8027 309.994 44.056C310.57 43.3093 311.295 42.7547 312.17 42.392C313.044 42.008 313.951 41.752 314.89 41.624C315.828 41.4747 316.735 41.4 317.61 41.4C318.527 41.4 319.455 41.464 320.394 41.592C321.332 41.6987 322.282 41.944 323.242 42.328C324.202 42.712 325.012 43.3093 325.674 44.12C326.356 44.9093 326.73 45.944 326.794 47.224H322.186C322.1 46.6267 321.876 46.136 321.514 45.752C321.172 45.368 320.756 45.08 320.266 44.888C319.796 44.696 319.316 44.568 318.826 44.504C318.335 44.44 317.855 44.408 317.386 44.408C316.212 44.408 315.274 44.6107 314.57 45.016C313.887 45.4213 313.546 45.8693 313.546 46.36C313.546 46.7227 313.588 47.0107 313.674 47.224C313.78 47.4373 313.983 47.6187 314.282 47.768C314.58 47.896 315.039 48.024 315.658 48.152C316.276 48.28 317.13 48.4187 318.218 48.568C320.01 48.824 321.386 49.048 322.346 49.24C323.327 49.432 324.212 49.7093 325.002 50.072C325.791 50.4347 326.388 50.9253 326.794 51.544C327.22 52.1413 327.434 52.9093 327.434 53.848C327.434 54.8933 327.199 55.7893 326.73 56.536C326.26 57.2827 325.599 57.8907 324.746 58.36C323.914 58.808 322.932 59.128 321.802 59.32C320.671 59.5333 319.423 59.64 318.058 59.64C316.991 59.64 315.924 59.5653 314.858 59.416C313.812 59.2667 312.82 58.9787 311.882 58.552C310.943 58.1253 310.164 57.5173 309.546 56.728C308.927 55.9173 308.596 54.904 308.554 53.688Z" fill="url(#paint0_linear_795_1150)"/>
<defs>
<linearGradient id="paint0_linear_795_1150" x1="-3" y1="43.5086" x2="290" y2="43.5086" gradientUnits="userSpaceOnUse">
<stop stop-color="#3652A1"/>
<stop offset="1" stop-color="#40AAE0"/>
</linearGradient>
</defs>
</svg>
