<svg width="50" height="22" viewBox="0 0 50 22" fill="none" xmlns="http://www.w3.org/2000/svg">
<path d="M35.4353 0.107016C34.8031 -0.0356719 34.1466 -0.0356719 33.4901 0.107016C32.8336 0.249703 32.4446 0.653984 32.2987 1.29608C32.2258 1.60523 32.2015 5.19619 32.2015 9.1201C32.2015 12.3068 32.2258 17.3246 32.2987 17.6338C32.4446 18.2759 32.8336 18.6564 33.4901 18.7991C34.1223 18.9417 34.7788 18.9417 35.4353 18.7991C36.0918 18.6564 36.4808 18.2521 36.6267 17.61C36.6997 17.3008 36.724 12.0214 36.724 9.07253C36.724 5.19619 36.6997 1.55767 36.6267 1.24851C36.4565 0.653981 36.0675 0.249703 35.4353 0.107016Z" fill="white"/>
<path d="M29.1986 3.60048C28.5664 3.45779 27.9099 3.45779 27.2534 3.60048C26.5969 3.74317 26.2079 4.14745 26.062 4.78954C25.9891 5.0987 25.9648 7.07253 25.9648 10.9964C25.9648 14.1831 25.9891 17.3223 26.062 17.6314C26.2079 18.2735 26.5969 18.654 27.2534 18.7967C27.8856 18.9394 28.5421 18.9394 29.1743 18.7967C29.8308 18.654 30.2198 18.2497 30.3657 17.6076C30.4387 17.2985 30.463 13.8978 30.463 10.9489C30.463 7.07254 30.4387 5.05113 30.3657 4.74198C30.2198 4.14744 29.8308 3.74317 29.1986 3.60048Z" fill="white"/>
<path d="M8.61382 7.5648C7.90869 7.5648 7.34946 8.11177 7.34946 8.80143C7.34946 8.80143 7.34946 11.9643 7.32514 12.7729C7.30083 13.3674 7.00905 13.7479 6.40119 13.843C5.98784 13.9144 5.55017 13.8906 5.13682 13.843C4.62622 13.7955 4.33444 13.4625 4.21287 12.9869C4.13993 12.7491 4.06698 10.2759 4.06698 10.2759C4.06698 8.77764 2.82693 7.54102 1.2708 7.54102C0.56567 7.54102 0.00643032 8.08799 0.00643032 8.77765C0.00643032 8.77765 -0.042199 12.7491 0.128004 13.6528C0.346835 14.6754 0.930392 15.3888 1.90298 15.8407C2.85125 16.2925 3.89678 16.3639 4.94231 16.3401C5.74469 16.3163 6.52276 16.2212 7.22788 15.8169C7.32514 15.7693 7.39808 15.7693 7.39808 15.912C7.39808 16.9822 7.15494 17.7194 5.98784 17.9572C5.47723 18.0761 4.94231 18.0999 4.40738 18.0999C3.36185 18.0999 2.31633 18.0285 1.39237 17.5767C0.906075 17.3627 0.346837 17.7194 0.395466 18.2426C0.541354 19.5743 1.27079 20.4542 2.58379 20.7634C4.48033 21.2152 6.40119 21.1439 8.29773 20.692C9.44052 20.4305 10.2672 19.8359 10.7778 18.9322C10.8994 18.742 11.41 17.8859 11.41 16.5541V10.2996C11.3857 8.80143 10.1456 7.5648 8.61382 7.5648Z" fill="white"/>
<path d="M45.4894 14.4756C45.2949 15.4031 44.5168 15.8549 43.6658 15.8312C42.8148 15.8312 42.0367 15.3793 41.8422 14.4756C41.672 13.7146 41.6477 12.9061 41.7693 12.1213C41.8422 11.5743 41.9638 10.9322 42.4501 10.5755C42.7662 10.3377 43.2525 10.2426 43.6901 10.2426C44.1521 10.2426 44.6141 10.3377 44.9302 10.5755C45.4165 10.9322 45.538 11.5743 45.611 12.1213C45.6596 12.9061 45.6596 13.7146 45.4894 14.4756ZM49.1852 10.7182C48.9664 9.71939 48.4315 8.79192 47.5318 8.24495C46.4134 7.55529 44.8815 7.46016 43.5929 7.46016C42.3285 7.46016 40.821 7.57907 39.7512 8.26873C38.9245 8.81569 38.4382 9.67182 38.2193 10.5993C37.9032 12.0262 37.8546 13.5482 38.0978 14.9988C38.268 16.069 38.6327 17.1153 39.5566 17.805C40.5779 18.5898 41.9881 18.7325 43.2282 18.78C44.5411 18.8276 46.0487 18.78 47.2401 18.2093C48.3099 17.7099 48.9664 16.7586 49.2096 15.6409C49.55 14.0476 49.55 12.3115 49.1852 10.7182Z" fill="white"/>
<path d="M20.1438 14.5375C19.9493 15.4649 19.1713 15.9168 18.3202 15.893C17.4692 15.893 16.6912 15.4411 16.4966 14.5375C16.3264 13.7765 16.3021 12.9679 16.4237 12.1831C16.4966 11.6362 16.6182 10.9941 17.1045 10.6373C17.4206 10.3995 17.9069 10.3044 18.3446 10.3044C18.8065 10.3044 19.2685 10.3995 19.5846 10.6373C20.0709 10.9941 20.1925 11.6362 20.2654 12.1831C20.3384 12.9679 20.314 13.7765 20.1438 14.5375ZM24.2287 8.63972C24.0828 7.78359 23.3047 7.52199 22.5024 7.49821C21.7 7.45065 20.6788 7.56956 20.387 8.42569C18.0042 7.16528 13.9922 7.37931 13.0926 10.3282C12.6063 11.9453 12.6306 13.8002 12.971 15.4412C13.2385 16.7016 13.9679 17.7479 15.208 18.1998C16.8371 18.7943 18.8552 18.6278 20.3627 17.8193C20.6301 18.6041 21.5055 18.7705 22.2592 18.7705C22.9643 18.7705 23.791 18.6516 24.1071 17.9382C24.2287 17.6528 24.2287 17.3436 24.2287 17.0345C24.253 16.5589 24.2773 12.7063 24.2773 11.2319C24.3016 10.6849 24.3016 9.11534 24.2287 8.63972Z" fill="white"/>
</svg>
